<svg width="250" height="163" viewBox="0 0 250 163" fill="none" xmlns="http://www.w3.org/2000/svg">
<path d="M140.918 92.1367C143.523 89.675 147.275 85.6597 150.406 79.9474C159.022 64.197 153 53.7524 161.245 40.6549C161.95 39.5316 167.364 34.9426 178.179 25.7529C197.144 9.64389 200.837 7.82745 205.282 6.78777C211.102 5.42544 212.094 6.84753 224.247 4.75623C228.155 4.08701 230.641 3.4895 238.48 2.04351C243.356 1.14724 247.347 0.454124 250 0.0119629C246.941 2.25862 239.627 8.29351 235.767 18.9771C232.839 27.1033 233.246 34.2137 233.736 37.9422C230.437 40.631 224.904 45.8652 220.865 54.2065C216.145 63.9579 215.93 72.849 216.121 77.2467C212.608 79.1946 204.661 84.2256 199.187 94.1802C192.447 106.441 193.846 118.224 194.443 121.953C193.475 122.729 190.667 125.179 189.699 129.41C188.289 135.528 191.898 140.284 192.412 140.93C191.217 141.969 188.169 144.885 186.986 149.737C185.385 156.298 188.36 161.52 189.018 162.608C185.492 159.166 178.525 153.286 168.021 149.737C158.604 146.558 150.43 146.63 145.662 147.024C131.632 133.867 113.492 129.326 99.6893 135.672C93.1166 138.695 88.7667 143.607 86.0421 147.706C84.6439 145.817 75.6095 134.082 59.62 132.804C47.9087 131.859 39.3045 137.082 36.5798 138.898C34.3332 137.452 27.88 133.712 18.9651 134.154C8.5086 134.68 1.76864 140.607 0 142.28C1.32648 131.011 5.34178 123.47 8.1262 119.24C10.8748 115.069 13.5755 112.392 18.2839 107.72C22.1439 103.896 27.88 98.2792 36.5798 92.8179C44.5029 87.8466 48.4584 85.3609 54.1945 84.6917C60.4206 83.9627 65.3442 85.7911 75.1912 89.436C80.5688 91.4197 82.1941 92.5072 94.8375 98.2433C100.048 100.609 104.314 102.474 107.027 103.669C100.884 99.2591 98.1955 94.7419 96.869 91.4795C94.7299 86.2094 95.4469 82.457 92.8059 73.8647C91.6229 70.0048 90.3083 66.9575 89.424 65.0574C94.3595 64.3523 98.1477 65.1291 100.263 65.7385C108.15 67.9971 112.703 73.566 115.165 76.5774C117.961 79.9952 119.634 83.2457 120.59 85.3848C120.507 83.4608 120.148 69.3117 130.748 60.9943C134.357 58.1621 138.133 56.8714 140.906 56.25C141.898 60.5163 142.758 65.7863 142.937 71.8332C143.2 79.9833 142.137 86.9264 140.918 92.1367Z" fill="#3A3939"/>
</svg>
