<svg width="250" height="163" viewBox="0 0 250 163" fill="none" xmlns="http://www.w3.org/2000/svg">
<path d="M109.082 92.1367C106.477 89.6749 102.725 85.6597 99.5937 79.9474C90.9775 64.1969 97.0005 53.7524 88.7548 40.6549C88.0497 39.5315 82.6362 34.9426 71.8212 25.7529C52.8561 9.64388 49.1635 7.81549 44.718 6.77581C38.8982 5.41348 37.9063 6.83556 25.7529 4.74426C21.8332 4.07505 19.3475 3.47753 11.5201 2.03155C6.64436 1.13528 2.64101 0.442161 0 0C3.05927 2.24665 10.3728 8.28155 14.2328 18.9651C17.1606 27.0913 16.7543 34.2017 16.2643 37.9302C19.5626 40.631 25.0956 45.8652 29.1348 54.1945C33.8552 63.946 34.0703 72.837 33.8791 77.2347C37.3924 79.1826 45.3394 84.2137 50.8126 94.1683C57.5526 106.429 56.1544 118.212 55.5569 121.941C56.5249 122.717 59.3332 125.167 60.3011 129.398C61.7113 135.516 58.1023 140.272 57.5884 140.918C58.7835 141.957 61.8308 144.873 63.0139 149.725C64.6152 156.286 61.6396 161.508 60.9823 162.596C64.5076 159.154 71.4747 153.274 81.979 149.725C91.3958 146.546 99.5698 146.618 104.338 147.012C118.368 133.855 136.508 129.314 150.311 135.66C156.883 138.683 161.233 143.595 163.958 147.694C165.356 145.805 174.391 134.07 190.38 132.792C202.091 131.848 210.695 137.07 213.42 138.886C215.667 137.44 222.12 133.7 231.035 134.142C241.491 134.668 248.231 140.595 250 142.268C248.674 130.999 244.658 123.458 241.874 119.228C239.125 115.057 236.424 112.38 231.716 107.708C227.856 103.884 222.12 98.2672 213.42 92.8059C205.497 87.8346 201.542 85.3489 195.805 84.6797C189.579 83.9508 184.656 85.7792 174.809 89.424C169.431 91.4077 167.806 92.4952 155.163 98.2314C149.952 100.598 145.686 102.462 142.973 103.657C149.116 99.2471 151.804 94.7299 153.131 91.4675C155.27 86.1974 154.553 82.445 157.194 73.8528C158.377 69.9928 159.692 66.9455 160.576 65.0454C155.641 64.3403 151.852 65.1171 149.737 65.7266C141.85 67.9852 137.297 73.554 134.835 76.5655C132.039 79.9833 130.366 83.2337 129.41 85.3729C129.493 83.4489 129.852 69.2997 119.252 60.9823C115.643 58.1501 111.867 56.8595 109.094 56.2381C108.102 60.5043 107.242 65.7744 107.063 71.8212C106.8 79.9833 107.863 86.9264 109.082 92.1367Z" fill="#3A3939"/>
</svg>
