<svg width="1333" height="894" viewBox="0 0 1333 894" fill="none" xmlns="http://www.w3.org/2000/svg">
<path d="M224 0C224 211.735 225.505 423.549 225.505 636.113C231.727 636.398 235.485 636.761 239.244 636.683C333.76 634.973 428.275 633.211 522.791 631.475C525.824 631.423 529.401 630.309 531.734 631.579C536.089 633.911 539.693 637.642 543.607 640.778C540.03 644.276 536.867 650.236 532.823 650.91C513.277 654.149 493.342 655.211 473.796 658.451C423.142 666.82 374.848 682.213 330.779 709.292C328.083 710.95 325.672 713.075 321.083 716.496C325.62 716.962 327.59 717.325 329.56 717.325C442.637 718.517 555.739 719.709 668.815 720.849C670.526 720.875 672.263 721.004 673.974 720.849C673.974 727.768 673.974 734.081 673.974 741C551.332 739.627 428.69 738.366 306.074 737.148C298.945 737.071 290.494 736.604 284.921 739.999C261.512 754.355 241.551 772.753 227.034 796.437C220.346 807.347 214.254 819.008 220.917 831.653C228.123 845.309 242.044 850.57 256.042 849.352C272.115 847.953 288.394 844.066 303.611 838.52C334.019 827.455 363.468 813.773 393.824 802.579C445.307 783.585 497.464 786.953 549.129 801.853C569.945 807.865 588.246 819.345 596.257 840.93C599.264 849.041 603.515 850 610.514 849.948C631.668 849.741 652.847 849.922 674 849.948C674 864.641 674 879.307 674 894C668.401 893.896 662.775 893.689 657.176 893.689C449.04 893.689 240.929 893.689 32.7928 893.689C8.45099 893.689 0.0518968 885.371 0.0518968 861.116C0.0259737 574.078 0.0259231 287.039 0 0C15.5538 0 30.4462 0 46 0C46 2 46 4.37513 46 6.5C46.0518 116.527 46.2727 226.48 46.3505 336.533C46.3505 350.163 46.3505 363.819 46.3505 377.372C59.5712 378.849 59.5194 371.671 59.4935 363.767C59.338 291.263 59.312 218.758 59.338 146.279C59.3639 97.5107 58.8963 48.7683 59 0.0258593C66.7769 0.0258593 76.2231 0.0258593 84 0.0258593C84.1296 3.47229 84 7.05357 84 10.5C84.674 131.41 84.6129 252.186 85.5462 373.122C85.598 378.589 87.3348 384.886 90.3938 389.343C99.5965 402.844 109.655 415.775 119.765 428.628C125.286 435.65 130.963 442.828 137.755 448.529C143.692 453.53 150.872 456.562 158.701 449.825C166.374 443.191 174.255 437.257 169.07 424.585C166.297 425.492 163.808 427.177 161.605 426.866C157.327 426.27 153.18 424.559 148.98 423.316C150.639 419.273 151.365 414.246 154.217 411.447C157.405 408.338 162.745 405.28 166.815 405.669C177.806 406.783 188.591 409.737 199.737 411.991C199.789 410.929 200.178 407.56 200.178 404.192C200.178 319.56 200.178 234.902 200.074 150.27C200.022 100.18 198.181 50.0899 198 0C206.632 0.0518261 215.368 0 224 0ZM254.928 738.729C254.539 737.822 254.15 736.915 253.761 736.008C250.78 736.008 247.825 735.905 244.844 736.034C208.603 737.485 172.337 739.014 136.096 740.362C126.194 740.724 115.85 738.807 106.518 741.191C99.1558 743.057 88.009 749.198 87.2831 754.614C83.7057 781.123 82.3837 808.254 102.37 830.358C117.795 847.408 148.669 846.579 164.326 829.684C187.087 805.092 210.158 780.76 233.489 756.687C239.918 750.001 247.747 744.663 254.928 738.729ZM199.478 561.691C182.187 571.564 169.796 563.946 159.09 553.114C151.261 545.21 143.977 536.426 138.144 526.968C125.701 506.833 114.373 486.025 102.552 465.502C97.9633 457.521 93.2972 449.591 87.1793 439.096C87.1793 481.076 87.1016 519.557 87.2312 558.037C87.2831 571.668 94.5934 581.281 105.04 589.366C125.338 605.095 147.347 617.171 172.674 621.887C172.077 627.407 171.611 631.838 171.067 636.735C181.177 636.735 189.99 636.735 199.504 636.735C199.478 611.833 199.478 587.863 199.478 561.691ZM330.234 848.834C413.836 848.834 495.442 848.834 577.022 848.834C577.696 847.849 578.37 846.838 579.018 845.854C573.574 840.256 569.064 832.819 562.479 829.477C549.569 822.921 535.882 817.09 521.832 813.644C453.628 796.826 391.827 817.271 330.234 848.834ZM227.345 715.952C242.847 715.952 257.52 716.91 271.985 715.615C281.343 714.785 291.609 712.609 299.36 707.711C331.997 687.059 365.982 669.671 402.948 658.217C404.996 657.595 406.785 656.092 406.344 656.326C347.914 656.326 287.72 656.326 227.345 656.326C227.345 677.393 227.345 695.739 227.345 715.952ZM61.0748 741.942C50.4204 741.942 43.3434 741.942 35.1776 741.942C35.1776 771.95 34.6593 801.102 35.6184 830.202C35.7999 835.903 41.8398 841.397 45.1839 846.968C46.1171 846.32 47.0245 845.672 47.9577 845.024C52.2868 811.156 56.5901 777.288 61.0748 741.942ZM58.1714 407.12C35.385 420.569 36.6034 483.226 58.1714 505.512C58.1714 473.405 58.1714 440.6 58.1714 407.12ZM36.085 545.133C36.085 571.771 36.085 595.352 36.085 618.726C44.3027 618.726 51.3537 618.726 57.6271 618.726C66.415 590.04 50.0576 569.491 36.085 545.133ZM199.66 658.839C192.427 658.839 186.62 658.839 179.232 658.839C179.232 672.469 179.232 685.296 179.232 698.097C179.232 716.599 181.15 717.947 199.634 712.453C199.66 694.988 199.66 677.445 199.66 658.839ZM137.159 660.135C137.159 666.095 136.978 671.614 137.185 677.108C137.574 687.344 137.859 697.035 125.26 701.311C123.161 702.01 122.824 707.918 121.372 712.298C132.285 712.298 141.022 712.298 150.691 712.298C150.691 696.672 150.458 682.057 150.769 667.468C150.976 658.295 146.206 657.621 137.159 660.135ZM86.4276 641.141C86.4276 651.324 86.4276 660.549 86.4276 671.277C91.7678 671.277 96.3561 671.277 100.97 671.277C105.948 671.277 110.925 671.277 115.85 671.277C117.406 654.693 107.296 644.095 86.4276 641.141ZM58.5863 670.578C58.5863 659.927 58.5863 650.728 58.5863 641.141C50.3427 641.141 43.0065 641.141 35.748 641.141C35.748 651.428 35.748 660.679 35.748 670.578C43.5768 670.578 50.6019 670.578 58.5863 670.578ZM35.5665 719.709C43.6545 719.709 51.1204 719.709 58.7677 719.709C58.7677 713.282 58.7677 707.841 58.7677 701.829C50.6538 701.829 43.2398 701.829 35.5665 701.829C35.5665 708.359 35.5665 713.852 35.5665 719.709ZM86.0647 719.113C102.059 720.538 103.796 717.999 99.0262 700.818C94.8785 701.077 90.5234 701.337 86.0647 701.622C86.0647 708.203 86.0647 713.231 86.0647 719.113Z" fill="#8D0000"/>
<path d="M1109 3C1109 214.037 1108.15 425.1 1108.15 636.964C1101.94 637.248 1098.2 637.61 1094.45 637.532C1000.22 635.827 905.986 634.071 811.755 632.341C808.731 632.289 805.164 631.179 802.838 632.444C798.496 634.769 794.904 638.488 791.001 641.613C794.568 645.1 797.721 651.04 801.753 651.711C821.24 654.94 841.115 655.999 860.602 659.227C911.104 667.57 959.253 682.911 1003.19 709.901C1005.88 711.554 1008.28 713.672 1012.86 717.081C1008.33 717.546 1006.37 717.908 1004.4 717.908C891.668 719.096 778.737 719.87 666 721.007C664.294 721.033 662.732 721.162 661.026 721.007C661.026 727.903 673.5 734.104 673.5 741C795.773 739.631 905.573 738.88 1027.82 737.666C1034.93 737.588 1043.35 737.123 1048.91 740.507C1072.25 754.815 1092.15 773.153 1106.62 796.759C1113.29 807.633 1119.36 819.255 1112.72 831.859C1105.54 845.47 1091.66 850.713 1077.7 849.499C1061.68 848.104 1045.45 844.23 1030.28 838.703C999.959 827.675 970.599 814.038 940.334 802.88C889.006 783.949 837.006 787.306 785.496 802.157C764.742 808.149 746.496 819.591 738.51 841.105C735.512 849.189 731.273 850.145 724.295 850.093C703.205 849.887 682.09 850.067 661 850.093C661 864.737 661 879.356 661 894C666.583 893.897 672.191 893.69 677.774 893.69C885.284 893.69 1092.77 893.69 1300.28 893.69C1324.55 893.69 1332.92 885.399 1332.92 861.225C1333 575.184 1333 289.092 1333 3C1317.49 3 1302.51 3 1287 3C1287 5.5 1287 7.28741 1287 9.40527C1286.94 119.069 1286.87 228.733 1286.79 338.423C1286.79 352.008 1286.79 365.619 1286.79 379.127C1273.61 380.599 1273.66 373.445 1273.69 365.568C1273.84 293.302 1273.87 221.037 1273.84 148.797C1273.81 100.189 1274.1 51.5817 1274 3C1266.25 3 1256.75 3 1249 3C1248.87 6.43507 1249 9.56493 1249 13C1248.33 133.512 1248.64 254.354 1247.71 374.891C1247.66 380.341 1245.93 386.617 1242.88 391.059C1233.7 404.516 1223.67 417.404 1213.6 430.214C1208.09 437.213 1202.43 444.368 1195.66 450.05C1189.74 455.034 1182.58 458.056 1174.78 451.341C1167.13 444.729 1159.27 438.815 1164.44 426.185C1167.2 427.089 1169.68 428.768 1171.88 428.458C1176.15 427.864 1180.28 426.159 1184.47 424.919C1182.81 420.89 1182.09 415.88 1179.25 413.09C1176.07 409.991 1170.74 406.943 1166.69 407.331C1155.73 408.441 1144.98 411.386 1133.86 413.633C1133.81 412.574 1133.42 409.216 1133.42 405.859C1133.42 321.506 1133.42 237.127 1133.53 152.774C1133.58 102.849 1133.84 52.9247 1134.02 3C1125.39 3 1117.61 3 1109 3ZM1078.81 739.241C1079.2 738.337 1079.59 737.433 1079.98 736.529C1082.95 736.529 1085.89 736.426 1088.87 736.555C1125 738.002 1161.16 739.525 1197.29 740.868C1207.16 741.23 1217.47 739.319 1226.78 741.695C1234.12 743.554 1245.23 749.676 1245.95 755.073C1249.52 781.495 1250.84 808.537 1230.91 830.568C1215.53 847.562 1184.75 846.736 1169.14 829.896C1146.45 805.386 1123.45 781.133 1100.19 757.14C1093.78 750.476 1085.97 745.156 1078.81 739.241ZM1134.1 562.787C1151.33 572.627 1163.69 565.034 1174.36 554.238C1182.17 546.361 1189.43 537.605 1195.25 528.178C1207.65 508.11 1218.95 487.371 1230.73 466.915C1235.31 458.96 1239.96 451.057 1246.06 440.597C1246.06 482.437 1246.13 520.792 1246.01 559.145C1245.95 572.731 1238.67 582.313 1228.25 590.371C1208.01 606.048 1186.07 618.084 1160.82 622.785C1161.41 628.286 1161.88 632.702 1162.42 637.584C1152.34 637.584 1143.55 637.584 1134.07 637.584C1134.1 612.764 1134.1 588.873 1134.1 562.787ZM1003.71 848.983C920.356 848.983 838.996 848.983 757.661 848.983C756.989 848.001 756.317 846.994 755.671 846.013C761.098 840.434 765.595 833.021 772.16 829.689C785.031 823.155 798.677 817.344 812.685 813.909C880.684 797.147 942.325 817.525 1003.71 848.983ZM1106.31 716.539C1090.86 716.539 1076.23 717.494 1061.81 716.203C1052.48 715.377 1042.24 713.207 1034.51 708.326C1001.98 687.741 968.092 670.411 931.237 658.995C929.195 658.375 927.412 656.877 927.851 657.109C986.106 657.109 1046.12 657.109 1106.31 657.109C1106.31 678.107 1106.31 696.393 1106.31 716.539ZM1272.08 742.444C1282.71 742.444 1289.76 742.444 1297.9 742.444C1297.9 772.352 1298.42 801.408 1297.46 830.413C1297.28 836.095 1291.26 841.57 1287.93 847.123C1287 846.477 1286.09 845.832 1285.16 845.186C1280.84 811.429 1276.55 777.673 1272.08 742.444ZM1274.98 408.726C1297.7 422.13 1296.48 484.581 1274.98 506.793C1274.98 474.793 1274.98 442.095 1274.98 408.726ZM1297 546.283C1297 572.834 1297 596.337 1297 619.634C1288.8 619.634 1281.77 619.634 1275.52 619.634C1266.76 591.042 1283.07 570.561 1297 546.283ZM1133.89 659.615C1141.1 659.615 1146.89 659.615 1154.25 659.615C1154.25 673.2 1154.25 685.985 1154.25 698.744C1154.25 717.184 1152.34 718.527 1133.91 713.052C1133.89 695.644 1133.89 678.159 1133.89 659.615ZM1196.23 660.906C1196.23 666.846 1196.41 672.348 1196.2 677.823C1195.81 688.025 1195.53 697.685 1208.09 701.946C1210.18 702.643 1210.52 708.532 1211.97 712.897C1201.09 712.897 1192.38 712.897 1182.74 712.897C1182.74 697.323 1182.97 682.756 1182.66 668.215C1182.45 659.072 1187.21 658.401 1196.23 660.906ZM1246.81 641.975C1246.81 652.125 1246.81 661.319 1246.81 672.012C1241.48 672.012 1236.91 672.012 1232.31 672.012C1227.34 672.012 1222.38 672.012 1217.47 672.012C1215.92 655.482 1226 644.919 1246.81 641.975ZM1274.56 671.315C1274.56 660.7 1274.56 651.531 1274.56 641.975C1282.78 641.975 1290.1 641.975 1297.33 641.975C1297.33 652.228 1297.33 661.448 1297.33 671.315C1289.53 671.315 1282.52 671.315 1274.56 671.315ZM1297.49 720.284C1289.43 720.284 1281.98 720.284 1274.36 720.284C1274.36 713.878 1274.36 708.455 1274.36 702.463C1282.45 702.463 1289.84 702.463 1297.49 702.463C1297.49 708.971 1297.49 714.447 1297.49 720.284ZM1247.17 719.69C1231.22 721.11 1229.49 718.579 1234.25 701.455C1238.38 701.714 1242.72 701.972 1247.17 702.256C1247.17 708.816 1247.17 713.827 1247.17 719.69Z" fill="#8D0000"/>
</svg>
