<svg width="1333" height="1731" viewBox="0 0 1333 1731" fill="none" xmlns="http://www.w3.org/2000/svg">
<path d="M1332.9 1730.77C1332.9 1153.89 1333 576.884 1333 0C1317.58 0 1302.5 0 1287.08 0C1287.08 14.2255 1287.08 28.6598 1287.08 42.6766C1286.92 605.544 1287.08 1167.91 1286.9 1730.77C1302.32 1730.77 1317.47 1730.77 1332.9 1730.77Z" fill="#8D0000"/>
<path d="M1134 1730.77C1133.85 1574.88 1134.86 1419.11 1134.88 1263.22C1134.96 842.107 1134.85 420.993 1135 0C1126.44 0 1118.2 0 1109.64 0C1109.41 554.701 1109.18 1109.52 1109 1664.22C1109 1686.41 1109 1707.07 1109 1730.77C1117.56 1730.77 1125.44 1730.77 1134 1730.77Z" fill="#8D0000"/>
<path d="M1251 0C1250.25 538.49 1249.55 1076.98 1248.8 1615.47C1248.75 1653.86 1249.1 1692.38 1249 1730.77C1257.56 1730.77 1265.34 1730.77 1273.9 1730.77C1274 1376.45 1274.46 1022.25 1274.48 667.933C1274.51 445.248 1274.1 222.685 1274 0C1266.31 0 1258.74 0 1251 0Z" fill="#8D0000"/>
<path d="M0 1730.77C0 1153.89 0 576.884 0 0C15.4225 0 30.8708 0 46.2933 0C46.1134 14.1387 45.7535 28.2775 45.7535 42.2943C45.9077 605.162 45.8201 1167.91 46 1730.77C30.5775 1730.77 15.4225 1730.77 0 1730.77Z" fill="#8D0000"/>
<path d="M197.999 1730.77C198.153 1574.88 198.487 1419.11 198.462 1263.22C198.385 842.107 198.153 420.993 197.999 0C206.559 0 215.144 0 223.703 0C223.935 554.701 224.166 1109.52 224.346 1664.22C224.346 1686.41 224.231 1708.59 224 1730.77C215.44 1730.77 206.584 1730.77 197.999 1730.77Z" fill="#8D0000"/>
<path d="M82.2786 0C83.024 538.49 83.7952 1076.98 84.5406 1615.47C84.592 1653.86 83.8972 1692.38 84 1730.77C75.4405 1730.77 67.5595 1730.77 59 1730.77C58.8972 1376.45 58.8878 1022.25 58.8621 667.933C58.8364 445.248 59.042 222.685 59.1448 0C66.8561 0 74.5673 0 82.2786 0Z" fill="#8D0000"/>
</svg>
