<svg width="242" height="120" viewBox="0 0 242 120" fill="none" xmlns="http://www.w3.org/2000/svg">
<path d="M199.157 65.5471C194.714 72.1979 190.272 78.9267 185.699 85.6035C178.659 95.9174 167.487 97.5022 154.835 90.2019C149.172 86.9284 143.378 83.8368 140.053 80.3036C136.442 72.4317 134.207 63.2868 128.622 57.2335C125.946 54.3238 114.463 54.8694 111.345 58.0909C106.227 63.3907 104.694 72.1459 101.629 79.4203C102.798 80.3556 103.993 81.2908 105.162 82.2261C92.8734 86.253 79.4159 95.3719 68.6602 92.8518C57.8266 90.3058 49.669 76.2248 39.6667 66.5603C48.6817 56.558 55.4365 46.1661 64.7892 39.4374C77.5193 30.2925 85.0275 47.0235 97.1341 47.8808C95.4454 46.0102 93.9386 43.9578 92.042 42.3211C79.6237 31.4616 80.7408 19.355 95.2895 11.2752C99.3943 8.98901 104.149 7.94982 108.461 5.97536C112.332 4.20873 115.969 1.94849 119.581 0C127.375 3.37738 135.246 6.59887 142.962 10.1841C160.94 18.4716 162.395 30.6822 147.171 43.4902C145.794 44.6333 144.989 46.4519 143.924 47.9587C144.625 48.8161 145.353 49.6734 146.054 50.5307C149.042 48.4004 152.263 46.5298 154.991 44.1137C165.825 34.4232 175.775 34.9688 184.816 46.27C189.908 52.6091 194.506 59.2599 199.157 65.5471Z" fill="#2898FF"/>
<path d="M12.2321 104.88C2.4897 100.23 -3.12194 92.9037 1.8402 82.1481C6.67245 71.6522 16.6227 71.8341 25.326 75.9649C36.5233 81.2907 46.5774 88.9807 57.7228 94.4625C67.9329 99.4766 78.8184 105.972 89.6 106.387C108.331 107.089 114.748 95.3458 109.994 77.3418C108.799 72.8213 110.28 65.7028 113.372 62.5333C115.814 60.0392 124.387 59.7534 127.011 62.1176C130.258 65.0274 132.207 72.1458 131.116 76.6143C125.894 98.3335 139.195 112.337 160.993 105.738C170.657 102.828 179.282 96.411 188.271 91.3969C197.65 86.1749 206.613 80.0437 216.33 75.6271C225.552 71.4184 235.113 72.8473 239.53 82.9274C244.362 93.8909 238.075 100.828 227.215 105.426C218.979 93.0076 209.185 97.606 199.235 103.244C190.973 107.92 183.101 113.999 174.216 116.649C154.03 122.703 134.701 122.053 121.347 101.997C99.5763 123.196 76.6101 125.378 51.1759 109.089C46.0838 105.842 41.0437 101.373 35.4581 100.334C28.4695 99.0349 20.9094 100.724 13.6091 101.113C13.1154 102.36 12.6738 103.633 12.2321 104.88Z" fill="#2898FF"/>
</svg>
