<svg width="857" height="150" viewBox="0 0 857 150" fill="none" xmlns="http://www.w3.org/2000/svg">
<path d="M451.656 45.407C457.903 44.9938 463.007 44.6535 468.112 44.3132C465.754 50.6571 463.396 57.0011 460.698 64.293C469.619 63.7825 474.018 56.1504 478.247 48.2994C482.234 40.8617 496.04 30.8232 505.592 28.4169C510.478 41.1048 521.099 54.5705 498.081 63.5881C499.418 64.4631 500.779 65.3382 502.116 66.2375C514.415 58.8727 526.714 51.5322 542.124 42.2958C536.631 58.7755 562.688 54.5218 556.028 73.1162C549.198 58.8241 538.794 60.4769 528.294 63.6367C512.884 68.3035 497.911 75.1579 482.185 77.8802C460.577 81.6234 440.062 77.9531 426.742 57.8518C425.381 58.0706 424.239 57.9004 423.923 58.3379C406.738 81.672 383.769 81.5019 359.608 73.1891C345.17 68.2063 331.219 61.6436 317.315 55.2267C307.131 50.5113 298.6 49.3932 293.835 62.9561C290.384 51.1676 297.992 40.2054 309.926 41.5666C319.017 42.6118 327.816 47.6675 336.299 51.8725C341.136 54.2788 345.025 58.5324 351.466 59.9908C347.212 54.7892 342.959 49.5877 340.722 46.8654C345.681 38.1637 349.546 31.3822 354.869 22C357.907 27.3717 360.508 31.9899 363.327 36.9241C369.817 30.094 372.175 35.1497 374.921 41.9069C377.862 49.1015 381.994 55.8101 385.592 62.7374C386.564 62.154 387.536 61.5707 388.509 60.9873C388.897 56.2476 387.901 50.6085 390.161 47.0841C391.498 45.0181 398.037 46.3306 403.19 46.0632C410.943 34.5421 413.811 34.2747 422.076 46.4278C426.208 52.5044 428.954 51.7509 432.722 46.1362C441.375 33.2781 444.68 33.5941 451.656 45.407Z" fill="#2898FF"/>
<path d="M444.024 121.899C405.109 121.899 366.171 122.263 327.256 121.607C319.551 121.485 311.19 118.642 304.481 114.753C300.544 112.468 296.922 105.419 297.408 100.995C297.87 96.7416 303.242 90.6407 307.495 89.5956C340.43 81.5016 373.147 83.7621 405.304 94.3596C405.814 94.5298 406.033 95.6235 406.252 96.0124C386.442 93.9221 366.535 91.0783 346.556 90.0088C335.423 89.4254 323.926 90.8838 313.013 93.3387C308.541 94.3353 305.211 100.388 301.346 104.155C305.502 107.436 309.561 113.367 313.839 113.537C337.489 114.485 361.601 116.648 384.692 113.003C396.554 111.131 407.078 98.5889 417.263 89.7657C420.082 87.3351 419.645 81.0397 420.495 76.4702C421.273 72.3867 421.784 68.2546 422.659 62.4697C434.593 69.8588 433.937 78.1716 428.589 84.71C419.377 96.0124 408.512 105.954 398.522 116.284C401.852 115.628 406.787 114.315 411.794 113.78C417.773 113.148 423.923 112.371 429.78 113.197C434.982 113.95 439.868 116.819 444.899 118.763C444.632 119.857 444.316 120.878 444.024 121.899Z" fill="#2898FF"/>
<path d="M426.013 98.1519C440.038 101.385 453.99 105.055 468.136 107.729C487.581 111.399 507.075 115.045 526.714 117.184C533.253 117.913 540.593 114.656 546.986 111.861C549.076 110.937 550.534 105.492 549.975 102.576C549.562 100.485 545.138 97.5442 542.756 97.763C534.857 98.4922 526.884 99.8776 519.252 102.114C509.627 104.933 500.512 106.975 490.984 98.0546C503.186 94.7976 514.221 91.7593 525.304 88.9155C527.613 88.3321 530.117 88.2349 532.523 88.2592C546.791 88.3807 555.687 94.4573 555.955 104.204C556.246 114.121 546.524 122.167 532.45 121.705C495.651 120.514 460.455 110.451 424.895 102.673C425.284 101.19 425.649 99.6832 426.013 98.1519Z" fill="#2898FF"/>
<path d="M225.445 52.4531C201.309 79.5043 193.973 88.6356 188.049 94.8686C177.752 105.714 165.672 112.134 141.467 124.912C121.681 135.383 111.777 137.876 104.742 139.06C94.4673 140.775 86.5762 140.276 81.786 139.933C62.6716 138.624 49.7589 137.97 37.1702 126.688C34.509 124.288 16.621 107.709 12.2474 77.2292C11.3911 71.2456 8.54481 51.3935 16.8293 34.8138C20.9947 26.4927 29.0477 17.0497 33.8842 19.7923C35.5735 20.7584 36.638 23.0646 38.4661 31.8531C41.7521 47.4979 40.8496 51.7363 42.7703 61.2105C44.9224 71.8377 48.6018 79.0368 54.4334 90.4432C57.3723 96.1775 59.9409 101.164 64.384 106.742C65.4022 108.02 69.4519 113.007 77.1809 118.99C80.3975 121.483 85.2109 124.88 97.5219 131.051C108.606 136.598 114.762 139.684 123.532 142.52C127.281 143.735 137.394 146.945 148.687 147.818C162.224 148.846 194.853 151.339 208.39 124.849C209.432 122.824 216.976 107.584 212.972 93.9336C206.4 71.4949 174.072 71.8065 169.675 71.8377C151.649 71.9935 146.997 79.5354 108.005 96.5826C71.3726 112.601 60.9128 112.29 52.9061 105.402C46.5654 99.9485 39.0909 88.1058 41.1042 77.1357C42.562 69.1887 48.8333 62.6129 53.9937 61.8338C55.0813 61.6779 57.5343 61.3039 60.126 63.018C61.8848 64.1711 62.9261 65.7917 63.4121 66.5397C63.9443 67.3811 65.9344 70.5288 66.027 74.4867C66.1658 79.9094 62.6484 82.5584 63.4121 84.2102C64.3146 86.2047 70.7709 85.5191 73.247 80.6885C76.7644 73.8011 72.3445 58.0628 64.06 53.2946C57.488 49.5236 50.8002 53.9802 48.7638 55.3514C47.1208 56.4422 40.757 61.0546 38.0496 70.9651C33.5833 87.202 43.1637 102.13 44.1819 103.657C51.4945 114.689 61.5145 115.936 64.7311 116.31C72.3445 117.245 77.6438 114.471 86.1596 110.42C97.9384 104.81 109.972 100.198 121.797 94.8063C146.858 83.3999 154.171 81.4365 161.368 80.3769C180.367 77.6032 186.152 82.9636 188.489 85.6749C193.164 91.0976 196.588 100.354 195.709 109.828C194.575 122.076 186.8 128.901 183.028 132.204C178.747 135.944 174.35 137.97 167.94 139.559C152.065 143.548 138.759 141.335 134.038 140.432C127.952 139.247 109.092 134.978 87.687 118.336C76.8107 109.859 69.3593 104.093 62.3244 91.8456C58.2979 84.8335 46.172 63.766 49.6432 41.2026C52.3044 23.8749 62.9492 14.0579 59.4781 6.23551C58.1591 3.27484 55.6598 2.43339 51.8184 1.21796C39.4612 -2.67766 28.5618 3.80465 24.9286 6.23551C21.7814 8.35473 11.4606 15.8966 5.02738 32.4452C-2.77113 52.5154 0.514887 72.1493 1.74136 79.5666C7.13321 111.885 26.1782 128.807 31.2692 133.17C43.1174 143.33 54.04 145.854 63.4121 147.88C104.441 156.793 139.361 135.352 155.907 125.192C160.627 122.294 155.837 124.943 188.697 100.447C206.331 87.3267 219.544 77.7279 229.587 58.6238C230.305 57.2525 236.321 45.7215 235.049 44.1944C233.984 42.9166 228.292 49.2431 225.445 52.4531Z" fill="#2898FF"/>
<path d="M630.78 52.4531C654.916 79.5043 662.251 88.6356 668.176 94.8686C678.473 105.714 690.553 112.134 714.758 124.912C734.544 135.383 744.448 137.876 751.483 139.06C761.758 140.775 769.649 140.276 774.439 139.933C793.554 138.624 806.466 137.97 819.055 126.688C821.716 124.288 839.604 107.709 843.978 77.2292C844.834 71.2456 847.68 51.3935 839.396 34.8138C835.23 26.4927 827.177 17.0497 822.341 19.7923C820.652 20.7584 819.587 23.0646 817.759 31.8531C814.473 47.4979 815.375 51.7363 813.455 61.2105C811.303 71.8377 807.623 79.0368 801.792 90.4432C798.853 96.1775 796.284 101.164 791.841 106.742C790.823 108.02 786.773 113.007 779.044 118.99C775.827 121.483 771.014 124.88 758.703 131.051C747.619 136.598 741.463 139.684 732.693 142.52C728.944 143.735 718.831 146.945 707.538 147.818C694.001 148.846 661.372 151.339 647.835 124.849C646.793 122.824 639.249 107.584 643.253 93.9336C649.825 71.4949 682.153 71.8065 686.55 71.8377C704.576 71.9935 709.228 79.5354 748.22 96.5826C784.852 112.601 795.312 112.29 803.319 105.402C809.66 99.9485 817.134 88.1058 815.121 77.1357C813.663 69.1887 807.392 62.6129 802.231 61.8338C801.144 61.6779 798.691 61.3039 796.099 63.018C794.34 64.1711 793.299 65.7917 792.813 66.5397C792.281 67.3811 790.291 70.5288 790.198 74.4867C790.059 79.9094 793.577 82.5584 792.813 84.2102C791.91 86.2047 785.454 85.5191 782.978 80.6885C779.461 73.8011 783.881 58.0628 792.165 53.2946C798.737 49.5236 805.425 53.9802 807.461 55.3514C809.104 56.4422 815.468 61.0546 818.176 70.9651C822.642 87.202 813.061 102.13 812.043 103.657C804.731 114.689 794.711 115.936 791.494 116.31C783.881 117.245 778.581 114.471 770.065 110.42C758.287 104.81 746.253 100.198 734.428 94.8063C709.367 83.3999 702.054 81.4365 694.857 80.3769C675.858 77.6032 670.073 82.9636 667.736 85.6749C663.061 91.0976 659.637 100.354 660.516 109.828C661.65 122.076 669.425 128.901 673.197 132.204C677.478 135.944 681.875 137.97 688.285 139.559C704.16 143.548 717.466 141.335 722.187 140.432C728.273 139.247 747.133 134.978 768.538 118.336C779.414 109.859 786.866 104.093 793.901 91.8456C797.927 84.8335 810.053 63.766 806.582 41.2026C803.921 23.8749 793.276 14.0579 796.747 6.23551C798.066 3.27484 800.565 2.43339 804.407 1.21796C816.764 -2.67766 827.663 3.80465 831.296 6.23551C834.444 8.35473 844.765 15.8966 851.198 32.4452C858.996 52.5154 855.71 72.1493 854.484 79.5666C849.092 111.885 830.047 128.807 824.956 133.17C813.108 143.33 802.185 145.854 792.813 147.88C751.784 156.793 716.864 135.352 700.318 125.192C695.598 122.294 700.388 124.943 667.528 100.447C649.894 87.3267 636.681 77.7279 626.637 58.6238C625.92 57.2525 619.903 45.7215 621.176 44.1944C622.241 42.9166 627.933 49.2431 630.78 52.4531Z" fill="#2898FF"/>
</svg>
