<svg width="225" height="365" viewBox="0 0 225 365" fill="none" xmlns="http://www.w3.org/2000/svg">
<path d="M0 365C0 243.342 0 121.658 0 0C15.4225 0 30.8708 0 46.2933 0C46.1134 2.98169 45.7535 5.96338 45.7535 8.91937C45.9077 127.621 45.8201 246.298 46 365C30.5775 365 15.4225 365 0 365Z" fill="#8D0000"/>
<path d="M197.999 365C198.153 332.124 198.487 299.274 198.462 266.399C198.385 177.591 198.153 88.7824 197.999 0C206.559 0 215.144 0 223.703 0C223.935 116.98 224.166 233.986 224.346 350.965C224.346 355.644 224.231 360.322 224 365C215.44 365 206.584 365 197.999 365Z" fill="#8D0000"/>
<path d="M82.2787 0C83.0242 113.561 83.7953 227.122 84.5407 340.684C84.5921 348.781 83.8973 356.903 84.0001 365C75.4406 365 67.5596 365 59.0001 365C58.8973 290.278 58.8879 215.581 58.8622 140.859C58.8365 93.8975 59.0421 46.9616 59.1449 0C66.8562 0 74.5675 0 82.2787 0Z" fill="#8D0000"/>
</svg>
