<svg width="224" height="365" viewBox="0 0 224 365" fill="none" xmlns="http://www.w3.org/2000/svg">
<path d="M223.897 365C223.897 243.342 224 121.658 224 0C208.577 0 193.501 0 178.078 0C178.078 3 178.078 6.04401 178.078 9C177.924 127.702 178.077 246.298 177.897 365C193.32 365 208.474 365 223.897 365Z" fill="#8D0000"/>
<path d="M25.0001 365C24.8459 332.124 25.8586 299.274 25.8843 266.399C25.9614 177.591 25.8458 88.7824 26 0C17.4405 0 9.20223 0 0.642721 0C0.411382 116.98 0.180045 233.986 0.000114936 350.965C0.000114936 355.644 -9.55056e-05 360 5.31186e-05 365C8.55956 365 16.4406 365 25.0001 365Z" fill="#8D0000"/>
<path d="M142 0C141.255 113.561 140.549 227.122 139.804 340.684C139.753 348.781 140.103 356.903 140 365C148.559 365 156.337 365 164.897 365C165 290.278 165.457 215.581 165.483 140.859C165.508 93.8975 165.103 46.9616 165 0C157.314 0 149.737 0 142 0Z" fill="#8D0000"/>
</svg>
