<svg width="170" height="109" viewBox="0 0 170 109" fill="none" xmlns="http://www.w3.org/2000/svg">
<path d="M164.261 38.3818C148.279 59.2827 135.761 68.247 130.261 72.8818C120.261 79.747 119.962 81.1954 102.435 90.4476C88.1084 98.0299 80.9367 99.8352 75.8428 100.693C68.4031 101.934 62.6892 101.573 59.2207 101.325C45.38 100.377 36.0301 99.9029 26.9147 91.7339C24.9877 89.9963 12.0352 77.991 8.86823 55.9212C8.24825 51.5884 6.18724 37.2137 12.186 25.2084C15.2021 19.1832 21.0332 12.3456 24.5353 14.3314C25.7585 15.031 26.5293 16.7009 27.853 23.0646C30.2324 34.3929 29.5789 37.4619 30.9697 44.3221C32.528 52.0172 35.1923 57.23 39.4148 65.4893C41.5429 69.6415 43.4028 73.2521 46.62 77.2915C47.3573 78.2167 50.2896 81.8273 55.8862 86.16C58.2153 87.9653 61.7006 90.425 70.6149 94.8932C78.6411 98.91 83.0983 101.144 89.4489 103.198C92.1634 104.078 99.4859 106.402 107.663 107.034C117.465 107.779 141.092 109.584 150.894 90.4025C151.648 88.9357 157.111 77.9007 154.212 68.0167C149.453 51.769 126.045 51.9946 122.861 52.0172C109.808 52.13 106.44 57.5911 78.2055 69.9348C51.6804 81.5339 44.1066 81.3083 38.3089 76.3211C33.7177 72.372 28.3055 63.7968 29.7632 55.8535C30.8189 50.099 35.3598 45.3376 39.0965 44.7734C39.884 44.6606 41.6602 44.3898 43.5369 45.6309C44.8103 46.4659 45.5644 47.6393 45.9162 48.1809C46.3016 48.7902 47.7427 51.0694 47.8097 53.9353C47.9102 57.8619 45.3633 59.78 45.9162 60.976C46.5697 62.4203 51.2447 61.9238 53.0376 58.426C55.5846 53.4389 52.3841 42.0429 46.3854 38.5902C41.6267 35.8597 36.7841 39.0867 35.3096 40.0796C34.1199 40.8694 29.5119 44.2092 27.5514 51.3853C24.3175 63.1424 31.2545 73.9516 31.9918 75.0574C37.2868 83.0459 44.5422 83.9485 46.8713 84.2193C52.3841 84.8963 56.2213 82.8879 62.3876 79.9543C70.9165 75.8923 79.6298 72.5525 88.1922 68.6486C106.339 60.3893 111.634 58.9676 116.845 58.2004C130.602 56.192 134.791 60.0734 136.484 62.0366C139.868 65.9632 142.348 72.6654 141.712 79.5255C140.891 88.3941 135.26 93.3361 132.529 95.7281C129.429 98.4361 126.246 99.9029 121.604 101.054C110.109 103.942 100.474 102.34 97.0562 101.686C92.6493 100.828 78.993 97.7365 63.4935 85.6861C55.6181 79.5481 50.2226 75.3733 45.1287 66.5048C42.2131 61.4273 33.4329 46.1725 35.9463 29.8345C37.8733 17.2876 45.5811 10.1792 43.0677 4.51509C42.1126 2.37129 40.3029 1.762 37.5214 0.881914C28.5736 -1.93888 20.6814 2.75492 18.0506 4.51509C15.7718 6.0496 8.29852 11.5106 3.64029 23.4934C-2.00656 38.0261 0.372826 52.2428 1.26091 57.6136C5.16511 81.0149 18.9555 93.2684 22.6418 96.4277C31.221 103.784 39.13 105.612 45.9162 107.079C75.625 113.533 101.281 98.2385 113.261 90.8818C116.68 88.7832 109.261 93.8818 133.761 76.8818C145.761 66.3818 150.761 60.8818 159.261 49.3818C160.261 48.0289 167.261 37.3818 169.761 31.8818C167.761 33.8818 166.322 36.0575 164.261 38.3818Z" fill="#9B0000"/>
</svg>
