<svg width="170" height="109" viewBox="0 0 170 109" fill="none" xmlns="http://www.w3.org/2000/svg">
<path d="M5.49 38.382C21.47 59.282 33.99 68.252 39.49 72.882C49.49 79.752 49.79 81.192 67.32 90.452C81.65 98.032 88.82 99.842 93.91 100.702C101.35 101.942 107.06 101.582 110.53 101.332C124.37 100.382 133.72 99.912 142.84 91.742C144.77 90.002 157.72 78.002 160.89 55.932C161.51 51.602 163.57 37.222 157.57 25.222C154.55 19.192 148.72 12.362 145.22 14.342C144 15.042 143.23 16.712 141.9 23.072C139.52 34.402 140.17 37.472 138.78 44.332C137.22 52.032 134.56 57.242 130.33 65.502C128.2 69.652 126.34 73.262 123.12 77.302C122.38 78.232 119.45 81.842 113.85 86.172C111.52 87.982 108.04 90.432 99.12 94.902C91.09 98.922 86.64 101.152 80.29 103.202C77.58 104.082 70.25 106.402 62.08 107.042C52.28 107.792 28.65 109.592 18.85 90.412C18.1 88.942 12.63 77.912 15.53 68.022C20.29 51.772 43.7 52.002 46.88 52.022C59.93 52.132 63.3 57.592 91.54 69.942C118.07 81.542 125.64 81.312 131.44 76.332C136.03 72.382 141.44 63.812 139.99 55.862C138.93 50.112 134.39 45.342 130.66 44.782C129.87 44.672 128.1 44.402 126.22 45.642C124.95 46.472 124.19 47.652 123.84 48.192C123.45 48.802 122.01 51.082 121.95 53.942C121.85 57.872 124.4 59.782 123.84 60.982C123.19 62.422 118.51 61.932 116.72 58.432C114.17 53.442 117.37 42.052 123.37 38.592C128.13 35.862 132.97 39.092 134.45 40.082C135.64 40.872 140.25 44.212 142.21 51.392C145.44 63.152 138.51 73.962 137.77 75.062C132.47 83.052 125.22 83.952 122.89 84.222C117.38 84.902 113.54 82.892 107.37 79.952C98.84 75.892 90.13 72.552 81.57 68.642C63.42 60.382 58.13 58.962 52.92 58.192C39.16 56.182 34.97 60.062 33.28 62.032C29.9 65.962 27.41 72.662 28.05 79.522C28.87 88.392 34.5 93.332 37.23 95.722C40.33 98.432 43.51 99.892 48.16 101.052C59.66 103.942 69.29 102.342 72.71 101.682C77.12 100.822 90.77 97.732 106.27 85.682C114.15 79.542 119.54 75.372 124.63 66.502C127.55 61.422 136.33 46.172 133.81 29.832C131.88 17.282 124.18 10.172 126.69 4.51198C127.65 2.37198 129.45 1.76198 132.24 0.881976C141.19 -1.93802 149.08 2.75198 151.71 4.51198C153.99 6.04198 161.46 11.512 166.12 23.492C171.77 38.022 169.39 52.242 168.5 57.612C164.6 81.012 150.81 93.262 147.12 96.422C138.54 103.782 130.63 105.602 123.85 107.072C94.14 113.522 68.49 98.232 56.5 90.872C53.08 88.772 60.5 93.872 36 76.872C24 66.372 19 60.872 10.5 49.372C9.5 48.022 2.5 37.372 0 31.872C1.99 33.882 3.43 36.062 5.49 38.382Z" fill="#9B0000"/>
</svg>
