<svg width="1333" height="1151" viewBox="0 0 1333 1151" fill="none" xmlns="http://www.w3.org/2000/svg">
<path d="M1333 1151C1333 783.741 1332.97 413.588 1333 46.3296C1333 27.7086 1332.05 9.60119 1310.09 2.69213C1305.29 1.17676 1300.1 0.0980238 1295.09 0.0980238C1088.36 -0.0303974 881.6 -0.00471314 674.867 0.0209711C672.324 0.0209711 669.782 0.277813 666.212 0.457603C666.212 17.0496 666.212 33.4362 666.212 50.696C711.185 55.3448 751.92 69.8564 780.892 107.124C801.953 134.221 815.771 165.453 813.511 199.793C809.247 264.543 771.029 333.3 666.083 344.01C666.083 349.198 666.083 354.54 666.083 363.427C682.804 360.551 699.781 359.318 715.731 354.566C763.452 340.286 797.818 309.798 818.519 264.44C821.755 257.377 825.146 253.91 833.467 253.807C923.336 252.471 1013.21 250.725 1103.07 249.107C1106.44 249.055 1109.8 249.107 1114.32 249.107C1112.73 549.355 1111.09 851.599 1109.5 1151C1118.05 1151 1126.45 1151 1135 1151C1135 1148.5 1135 1143.07 1135 1140.5C1135.33 847.417 1135.51 554.287 1135.9 261.23C1135.9 257.48 1136.34 253.73 1136.54 250.211C1160.32 245.1 1161.79 245.691 1169.37 266.033C1176.53 285.27 1184.21 304.379 1190.2 323.976C1221.09 424.967 1254.61 525.52 1248.94 633.497C1248.58 640.329 1248.94 647.187 1248.96 654.019C1249.58 818.732 1250.36 986.287 1251 1151C1258.71 1151 1266.29 1151 1274 1151C1274.15 1061.7 1274.29 969.575 1274.44 880.271C1274.47 864.578 1274.44 848.885 1274.44 833.192C1275.8 833.166 1277.16 833.14 1278.52 833.115C1281.27 938.138 1284.23 1045.98 1287 1151C1302.5 1151 1317 1151 1333 1151ZM794.427 87.8097C795.891 88.0665 797.895 88.349 799.872 88.8114C854.605 101.243 908.337 100.909 960.887 78.2295C990.321 65.5158 1020.01 53.2644 1050.32 42.8366C1062.34 38.7014 1076.72 37.4686 1089.23 39.6004C1115.94 44.1978 1123.83 63.872 1110.06 87.296C1097.3 108.999 1080.29 126.927 1059.23 140.822C1055.89 143.005 1051.37 144.546 1047.44 144.495C975.578 143.467 903.688 142.235 831.824 140.693C828.253 140.616 823.168 138.459 821.447 135.634C812.047 120.043 803.443 103.965 794.427 87.8097ZM1088.82 145.984C1118.49 113.931 1147.41 82.2362 1177.05 51.2096C1180.95 47.1002 1188.58 44.1465 1194.23 44.5317C1221.45 46.4067 1232.45 49.5402 1242.64 76.149C1246.75 86.9107 1247.42 99.3419 1247.86 111.105C1248.63 132.629 1237.84 145.214 1216.16 145.702C1173.53 146.678 1130.89 145.984 1088.82 145.984ZM1297.53 261.358C1297.53 423.323 1297.53 583.901 1297.53 744.504C1293.34 714.787 1290.95 684.994 1287.64 655.303C1283.53 618.369 1275.52 581.563 1274.72 544.578C1272.8 454.786 1274.08 364.917 1274.08 275.099C1274.08 270.604 1274.08 266.11 1274.08 261.358C1282.79 261.358 1289.54 261.358 1297.53 261.358ZM831.567 163.732C894.159 163.732 957.034 163.732 1019.93 163.732C1020.06 164.991 1020.19 166.249 1020.32 167.482C963.07 206.163 899.116 224.861 831.567 231.77C831.567 207.55 831.567 185.435 831.567 163.732ZM1114.92 229.458C1052.61 229.458 991.374 229.458 927.138 229.458C974.191 216.256 1013.77 193.963 1051.63 168.227C1053.97 166.635 1057.1 165.402 1059.87 165.376C1078.11 165.119 1096.35 165.248 1114.92 165.248C1114.92 187.542 1114.92 207.344 1114.92 229.458ZM1003.6 38.3418C1003.81 39.4463 1004.01 40.5507 1004.19 41.6294C978.712 51.3381 953.49 61.92 927.651 70.5756C884.759 84.9587 841.507 81.3372 798.845 69.0602C788.469 66.0808 778.811 59.6598 769.668 53.5726C765.327 50.6703 762.964 44.84 758.264 38.3162C842.354 38.3418 922.977 38.3418 1003.6 38.3418ZM1196.87 261.538C1232.65 257.48 1231.16 258.43 1239.41 287.222C1252.07 331.425 1247.57 376.86 1247.03 422.039C1230.29 368.538 1213.57 315.038 1196.87 261.538ZM1298.2 144.803C1289.31 144.803 1282.33 144.803 1272.03 144.803C1276.16 109.41 1280.17 75.3015 1284.17 41.1928C1285.72 40.8075 1287.26 40.448 1288.77 40.0627C1291.91 46.0728 1297.56 52.0059 1297.79 58.1187C1298.74 86.6025 1298.2 115.138 1298.2 144.803ZM1155.32 167.688C1155.32 183.304 1155.32 198.098 1155.32 212.892C1155.32 229.51 1153.31 230.922 1136.9 225.914C1136.9 206.548 1136.9 187.182 1136.9 167.713C1143.19 167.688 1148.51 167.688 1155.32 167.688ZM1214.44 168.432C1211 176.086 1210.08 183.175 1206.15 185.846C1199.13 190.624 1196.46 195.915 1196.98 203.877C1197.34 209.399 1197.8 215.101 1196.69 220.443C1196.18 222.96 1192.38 225.965 1189.66 226.479C1187.86 226.813 1183.44 223.14 1183.39 221.188C1182.88 203.851 1183.11 186.488 1183.11 168.432C1192.94 168.432 1201.27 168.432 1214.44 168.432ZM1247.55 238.961C1226.33 240.785 1211.18 233.516 1218.47 210.503C1228.18 210.503 1237.61 210.503 1247.55 210.503C1247.55 220.623 1247.55 229.407 1247.55 238.961ZM1275.16 239.912C1275.16 228.97 1275.16 219.852 1275.16 210.811C1283.35 210.811 1290.39 210.811 1297.48 210.811C1297.48 221.008 1297.48 230.229 1297.48 239.912C1289.67 239.912 1282.66 239.912 1275.16 239.912ZM1297.74 184.305C1289.82 184.305 1282.48 184.305 1274.83 184.305C1274.83 177.936 1274.83 172.619 1274.83 166.737C1282.89 166.737 1290.21 166.737 1297.74 166.737C1297.74 173.133 1297.74 178.552 1297.74 184.305ZM1246.98 167.123C1246.98 173.492 1246.98 179.014 1246.98 185.358C1241.49 185.05 1237.12 184.793 1232.75 184.536C1232.75 177.884 1232.75 172.619 1232.75 167.123C1237.97 167.123 1242.33 167.123 1246.98 167.123Z" fill="#8D0000"/>
<path d="M0.0257093 1148.08C0.0257093 780.822 0.0256842 413.588 0 46.3296C0 27.7086 0.95035 9.60119 22.9104 2.69213C27.7133 1.17676 32.9015 0.0980238 37.91 0.0980238C244.642 -0.0303974 451.375 -0.00471314 658.133 0.0209711C660.676 0.0209711 663.218 0.277813 666.788 0.457603C666.788 17.0496 666.788 33.4362 666.788 50.696C621.815 55.3448 581.08 69.8564 552.108 107.124C531.047 134.221 517.229 165.453 519.489 199.793C523.753 264.543 561.971 333.3 666.917 344.01C666.917 349.198 666.917 354.54 666.917 363.427C650.196 360.551 633.219 359.318 617.269 354.566C569.548 340.286 535.182 309.798 514.481 264.44C511.245 257.377 507.854 253.91 499.533 253.807C409.664 252.471 319.794 250.725 229.925 249.107C226.561 249.055 223.196 249.107 218.676 249.107C220.268 549.355 221.86 848.731 223.453 1148.13C214.9 1148.13 206.321 1148.13 197.769 1148.13C197.923 1145.56 198.18 1143.02 198.18 1140.45C197.846 847.369 197.486 554.287 197.101 261.23C197.101 257.48 196.664 253.73 196.459 250.211C172.675 245.1 171.211 245.691 163.634 266.033C156.468 285.27 148.789 304.379 142.804 323.976C111.906 424.967 78.3883 525.52 84.0645 633.497C84.4241 640.329 84.0645 647.187 84.0388 654.019C83.4224 818.732 82.806 983.445 82.1639 1148.16C74.4586 1148.16 66.7534 1148.16 59.0481 1148.16C58.894 1058.85 58.7142 969.575 58.5601 880.271C58.5344 864.578 58.5601 848.885 58.5601 833.192C57.1988 833.166 55.8376 833.14 54.4763 833.115C51.7281 938.138 48.9799 1043.13 46.206 1148.16C30.8468 1148.08 15.4362 1148.08 0.0257093 1148.08ZM538.573 87.8097C537.109 88.0665 535.105 88.349 533.128 88.8114C478.395 101.243 424.663 100.909 372.113 78.2295C342.679 65.5158 312.988 53.2644 282.681 42.8366C270.66 38.7014 256.277 37.4686 243.769 39.6004C217.057 44.1978 209.172 63.872 222.939 87.296C235.704 108.999 252.707 126.927 273.768 140.822C277.107 143.005 281.628 144.546 285.557 144.495C357.422 143.467 429.312 142.235 501.177 140.693C504.747 140.616 509.832 138.459 511.553 135.634C520.953 120.043 529.558 103.965 538.573 87.8097ZM244.18 145.984C214.515 113.931 185.594 82.2362 155.955 51.2096C152.051 47.1002 144.397 44.1465 138.772 44.5317C111.547 46.4067 100.554 49.5402 90.3572 76.149C86.2477 86.9107 85.5799 99.3419 85.1433 111.105C84.3728 132.629 95.1601 145.214 116.838 145.702C159.473 146.678 202.109 145.984 244.18 145.984ZM35.4699 261.358C35.4699 423.323 35.4699 583.901 35.4699 744.504C39.6564 714.787 42.0451 684.994 45.3584 655.303C49.4678 618.369 57.4813 581.563 58.2775 544.578C60.2038 454.786 58.9196 364.917 58.9196 275.099C58.9196 270.604 58.9196 266.11 58.9196 261.358C50.2127 261.358 43.4577 261.358 35.4699 261.358ZM501.433 163.732C438.841 163.732 375.966 163.732 313.065 163.732C312.937 164.991 312.808 166.249 312.68 167.482C369.93 206.163 433.884 224.861 501.433 231.77C501.433 207.55 501.433 185.435 501.433 163.732ZM218.085 229.458C280.395 229.458 341.626 229.458 405.862 229.458C358.809 216.256 319.229 193.963 281.371 168.227C279.034 166.635 275.9 165.402 273.126 165.376C254.89 165.119 236.655 165.248 218.085 165.248C218.085 187.542 218.085 207.344 218.085 229.458ZM329.4 38.3418C329.195 39.4463 328.989 40.5507 328.81 41.6294C354.288 51.3381 379.51 61.92 405.349 70.5756C448.241 84.9587 491.493 81.3372 534.155 69.0602C544.531 66.0808 554.189 59.6598 563.332 53.5726C567.673 50.6703 570.036 44.84 574.736 38.3162C490.646 38.3418 410.023 38.3418 329.4 38.3418ZM136.126 261.538C100.348 257.48 101.838 258.43 93.5934 287.222C80.931 331.425 85.4258 376.86 85.9651 422.039C102.686 368.538 119.406 315.038 136.126 261.538ZM34.8022 144.803C43.6889 144.803 50.675 144.803 60.9744 144.803C56.8393 109.41 52.8325 75.3015 48.8258 41.1928C47.2847 40.8075 45.7436 40.448 44.2283 40.0627C41.0948 46.0728 35.4443 52.0059 35.2131 58.1187C34.2628 86.6025 34.8022 115.138 34.8022 144.803ZM177.684 167.688C177.684 183.304 177.684 198.098 177.684 212.892C177.684 229.51 179.687 230.922 196.099 225.914C196.099 206.548 196.099 187.182 196.099 167.713C189.807 167.688 184.464 167.688 177.684 167.688ZM118.533 168.432C121.974 176.086 122.899 183.175 126.829 185.846C133.841 190.624 136.512 195.915 135.998 203.877C135.638 209.399 135.176 215.101 136.281 220.443C136.794 222.96 140.596 225.965 143.318 226.479C145.116 226.813 149.534 223.14 149.585 221.188C150.099 203.851 149.868 186.488 149.868 168.432C140.056 168.432 131.709 168.432 118.533 168.432ZM85.4515 238.961C106.667 240.785 121.82 233.516 114.526 210.503C104.817 210.503 95.3913 210.503 85.4515 210.503C85.4515 220.623 85.4515 229.407 85.4515 238.961ZM57.8409 239.912C57.8409 228.97 57.8409 219.852 57.8409 210.811C49.6477 210.811 42.6102 210.811 35.5213 210.811C35.5213 221.008 35.5213 230.229 35.5213 239.912C43.3293 239.912 50.3411 239.912 57.8409 239.912ZM35.2645 184.305C43.1752 184.305 50.521 184.305 58.1749 184.305C58.1749 177.936 58.1749 172.619 58.1749 166.737C50.11 166.737 42.79 166.737 35.2645 166.737C35.2645 173.133 35.2645 178.552 35.2645 184.305ZM86.0165 167.123C86.0165 173.492 86.0165 179.014 86.0165 185.358C91.513 185.05 95.8792 184.793 100.246 184.536C100.246 177.884 100.246 172.619 100.246 167.123C95.0317 167.123 90.6654 167.123 86.0165 167.123Z" fill="#8D0000"/>
</svg>
