<svg width="1651" height="830" viewBox="0 0 1651 830" fill="none" xmlns="http://www.w3.org/2000/svg">
<path d="M1567.04 691.629L1567.03 691.631C1565.57 691.661 1564.08 691.719 1562.67 691.836C1559.95 702.397 1557.26 712.958 1554.1 725.246C1551.26 722.642 1547.28 718.956 1543.07 715.065C1530.02 721.618 1525.34 730.921 1528.53 745.051C1533.68 767.841 1549.71 778.9 1580.28 779.602C1575.81 794.698 1576.95 797.464 1583.03 809.986C1591.63 827.685 1594.27 828.722 1611.21 829.043C1618.11 829.16 1625.1 824.743 1633.88 821.788C1612.44 806.078 1613.05 803.27 1623.96 781.767C1634.17 761.581 1641.46 739.932 1650.03 718.926V701.373C1633.38 652.546 1606.53 618.405 1576.95 608.751C1579 623.905 1581.1 637.567 1592.89 650.264C1608.19 666.735 1612.08 688.676 1601.23 709.857C1598.19 715.796 1589.27 718.692 1583.03 722.993C1580.14 716.352 1576.63 709.916 1574.58 703.041C1573.5 699.384 1574.9 694.937 1575.25 689.847C1571.6 690.635 1569.32 691.132 1567.04 691.629Z" fill="#8D0000"/>
<path d="M0 707.224C5.70479 661.41 33.9654 631.775 72.8457 606.439C72.8457 612.027 72.8457 615.918 72.8457 619.838L73.2846 619.107C71.9681 633.033 62.8404 642.394 54.9707 653.014C40.3431 672.732 39.6117 699.852 52.2793 715.328C55.4681 719.219 63.0745 723.929 66.0292 722.554C70.5053 720.477 73.9867 713.806 75.4495 708.423C76.8537 703.245 75.1277 697.219 74.7181 691.104C77.9362 690.607 80.7739 690.168 83.5824 689.729C84.8404 690.402 86.0984 691.075 87.3856 691.777C90.2527 701.782 93.0904 711.788 96.6596 724.221C98.766 722.466 102.92 718.985 107.484 715.181C120.064 721.266 124.862 730.54 121.907 744.729C117.168 767.402 100.609 778.958 71.266 779.426C72.1729 800.285 69.0133 819.594 46.0771 827.931C35.4574 831.793 26.4175 828.604 18.8697 820.062C38.0904 805.902 37.0372 803.328 26.3883 781.562C15.6516 759.679 8.63032 735.982 0 713.075C0 711.115 0 709.184 0 707.224Z" fill="#8D0000"/>
<path d="M1553.95 360.314C1553.81 334.481 1553.72 308.649 1553.49 282.816C1553.34 267.487 1550.39 265.292 1535.73 269.066C1523.94 272.109 1516.36 267.194 1515.95 254.878C1515.37 237.032 1522.21 220.327 1537.6 212.779C1555.04 204.207 1555.04 192.183 1552.43 174.455C1547.75 178.872 1543.92 182.003 1540.64 185.63C1503.23 227.173 1481.93 277.17 1466.13 329.83C1460.95 347.061 1457.06 364.76 1454.08 382.489C1450.6 402.968 1459.99 415.987 1480.7 415.08C1501.65 414.173 1522.39 408.234 1545.97 404.021C1547.93 408.322 1551.56 416.396 1555.53 425.173C1528.36 439.683 1501.06 449.747 1471.54 451.912C1452.5 453.316 1444.95 447.26 1439.54 429.181C1417.39 355.077 1433.98 287.673 1475.26 224.715C1483.89 211.521 1493.63 199.058 1500.83 184.577C1487.9 199.38 1474.97 214.213 1461.01 230.215C1455.36 225.242 1449.43 220.005 1441.94 213.423C1469.14 184.723 1495.56 156.843 1524.79 126.066C1505.22 109.596 1485.53 93.0372 1465.46 76.1861C1446.44 106.904 1439.1 109.683 1406.8 100.234C1400.72 98.4494 1394.37 97.1329 1388.75 94.3829C1328.6 64.8936 1264.33 72.9973 1200.32 73.9627C1298.15 110.912 1384.48 165.415 1459.34 238.758C1457.09 243.088 1455.42 246.54 1453.52 249.846C1451.59 253.181 1449.43 256.37 1446.85 260.378C1273.57 91.1941 1059.63 25.9548 825.263 25.8962C590.84 25.8377 376.867 90.9601 204.114 259.822C188.755 240.308 188.726 240.25 205.606 224.715C274.883 160.91 353.082 111.527 441.521 78.7021C444.242 77.7074 446.875 76.5079 452.696 74.0797C446.933 73.2313 444.154 72.4707 441.345 72.4707C409.164 72.3829 376.896 70.8909 344.861 72.9973C325.26 74.2845 305.864 80.5159 286.702 85.7234C268.885 90.5505 251.712 97.8936 233.837 102.457C208.21 108.981 198.555 103.54 186.473 75.718C165.702 92.6276 145.808 108.806 125.154 125.628C154.058 156.141 180.768 184.284 208.327 213.394C201.452 219.625 195.864 224.715 189.545 230.449C175.824 214.71 162.513 199.527 149.202 184.343C148.412 184.928 147.593 185.513 146.803 186.098C150.343 190.721 153.883 195.372 157.422 199.995C199.141 254.673 226.465 314.266 219.327 385.122C217.805 400.042 214.353 414.904 210.55 429.473C205.811 447.524 197.561 453.404 178.603 451.941C149.055 449.659 121.848 439.596 94.9038 425.231C98.6192 416.659 102.013 408.819 104.909 402.149C123.398 406.947 140.425 413.266 157.949 415.518C188.316 419.468 201.276 404.957 195.22 375.409C181.061 306.367 157.627 241.332 110.906 186.771C107.484 182.792 105.231 177.819 100.345 175.04C96.5421 190.896 93.441 203.388 111.579 211.96C127.143 219.332 134.311 235.686 134.311 253.532C134.311 267.399 126.412 273.279 113.305 268.423C101.106 263.888 97.2442 268.832 96.8346 279.862C96.6884 283.753 96.5421 287.673 96.8346 291.564C99.9942 332.697 98.0341 372.367 63.7469 402.617C10.0926 373.362 -13.2824 291.534 17.4649 234.604C55.0288 165.034 109.327 110.386 170.324 61.5877C175.268 57.6383 180.329 53.8058 185.244 49.8271C205.167 33.7659 211.867 33.5611 233.545 48.8032C249.84 35.6675 266.72 30.0212 283.396 49.6223C298.96 35.2872 314.202 31.8936 330.614 46.9016C333.598 49.6223 339.712 49.6516 344.364 49.6808C396.029 49.8856 447.84 52.0505 499.359 49.0079C530.603 47.1649 561.38 37.2181 592.361 30.8989C597.978 29.7579 603.595 28.5585 609.388 25.5159C606.024 25.1649 602.688 24.5212 599.324 24.492C446.758 23.9946 294.162 23.234 141.566 23.4681C122.375 23.4973 102.481 26.3643 84.1963 32.0691C61.1431 39.2659 56.5793 56.1462 68.8958 77.1223C72.6405 83.4707 77.6724 89.0585 82.09 94.9973C83.1431 94.3537 84.1963 93.7101 85.2495 93.0372C80.949 84.0558 76.59 75.1037 72.3479 66.1223C67.3453 55.5026 70.9729 50.4122 82.5288 50.4122C110.234 50.4415 137.909 50.4122 166.199 51.7579C146.101 61.7633 137.558 91.9547 104.061 80.4867C115.061 112.843 88.1458 120.859 76.824 135.779C70.9437 127.061 64.7708 118.226 58.949 109.157C49.7921 94.9388 38.6751 81.4521 32.4437 66.0053C23.7256 44.5026 31.566 26.1888 53.0394 16.4175C67.8426 9.6888 84.3134 6.0904 100.404 2.98934C112.252 0.707423 124.686 1.08774 136.856 1.05849C594.702 0.999976 1052.52 0.882955 1510.31 1.29253C1533.01 1.32178 1556.32 3.25263 1578.27 8.66487C1621.65 19.3431 1632.39 49.3005 1608.22 87.1276C1602.23 96.4893 1594.01 104.417 1587.45 113.457C1582.45 120.362 1578.41 127.968 1573.97 135.253C1546.23 113.984 1546.23 113.984 1543.57 82.6808C1514.55 91.2526 1504.1 63.2553 1481.61 51.992C1496.97 51.992 1509.66 52.1675 1522.36 51.9335C1535.49 51.7287 1548.66 51.4654 1561.79 50.6755C1580.64 49.5053 1583.94 54.2154 1575.66 71.593C1572.21 78.8484 1568.52 85.9574 1564.93 93.1542C1566.62 94.0319 1568.32 94.9095 1570.02 95.7579C1575.9 84.1728 1583.3 73.0851 1587.22 60.8856C1591.05 48.9202 1582.3 36.5452 1566.39 31.8351C1551.12 27.3298 1534.97 23.4973 1519.17 23.4681C1360.26 23.2633 1201.31 23.8776 1042.4 24.3457C1041.52 24.3457 1040.67 25.0478 1037.86 26.3058C1067.15 32.742 1094.65 39.2074 1122.38 44.6489C1136.13 47.3404 1150.26 49.3298 1164.22 49.5053C1211.02 50.0904 1257.83 49.7978 1304.61 49.5931C1309.76 49.5638 1315.67 49.2712 1319.88 46.7845C1342.76 33.4441 1345.45 33.2686 1366.75 49.0665C1382.28 31.6595 1399.25 33.7367 1415.58 48.5399C1440.39 33.3271 1444.89 33.8829 1467.56 51.6702C1512.97 87.2739 1556.29 125.13 1591.11 171.412C1606.88 192.359 1621.18 214.652 1634 237.529C1652.9 271.261 1652.9 306.338 1635.96 341.268C1623.87 366.165 1606.18 386.468 1586.37 404.694C1576.8 391.441 1567.85 379.096 1558.9 366.721C1557.26 364.644 1555.62 362.479 1553.95 360.314ZM1577.65 226.617C1577.94 248.412 1574.4 266.463 1587.28 283.753C1598.16 298.351 1598.01 317.659 1588.68 322.633C1568.9 333.136 1580.52 348.612 1576.51 365.55C1613.84 327.343 1613.9 271.319 1577.65 226.617ZM72.699 226.324C36.1884 272.401 36.6272 332.726 72.933 363.503C72.933 354.229 73.2256 346.154 72.7868 338.138C72.582 334.628 71.9676 329.947 69.6857 327.957C53.5368 313.886 49.7921 302.183 63.191 283.548C75.8001 265.965 72.1139 248.149 72.699 226.324ZM288.252 69.3404C287.579 67.5558 286.906 65.7712 286.204 63.9867C271.664 69.6622 257.154 75.3377 242.614 81.0133C243.023 82.0957 243.462 83.1781 243.872 84.2898C258.675 79.2872 273.449 74.3138 288.252 69.3404ZM1364.32 64.1915C1363.68 65.976 1363.06 67.7313 1362.42 69.5159C1377.05 74.343 1391.7 79.1702 1406.33 83.9973C1406.74 82.8563 1407.15 81.7446 1407.56 80.6037C1393.14 75.1329 1378.72 69.6622 1364.32 64.1915Z" fill="#8D0000"/>
<path d="M1400.72 303.207C1406.65 282.991 1412.15 264.356 1418.12 244.082C1440.47 262.747 1438.07 262.191 1433.31 283.518C1427.34 310.404 1425.79 338.284 1422.39 365.755C1421.93 369.499 1421.95 373.273 1421.52 380.967C1264.33 194.348 1067.76 94.0021 825.175 93.9436C582.766 93.8851 386.521 194.055 229.157 380.558C227.518 359.143 226.524 340.624 224.505 322.223C223.13 309.702 223.335 295.688 217.542 285.273C207.362 266.959 215.29 256.779 232.053 243.555C238.08 264.297 243.58 283.284 249.226 302.768C250.162 302.037 252.912 300.457 255.048 298.292C376.925 174.162 522.851 96.9569 695.984 74.1963C897.553 47.691 1089.03 75.6298 1261.69 189.228C1307.77 219.537 1347.94 258.797 1390.8 294.021C1394.4 297.005 1397.67 300.398 1400.72 303.207Z" fill="#8D0000"/>
<path d="M1553.95 360.314C1555.59 362.479 1557.26 364.644 1558.9 366.809C1563.99 376.58 1569.9 386 1574.02 396.152C1585.4 424.354 1599.01 452.117 1606.23 481.431C1617.88 528.591 1611.82 572.269 1565.86 601.261C1565.83 601.29 1566.24 600.822 1566.24 600.822C1547.64 609.657 1544.21 615.011 1535.06 649.796C1508.11 634.905 1504.19 595.936 1525.61 574.58C1520.34 563.843 1513.29 554.335 1511.39 543.891C1510.01 536.314 1513.99 526.66 1518.12 519.375C1525.23 506.854 1534.94 505.245 1549.24 511.857C1549.13 512.764 1549.3 513.846 1548.86 514.548C1545.21 520.487 1537.45 527.538 1547.31 532.423C1550.65 534.091 1561.88 527.362 1564.28 522.096C1576.45 495.123 1574.64 467.038 1566.51 439.216C1552.26 390.506 1524.26 349.49 1492.46 311.019C1481.9 298.234 1481.52 288.902 1494.01 277.99C1513.99 305.46 1533.97 332.902 1553.95 360.314Z" fill="#8D0000"/>
<path d="M84.8409 601.992C50.3196 580.548 36.9207 548.455 40.0217 509.224C41.3382 492.373 43.3861 474.79 49.5297 459.314C61.1441 430.088 73.9579 400.891 90.0191 373.947C109.854 340.626 133.522 309.586 155.639 277.434C168.277 288.902 168.95 298.03 157.921 311.136C127.758 347.032 101.633 385.766 86.4207 430.82C77.3223 457.705 74.1042 484.913 82.1201 512.617C83.6999 518.117 85.8063 524.32 89.7265 528.006C93.1201 531.195 99.4393 531.253 104.471 532.716C104.383 527.947 104.676 523.12 104.003 518.439C103.711 516.304 101.516 514.461 100.141 512.413C115.647 504.982 125.681 507.673 133.902 521.16C144.785 539.064 140.923 557.232 122.258 571.889C137.705 584.82 140.397 601.963 136.564 620.394C133.961 632.974 128.168 644.003 114.915 651.141C111.083 629.785 106.958 609.599 84.2265 601.554C84.285 601.495 84.8409 601.992 84.8409 601.992Z" fill="#8D0000"/>
<path d="M1509.52 516.713C1500.65 499.072 1490.47 478.71 1479.5 456.915C1493.57 457.295 1506.01 445.886 1521.31 457.032C1529.23 462.825 1537.4 456.476 1542.19 447.29C1545.35 441.205 1550.56 436.173 1554.86 430.673C1556.85 431.287 1558.84 431.872 1560.8 432.487C1561.8 446.705 1564.02 461.011 1563.43 475.17C1562.88 488.481 1555.24 496.176 1540.88 499.686C1529.61 502.407 1519.76 510.891 1509.52 516.713Z" fill="#8D0000"/>
<path d="M171.173 456.008C160.143 478.037 149.816 498.662 141.274 515.718C129.074 509.984 116.494 505.186 105.202 498.311C98.3854 494.157 89.6673 487.399 88.5849 480.699C86.1274 465.34 87.795 449.338 87.795 433.598C90.0184 432.721 92.2418 431.814 94.4944 430.936C98.9412 435.909 104.705 440.268 107.513 446.032C111.989 455.189 119.654 462.912 127.553 457.295C142.853 446.441 156.048 457.383 171.173 456.008Z" fill="#8D0000"/>
<path d="M1567.03 691.631C1565.57 691.689 1564.11 691.748 1562.64 691.777C1560.39 692.479 1558.14 693.181 1553.9 694.527C1553.9 685.37 1554.13 676.915 1553.78 668.431C1553.63 665.125 1552.93 661.468 1551.29 658.66C1546.09 649.649 1537.63 641.312 1545.15 629.96C1550.97 621.184 1557.64 612.963 1563.93 604.479C1564.78 603.338 1565.48 602.08 1566.27 600.851C1566.3 600.822 1565.86 601.29 1565.89 601.261C1568.67 604.508 1573.47 607.551 1573.85 611.062C1576.07 633.003 1576.42 655.179 1579.2 677.032C1580.58 688.179 1569.84 685.867 1567.03 691.631Z" fill="#8D0000"/>
<path d="M87.4143 691.777C86.1563 691.104 84.8984 690.431 83.6111 689.729C79.7494 688.207 75.8585 686.686 73.2548 685.662C73.2548 662.843 73.2548 640.96 73.2548 619.106L72.8159 619.838C76.8239 613.899 80.8319 607.96 84.8106 602.021C84.8106 602.021 84.2547 601.524 84.2255 601.524C90.7494 609.715 98.268 617.322 103.475 626.303C108.566 635.08 108.683 643.447 102.247 654.125C95.8106 664.803 96.3372 679.665 93.675 693.386C92.7388 693.122 90.0766 692.449 87.4143 691.777Z" fill="#8D0000"/>
<path d="M193.232 101.024C175.883 113.077 160.056 124.106 141.655 136.891C139.958 135.194 137.091 132.327 132.527 127.734C150.548 113.047 166.17 100.292 183.314 86.3374C187.264 92.1885 190.306 96.6938 193.232 101.024Z" fill="#8D0000"/>
<path d="M1516.51 125.948C1512.24 130.746 1509.75 133.555 1507.5 136.1C1490.73 124.456 1474.56 113.193 1457.35 101.228C1459.37 97.9219 1462.03 93.5629 1466.25 86.6001C1482.95 99.648 1499.1 112.286 1516.51 125.948Z" fill="#8D0000"/>
</svg>
