<svg width="1167" height="147" viewBox="0 0 1167 147" fill="none" xmlns="http://www.w3.org/2000/svg">
<path d="M1124.82 49.1002C1126.88 50.2795 1128.78 51.3618 1131.37 52.8419C1131.49 49.3782 1131.58 46.8254 1131.7 43.8267C1137.88 48.094 1137.85 57.6573 1131.96 64.4276C1126.92 70.2235 1120.54 72.8831 1115.51 68.4791C1111.5 64.9587 1111.52 64.5223 1117.46 59.9644C1117.85 59.6694 1118.24 59.1882 1118.61 59.0828C1123.48 57.703 1124.57 54.5709 1124.19 50.6662C1124.16 50.3465 1124.5 49.8641 1124.82 49.1002Z" fill="#7F000F"/>
<path d="M1102.1 59.1323C1098.78 55.658 1098.22 52.8852 1100.35 48.8916C1102.33 45.1701 1105.81 42.4119 1109.02 42.8881C1112.57 43.4136 1115.86 44.6627 1118.9 46.1322C1119.69 46.5227 1119.78 49.0643 1119.12 50.3409C1117.42 53.63 1115.13 56.7669 1113.03 59.9483C1111.74 61.917 1110.16 62.6387 1108.6 62.0085C1106.4 61.1186 1104.27 60.0974 1102.1 59.1323Z" fill="#2898FF"/>
<path d="M1099.77 91.6675C1099.54 90.9119 1099.23 90.1983 1099.1 89.3861C1098.98 88.6406 1099.03 87.8059 1098.99 86.633C1097.3 87.8348 1095.86 88.8656 1094.43 89.8948C1094.15 89.7478 1093.86 89.5929 1093.58 89.4459C1095.05 86.4917 1096.53 83.5374 1098.08 80.4217C1097.05 79.7181 1095.91 78.936 1094.6 78.0361C1103.55 72.6333 1112.87 70.8121 1117.31 73.9243C1108.12 76.4001 1103.87 83.4908 1100.68 91.5857C1100.37 91.6205 1100.07 91.644 1099.77 91.6675Z" fill="#7F000F"/>
<path d="M1160.52 45.8913C1158.06 46.0991 1156.4 46.2357 1154.5 46.3937C1154.52 48.2975 1154.53 49.407 1154.54 50.2905C1149.27 49.6155 1144.19 48.9675 1138.88 48.2819C1138.96 48.0614 1139.09 47.2817 1139.5 46.6188C1142.49 41.8641 1152.47 36.6634 1155.14 39.3591C1156.79 41.0343 1158.99 42.7297 1160.52 45.8913Z" fill="#7F000F"/>
<path d="M1135.24 42.4736C1132.83 36.8319 1133.98 30.5423 1137.95 23.8251C1141.77 17.3402 1146.65 12.8528 1149.99 12.5683C1148.77 14.3261 1147.65 15.97 1146.29 17.9298C1147.52 17.9978 1148.41 18.0484 1150.32 18.153C1140.49 24.8329 1136.96 33.2335 1135.24 42.4736Z" fill="#7F000F"/>
<path d="M1157.55 29.199C1155.75 29.7237 1153.94 30.3282 1152.15 30.7716C1148.44 31.6899 1144.75 32.519 1140.93 33.4177C1140.99 31.4797 1142.67 28.6079 1145.42 26.5396C1149.18 23.7135 1152.02 24.0578 1157.59 28.003C1157.58 28.3979 1157.57 28.7928 1157.55 29.199Z" fill="#7F000F"/>
<path d="M1123.42 16.4951C1131.42 17.1985 1133.36 21.7351 1131.09 30.837C1127.96 29.8936 1124.75 23.9793 1123.42 16.4951Z" fill="#7F000F"/>
<path d="M1123.96 28.5937C1129.3 32.9709 1131.89 38.0107 1128.58 46.5987C1126.29 45.8815 1124.16 45.3713 1124.68 41.5138C1125.11 38.2908 1124.37 35.3351 1124.16 32.2455C1124.08 31.3149 1124.04 30.3775 1123.96 28.5937Z" fill="#2898FF"/>
<path d="M1109.24 32.712C1114.19 31.7423 1121.92 36.3963 1122.52 40.6365C1122.57 41.0595 1122.45 41.7595 1122.15 42.1381C1121.87 42.4718 1121.01 42.8206 1120.8 42.6601C1116.85 39.787 1112.95 36.8562 1109.09 33.8804C1108.93 33.7514 1109.18 33.117 1109.24 32.712Z" fill="#2898FF"/>
<path d="M1102.73 64.4503C1102.09 64.789 1101.39 65.3447 1100.81 65.417C1097.13 65.8894 1092.2 61.744 1092.2 58.076C1092.2 57.358 1092.75 56.1302 1093.37 55.5896C1093.82 55.1858 1095.32 55.2067 1095.4 55.5657C1096.37 59.8391 1098.8 62.5768 1103.13 63.426C1102.99 63.7744 1102.86 64.1115 1102.73 64.4503Z" fill="#2898FF"/>
<path d="M1109.32 68.4799C1104.57 69.8872 1100.42 71.1106 1096.2 72.3665C1098.09 67.6874 1104.97 65.4895 1109.32 68.4799Z" fill="#2898FF"/>
<path d="M1095.33 51.8622C1092.5 52.7643 1091.84 52.32 1093.08 49.3472C1093.86 47.49 1095.27 45.619 1096.65 43.9599C1097.21 43.2908 1098.46 43.1771 1099.4 42.8053C1099.19 43.6989 1099.14 44.621 1098.73 45.4702C1097.76 47.4805 1096.62 49.4509 1095.33 51.8622Z" fill="#2898FF"/>
<path d="M1107.41 38.3343C1105.49 39.3027 1103.57 40.2808 1101.51 41.3221C1101.16 38.9056 1102.58 36.7288 1104.48 35.794C1105.56 35.2584 1106.91 36.6245 1108.13 37.1368C1107.89 37.5227 1107.65 37.9293 1107.41 38.3343Z" fill="#2898FF"/>
<path d="M985.321 68.3962C977.403 59.9035 970.276 55.1096 959.434 50.7495C959.148 51.0776 958.857 51.3955 958.581 51.7176C966.309 57.9296 974.028 64.1475 981.75 70.3493C981.52 70.7267 981.296 71.1143 981.065 71.4917C977.713 70.0596 974.344 68.6231 970.991 67.1909C970.868 67.4249 970.741 67.6749 970.618 67.9088C974.985 70.6975 979.335 73.4819 983.702 76.2705C977.986 78.0363 973.217 75.6564 969.103 73.0475C960.82 67.7803 954.204 60.6954 950.538 51.3362C948.225 45.4472 949.85 43.2052 955.878 44.5189C969.252 47.4309 979.695 54.2756 985.321 68.3962Z" fill="#2898FF"/>
<path d="M978.431 80.3596C961.51 79.4416 948.965 72.0855 941.485 56.4954C937.414 48.0089 932.391 39.9905 927.914 31.9552C930.582 31.2839 935.286 32.8457 938.53 37.193C941.813 41.5853 944.964 46.3385 946.944 51.415C952.754 66.2991 962.345 76.6779 978.431 80.3596Z" fill="#2898FF"/>
<path d="M934.495 72.9434C939.77 70.3189 943.67 70.7013 947.478 72.7806C952.338 75.4343 957.083 78.2898 961.984 80.8515C968.931 84.4864 976.243 85.6019 984.38 83.7962C983.795 84.5005 983.331 85.3661 982.62 85.8988C974.875 91.7013 963.26 91.9295 953.989 86.2685C950.778 84.3062 947.931 81.7266 944.82 79.5844C941.747 77.461 938.538 75.5249 934.495 72.9434Z" fill="#2898FF"/>
<path d="M993.94 62.9313C989.585 55.247 984.164 48.7752 976.562 44.2154C981.632 50.3868 987.931 55.6992 989.409 64.1623C985.493 53.6168 974.686 50.1872 967.788 42.803C964.629 39.4254 963.016 34.5851 960.93 30.2896C960.653 29.7161 961.526 28.1936 962.265 27.6856C962.73 27.3626 964.127 27.9005 964.776 28.4359C972.033 34.5129 979.443 40.4332 986.363 46.8676C990.882 51.0487 994.535 56.0827 993.94 62.9313Z" fill="#2898FF"/>
<path d="M934.613 15.2138C940.682 14.4121 944.779 17.0168 948.604 22.4409C946.519 21.4174 945.281 20.8015 943.874 20.1061C945.795 25.9501 947.648 31.5348 949.857 38.2309C936.998 34.329 936.984 24.2607 934.613 15.2138Z" fill="#2898FF"/>
<path d="M955.652 38.9999C951.108 35.9743 949.639 29.4076 953.089 23.6943C955.27 20.0858 959.058 17.3557 962.468 14.6534C963.495 13.8436 965.667 14.4772 967.319 14.4465C967.014 16.035 967.019 17.7841 966.312 19.1702C965.554 20.6804 964.218 21.9409 962.989 23.1528C956.187 29.8365 956.182 29.8263 955.652 38.9999Z" fill="#2898FF"/>
<path d="M943.303 64.7484C937.124 65.2194 933.249 67.47 931.207 73.0356C930.488 75.0125 927.866 76.798 925.708 77.6231C922.21 78.9501 919.832 76.2896 920.772 72.6502C922.765 65.0222 936.157 59.8977 943.303 64.7484Z" fill="#2898FF"/>
<path d="M992.852 85.016C989.904 83.2961 988.546 77.8872 990.294 74.8685C991.96 71.9917 996.872 70.7853 999.994 72.5C1002.82 74.0483 1004.17 79.2939 1002.5 82.2291C1000.85 85.1364 995.637 86.6403 992.852 85.016Z" fill="#7F000F"/>
<path d="M914.968 47.8491C927.397 43.009 932.82 45.8397 935.899 54.723C932.987 54.0547 930.133 53.3934 927.296 52.7365C927.089 53.1546 926.889 53.5829 926.682 54.0011C928.108 55.5541 929.545 57.1013 930.971 58.6544C930.631 59.0541 930.302 59.448 929.962 59.8478C925.042 55.9121 920.121 51.9764 914.968 47.8491Z" fill="#2898FF"/>
<path d="M184.379 78.2623C195.068 73.7264 202.01 68.6688 209.816 59.9719C209.605 59.5911 209.406 59.2082 209.198 58.8389C200.717 63.9766 192.235 69.1028 183.765 74.2385C183.49 73.8931 183.202 73.5497 182.926 73.2042C185.419 70.5435 187.921 67.8691 190.413 65.2083C190.235 65.0128 190.044 64.8077 189.866 64.6121C185.752 67.7618 181.648 70.8979 177.534 74.0476C177.83 68.0721 181.697 64.4046 185.556 61.4313C193.338 55.4493 202.259 51.6551 212.307 51.4119C218.632 51.252 220.183 53.5461 216.887 58.7609C209.576 70.3322 199.573 77.8045 184.379 78.2623Z" fill="#2898FF"/>
<path d="M175.494 67.6957C182.144 52.1088 193.347 42.8367 210.555 41.14C219.923 40.2168 229.175 38.2389 238.257 36.7809C237.975 39.5176 234.899 43.4039 229.705 44.9647C224.454 46.5473 218.91 47.8832 213.462 48.0078C197.489 48.3761 184.456 53.8389 175.494 67.6957Z" fill="#2898FF"/>
<path d="M197.49 28.9458C198.152 34.8002 196.459 38.3351 193.203 41.2022C189.047 44.8608 184.741 48.343 180.657 52.0724C174.865 57.3571 171.316 63.8465 170.23 72.111C169.768 71.3207 169.114 70.5882 168.856 69.7379C166.053 60.4754 169.811 49.4827 178.301 42.7072C181.243 40.3612 184.641 38.5679 187.718 36.3773C190.764 34.216 193.681 31.8625 197.49 28.9458Z" fill="#2898FF"/>
<path d="M186.567 88.2306C195.278 86.7663 203.213 83.8863 210.098 78.3014C202.565 80.9553 195.418 85.0577 186.96 83.5516C198.209 83.4789 205.128 74.4964 214.426 70.5401C218.68 68.7271 223.78 68.8668 228.53 68.3756C229.164 68.3116 230.296 69.6525 230.521 70.5205C230.665 71.0683 229.682 72.1971 228.957 72.6234C220.764 77.3641 212.667 82.3029 204.254 86.6048C198.779 89.4211 192.799 91.1324 186.567 88.2306Z" fill="#2898FF"/>
<path d="M251.698 48.8013C250.376 54.7788 246.527 57.7384 240.122 59.4769C241.796 57.8679 242.799 56.9149 243.933 55.8311C237.785 55.6375 231.903 55.4684 224.855 55.2542C232.92 44.5053 242.386 47.9355 251.698 48.8013Z" fill="#2898FF"/>
<path d="M222.15 60.4363C226.548 57.2008 233.221 58.0663 237.409 63.263C240.054 66.5465 241.324 71.0398 242.697 75.1686C243.107 76.4099 241.769 78.2342 241.233 79.7977C239.844 78.9677 238.199 78.3741 237.138 77.2355C235.978 76.007 235.251 74.32 234.532 72.7509C230.578 64.0735 230.59 64.0714 222.15 60.4363Z" fill="#2898FF"/>
<path d="M202.179 40.0257C203.849 34.0585 203.06 29.6477 198.528 25.8251C196.916 24.4732 196.135 21.3984 196.098 19.0882C196.048 15.3472 199.361 14.0226 202.459 16.1514C208.946 20.6324 209.181 34.9695 202.179 40.0257Z" fill="#2898FF"/>
<path d="M166.187 79.6552C168.811 77.4727 174.358 78.0471 176.597 80.7215C178.731 83.2711 178.184 88.2996 175.505 90.647C173.085 92.7695 167.691 92.2517 165.505 89.6754C163.337 87.1319 163.708 81.7164 166.187 79.6552Z" fill="#7F000F"/>
<path d="M227.75 19.1797C228.047 32.5145 223.532 36.6425 214.132 36.4968C215.755 33.9892 217.353 31.534 218.94 29.0925C218.618 28.7553 218.285 28.42 217.962 28.0827C216.015 28.8918 214.07 29.7125 212.123 30.5216C211.863 30.0658 211.606 29.6216 211.346 29.1657C216.727 25.8881 222.109 22.6105 227.75 19.1797Z" fill="#2898FF"/>
<path d="M590.5 74.5243C591.679 77.7123 592.755 80.634 594.232 84.6332C597.551 80.959 599.995 78.2487 602.869 75.0683C605.724 85.4222 596.905 95.8562 584.247 97.8606C573.404 99.571 563.975 96.619 562.521 87.1858C561.362 79.6483 561.786 79.1903 572.474 79.6583C573.172 79.694 574.037 79.5229 574.544 79.7516C581.14 82.7133 585.209 80.2864 588.375 75.6609C588.639 75.2863 589.451 75.0686 590.5 74.5243Z" fill="#7F000F"/>
<path d="M556.431 64.6459C555.981 57.7893 557.917 54.2427 563.912 51.8261C569.495 49.5707 575.843 49.7534 578.919 53.2227C582.315 57.0521 584.766 61.4383 586.746 65.8395C587.259 66.9983 585.017 69.8571 583.123 70.6483C578.241 72.6855 572.856 74.017 567.643 75.5758C564.418 76.5411 562.023 75.8768 560.898 73.7579C559.305 70.7619 557.915 67.6912 556.431 64.6459Z" fill="#2898FF"/>
<path d="M523.999 98.106C524.44 97.0665 524.763 96.0075 525.363 94.9962C525.915 94.0687 526.735 93.2007 527.769 91.8807C524.821 91.6479 522.297 91.4531 519.786 91.2652C519.613 90.8458 519.435 90.4075 519.262 89.988C523.589 88.1096 527.916 86.2312 532.478 84.2492C531.999 82.5347 531.469 80.6312 530.862 78.4442C545.617 80.7491 557.493 87.3186 559.486 94.7947C547.156 89.0656 535.998 92.9263 525.07 98.852C524.7 98.6067 524.35 98.3564 523.999 98.106Z" fill="#7F000F"/>
<path d="M632.522 103.802C629.638 101.769 627.688 100.388 625.465 98.8167C623.74 100.92 622.731 102.142 621.928 103.116C616.79 97.5462 611.826 92.1725 606.642 86.5439C606.931 86.3753 607.787 85.6396 608.849 85.2943C616.484 82.8335 632.178 86.3041 632.622 91.704C632.892 95.0545 633.75 98.936 632.522 103.802Z" fill="#7F000F"/>
<path d="M607.993 76.8454C610.535 68.4578 617.572 62.6331 628.082 58.9257C638.22 55.3385 647.673 54.9019 651.591 57.6594C648.648 58.4682 645.907 59.2333 642.624 60.1332C643.909 61.3383 644.83 62.2054 646.83 64.0794C629.934 62.3587 618.353 68.3073 607.993 76.8454Z" fill="#7F000F"/>
<path d="M644.597 82.8039C642.14 81.7206 639.603 80.7193 637.237 79.5609C632.342 77.1661 627.534 74.6774 622.535 72.1586C624.381 70.0942 628.853 68.4909 633.764 68.7547C640.473 69.114 643.269 72.1017 645.734 81.5273C645.361 81.9511 644.989 82.375 644.597 82.8039Z" fill="#7F000F"/>
<path d="M618.916 37.564C627.024 45.6798 624.971 52.4172 614.13 60.2942C611.576 56.3914 613.498 46.9751 618.916 37.564Z" fill="#7F000F"/>
<path d="M608.386 51.2917C610.215 60.989 608.421 68.8823 596.909 75.2379C595.062 72.3505 593.205 69.8406 597.315 66.0961C600.751 62.9681 602.647 59.0473 605.254 55.4729C606.025 54.3851 606.845 53.3249 608.386 51.2917Z" fill="#2898FF"/>
<path d="M588.507 42.2896C594.805 45.7664 598.994 57.9604 595.757 63.1518C595.429 63.6651 594.652 64.3188 593.969 64.4513C593.361 64.5636 592.096 64.153 592.019 63.7889C590.337 57.0194 588.761 50.2315 587.261 43.4234C587.204 43.1349 588.062 42.672 588.507 42.2896Z" fill="#2898FF"/>
<path d="M552.23 71.0378C551.22 70.8223 549.945 70.7892 549.247 70.3382C544.784 67.4735 543.196 58.4105 546.566 54.3985C547.227 53.6139 548.957 52.7757 550.124 52.7465C550.987 52.7178 552.607 54.1165 552.368 54.5856C549.505 60.1526 549.65 65.3796 553.607 70.2839C553.14 70.5409 552.691 70.7928 552.23 71.0378Z" fill="#2898FF"/>
<path d="M555.742 81.4989C549.255 78.6802 543.59 76.2082 537.815 73.7049C544.179 70.3187 553.736 74.239 555.742 81.4989Z" fill="#2898FF"/>
<path d="M555.689 50.4655C551.764 48.8541 551.451 47.7632 555.544 45.6538C558.096 44.332 561.358 43.5795 564.391 43.0302C565.618 42.8127 567.1 43.8436 568.467 44.2975C567.41 45.0769 566.515 46.0458 565.286 46.598C562.375 47.9045 559.321 49.0164 555.689 50.4655Z" fill="#2898FF"/>
<path d="M581.34 46.7615C578.346 46.055 575.344 45.3605 572.136 44.6101C573.975 41.6465 577.523 40.5642 580.46 41.2859C582.14 41.6966 582.354 44.424 583.22 46.1059C582.607 46.3108 581.967 46.5327 581.34 46.7615Z" fill="#2898FF"/>
<path d="M46.6409 47.6899C44.4012 48.4925 42.3501 49.2299 39.5411 50.2375C40.0177 46.8043 40.3717 44.2746 40.7838 41.3022C33.9468 44.4298 32.3201 53.8539 36.9409 61.5434C40.9026 68.1273 46.7283 71.8552 52.4411 68.3906C57.0045 65.6205 57.0592 65.1871 51.9993 59.6666C51.666 59.3083 51.3683 58.7672 51.0176 58.5983C46.4614 56.3938 45.932 53.1201 46.9879 49.3413C47.0699 49.0311 46.8211 48.4974 46.6409 47.6899Z" fill="#7F000F"/>
<path d="M67.2687 61.5139C71.148 58.67 72.1787 56.0361 70.7769 51.7338C69.4742 47.7251 66.52 44.4035 63.2753 44.3148C59.6939 44.2169 56.2388 44.8761 52.9881 45.795C52.1359 46.0413 51.6115 48.5297 52.0396 49.9014C53.1439 53.436 54.8529 56.9227 56.3626 60.4193C57.296 62.583 58.7303 63.5687 60.3726 63.2185C62.6958 62.7245 64.9678 62.0881 67.2687 61.5139Z" fill="#2898FF"/>
<path d="M63.9188 93.9606C64.2781 93.2567 64.7002 92.6066 64.9726 91.8298C65.2218 91.1168 65.318 90.2862 65.5607 89.138C67.0122 90.6143 68.252 91.8796 69.4827 93.1416C69.7855 93.0457 70.1008 92.9441 70.4036 92.8482C69.4638 89.6827 68.5241 86.5172 67.5339 83.1787C68.6691 82.6645 69.9285 82.0924 71.374 81.4335C63.4991 74.5587 54.6322 71.1459 49.7264 73.441C58.3466 77.4751 61.2971 85.1955 63.0369 93.7221C63.3348 93.8099 63.6268 93.8852 63.9188 93.9606Z" fill="#7F000F"/>
<path d="M12.0335 38.329C14.4209 38.9609 16.039 39.385 17.8821 39.8703C17.5308 41.7416 17.3294 42.8327 17.1679 43.7013C22.4667 43.9503 27.5819 44.1942 32.9329 44.4416C32.8932 44.2107 32.9026 43.4207 32.6099 42.6959C30.4943 37.4948 21.5713 30.6405 18.4757 32.8319C16.5576 34.1947 14.0901 35.4812 12.0335 38.329Z" fill="#7F000F"/>
<path d="M37.5255 39.3537C40.8793 34.2164 40.8364 27.8222 38.0952 20.518C35.4572 13.4678 31.438 8.20251 28.196 7.34197C29.0865 9.2839 29.91 11.0984 30.9046 13.2638C29.6802 13.117 28.8008 13.0133 26.8956 12.7835C35.4211 21.0698 37.4422 29.9564 37.5255 39.3537Z" fill="#7F000F"/>
<path d="M17.8614 22.4125C19.5481 23.2428 21.2264 24.1525 22.9123 24.9001C26.3989 26.4473 29.8972 27.9061 33.4972 29.4534C33.7733 27.5342 32.6209 24.4149 30.2696 21.9001C27.0581 18.4641 24.1981 18.3094 18.0347 21.2287C17.975 21.6192 17.9153 22.0097 17.8614 22.4125Z" fill="#7F000F"/>
<path d="M53.6748 15.822C45.6741 15.1255 42.985 19.2578 43.6392 28.6156C46.8815 28.2294 51.0659 22.9616 53.6748 15.822Z" fill="#7F000F"/>
<path d="M51.053 27.6503C45.03 31.0329 41.6045 35.5465 43.3765 44.5794C45.7559 44.2707 47.9376 44.1373 48.0959 40.2483C48.2275 36.9987 49.4768 34.2177 50.2205 31.2115C50.4566 30.3082 50.6562 29.3916 51.053 27.6503Z" fill="#2898FF"/>
<path d="M64.8255 34.2608C60.1269 32.4476 51.7032 35.6881 50.3758 39.7596C50.2483 40.1666 50.2472 40.8773 50.4837 41.3034C50.6971 41.6799 51.4862 42.1732 51.7162 42.0508C56.1032 39.907 60.4522 37.6978 64.778 35.4389C64.9584 35.3397 64.8205 34.6712 64.8255 34.2608Z" fill="#2898FF"/>
<path d="M65.7311 66.6433C66.301 67.0877 66.8923 67.7563 67.4482 67.9277C70.9929 69.0324 76.5674 65.806 77.2022 62.1934C77.3257 61.4861 76.9968 60.1813 76.4873 59.5425C76.1144 59.0667 74.6352 58.8272 74.4911 59.1663C72.794 63.2063 69.9259 65.4805 65.5155 65.5652C65.5882 65.9317 65.6551 66.2858 65.7311 66.6433Z" fill="#2898FF"/>
<path d="M58.5413 69.467C62.9717 71.6772 66.8463 73.6027 70.787 75.5729C69.7394 70.6369 63.337 67.2761 58.5413 69.467Z" fill="#2898FF"/>
<path d="M75.2061 55.5315C77.8366 56.9114 78.5622 56.5881 77.8516 53.4442C77.4121 51.4809 76.3479 49.3933 75.2779 47.52C74.8421 46.7637 73.6228 46.4332 72.7642 45.9043C72.8218 46.8218 72.7049 47.7376 72.9619 48.6452C73.571 50.7939 74.3489 52.9319 75.2061 55.5315Z" fill="#2898FF"/>
<path d="M65.6518 40.1158C67.378 41.4036 69.1009 42.7005 70.9471 44.0835C71.7089 41.764 70.6928 39.3744 68.9839 38.1239C68.0079 37.4079 66.4489 38.5202 65.1574 38.8127C65.3236 39.2338 65.4922 39.6765 65.6518 40.1158Z" fill="#2898FF"/>
</svg>
