<svg width="46" height="5000" viewBox="0 0 46 5000" fill="none" xmlns="http://www.w3.org/2000/svg">
<g clip-path="url(#clip0)">
<path d="M24.7168 3273C31.868 3273 37.6651 3267.21 37.6651 3260.06C37.6651 3252.9 31.868 3247.11 24.7168 3247.11C17.5657 3247.11 11.7686 3252.9 11.7686 3260.06C11.7686 3267.21 17.5657 3273 24.7168 3273Z" fill="#2898FF"/>
<path d="M16.8575 3265.6C18.2378 3265.6 19.3567 3263.12 19.3567 3260.06C19.3567 3256.99 18.2378 3254.51 16.8575 3254.51C15.4773 3254.51 14.3584 3256.99 14.3584 3260.06C14.3584 3263.12 15.4773 3265.6 16.8575 3265.6Z" fill="#EDEBDF"/>
</g>
<g clip-path="url(#clip1)">
<path d="M16.9483 3203.08C24.0994 3203.08 29.8966 3197.29 29.8966 3190.14C29.8966 3182.98 24.0994 3177.19 16.9483 3177.19C9.79714 3177.19 4 3182.98 4 3190.14C4 3197.29 9.79714 3203.08 16.9483 3203.08Z" fill="#2898FF"/>
<path d="M9.08898 3195.68C10.4692 3195.68 11.5881 3193.2 11.5881 3190.14C11.5881 3187.07 10.4692 3184.59 9.08898 3184.59C7.70874 3184.59 6.58984 3187.07 6.58984 3190.14C6.58984 3193.2 7.70874 3195.68 9.08898 3195.68Z" fill="#EDEBDF"/>
</g>
<g clip-path="url(#clip2)">
<path d="M23.8535 3002.82C31.0047 3002.82 36.8018 2997.02 36.8018 2989.87C36.8018 2982.72 31.0047 2976.92 23.8535 2976.92C16.7024 2976.92 10.9053 2982.72 10.9053 2989.87C10.9053 2997.02 16.7024 3002.82 23.8535 3002.82Z" fill="#2898FF"/>
<path d="M15.9943 2995.42C17.3745 2995.42 18.4934 2992.93 18.4934 2989.87C18.4934 2986.8 17.3745 2984.32 15.9943 2984.32C14.614 2984.32 13.4951 2986.8 13.4951 2989.87C13.4951 2992.93 14.614 2995.42 15.9943 2995.42Z" fill="#EDEBDF"/>
</g>
<g clip-path="url(#clip3)">
<path d="M14.143 3116.33C18.3145 3116.33 21.6962 3112.95 21.6962 3108.78C21.6962 3104.61 18.3145 3101.22 14.143 3101.22C9.97151 3101.22 6.58984 3104.61 6.58984 3108.78C6.58984 3112.95 9.97151 3116.33 14.143 3116.33Z" fill="#2898FF"/>
<path d="M9.55841 3112.01C10.3636 3112.01 11.0162 3110.56 11.0162 3108.78C11.0162 3106.99 10.3636 3105.54 9.55841 3105.54C8.75328 3105.54 8.10059 3106.99 8.10059 3108.78C8.10059 3110.56 8.75328 3112.01 9.55841 3112.01Z" fill="#EDEBDF"/>
</g>
<g clip-path="url(#clip4)">
<path d="M32.27 3161.65C36.4415 3161.65 39.8231 3158.27 39.8231 3154.1C39.8231 3149.92 36.4415 3146.54 32.27 3146.54C28.0985 3146.54 24.7168 3149.92 24.7168 3154.1C24.7168 3158.27 28.0985 3161.65 32.27 3161.65Z" fill="#2898FF"/>
<path d="M27.6854 3157.33C28.4905 3157.33 29.1432 3155.88 29.1432 3154.1C29.1432 3152.31 28.4905 3150.86 27.6854 3150.86C26.8802 3150.86 26.2275 3152.31 26.2275 3154.1C26.2275 3155.88 26.8802 3157.33 27.6854 3157.33Z" fill="#EDEBDF"/>
</g>
<g clip-path="url(#clip5)">
<path d="M13.2797 3232.86C17.4512 3232.86 20.8329 3229.48 20.8329 3225.31C20.8329 3221.14 17.4512 3217.76 13.2797 3217.76C9.10823 3217.76 5.72656 3221.14 5.72656 3225.31C5.72656 3229.48 9.10823 3232.86 13.2797 3232.86Z" fill="#2898FF"/>
<path d="M8.69513 3228.55C9.50027 3228.55 10.153 3227.1 10.153 3225.31C10.153 3223.52 9.50027 3222.07 8.69513 3222.07C7.89 3222.07 7.2373 3223.52 7.2373 3225.31C7.2373 3227.1 7.89 3228.55 8.69513 3228.55Z" fill="#EDEBDF"/>
</g>
<g clip-path="url(#clip6)">
<path d="M33.9965 3044.68C38.168 3044.68 41.5497 3041.3 41.5497 3037.13C41.5497 3032.96 38.168 3029.58 33.9965 3029.58C29.825 3029.58 26.4434 3032.96 26.4434 3037.13C26.4434 3041.3 29.825 3044.68 33.9965 3044.68Z" fill="#2898FF"/>
<path d="M29.4119 3040.37C30.2171 3040.37 30.8698 3038.92 30.8698 3037.13C30.8698 3035.34 30.2171 3033.89 29.4119 3033.89C28.6068 3033.89 27.9541 3035.34 27.9541 3037.13C27.9541 3038.92 28.6068 3040.37 29.4119 3040.37Z" fill="#EDEBDF"/>
</g>
<g clip-path="url(#clip7)">
<path d="M17.1645 2939.37C21.336 2939.37 24.7177 2935.99 24.7177 2931.82C24.7177 2927.65 21.336 2924.26 17.1645 2924.26C12.993 2924.26 9.61133 2927.65 9.61133 2931.82C9.61133 2935.99 12.993 2939.37 17.1645 2939.37Z" fill="#2898FF"/>
<path d="M12.5799 2935.05C13.385 2935.05 14.0377 2933.6 14.0377 2931.82C14.0377 2930.03 13.385 2928.58 12.5799 2928.58C11.7748 2928.58 11.1221 2930.03 11.1221 2931.82C11.1221 2933.6 11.7748 2935.05 12.5799 2935.05Z" fill="#EDEBDF"/>
</g>
<g clip-path="url(#clip8)">
<path d="M31.4077 2853.48C35.5791 2853.48 38.9608 2850.1 38.9608 2845.93C38.9608 2841.76 35.5791 2838.37 31.4077 2838.37C27.2362 2838.37 23.8545 2841.76 23.8545 2845.93C23.8545 2850.1 27.2362 2853.48 31.4077 2853.48Z" fill="#2898FF"/>
<path d="M26.8231 2849.16C27.6282 2849.16 28.2809 2847.71 28.2809 2845.93C28.2809 2844.14 27.6282 2842.69 26.8231 2842.69C26.0179 2842.69 25.3652 2844.14 25.3652 2845.93C25.3652 2847.71 26.0179 2849.16 26.8231 2849.16Z" fill="#EDEBDF"/>
</g>
<g clip-path="url(#clip9)">
<path d="M25.3649 2897.5C28.1061 2897.5 30.3284 2895.28 30.3284 2892.54C30.3284 2889.8 28.1061 2887.58 25.3649 2887.58C22.6236 2887.58 20.4014 2889.8 20.4014 2892.54C20.4014 2895.28 22.6236 2897.5 25.3649 2897.5Z" fill="#2898FF"/>
<path d="M22.3525 2894.67C22.8816 2894.67 23.3105 2893.72 23.3105 2892.54C23.3105 2891.37 22.8816 2890.41 22.3525 2890.41C21.8234 2890.41 21.3945 2891.37 21.3945 2892.54C21.3945 2893.72 21.8234 2894.67 22.3525 2894.67Z" fill="#EDEBDF"/>
</g>
<g clip-path="url(#clip10)">
<path d="M34.86 2954.91C37.6013 2954.91 39.8235 2952.69 39.8235 2949.94C39.8235 2947.2 37.6013 2944.98 34.86 2944.98C32.1187 2944.98 29.8965 2947.2 29.8965 2949.94C29.8965 2952.69 32.1187 2954.91 34.86 2954.91Z" fill="#2898FF"/>
<path d="M31.8476 2952.07C32.3767 2952.07 32.8057 2951.12 32.8057 2949.94C32.8057 2948.77 32.3767 2947.82 31.8476 2947.82C31.3186 2947.82 30.8896 2948.77 30.8896 2949.94C30.8896 2951.12 31.3186 2952.07 31.8476 2952.07Z" fill="#EDEBDF"/>
</g>
<g clip-path="url(#clip11)">
<path d="M14.1432 3070.15C16.8845 3070.15 19.1067 3067.93 19.1067 3065.18C19.1067 3062.44 16.8845 3060.22 14.1432 3060.22C11.4019 3060.22 9.17969 3062.44 9.17969 3065.18C9.17969 3067.93 11.4019 3070.15 14.1432 3070.15Z" fill="#2898FF"/>
<path d="M11.1309 3067.31C11.6599 3067.31 12.0889 3066.36 12.0889 3065.18C12.0889 3064.01 11.6599 3063.06 11.1309 3063.06C10.6018 3063.06 10.1729 3064.01 10.1729 3065.18C10.1729 3066.36 10.6018 3067.31 11.1309 3067.31Z" fill="#EDEBDF"/>
</g>
<g clip-path="url(#clip12)">
<path d="M17.1637 3153.02C19.905 3153.02 22.1272 3150.79 22.1272 3148.05C22.1272 3145.31 19.905 3143.09 17.1637 3143.09C14.4224 3143.09 12.2002 3145.31 12.2002 3148.05C12.2002 3150.79 14.4224 3153.02 17.1637 3153.02Z" fill="#2898FF"/>
<path d="M14.1514 3150.18C14.6804 3150.18 15.1094 3149.23 15.1094 3148.05C15.1094 3146.88 14.6804 3145.93 14.1514 3145.93C13.6223 3145.93 13.1934 3146.88 13.1934 3148.05C13.1934 3149.23 13.6223 3150.18 14.1514 3150.18Z" fill="#EDEBDF"/>
</g>
<g clip-path="url(#clip13)">
<path d="M21.9117 2818.52C24.653 2818.52 26.8753 2816.3 26.8753 2813.56C26.8753 2810.81 24.653 2808.59 21.9117 2808.59C19.1705 2808.59 16.9482 2810.81 16.9482 2813.56C16.9482 2816.3 19.1705 2818.52 21.9117 2818.52Z" fill="#2898FF"/>
<path d="M18.8994 2815.68C19.4285 2815.68 19.8574 2814.73 19.8574 2813.56C19.8574 2812.38 19.4285 2811.43 18.8994 2811.43C18.3703 2811.43 17.9414 2812.38 17.9414 2813.56C17.9414 2814.73 18.3703 2815.68 18.8994 2815.68Z" fill="#EDEBDF"/>
</g>
<g clip-path="url(#clip14)">
<path d="M35.7233 2774.93C38.4645 2774.93 40.6868 2772.7 40.6868 2769.96C40.6868 2767.22 38.4645 2765 35.7233 2765C32.982 2765 30.7598 2767.22 30.7598 2769.96C30.7598 2772.7 32.982 2774.93 35.7233 2774.93Z" fill="#2898FF"/>
<path d="M32.7109 2772.09C33.24 2772.09 33.6689 2771.14 33.6689 2769.96C33.6689 2768.79 33.24 2767.84 32.7109 2767.84C32.1818 2767.84 31.7529 2768.79 31.7529 2769.96C31.7529 2771.14 32.1818 2772.09 32.7109 2772.09Z" fill="#EDEBDF"/>
</g>
<g clip-path="url(#clip15)">
<path d="M25.7168 3785C32.868 3785 38.6651 3779.21 38.6651 3772.06C38.6651 3764.9 32.868 3759.11 25.7168 3759.11C18.5657 3759.11 12.7686 3764.9 12.7686 3772.06C12.7686 3779.21 18.5657 3785 25.7168 3785Z" fill="#2898FF"/>
<path d="M17.8575 3777.61C19.2378 3777.61 20.3567 3775.12 20.3567 3772.06C20.3567 3768.99 19.2378 3766.51 17.8575 3766.51C16.4773 3766.51 15.3584 3768.99 15.3584 3772.06C15.3584 3775.12 16.4773 3777.61 17.8575 3777.61Z" fill="#EDEBDF"/>
</g>
<g clip-path="url(#clip16)">
<path d="M17.9483 3715.08C25.0994 3715.08 30.8966 3709.29 30.8966 3702.14C30.8966 3694.98 25.0994 3689.19 17.9483 3689.19C10.7971 3689.19 5 3694.98 5 3702.14C5 3709.29 10.7971 3715.08 17.9483 3715.08Z" fill="#2898FF"/>
<path d="M10.089 3707.68C11.4692 3707.68 12.5881 3705.2 12.5881 3702.14C12.5881 3699.07 11.4692 3696.59 10.089 3696.59C8.70874 3696.59 7.58984 3699.07 7.58984 3702.14C7.58984 3705.2 8.70874 3707.68 10.089 3707.68Z" fill="#EDEBDF"/>
</g>
<g clip-path="url(#clip17)">
<path d="M24.8535 3514.82C32.0047 3514.82 37.8018 3509.02 37.8018 3501.87C37.8018 3494.72 32.0047 3488.92 24.8535 3488.92C17.7024 3488.92 11.9053 3494.72 11.9053 3501.87C11.9053 3509.02 17.7024 3514.82 24.8535 3514.82Z" fill="#2898FF"/>
<path d="M16.9943 3507.42C18.3745 3507.42 19.4934 3504.93 19.4934 3501.87C19.4934 3498.8 18.3745 3496.32 16.9943 3496.32C15.614 3496.32 14.4951 3498.8 14.4951 3501.87C14.4951 3504.93 15.614 3507.42 16.9943 3507.42Z" fill="#EDEBDF"/>
</g>
<g clip-path="url(#clip18)">
<path d="M15.143 3628.33C19.3145 3628.33 22.6962 3624.95 22.6962 3620.78C22.6962 3616.61 19.3145 3613.22 15.143 3613.22C10.9715 3613.22 7.58984 3616.61 7.58984 3620.78C7.58984 3624.95 10.9715 3628.33 15.143 3628.33Z" fill="#2898FF"/>
<path d="M10.5584 3624.01C11.3636 3624.01 12.0162 3622.56 12.0162 3620.78C12.0162 3618.99 11.3636 3617.54 10.5584 3617.54C9.75328 3617.54 9.10059 3618.99 9.10059 3620.78C9.10059 3622.56 9.75328 3624.01 10.5584 3624.01Z" fill="#EDEBDF"/>
</g>
<g clip-path="url(#clip19)">
<path d="M33.27 3673.65C37.4415 3673.65 40.8231 3670.27 40.8231 3666.1C40.8231 3661.92 37.4415 3658.54 33.27 3658.54C29.0985 3658.54 25.7168 3661.92 25.7168 3666.1C25.7168 3670.27 29.0985 3673.65 33.27 3673.65Z" fill="#2898FF"/>
<path d="M28.6854 3669.33C29.4905 3669.33 30.1432 3667.88 30.1432 3666.1C30.1432 3664.31 29.4905 3662.86 28.6854 3662.86C27.8802 3662.86 27.2275 3664.31 27.2275 3666.1C27.2275 3667.88 27.8802 3669.33 28.6854 3669.33Z" fill="#EDEBDF"/>
</g>
<g clip-path="url(#clip20)">
<path d="M14.2797 3744.86C18.4512 3744.86 21.8329 3741.48 21.8329 3737.31C21.8329 3733.14 18.4512 3729.76 14.2797 3729.76C10.1082 3729.76 6.72656 3733.14 6.72656 3737.31C6.72656 3741.48 10.1082 3744.86 14.2797 3744.86Z" fill="#2898FF"/>
<path d="M9.69513 3740.55C10.5003 3740.55 11.153 3739.1 11.153 3737.31C11.153 3735.52 10.5003 3734.07 9.69513 3734.07C8.89 3734.07 8.2373 3735.52 8.2373 3737.31C8.2373 3739.1 8.89 3740.55 9.69513 3740.55Z" fill="#EDEBDF"/>
</g>
<g clip-path="url(#clip21)">
<path d="M34.9965 3556.68C39.168 3556.68 42.5497 3553.3 42.5497 3549.13C42.5497 3544.96 39.168 3541.58 34.9965 3541.58C30.825 3541.58 27.4434 3544.96 27.4434 3549.13C27.4434 3553.3 30.825 3556.68 34.9965 3556.68Z" fill="#2898FF"/>
<path d="M30.4119 3552.37C31.2171 3552.37 31.8698 3550.92 31.8698 3549.13C31.8698 3547.34 31.2171 3545.89 30.4119 3545.89C29.6068 3545.89 28.9541 3547.34 28.9541 3549.13C28.9541 3550.92 29.6068 3552.37 30.4119 3552.37Z" fill="#EDEBDF"/>
</g>
<g clip-path="url(#clip22)">
<path d="M18.1645 3451.37C22.336 3451.37 25.7177 3447.99 25.7177 3443.82C25.7177 3439.65 22.336 3436.26 18.1645 3436.26C13.993 3436.26 10.6113 3439.65 10.6113 3443.82C10.6113 3447.99 13.993 3451.37 18.1645 3451.37Z" fill="#2898FF"/>
<path d="M13.5799 3447.05C14.385 3447.05 15.0377 3445.6 15.0377 3443.82C15.0377 3442.03 14.385 3440.58 13.5799 3440.58C12.7748 3440.58 12.1221 3442.03 12.1221 3443.82C12.1221 3445.6 12.7748 3447.05 13.5799 3447.05Z" fill="#EDEBDF"/>
</g>
<g clip-path="url(#clip23)">
<path d="M32.4077 3365.48C36.5791 3365.48 39.9608 3362.1 39.9608 3357.93C39.9608 3353.76 36.5791 3350.37 32.4077 3350.37C28.2362 3350.37 24.8545 3353.76 24.8545 3357.93C24.8545 3362.1 28.2362 3365.48 32.4077 3365.48Z" fill="#2898FF"/>
<path d="M27.8231 3361.16C28.6282 3361.16 29.2809 3359.71 29.2809 3357.93C29.2809 3356.14 28.6282 3354.69 27.8231 3354.69C27.0179 3354.69 26.3652 3356.14 26.3652 3357.93C26.3652 3359.71 27.0179 3361.16 27.8231 3361.16Z" fill="#EDEBDF"/>
</g>
<g clip-path="url(#clip24)">
<path d="M26.3649 3409.5C29.1061 3409.5 31.3284 3407.28 31.3284 3404.54C31.3284 3401.8 29.1061 3399.58 26.3649 3399.58C23.6236 3399.58 21.4014 3401.8 21.4014 3404.54C21.4014 3407.28 23.6236 3409.5 26.3649 3409.5Z" fill="#2898FF"/>
<path d="M23.3525 3406.67C23.8816 3406.67 24.3105 3405.72 24.3105 3404.54C24.3105 3403.37 23.8816 3402.41 23.3525 3402.41C22.8234 3402.41 22.3945 3403.37 22.3945 3404.54C22.3945 3405.72 22.8234 3406.67 23.3525 3406.67Z" fill="#EDEBDF"/>
</g>
<g clip-path="url(#clip25)">
<path d="M35.86 3466.91C38.6013 3466.91 40.8235 3464.69 40.8235 3461.94C40.8235 3459.2 38.6013 3456.98 35.86 3456.98C33.1187 3456.98 30.8965 3459.2 30.8965 3461.94C30.8965 3464.69 33.1187 3466.91 35.86 3466.91Z" fill="#2898FF"/>
<path d="M32.8476 3464.07C33.3767 3464.07 33.8057 3463.12 33.8057 3461.94C33.8057 3460.77 33.3767 3459.82 32.8476 3459.82C32.3186 3459.82 31.8896 3460.77 31.8896 3461.94C31.8896 3463.12 32.3186 3464.07 32.8476 3464.07Z" fill="#EDEBDF"/>
</g>
<g clip-path="url(#clip26)">
<path d="M15.1432 3582.15C17.8845 3582.15 20.1067 3579.93 20.1067 3577.18C20.1067 3574.44 17.8845 3572.22 15.1432 3572.22C12.4019 3572.22 10.1797 3574.44 10.1797 3577.18C10.1797 3579.93 12.4019 3582.15 15.1432 3582.15Z" fill="#2898FF"/>
<path d="M12.1309 3579.31C12.6599 3579.31 13.0889 3578.36 13.0889 3577.18C13.0889 3576.01 12.6599 3575.06 12.1309 3575.06C11.6018 3575.06 11.1729 3576.01 11.1729 3577.18C11.1729 3578.36 11.6018 3579.31 12.1309 3579.31Z" fill="#EDEBDF"/>
</g>
<g clip-path="url(#clip27)">
<path d="M18.1637 3665.02C20.905 3665.02 23.1272 3662.79 23.1272 3660.05C23.1272 3657.31 20.905 3655.09 18.1637 3655.09C15.4224 3655.09 13.2002 3657.31 13.2002 3660.05C13.2002 3662.79 15.4224 3665.02 18.1637 3665.02Z" fill="#2898FF"/>
<path d="M15.1514 3662.18C15.6804 3662.18 16.1094 3661.23 16.1094 3660.05C16.1094 3658.88 15.6804 3657.93 15.1514 3657.93C14.6223 3657.93 14.1934 3658.88 14.1934 3660.05C14.1934 3661.23 14.6223 3662.18 15.1514 3662.18Z" fill="#EDEBDF"/>
</g>
<g clip-path="url(#clip28)">
<path d="M22.9117 3330.52C25.653 3330.52 27.8753 3328.3 27.8753 3325.56C27.8753 3322.81 25.653 3320.59 22.9117 3320.59C20.1705 3320.59 17.9482 3322.81 17.9482 3325.56C17.9482 3328.3 20.1705 3330.52 22.9117 3330.52Z" fill="#2898FF"/>
<path d="M19.8994 3327.68C20.4285 3327.68 20.8574 3326.73 20.8574 3325.56C20.8574 3324.38 20.4285 3323.43 19.8994 3323.43C19.3703 3323.43 18.9414 3324.38 18.9414 3325.56C18.9414 3326.73 19.3703 3327.68 19.8994 3327.68Z" fill="#EDEBDF"/>
</g>
<g clip-path="url(#clip29)">
<path d="M36.7233 3286.93C39.4645 3286.93 41.6868 3284.7 41.6868 3281.96C41.6868 3279.22 39.4645 3277 36.7233 3277C33.982 3277 31.7598 3279.22 31.7598 3281.96C31.7598 3284.7 33.982 3286.93 36.7233 3286.93Z" fill="#2898FF"/>
<path d="M33.7109 3284.09C34.24 3284.09 34.6689 3283.14 34.6689 3281.96C34.6689 3280.79 34.24 3279.84 33.7109 3279.84C33.1818 3279.84 32.7529 3280.79 32.7529 3281.96C32.7529 3283.14 33.1818 3284.09 33.7109 3284.09Z" fill="#EDEBDF"/>
</g>
<g clip-path="url(#clip30)">
<path d="M23.7168 4303C30.868 4303 36.6651 4297.21 36.6651 4290.06C36.6651 4282.9 30.868 4277.11 23.7168 4277.11C16.5657 4277.11 10.7686 4282.9 10.7686 4290.06C10.7686 4297.21 16.5657 4303 23.7168 4303Z" fill="#2898FF"/>
<path d="M15.8575 4295.61C17.2378 4295.61 18.3567 4293.12 18.3567 4290.06C18.3567 4286.99 17.2378 4284.51 15.8575 4284.51C14.4773 4284.51 13.3584 4286.99 13.3584 4290.06C13.3584 4293.12 14.4773 4295.61 15.8575 4295.61Z" fill="#EDEBDF"/>
</g>
<g clip-path="url(#clip31)">
<path d="M15.9483 4233.08C23.0994 4233.08 28.8966 4227.29 28.8966 4220.14C28.8966 4212.98 23.0994 4207.19 15.9483 4207.19C8.79714 4207.19 3 4212.98 3 4220.14C3 4227.29 8.79714 4233.08 15.9483 4233.08Z" fill="#2898FF"/>
<path d="M8.08898 4225.68C9.46921 4225.68 10.5881 4223.2 10.5881 4220.14C10.5881 4217.07 9.46921 4214.59 8.08898 4214.59C6.70874 4214.59 5.58984 4217.07 5.58984 4220.14C5.58984 4223.2 6.70874 4225.68 8.08898 4225.68Z" fill="#EDEBDF"/>
</g>
<g clip-path="url(#clip32)">
<path d="M22.8535 4032.82C30.0047 4032.82 35.8018 4027.02 35.8018 4019.87C35.8018 4012.72 30.0047 4006.92 22.8535 4006.92C15.7024 4006.92 9.90527 4012.72 9.90527 4019.87C9.90527 4027.02 15.7024 4032.82 22.8535 4032.82Z" fill="#2898FF"/>
<path d="M14.9943 4025.42C16.3745 4025.42 17.4934 4022.93 17.4934 4019.87C17.4934 4016.8 16.3745 4014.32 14.9943 4014.32C13.614 4014.32 12.4951 4016.8 12.4951 4019.87C12.4951 4022.93 13.614 4025.42 14.9943 4025.42Z" fill="#EDEBDF"/>
</g>
<g clip-path="url(#clip33)">
<path d="M13.143 4146.33C17.3145 4146.33 20.6962 4142.95 20.6962 4138.78C20.6962 4134.61 17.3145 4131.22 13.143 4131.22C8.97151 4131.22 5.58984 4134.61 5.58984 4138.78C5.58984 4142.95 8.97151 4146.33 13.143 4146.33Z" fill="#2898FF"/>
<path d="M8.55841 4142.01C9.36355 4142.01 10.0162 4140.56 10.0162 4138.78C10.0162 4136.99 9.36355 4135.54 8.55841 4135.54C7.75328 4135.54 7.10059 4136.99 7.10059 4138.78C7.10059 4140.56 7.75328 4142.01 8.55841 4142.01Z" fill="#EDEBDF"/>
</g>
<g clip-path="url(#clip34)">
<path d="M31.27 4191.65C35.4415 4191.65 38.8231 4188.27 38.8231 4184.1C38.8231 4179.92 35.4415 4176.54 31.27 4176.54C27.0985 4176.54 23.7168 4179.92 23.7168 4184.1C23.7168 4188.27 27.0985 4191.65 31.27 4191.65Z" fill="#2898FF"/>
<path d="M26.6854 4187.33C27.4905 4187.33 28.1432 4185.88 28.1432 4184.1C28.1432 4182.31 27.4905 4180.86 26.6854 4180.86C25.8802 4180.86 25.2275 4182.31 25.2275 4184.1C25.2275 4185.88 25.8802 4187.33 26.6854 4187.33Z" fill="#EDEBDF"/>
</g>
<g clip-path="url(#clip35)">
<path d="M12.2797 4262.86C16.4512 4262.86 19.8329 4259.48 19.8329 4255.31C19.8329 4251.14 16.4512 4247.76 12.2797 4247.76C8.10823 4247.76 4.72656 4251.14 4.72656 4255.31C4.72656 4259.48 8.10823 4262.86 12.2797 4262.86Z" fill="#2898FF"/>
<path d="M7.69513 4258.55C8.50027 4258.55 9.15296 4257.1 9.15296 4255.31C9.15296 4253.52 8.50027 4252.07 7.69513 4252.07C6.89 4252.07 6.2373 4253.52 6.2373 4255.31C6.2373 4257.1 6.89 4258.55 7.69513 4258.55Z" fill="#EDEBDF"/>
</g>
<g clip-path="url(#clip36)">
<path d="M32.9965 4074.68C37.168 4074.68 40.5497 4071.3 40.5497 4067.13C40.5497 4062.96 37.168 4059.58 32.9965 4059.58C28.825 4059.58 25.4434 4062.96 25.4434 4067.13C25.4434 4071.3 28.825 4074.68 32.9965 4074.68Z" fill="#2898FF"/>
<path d="M28.4119 4070.37C29.2171 4070.37 29.8698 4068.92 29.8698 4067.13C29.8698 4065.34 29.2171 4063.89 28.4119 4063.89C27.6068 4063.89 26.9541 4065.34 26.9541 4067.13C26.9541 4068.92 27.6068 4070.37 28.4119 4070.37Z" fill="#EDEBDF"/>
</g>
<g clip-path="url(#clip37)">
<path d="M16.1645 3969.37C20.336 3969.37 23.7177 3965.99 23.7177 3961.82C23.7177 3957.65 20.336 3954.26 16.1645 3954.26C11.993 3954.26 8.61133 3957.65 8.61133 3961.82C8.61133 3965.99 11.993 3969.37 16.1645 3969.37Z" fill="#2898FF"/>
<path d="M11.5799 3965.05C12.385 3965.05 13.0377 3963.6 13.0377 3961.82C13.0377 3960.03 12.385 3958.58 11.5799 3958.58C10.7748 3958.58 10.1221 3960.03 10.1221 3961.82C10.1221 3963.6 10.7748 3965.05 11.5799 3965.05Z" fill="#EDEBDF"/>
</g>
<g clip-path="url(#clip38)">
<path d="M30.4077 3883.48C34.5791 3883.48 37.9608 3880.1 37.9608 3875.93C37.9608 3871.76 34.5791 3868.37 30.4077 3868.37C26.2362 3868.37 22.8545 3871.76 22.8545 3875.93C22.8545 3880.1 26.2362 3883.48 30.4077 3883.48Z" fill="#2898FF"/>
<path d="M25.8231 3879.16C26.6282 3879.16 27.2809 3877.71 27.2809 3875.93C27.2809 3874.14 26.6282 3872.69 25.8231 3872.69C25.0179 3872.69 24.3652 3874.14 24.3652 3875.93C24.3652 3877.71 25.0179 3879.16 25.8231 3879.16Z" fill="#EDEBDF"/>
</g>
<g clip-path="url(#clip39)">
<path d="M24.3649 3927.5C27.1061 3927.5 29.3284 3925.28 29.3284 3922.54C29.3284 3919.8 27.1061 3917.58 24.3649 3917.58C21.6236 3917.58 19.4014 3919.8 19.4014 3922.54C19.4014 3925.28 21.6236 3927.5 24.3649 3927.5Z" fill="#2898FF"/>
<path d="M21.3525 3924.67C21.8816 3924.67 22.3105 3923.72 22.3105 3922.54C22.3105 3921.37 21.8816 3920.41 21.3525 3920.41C20.8234 3920.41 20.3945 3921.37 20.3945 3922.54C20.3945 3923.72 20.8234 3924.67 21.3525 3924.67Z" fill="#EDEBDF"/>
</g>
<g clip-path="url(#clip40)">
<path d="M33.86 3984.91C36.6013 3984.91 38.8235 3982.69 38.8235 3979.94C38.8235 3977.2 36.6013 3974.98 33.86 3974.98C31.1187 3974.98 28.8965 3977.2 28.8965 3979.94C28.8965 3982.69 31.1187 3984.91 33.86 3984.91Z" fill="#2898FF"/>
<path d="M30.8476 3982.07C31.3767 3982.07 31.8057 3981.12 31.8057 3979.94C31.8057 3978.77 31.3767 3977.82 30.8476 3977.82C30.3186 3977.82 29.8896 3978.77 29.8896 3979.94C29.8896 3981.12 30.3186 3982.07 30.8476 3982.07Z" fill="#EDEBDF"/>
</g>
<g clip-path="url(#clip41)">
<path d="M13.1432 4100.15C15.8845 4100.15 18.1067 4097.93 18.1067 4095.18C18.1067 4092.44 15.8845 4090.22 13.1432 4090.22C10.4019 4090.22 8.17969 4092.44 8.17969 4095.18C8.17969 4097.93 10.4019 4100.15 13.1432 4100.15Z" fill="#2898FF"/>
<path d="M10.1309 4097.31C10.6599 4097.31 11.0889 4096.36 11.0889 4095.18C11.0889 4094.01 10.6599 4093.06 10.1309 4093.06C9.60176 4093.06 9.17285 4094.01 9.17285 4095.18C9.17285 4096.36 9.60176 4097.31 10.1309 4097.31Z" fill="#EDEBDF"/>
</g>
<g clip-path="url(#clip42)">
<path d="M16.1637 4183.02C18.905 4183.02 21.1272 4180.79 21.1272 4178.05C21.1272 4175.31 18.905 4173.09 16.1637 4173.09C13.4224 4173.09 11.2002 4175.31 11.2002 4178.05C11.2002 4180.79 13.4224 4183.02 16.1637 4183.02Z" fill="#2898FF"/>
<path d="M13.1514 4180.18C13.6804 4180.18 14.1094 4179.23 14.1094 4178.05C14.1094 4176.88 13.6804 4175.93 13.1514 4175.93C12.6223 4175.93 12.1934 4176.88 12.1934 4178.05C12.1934 4179.23 12.6223 4180.18 13.1514 4180.18Z" fill="#EDEBDF"/>
</g>
<g clip-path="url(#clip43)">
<path d="M20.9117 3848.52C23.653 3848.52 25.8753 3846.3 25.8753 3843.56C25.8753 3840.81 23.653 3838.59 20.9117 3838.59C18.1705 3838.59 15.9482 3840.81 15.9482 3843.56C15.9482 3846.3 18.1705 3848.52 20.9117 3848.52Z" fill="#2898FF"/>
<path d="M17.8994 3845.68C18.4285 3845.68 18.8574 3844.73 18.8574 3843.56C18.8574 3842.38 18.4285 3841.43 17.8994 3841.43C17.3703 3841.43 16.9414 3842.38 16.9414 3843.56C16.9414 3844.73 17.3703 3845.68 17.8994 3845.68Z" fill="#EDEBDF"/>
</g>
<g clip-path="url(#clip44)">
<path d="M34.7233 3804.93C37.4645 3804.93 39.6868 3802.7 39.6868 3799.96C39.6868 3797.22 37.4645 3795 34.7233 3795C31.982 3795 29.7598 3797.22 29.7598 3799.96C29.7598 3802.7 31.982 3804.93 34.7233 3804.93Z" fill="#2898FF"/>
<path d="M31.7109 3802.09C32.24 3802.09 32.6689 3801.14 32.6689 3799.96C32.6689 3798.79 32.24 3797.84 31.7109 3797.84C31.1818 3797.84 30.7529 3798.79 30.7529 3799.96C30.7529 3801.14 31.1818 3802.09 31.7109 3802.09Z" fill="#EDEBDF"/>
</g>
<g clip-path="url(#clip45)">
<path d="M23.7168 4817C30.868 4817 36.6651 4811.21 36.6651 4804.06C36.6651 4796.9 30.868 4791.11 23.7168 4791.11C16.5657 4791.11 10.7686 4796.9 10.7686 4804.06C10.7686 4811.21 16.5657 4817 23.7168 4817Z" fill="#2898FF"/>
<path d="M15.8575 4809.61C17.2378 4809.61 18.3567 4807.12 18.3567 4804.06C18.3567 4800.99 17.2378 4798.51 15.8575 4798.51C14.4773 4798.51 13.3584 4800.99 13.3584 4804.06C13.3584 4807.12 14.4773 4809.61 15.8575 4809.61Z" fill="#EDEBDF"/>
</g>
<g clip-path="url(#clip46)">
<path d="M15.9483 4747.08C23.0994 4747.08 28.8966 4741.29 28.8966 4734.14C28.8966 4726.98 23.0994 4721.19 15.9483 4721.19C8.79714 4721.19 3 4726.98 3 4734.14C3 4741.29 8.79714 4747.08 15.9483 4747.08Z" fill="#2898FF"/>
<path d="M8.08898 4739.68C9.46921 4739.68 10.5881 4737.2 10.5881 4734.14C10.5881 4731.07 9.46921 4728.59 8.08898 4728.59C6.70874 4728.59 5.58984 4731.07 5.58984 4734.14C5.58984 4737.2 6.70874 4739.68 8.08898 4739.68Z" fill="#EDEBDF"/>
</g>
<g clip-path="url(#clip47)">
<path d="M22.8535 4546.82C30.0047 4546.82 35.8018 4541.02 35.8018 4533.87C35.8018 4526.72 30.0047 4520.92 22.8535 4520.92C15.7024 4520.92 9.90527 4526.72 9.90527 4533.87C9.90527 4541.02 15.7024 4546.82 22.8535 4546.82Z" fill="#2898FF"/>
<path d="M14.9943 4539.42C16.3745 4539.42 17.4934 4536.93 17.4934 4533.87C17.4934 4530.8 16.3745 4528.32 14.9943 4528.32C13.614 4528.32 12.4951 4530.8 12.4951 4533.87C12.4951 4536.93 13.614 4539.42 14.9943 4539.42Z" fill="#EDEBDF"/>
</g>
<g clip-path="url(#clip48)">
<path d="M13.143 4660.33C17.3145 4660.33 20.6962 4656.95 20.6962 4652.78C20.6962 4648.61 17.3145 4645.22 13.143 4645.22C8.97151 4645.22 5.58984 4648.61 5.58984 4652.78C5.58984 4656.95 8.97151 4660.33 13.143 4660.33Z" fill="#2898FF"/>
<path d="M8.55841 4656.01C9.36355 4656.01 10.0162 4654.56 10.0162 4652.78C10.0162 4650.99 9.36355 4649.54 8.55841 4649.54C7.75328 4649.54 7.10059 4650.99 7.10059 4652.78C7.10059 4654.56 7.75328 4656.01 8.55841 4656.01Z" fill="#EDEBDF"/>
</g>
<g clip-path="url(#clip49)">
<path d="M31.27 4705.65C35.4415 4705.65 38.8231 4702.27 38.8231 4698.1C38.8231 4693.92 35.4415 4690.54 31.27 4690.54C27.0985 4690.54 23.7168 4693.92 23.7168 4698.1C23.7168 4702.27 27.0985 4705.65 31.27 4705.65Z" fill="#2898FF"/>
<path d="M26.6854 4701.33C27.4905 4701.33 28.1432 4699.88 28.1432 4698.1C28.1432 4696.31 27.4905 4694.86 26.6854 4694.86C25.8802 4694.86 25.2275 4696.31 25.2275 4698.1C25.2275 4699.88 25.8802 4701.33 26.6854 4701.33Z" fill="#EDEBDF"/>
</g>
<g clip-path="url(#clip50)">
<path d="M12.2797 4776.86C16.4512 4776.86 19.8329 4773.48 19.8329 4769.31C19.8329 4765.14 16.4512 4761.76 12.2797 4761.76C8.10823 4761.76 4.72656 4765.14 4.72656 4769.31C4.72656 4773.48 8.10823 4776.86 12.2797 4776.86Z" fill="#2898FF"/>
<path d="M7.69513 4772.55C8.50027 4772.55 9.15296 4771.1 9.15296 4769.31C9.15296 4767.52 8.50027 4766.07 7.69513 4766.07C6.89 4766.07 6.2373 4767.52 6.2373 4769.31C6.2373 4771.1 6.89 4772.55 7.69513 4772.55Z" fill="#EDEBDF"/>
</g>
<g clip-path="url(#clip51)">
<path d="M32.9965 4588.68C37.168 4588.68 40.5497 4585.3 40.5497 4581.13C40.5497 4576.96 37.168 4573.58 32.9965 4573.58C28.825 4573.58 25.4434 4576.96 25.4434 4581.13C25.4434 4585.3 28.825 4588.68 32.9965 4588.68Z" fill="#2898FF"/>
<path d="M28.4119 4584.37C29.2171 4584.37 29.8698 4582.92 29.8698 4581.13C29.8698 4579.34 29.2171 4577.89 28.4119 4577.89C27.6068 4577.89 26.9541 4579.34 26.9541 4581.13C26.9541 4582.92 27.6068 4584.37 28.4119 4584.37Z" fill="#EDEBDF"/>
</g>
<g clip-path="url(#clip52)">
<path d="M16.1645 4483.37C20.336 4483.37 23.7177 4479.99 23.7177 4475.82C23.7177 4471.65 20.336 4468.26 16.1645 4468.26C11.993 4468.26 8.61133 4471.65 8.61133 4475.82C8.61133 4479.99 11.993 4483.37 16.1645 4483.37Z" fill="#2898FF"/>
<path d="M11.5799 4479.05C12.385 4479.05 13.0377 4477.6 13.0377 4475.82C13.0377 4474.03 12.385 4472.58 11.5799 4472.58C10.7748 4472.58 10.1221 4474.03 10.1221 4475.82C10.1221 4477.6 10.7748 4479.05 11.5799 4479.05Z" fill="#EDEBDF"/>
</g>
<g clip-path="url(#clip53)">
<path d="M30.4077 4397.48C34.5791 4397.48 37.9608 4394.1 37.9608 4389.93C37.9608 4385.76 34.5791 4382.37 30.4077 4382.37C26.2362 4382.37 22.8545 4385.76 22.8545 4389.93C22.8545 4394.1 26.2362 4397.48 30.4077 4397.48Z" fill="#2898FF"/>
<path d="M25.8231 4393.16C26.6282 4393.16 27.2809 4391.71 27.2809 4389.93C27.2809 4388.14 26.6282 4386.69 25.8231 4386.69C25.0179 4386.69 24.3652 4388.14 24.3652 4389.93C24.3652 4391.71 25.0179 4393.16 25.8231 4393.16Z" fill="#EDEBDF"/>
</g>
<g clip-path="url(#clip54)">
<path d="M24.3649 4441.5C27.1061 4441.5 29.3284 4439.28 29.3284 4436.54C29.3284 4433.8 27.1061 4431.58 24.3649 4431.58C21.6236 4431.58 19.4014 4433.8 19.4014 4436.54C19.4014 4439.28 21.6236 4441.5 24.3649 4441.5Z" fill="#2898FF"/>
<path d="M21.3525 4438.67C21.8816 4438.67 22.3105 4437.72 22.3105 4436.54C22.3105 4435.37 21.8816 4434.41 21.3525 4434.41C20.8234 4434.41 20.3945 4435.37 20.3945 4436.54C20.3945 4437.72 20.8234 4438.67 21.3525 4438.67Z" fill="#EDEBDF"/>
</g>
<g clip-path="url(#clip55)">
<path d="M33.86 4498.91C36.6013 4498.91 38.8235 4496.69 38.8235 4493.94C38.8235 4491.2 36.6013 4488.98 33.86 4488.98C31.1187 4488.98 28.8965 4491.2 28.8965 4493.94C28.8965 4496.69 31.1187 4498.91 33.86 4498.91Z" fill="#2898FF"/>
<path d="M30.8476 4496.07C31.3767 4496.07 31.8057 4495.12 31.8057 4493.94C31.8057 4492.77 31.3767 4491.82 30.8476 4491.82C30.3186 4491.82 29.8896 4492.77 29.8896 4493.94C29.8896 4495.12 30.3186 4496.07 30.8476 4496.07Z" fill="#EDEBDF"/>
</g>
<g clip-path="url(#clip56)">
<path d="M13.1432 4614.15C15.8845 4614.15 18.1067 4611.93 18.1067 4609.18C18.1067 4606.44 15.8845 4604.22 13.1432 4604.22C10.4019 4604.22 8.17969 4606.44 8.17969 4609.18C8.17969 4611.93 10.4019 4614.15 13.1432 4614.15Z" fill="#2898FF"/>
<path d="M10.1309 4611.31C10.6599 4611.31 11.0889 4610.36 11.0889 4609.18C11.0889 4608.01 10.6599 4607.06 10.1309 4607.06C9.60176 4607.06 9.17285 4608.01 9.17285 4609.18C9.17285 4610.36 9.60176 4611.31 10.1309 4611.31Z" fill="#EDEBDF"/>
</g>
<g clip-path="url(#clip57)">
<path d="M16.1637 4697.02C18.905 4697.02 21.1272 4694.79 21.1272 4692.05C21.1272 4689.31 18.905 4687.09 16.1637 4687.09C13.4224 4687.09 11.2002 4689.31 11.2002 4692.05C11.2002 4694.79 13.4224 4697.02 16.1637 4697.02Z" fill="#2898FF"/>
<path d="M13.1514 4694.18C13.6804 4694.18 14.1094 4693.23 14.1094 4692.05C14.1094 4690.88 13.6804 4689.93 13.1514 4689.93C12.6223 4689.93 12.1934 4690.88 12.1934 4692.05C12.1934 4693.23 12.6223 4694.18 13.1514 4694.18Z" fill="#EDEBDF"/>
</g>
<g clip-path="url(#clip58)">
<path d="M20.9117 4362.52C23.653 4362.52 25.8753 4360.3 25.8753 4357.56C25.8753 4354.81 23.653 4352.59 20.9117 4352.59C18.1705 4352.59 15.9482 4354.81 15.9482 4357.56C15.9482 4360.3 18.1705 4362.52 20.9117 4362.52Z" fill="#2898FF"/>
<path d="M17.8994 4359.68C18.4285 4359.68 18.8574 4358.73 18.8574 4357.56C18.8574 4356.38 18.4285 4355.43 17.8994 4355.43C17.3703 4355.43 16.9414 4356.38 16.9414 4357.56C16.9414 4358.73 17.3703 4359.68 17.8994 4359.68Z" fill="#EDEBDF"/>
</g>
<g clip-path="url(#clip59)">
<path d="M34.7233 4318.93C37.4645 4318.93 39.6868 4316.7 39.6868 4313.96C39.6868 4311.22 37.4645 4309 34.7233 4309C31.982 4309 29.7598 4311.22 29.7598 4313.96C29.7598 4316.7 31.982 4318.93 34.7233 4318.93Z" fill="#2898FF"/>
<path d="M31.7109 4316.09C32.24 4316.09 32.6689 4315.14 32.6689 4313.96C32.6689 4312.79 32.24 4311.84 31.7109 4311.84C31.1818 4311.84 30.7529 4312.79 30.7529 4313.96C30.7529 4315.14 31.1818 4316.09 31.7109 4316.09Z" fill="#EDEBDF"/>
</g>
<g clip-path="url(#clip60)">
<path d="M27.7963 4914.48C31.9678 4914.48 35.3495 4911.1 35.3495 4906.93C35.3495 4902.76 31.9678 4899.37 27.7963 4899.37C23.6248 4899.37 20.2432 4902.76 20.2432 4906.93C20.2432 4911.1 23.6248 4914.48 27.7963 4914.48Z" fill="#2898FF"/>
<path d="M23.2117 4910.16C24.0169 4910.16 24.6696 4908.71 24.6696 4906.93C24.6696 4905.14 24.0169 4903.69 23.2117 4903.69C22.4066 4903.69 21.7539 4905.14 21.7539 4906.93C21.7539 4908.71 22.4066 4910.16 23.2117 4910.16Z" fill="#EDEBDF"/>
</g>
<path d="M18.7412 4955.67C19.2703 4955.67 19.6992 4954.72 19.6992 4953.54C19.6992 4952.37 19.2703 4951.41 18.7412 4951.41C18.2121 4951.41 17.7832 4952.37 17.7832 4953.54C17.7832 4954.72 18.2121 4955.67 18.7412 4955.67Z" fill="#EDEBDF"/>
<g clip-path="url(#clip61)">
<path d="M18.3004 4879.52C21.0417 4879.52 23.2639 4877.3 23.2639 4874.56C23.2639 4871.82 21.0417 4869.59 18.3004 4869.59C15.5592 4869.59 13.3369 4871.82 13.3369 4874.56C13.3369 4877.3 15.5592 4879.52 18.3004 4879.52Z" fill="#2898FF"/>
<path d="M15.2881 4876.68C15.8172 4876.68 16.2461 4875.73 16.2461 4874.56C16.2461 4873.38 15.8172 4872.43 15.2881 4872.43C14.759 4872.43 14.3301 4873.38 14.3301 4874.56C14.3301 4875.73 14.759 4876.68 15.2881 4876.68Z" fill="#EDEBDF"/>
</g>
<g clip-path="url(#clip62)">
<path d="M32.1119 4835.93C34.8532 4835.93 37.0754 4833.7 37.0754 4830.96C37.0754 4828.22 34.8532 4826 32.1119 4826C29.3707 4826 27.1484 4828.22 27.1484 4830.96C27.1484 4833.7 29.3707 4835.93 32.1119 4835.93Z" fill="#2898FF"/>
<path d="M29.0996 4833.09C29.6287 4833.09 30.0576 4832.14 30.0576 4830.96C30.0576 4829.79 29.6287 4828.84 29.0996 4828.84C28.5705 4828.84 28.1416 4829.79 28.1416 4830.96C28.1416 4832.14 28.5705 4833.09 29.0996 4833.09Z" fill="#EDEBDF"/>
</g>
<g clip-path="url(#clip63)">
<path d="M24.7168 2758C31.868 2758 37.6651 2752.21 37.6651 2745.06C37.6651 2737.9 31.868 2732.11 24.7168 2732.11C17.5657 2732.11 11.7686 2737.9 11.7686 2745.06C11.7686 2752.21 17.5657 2758 24.7168 2758Z" fill="#2898FF"/>
<path d="M16.8575 2750.6C18.2378 2750.6 19.3567 2748.12 19.3567 2745.06C19.3567 2741.99 18.2378 2739.51 16.8575 2739.51C15.4773 2739.51 14.3584 2741.99 14.3584 2745.06C14.3584 2748.12 15.4773 2750.6 16.8575 2750.6Z" fill="#EDEBDF"/>
</g>
<g clip-path="url(#clip64)">
<path d="M16.9483 2688.08C24.0994 2688.08 29.8966 2682.29 29.8966 2675.14C29.8966 2667.98 24.0994 2662.19 16.9483 2662.19C9.79714 2662.19 4 2667.98 4 2675.14C4 2682.29 9.79714 2688.08 16.9483 2688.08Z" fill="#2898FF"/>
<path d="M9.08898 2680.68C10.4692 2680.68 11.5881 2678.2 11.5881 2675.14C11.5881 2672.07 10.4692 2669.59 9.08898 2669.59C7.70874 2669.59 6.58984 2672.07 6.58984 2675.14C6.58984 2678.2 7.70874 2680.68 9.08898 2680.68Z" fill="#EDEBDF"/>
</g>
<g clip-path="url(#clip65)">
<path d="M23.8535 2487.82C31.0047 2487.82 36.8018 2482.02 36.8018 2474.87C36.8018 2467.72 31.0047 2461.92 23.8535 2461.92C16.7024 2461.92 10.9053 2467.72 10.9053 2474.87C10.9053 2482.02 16.7024 2487.82 23.8535 2487.82Z" fill="#2898FF"/>
<path d="M15.9943 2480.42C17.3745 2480.42 18.4934 2477.93 18.4934 2474.87C18.4934 2471.8 17.3745 2469.32 15.9943 2469.32C14.614 2469.32 13.4951 2471.8 13.4951 2474.87C13.4951 2477.93 14.614 2480.42 15.9943 2480.42Z" fill="#EDEBDF"/>
</g>
<g clip-path="url(#clip66)">
<path d="M14.143 2601.33C18.3145 2601.33 21.6962 2597.95 21.6962 2593.78C21.6962 2589.61 18.3145 2586.22 14.143 2586.22C9.97151 2586.22 6.58984 2589.61 6.58984 2593.78C6.58984 2597.95 9.97151 2601.33 14.143 2601.33Z" fill="#2898FF"/>
<path d="M9.55841 2597.01C10.3636 2597.01 11.0162 2595.56 11.0162 2593.78C11.0162 2591.99 10.3636 2590.54 9.55841 2590.54C8.75328 2590.54 8.10059 2591.99 8.10059 2593.78C8.10059 2595.56 8.75328 2597.01 9.55841 2597.01Z" fill="#EDEBDF"/>
</g>
<g clip-path="url(#clip67)">
<path d="M32.27 2646.65C36.4415 2646.65 39.8231 2643.27 39.8231 2639.1C39.8231 2634.92 36.4415 2631.54 32.27 2631.54C28.0985 2631.54 24.7168 2634.92 24.7168 2639.1C24.7168 2643.27 28.0985 2646.65 32.27 2646.65Z" fill="#2898FF"/>
<path d="M27.6854 2642.33C28.4905 2642.33 29.1432 2640.88 29.1432 2639.1C29.1432 2637.31 28.4905 2635.86 27.6854 2635.86C26.8802 2635.86 26.2275 2637.31 26.2275 2639.1C26.2275 2640.88 26.8802 2642.33 27.6854 2642.33Z" fill="#EDEBDF"/>
</g>
<g clip-path="url(#clip68)">
<path d="M13.2797 2717.86C17.4512 2717.86 20.8329 2714.48 20.8329 2710.31C20.8329 2706.14 17.4512 2702.76 13.2797 2702.76C9.10823 2702.76 5.72656 2706.14 5.72656 2710.31C5.72656 2714.48 9.10823 2717.86 13.2797 2717.86Z" fill="#2898FF"/>
<path d="M8.69513 2713.55C9.50027 2713.55 10.153 2712.1 10.153 2710.31C10.153 2708.52 9.50027 2707.07 8.69513 2707.07C7.89 2707.07 7.2373 2708.52 7.2373 2710.31C7.2373 2712.1 7.89 2713.55 8.69513 2713.55Z" fill="#EDEBDF"/>
</g>
<g clip-path="url(#clip69)">
<path d="M33.9965 2529.68C38.168 2529.68 41.5497 2526.3 41.5497 2522.13C41.5497 2517.96 38.168 2514.58 33.9965 2514.58C29.825 2514.58 26.4434 2517.96 26.4434 2522.13C26.4434 2526.3 29.825 2529.68 33.9965 2529.68Z" fill="#2898FF"/>
<path d="M29.4119 2525.37C30.2171 2525.37 30.8698 2523.92 30.8698 2522.13C30.8698 2520.34 30.2171 2518.89 29.4119 2518.89C28.6068 2518.89 27.9541 2520.34 27.9541 2522.13C27.9541 2523.92 28.6068 2525.37 29.4119 2525.37Z" fill="#EDEBDF"/>
</g>
<g clip-path="url(#clip70)">
<path d="M17.1645 2424.37C21.336 2424.37 24.7177 2420.99 24.7177 2416.82C24.7177 2412.65 21.336 2409.26 17.1645 2409.26C12.993 2409.26 9.61133 2412.65 9.61133 2416.82C9.61133 2420.99 12.993 2424.37 17.1645 2424.37Z" fill="#2898FF"/>
<path d="M12.5799 2420.05C13.385 2420.05 14.0377 2418.6 14.0377 2416.82C14.0377 2415.03 13.385 2413.58 12.5799 2413.58C11.7748 2413.58 11.1221 2415.03 11.1221 2416.82C11.1221 2418.6 11.7748 2420.05 12.5799 2420.05Z" fill="#EDEBDF"/>
</g>
<g clip-path="url(#clip71)">
<path d="M31.4077 2338.48C35.5791 2338.48 38.9608 2335.1 38.9608 2330.93C38.9608 2326.76 35.5791 2323.37 31.4077 2323.37C27.2362 2323.37 23.8545 2326.76 23.8545 2330.93C23.8545 2335.1 27.2362 2338.48 31.4077 2338.48Z" fill="#2898FF"/>
<path d="M26.8231 2334.16C27.6282 2334.16 28.2809 2332.71 28.2809 2330.93C28.2809 2329.14 27.6282 2327.69 26.8231 2327.69C26.0179 2327.69 25.3652 2329.14 25.3652 2330.93C25.3652 2332.71 26.0179 2334.16 26.8231 2334.16Z" fill="#EDEBDF"/>
</g>
<g clip-path="url(#clip72)">
<path d="M25.3649 2382.5C28.1061 2382.5 30.3284 2380.28 30.3284 2377.54C30.3284 2374.8 28.1061 2372.58 25.3649 2372.58C22.6236 2372.58 20.4014 2374.8 20.4014 2377.54C20.4014 2380.28 22.6236 2382.5 25.3649 2382.5Z" fill="#2898FF"/>
<path d="M22.3525 2379.67C22.8816 2379.67 23.3105 2378.72 23.3105 2377.54C23.3105 2376.37 22.8816 2375.41 22.3525 2375.41C21.8234 2375.41 21.3945 2376.37 21.3945 2377.54C21.3945 2378.72 21.8234 2379.67 22.3525 2379.67Z" fill="#EDEBDF"/>
</g>
<g clip-path="url(#clip73)">
<path d="M34.86 2439.91C37.6013 2439.91 39.8235 2437.69 39.8235 2434.94C39.8235 2432.2 37.6013 2429.98 34.86 2429.98C32.1187 2429.98 29.8965 2432.2 29.8965 2434.94C29.8965 2437.69 32.1187 2439.91 34.86 2439.91Z" fill="#2898FF"/>
<path d="M31.8476 2437.07C32.3767 2437.07 32.8057 2436.12 32.8057 2434.94C32.8057 2433.77 32.3767 2432.82 31.8476 2432.82C31.3186 2432.82 30.8896 2433.77 30.8896 2434.94C30.8896 2436.12 31.3186 2437.07 31.8476 2437.07Z" fill="#EDEBDF"/>
</g>
<g clip-path="url(#clip74)">
<path d="M14.1432 2555.15C16.8845 2555.15 19.1067 2552.93 19.1067 2550.18C19.1067 2547.44 16.8845 2545.22 14.1432 2545.22C11.4019 2545.22 9.17969 2547.44 9.17969 2550.18C9.17969 2552.93 11.4019 2555.15 14.1432 2555.15Z" fill="#2898FF"/>
<path d="M11.1309 2552.31C11.6599 2552.31 12.0889 2551.36 12.0889 2550.18C12.0889 2549.01 11.6599 2548.06 11.1309 2548.06C10.6018 2548.06 10.1729 2549.01 10.1729 2550.18C10.1729 2551.36 10.6018 2552.31 11.1309 2552.31Z" fill="#EDEBDF"/>
</g>
<g clip-path="url(#clip75)">
<path d="M17.1637 2638.02C19.905 2638.02 22.1272 2635.79 22.1272 2633.05C22.1272 2630.31 19.905 2628.09 17.1637 2628.09C14.4224 2628.09 12.2002 2630.31 12.2002 2633.05C12.2002 2635.79 14.4224 2638.02 17.1637 2638.02Z" fill="#2898FF"/>
<path d="M14.1514 2635.18C14.6804 2635.18 15.1094 2634.23 15.1094 2633.05C15.1094 2631.88 14.6804 2630.93 14.1514 2630.93C13.6223 2630.93 13.1934 2631.88 13.1934 2633.05C13.1934 2634.23 13.6223 2635.18 14.1514 2635.18Z" fill="#EDEBDF"/>
</g>
<g clip-path="url(#clip76)">
<path d="M21.9117 2303.52C24.653 2303.52 26.8753 2301.3 26.8753 2298.56C26.8753 2295.81 24.653 2293.59 21.9117 2293.59C19.1705 2293.59 16.9482 2295.81 16.9482 2298.56C16.9482 2301.3 19.1705 2303.52 21.9117 2303.52Z" fill="#2898FF"/>
<path d="M18.8994 2300.68C19.4285 2300.68 19.8574 2299.73 19.8574 2298.56C19.8574 2297.38 19.4285 2296.43 18.8994 2296.43C18.3703 2296.43 17.9414 2297.38 17.9414 2298.56C17.9414 2299.73 18.3703 2300.68 18.8994 2300.68Z" fill="#EDEBDF"/>
</g>
<g clip-path="url(#clip77)">
<path d="M35.7233 2259.93C38.4645 2259.93 40.6868 2257.7 40.6868 2254.96C40.6868 2252.22 38.4645 2250 35.7233 2250C32.982 2250 30.7598 2252.22 30.7598 2254.96C30.7598 2257.7 32.982 2259.93 35.7233 2259.93Z" fill="#2898FF"/>
<path d="M32.7109 2257.09C33.24 2257.09 33.6689 2256.14 33.6689 2254.96C33.6689 2253.79 33.24 2252.84 32.7109 2252.84C32.1818 2252.84 31.7529 2253.79 31.7529 2254.96C31.7529 2256.14 32.1818 2257.09 32.7109 2257.09Z" fill="#EDEBDF"/>
</g>
<g clip-path="url(#clip78)">
<path d="M24.7168 2243C31.868 2243 37.6651 2237.21 37.6651 2230.06C37.6651 2222.9 31.868 2217.11 24.7168 2217.11C17.5657 2217.11 11.7686 2222.9 11.7686 2230.06C11.7686 2237.21 17.5657 2243 24.7168 2243Z" fill="#2898FF"/>
<path d="M16.8575 2235.6C18.2378 2235.6 19.3567 2233.12 19.3567 2230.06C19.3567 2226.99 18.2378 2224.51 16.8575 2224.51C15.4773 2224.51 14.3584 2226.99 14.3584 2230.06C14.3584 2233.12 15.4773 2235.6 16.8575 2235.6Z" fill="#EDEBDF"/>
</g>
<g clip-path="url(#clip79)">
<path d="M16.9483 2173.08C24.0994 2173.08 29.8966 2167.29 29.8966 2160.14C29.8966 2152.98 24.0994 2147.19 16.9483 2147.19C9.79714 2147.19 4 2152.98 4 2160.14C4 2167.29 9.79714 2173.08 16.9483 2173.08Z" fill="#2898FF"/>
<path d="M9.08898 2165.68C10.4692 2165.68 11.5881 2163.2 11.5881 2160.13C11.5881 2157.07 10.4692 2154.59 9.08898 2154.59C7.70874 2154.59 6.58984 2157.07 6.58984 2160.13C6.58984 2163.2 7.70874 2165.68 9.08898 2165.68Z" fill="#EDEBDF"/>
</g>
<g clip-path="url(#clip80)">
<path d="M23.8535 1972.82C31.0047 1972.82 36.8018 1967.02 36.8018 1959.87C36.8018 1952.72 31.0047 1946.92 23.8535 1946.92C16.7024 1946.92 10.9053 1952.72 10.9053 1959.87C10.9053 1967.02 16.7024 1972.82 23.8535 1972.82Z" fill="#2898FF"/>
<path d="M15.9943 1965.42C17.3745 1965.42 18.4934 1962.93 18.4934 1959.87C18.4934 1956.8 17.3745 1954.32 15.9943 1954.32C14.614 1954.32 13.4951 1956.8 13.4951 1959.87C13.4951 1962.93 14.614 1965.42 15.9943 1965.42Z" fill="#EDEBDF"/>
</g>
<g clip-path="url(#clip81)">
<path d="M14.143 2086.33C18.3145 2086.33 21.6962 2082.95 21.6962 2078.78C21.6962 2074.61 18.3145 2071.22 14.143 2071.22C9.97151 2071.22 6.58984 2074.61 6.58984 2078.78C6.58984 2082.95 9.97151 2086.33 14.143 2086.33Z" fill="#2898FF"/>
<path d="M9.55841 2082.01C10.3636 2082.01 11.0162 2080.56 11.0162 2078.78C11.0162 2076.99 10.3636 2075.54 9.55841 2075.54C8.75328 2075.54 8.10059 2076.99 8.10059 2078.78C8.10059 2080.56 8.75328 2082.01 9.55841 2082.01Z" fill="#EDEBDF"/>
</g>
<g clip-path="url(#clip82)">
<path d="M32.27 2131.65C36.4415 2131.65 39.8231 2128.27 39.8231 2124.1C39.8231 2119.92 36.4415 2116.54 32.27 2116.54C28.0985 2116.54 24.7168 2119.92 24.7168 2124.1C24.7168 2128.27 28.0985 2131.65 32.27 2131.65Z" fill="#2898FF"/>
<path d="M27.6854 2127.33C28.4905 2127.33 29.1432 2125.88 29.1432 2124.1C29.1432 2122.31 28.4905 2120.86 27.6854 2120.86C26.8802 2120.86 26.2275 2122.31 26.2275 2124.1C26.2275 2125.88 26.8802 2127.33 27.6854 2127.33Z" fill="#EDEBDF"/>
</g>
<g clip-path="url(#clip83)">
<path d="M13.2797 2202.86C17.4512 2202.86 20.8329 2199.48 20.8329 2195.31C20.8329 2191.14 17.4512 2187.76 13.2797 2187.76C9.10823 2187.76 5.72656 2191.14 5.72656 2195.31C5.72656 2199.48 9.10823 2202.86 13.2797 2202.86Z" fill="#2898FF"/>
<path d="M8.69513 2198.55C9.50027 2198.55 10.153 2197.1 10.153 2195.31C10.153 2193.52 9.50027 2192.07 8.69513 2192.07C7.89 2192.07 7.2373 2193.52 7.2373 2195.31C7.2373 2197.1 7.89 2198.55 8.69513 2198.55Z" fill="#EDEBDF"/>
</g>
<g clip-path="url(#clip84)">
<path d="M33.9965 2014.68C38.168 2014.68 41.5497 2011.3 41.5497 2007.13C41.5497 2002.96 38.168 1999.58 33.9965 1999.58C29.825 1999.58 26.4434 2002.96 26.4434 2007.13C26.4434 2011.3 29.825 2014.68 33.9965 2014.68Z" fill="#2898FF"/>
<path d="M29.4119 2010.37C30.2171 2010.37 30.8698 2008.92 30.8698 2007.13C30.8698 2005.34 30.2171 2003.89 29.4119 2003.89C28.6068 2003.89 27.9541 2005.34 27.9541 2007.13C27.9541 2008.92 28.6068 2010.37 29.4119 2010.37Z" fill="#EDEBDF"/>
</g>
<g clip-path="url(#clip85)">
<path d="M17.1645 1909.37C21.336 1909.37 24.7177 1905.99 24.7177 1901.82C24.7177 1897.65 21.336 1894.26 17.1645 1894.26C12.993 1894.26 9.61133 1897.65 9.61133 1901.82C9.61133 1905.99 12.993 1909.37 17.1645 1909.37Z" fill="#2898FF"/>
<path d="M12.5799 1905.05C13.385 1905.05 14.0377 1903.6 14.0377 1901.82C14.0377 1900.03 13.385 1898.58 12.5799 1898.58C11.7748 1898.58 11.1221 1900.03 11.1221 1901.82C11.1221 1903.6 11.7748 1905.05 12.5799 1905.05Z" fill="#EDEBDF"/>
</g>
<g clip-path="url(#clip86)">
<path d="M31.4077 1823.48C35.5791 1823.48 38.9608 1820.1 38.9608 1815.93C38.9608 1811.76 35.5791 1808.37 31.4077 1808.37C27.2362 1808.37 23.8545 1811.76 23.8545 1815.93C23.8545 1820.1 27.2362 1823.48 31.4077 1823.48Z" fill="#2898FF"/>
<path d="M26.8231 1819.16C27.6282 1819.16 28.2809 1817.71 28.2809 1815.93C28.2809 1814.14 27.6282 1812.69 26.8231 1812.69C26.0179 1812.69 25.3652 1814.14 25.3652 1815.93C25.3652 1817.71 26.0179 1819.16 26.8231 1819.16Z" fill="#EDEBDF"/>
</g>
<g clip-path="url(#clip87)">
<path d="M25.3649 1867.5C28.1061 1867.5 30.3284 1865.28 30.3284 1862.54C30.3284 1859.8 28.1061 1857.58 25.3649 1857.58C22.6236 1857.58 20.4014 1859.8 20.4014 1862.54C20.4014 1865.28 22.6236 1867.5 25.3649 1867.5Z" fill="#2898FF"/>
<path d="M22.3525 1864.67C22.8816 1864.67 23.3105 1863.72 23.3105 1862.54C23.3105 1861.37 22.8816 1860.41 22.3525 1860.41C21.8234 1860.41 21.3945 1861.37 21.3945 1862.54C21.3945 1863.72 21.8234 1864.67 22.3525 1864.67Z" fill="#EDEBDF"/>
</g>
<g clip-path="url(#clip88)">
<path d="M34.86 1924.91C37.6013 1924.91 39.8235 1922.69 39.8235 1919.94C39.8235 1917.2 37.6013 1914.98 34.86 1914.98C32.1187 1914.98 29.8965 1917.2 29.8965 1919.94C29.8965 1922.69 32.1187 1924.91 34.86 1924.91Z" fill="#2898FF"/>
<path d="M31.8476 1922.07C32.3767 1922.07 32.8057 1921.12 32.8057 1919.94C32.8057 1918.77 32.3767 1917.82 31.8476 1917.82C31.3186 1917.82 30.8896 1918.77 30.8896 1919.94C30.8896 1921.12 31.3186 1922.07 31.8476 1922.07Z" fill="#EDEBDF"/>
</g>
<g clip-path="url(#clip89)">
<path d="M14.1432 2040.15C16.8845 2040.15 19.1067 2037.93 19.1067 2035.18C19.1067 2032.44 16.8845 2030.22 14.1432 2030.22C11.4019 2030.22 9.17969 2032.44 9.17969 2035.18C9.17969 2037.93 11.4019 2040.15 14.1432 2040.15Z" fill="#2898FF"/>
<path d="M11.1309 2037.31C11.6599 2037.31 12.0889 2036.36 12.0889 2035.18C12.0889 2034.01 11.6599 2033.06 11.1309 2033.06C10.6018 2033.06 10.1729 2034.01 10.1729 2035.18C10.1729 2036.36 10.6018 2037.31 11.1309 2037.31Z" fill="#EDEBDF"/>
</g>
<g clip-path="url(#clip90)">
<path d="M17.1637 2123.02C19.905 2123.02 22.1272 2120.79 22.1272 2118.05C22.1272 2115.31 19.905 2113.09 17.1637 2113.09C14.4224 2113.09 12.2002 2115.31 12.2002 2118.05C12.2002 2120.79 14.4224 2123.02 17.1637 2123.02Z" fill="#2898FF"/>
<path d="M14.1514 2120.18C14.6804 2120.18 15.1094 2119.23 15.1094 2118.05C15.1094 2116.88 14.6804 2115.93 14.1514 2115.93C13.6223 2115.93 13.1934 2116.88 13.1934 2118.05C13.1934 2119.23 13.6223 2120.18 14.1514 2120.18Z" fill="#EDEBDF"/>
</g>
<g clip-path="url(#clip91)">
<path d="M21.9117 1788.52C24.653 1788.52 26.8753 1786.3 26.8753 1783.56C26.8753 1780.81 24.653 1778.59 21.9117 1778.59C19.1705 1778.59 16.9482 1780.81 16.9482 1783.56C16.9482 1786.3 19.1705 1788.52 21.9117 1788.52Z" fill="#2898FF"/>
<path d="M18.8994 1785.68C19.4285 1785.68 19.8574 1784.73 19.8574 1783.56C19.8574 1782.38 19.4285 1781.43 18.8994 1781.43C18.3703 1781.43 17.9414 1782.38 17.9414 1783.56C17.9414 1784.73 18.3703 1785.68 18.8994 1785.68Z" fill="#EDEBDF"/>
</g>
<g clip-path="url(#clip92)">
<path d="M35.7233 1744.93C38.4645 1744.93 40.6868 1742.7 40.6868 1739.96C40.6868 1737.22 38.4645 1735 35.7233 1735C32.982 1735 30.7598 1737.22 30.7598 1739.96C30.7598 1742.7 32.982 1744.93 35.7233 1744.93Z" fill="#2898FF"/>
<path d="M32.7109 1742.09C33.24 1742.09 33.6689 1741.14 33.6689 1739.96C33.6689 1738.79 33.24 1737.84 32.7109 1737.84C32.1818 1737.84 31.7529 1738.79 31.7529 1739.96C31.7529 1741.14 32.1818 1742.09 32.7109 1742.09Z" fill="#EDEBDF"/>
</g>
<g clip-path="url(#clip93)">
<path d="M22.7168 1727C29.868 1727 35.6651 1721.21 35.6651 1714.06C35.6651 1706.9 29.868 1701.11 22.7168 1701.11C15.5657 1701.11 9.76855 1706.9 9.76855 1714.06C9.76855 1721.21 15.5657 1727 22.7168 1727Z" fill="#2898FF"/>
<path d="M14.8575 1719.6C16.2378 1719.6 17.3567 1717.12 17.3567 1714.06C17.3567 1710.99 16.2378 1708.51 14.8575 1708.51C13.4773 1708.51 12.3584 1710.99 12.3584 1714.06C12.3584 1717.12 13.4773 1719.6 14.8575 1719.6Z" fill="#EDEBDF"/>
</g>
<g clip-path="url(#clip94)">
<path d="M14.9483 1657.08C22.0994 1657.08 27.8966 1651.29 27.8966 1644.14C27.8966 1636.98 22.0994 1631.19 14.9483 1631.19C7.79714 1631.19 2 1636.98 2 1644.14C2 1651.29 7.79714 1657.08 14.9483 1657.08Z" fill="#2898FF"/>
<path d="M7.08898 1649.68C8.46921 1649.68 9.58811 1647.2 9.58811 1644.13C9.58811 1641.07 8.46921 1638.59 7.08898 1638.59C5.70874 1638.59 4.58984 1641.07 4.58984 1644.13C4.58984 1647.2 5.70874 1649.68 7.08898 1649.68Z" fill="#EDEBDF"/>
</g>
<g clip-path="url(#clip95)">
<path d="M21.8535 1456.82C29.0047 1456.82 34.8018 1451.02 34.8018 1443.87C34.8018 1436.72 29.0047 1430.92 21.8535 1430.92C14.7024 1430.92 8.90527 1436.72 8.90527 1443.87C8.90527 1451.02 14.7024 1456.82 21.8535 1456.82Z" fill="#2898FF"/>
<path d="M13.9943 1449.42C15.3745 1449.42 16.4934 1446.93 16.4934 1443.87C16.4934 1440.8 15.3745 1438.32 13.9943 1438.32C12.614 1438.32 11.4951 1440.8 11.4951 1443.87C11.4951 1446.93 12.614 1449.42 13.9943 1449.42Z" fill="#EDEBDF"/>
</g>
<g clip-path="url(#clip96)">
<path d="M12.143 1570.33C16.3145 1570.33 19.6962 1566.95 19.6962 1562.78C19.6962 1558.61 16.3145 1555.22 12.143 1555.22C7.97151 1555.22 4.58984 1558.61 4.58984 1562.78C4.58984 1566.95 7.97151 1570.33 12.143 1570.33Z" fill="#2898FF"/>
<path d="M7.55841 1566.01C8.36355 1566.01 9.01624 1564.56 9.01624 1562.78C9.01624 1560.99 8.36355 1559.54 7.55841 1559.54C6.75328 1559.54 6.10059 1560.99 6.10059 1562.78C6.10059 1564.56 6.75328 1566.01 7.55841 1566.01Z" fill="#EDEBDF"/>
</g>
<g clip-path="url(#clip97)">
<path d="M30.27 1615.65C34.4415 1615.65 37.8231 1612.27 37.8231 1608.1C37.8231 1603.92 34.4415 1600.54 30.27 1600.54C26.0985 1600.54 22.7168 1603.92 22.7168 1608.1C22.7168 1612.27 26.0985 1615.65 30.27 1615.65Z" fill="#2898FF"/>
<path d="M25.6854 1611.33C26.4905 1611.33 27.1432 1609.88 27.1432 1608.1C27.1432 1606.31 26.4905 1604.86 25.6854 1604.86C24.8802 1604.86 24.2275 1606.31 24.2275 1608.1C24.2275 1609.88 24.8802 1611.33 25.6854 1611.33Z" fill="#EDEBDF"/>
</g>
<g clip-path="url(#clip98)">
<path d="M11.2797 1686.86C15.4512 1686.86 18.8329 1683.48 18.8329 1679.31C18.8329 1675.14 15.4512 1671.76 11.2797 1671.76C7.10823 1671.76 3.72656 1675.14 3.72656 1679.31C3.72656 1683.48 7.10823 1686.86 11.2797 1686.86Z" fill="#2898FF"/>
<path d="M6.69513 1682.55C7.50027 1682.55 8.15296 1681.1 8.15296 1679.31C8.15296 1677.52 7.50027 1676.07 6.69513 1676.07C5.89 1676.07 5.2373 1677.52 5.2373 1679.31C5.2373 1681.1 5.89 1682.55 6.69513 1682.55Z" fill="#EDEBDF"/>
</g>
<g clip-path="url(#clip99)">
<path d="M31.9965 1498.68C36.168 1498.68 39.5497 1495.3 39.5497 1491.13C39.5497 1486.96 36.168 1483.58 31.9965 1483.58C27.825 1483.58 24.4434 1486.96 24.4434 1491.13C24.4434 1495.3 27.825 1498.68 31.9965 1498.68Z" fill="#2898FF"/>
<path d="M27.4119 1494.37C28.2171 1494.37 28.8698 1492.92 28.8698 1491.13C28.8698 1489.34 28.2171 1487.89 27.4119 1487.89C26.6068 1487.89 25.9541 1489.34 25.9541 1491.13C25.9541 1492.92 26.6068 1494.37 27.4119 1494.37Z" fill="#EDEBDF"/>
</g>
<g clip-path="url(#clip100)">
<path d="M15.1645 1393.37C19.336 1393.37 22.7177 1389.99 22.7177 1385.82C22.7177 1381.65 19.336 1378.26 15.1645 1378.26C10.993 1378.26 7.61133 1381.65 7.61133 1385.82C7.61133 1389.99 10.993 1393.37 15.1645 1393.37Z" fill="#2898FF"/>
<path d="M10.5799 1389.05C11.385 1389.05 12.0377 1387.6 12.0377 1385.82C12.0377 1384.03 11.385 1382.58 10.5799 1382.58C9.77476 1382.58 9.12207 1384.03 9.12207 1385.82C9.12207 1387.6 9.77476 1389.05 10.5799 1389.05Z" fill="#EDEBDF"/>
</g>
<g clip-path="url(#clip101)">
<path d="M29.4077 1307.48C33.5791 1307.48 36.9608 1304.1 36.9608 1299.93C36.9608 1295.76 33.5791 1292.37 29.4077 1292.37C25.2362 1292.37 21.8545 1295.76 21.8545 1299.93C21.8545 1304.1 25.2362 1307.48 29.4077 1307.48Z" fill="#2898FF"/>
<path d="M24.8231 1303.16C25.6282 1303.16 26.2809 1301.71 26.2809 1299.93C26.2809 1298.14 25.6282 1296.69 24.8231 1296.69C24.0179 1296.69 23.3652 1298.14 23.3652 1299.93C23.3652 1301.71 24.0179 1303.16 24.8231 1303.16Z" fill="#EDEBDF"/>
</g>
<g clip-path="url(#clip102)">
<path d="M23.3649 1351.5C26.1061 1351.5 28.3284 1349.28 28.3284 1346.54C28.3284 1343.8 26.1061 1341.58 23.3649 1341.58C20.6236 1341.58 18.4014 1343.8 18.4014 1346.54C18.4014 1349.28 20.6236 1351.5 23.3649 1351.5Z" fill="#2898FF"/>
<path d="M20.3525 1348.67C20.8816 1348.67 21.3105 1347.72 21.3105 1346.54C21.3105 1345.37 20.8816 1344.41 20.3525 1344.41C19.8234 1344.41 19.3945 1345.37 19.3945 1346.54C19.3945 1347.72 19.8234 1348.67 20.3525 1348.67Z" fill="#EDEBDF"/>
</g>
<g clip-path="url(#clip103)">
<path d="M32.86 1408.91C35.6013 1408.91 37.8235 1406.69 37.8235 1403.94C37.8235 1401.2 35.6013 1398.98 32.86 1398.98C30.1187 1398.98 27.8965 1401.2 27.8965 1403.94C27.8965 1406.69 30.1187 1408.91 32.86 1408.91Z" fill="#2898FF"/>
<path d="M29.8476 1406.07C30.3767 1406.07 30.8057 1405.12 30.8057 1403.94C30.8057 1402.77 30.3767 1401.82 29.8476 1401.82C29.3186 1401.82 28.8896 1402.77 28.8896 1403.94C28.8896 1405.12 29.3186 1406.07 29.8476 1406.07Z" fill="#EDEBDF"/>
</g>
<g clip-path="url(#clip104)">
<path d="M12.1432 1524.15C14.8845 1524.15 17.1067 1521.93 17.1067 1519.18C17.1067 1516.44 14.8845 1514.22 12.1432 1514.22C9.40192 1514.22 7.17969 1516.44 7.17969 1519.18C7.17969 1521.93 9.40192 1524.15 12.1432 1524.15Z" fill="#2898FF"/>
<path d="M9.13085 1521.31C9.65994 1521.31 10.0889 1520.36 10.0889 1519.18C10.0889 1518.01 9.65994 1517.06 9.13085 1517.06C8.60176 1517.06 8.17285 1518.01 8.17285 1519.18C8.17285 1520.36 8.60176 1521.31 9.13085 1521.31Z" fill="#EDEBDF"/>
</g>
<g clip-path="url(#clip105)">
<path d="M15.1637 1607.02C17.905 1607.02 20.1272 1604.79 20.1272 1602.05C20.1272 1599.31 17.905 1597.09 15.1637 1597.09C12.4224 1597.09 10.2002 1599.31 10.2002 1602.05C10.2002 1604.79 12.4224 1607.02 15.1637 1607.02Z" fill="#2898FF"/>
<path d="M12.1514 1604.18C12.6804 1604.18 13.1094 1603.23 13.1094 1602.05C13.1094 1600.88 12.6804 1599.93 12.1514 1599.93C11.6223 1599.93 11.1934 1600.88 11.1934 1602.05C11.1934 1603.23 11.6223 1604.18 12.1514 1604.18Z" fill="#EDEBDF"/>
</g>
<g clip-path="url(#clip106)">
<path d="M19.9117 1272.52C22.653 1272.52 24.8753 1270.3 24.8753 1267.56C24.8753 1264.81 22.653 1262.59 19.9117 1262.59C17.1705 1262.59 14.9482 1264.81 14.9482 1267.56C14.9482 1270.3 17.1705 1272.52 19.9117 1272.52Z" fill="#2898FF"/>
<path d="M16.8994 1269.68C17.4285 1269.68 17.8574 1268.73 17.8574 1267.56C17.8574 1266.38 17.4285 1265.43 16.8994 1265.43C16.3703 1265.43 15.9414 1266.38 15.9414 1267.56C15.9414 1268.73 16.3703 1269.68 16.8994 1269.68Z" fill="#EDEBDF"/>
</g>
<g clip-path="url(#clip107)">
<path d="M33.7233 1228.93C36.4645 1228.93 38.6868 1226.7 38.6868 1223.96C38.6868 1221.22 36.4645 1219 33.7233 1219C30.982 1219 28.7598 1221.22 28.7598 1223.96C28.7598 1226.7 30.982 1228.93 33.7233 1228.93Z" fill="#2898FF"/>
<path d="M30.7109 1226.09C31.24 1226.09 31.6689 1225.14 31.6689 1223.96C31.6689 1222.79 31.24 1221.84 30.7109 1221.84C30.1818 1221.84 29.7529 1222.79 29.7529 1223.96C29.7529 1225.14 30.1818 1226.09 30.7109 1226.09Z" fill="#EDEBDF"/>
</g>
<g clip-path="url(#clip108)">
<path d="M24.7168 1202C31.868 1202 37.6651 1196.21 37.6651 1189.06C37.6651 1181.9 31.868 1176.11 24.7168 1176.11C17.5657 1176.11 11.7686 1181.9 11.7686 1189.06C11.7686 1196.21 17.5657 1202 24.7168 1202Z" fill="#2898FF"/>
<path d="M16.8575 1194.6C18.2378 1194.6 19.3567 1192.12 19.3567 1189.06C19.3567 1185.99 18.2378 1183.51 16.8575 1183.51C15.4773 1183.51 14.3584 1185.99 14.3584 1189.06C14.3584 1192.12 15.4773 1194.6 16.8575 1194.6Z" fill="#EDEBDF"/>
</g>
<g clip-path="url(#clip109)">
<path d="M16.9483 1132.08C24.0994 1132.08 29.8966 1126.29 29.8966 1119.14C29.8966 1111.98 24.0994 1106.19 16.9483 1106.19C9.79714 1106.19 4 1111.98 4 1119.14C4 1126.29 9.79714 1132.08 16.9483 1132.08Z" fill="#2898FF"/>
<path d="M9.08898 1124.68C10.4692 1124.68 11.5881 1122.2 11.5881 1119.13C11.5881 1116.07 10.4692 1113.59 9.08898 1113.59C7.70874 1113.59 6.58984 1116.07 6.58984 1119.13C6.58984 1122.2 7.70874 1124.68 9.08898 1124.68Z" fill="#EDEBDF"/>
</g>
<g clip-path="url(#clip110)">
<path d="M23.8535 931.817C31.0047 931.817 36.8018 926.02 36.8018 918.868C36.8018 911.717 31.0047 905.92 23.8535 905.92C16.7024 905.92 10.9053 911.717 10.9053 918.868C10.9053 926.02 16.7024 931.817 23.8535 931.817Z" fill="#2898FF"/>
<path d="M15.9943 924.418C17.3745 924.418 18.4934 921.933 18.4934 918.868C18.4934 915.804 17.3745 913.319 15.9943 913.319C14.614 913.319 13.4951 915.804 13.4951 918.868C13.4951 921.933 14.614 924.418 15.9943 924.418Z" fill="#EDEBDF"/>
</g>
<g clip-path="url(#clip111)">
<path d="M14.143 1045.33C18.3145 1045.33 21.6962 1041.95 21.6962 1037.78C21.6962 1033.61 18.3145 1030.22 14.143 1030.22C9.97151 1030.22 6.58984 1033.61 6.58984 1037.78C6.58984 1041.95 9.97151 1045.33 14.143 1045.33Z" fill="#2898FF"/>
<path d="M9.55841 1041.01C10.3636 1041.01 11.0162 1039.56 11.0162 1037.78C11.0162 1035.99 10.3636 1034.54 9.55841 1034.54C8.75328 1034.54 8.10059 1035.99 8.10059 1037.78C8.10059 1039.56 8.75328 1041.01 9.55841 1041.01Z" fill="#EDEBDF"/>
</g>
<g clip-path="url(#clip112)">
<path d="M32.27 1090.65C36.4415 1090.65 39.8231 1087.27 39.8231 1083.1C39.8231 1078.92 36.4415 1075.54 32.27 1075.54C28.0985 1075.54 24.7168 1078.92 24.7168 1083.1C24.7168 1087.27 28.0985 1090.65 32.27 1090.65Z" fill="#2898FF"/>
<path d="M27.6854 1086.33C28.4905 1086.33 29.1432 1084.88 29.1432 1083.1C29.1432 1081.31 28.4905 1079.86 27.6854 1079.86C26.8802 1079.86 26.2275 1081.31 26.2275 1083.1C26.2275 1084.88 26.8802 1086.33 27.6854 1086.33Z" fill="#EDEBDF"/>
</g>
<g clip-path="url(#clip113)">
<path d="M13.2797 1161.86C17.4512 1161.86 20.8329 1158.48 20.8329 1154.31C20.8329 1150.14 17.4512 1146.76 13.2797 1146.76C9.10823 1146.76 5.72656 1150.14 5.72656 1154.31C5.72656 1158.48 9.10823 1161.86 13.2797 1161.86Z" fill="#2898FF"/>
<path d="M8.69513 1157.55C9.50027 1157.55 10.153 1156.1 10.153 1154.31C10.153 1152.52 9.50027 1151.07 8.69513 1151.07C7.89 1151.07 7.2373 1152.52 7.2373 1154.31C7.2373 1156.1 7.89 1157.55 8.69513 1157.55Z" fill="#EDEBDF"/>
</g>
<g clip-path="url(#clip114)">
<path d="M33.9965 973.683C38.168 973.683 41.5497 970.301 41.5497 966.13C41.5497 961.958 38.168 958.576 33.9965 958.576C29.825 958.576 26.4434 961.958 26.4434 966.13C26.4434 970.301 29.825 973.683 33.9965 973.683Z" fill="#2898FF"/>
<path d="M29.4119 969.367C30.2171 969.367 30.8698 967.917 30.8698 966.13C30.8698 964.342 30.2171 962.893 29.4119 962.893C28.6068 962.893 27.9541 964.342 27.9541 966.13C27.9541 967.917 28.6068 969.367 29.4119 969.367Z" fill="#EDEBDF"/>
</g>
<g clip-path="url(#clip115)">
<path d="M17.1645 868.37C21.336 868.37 24.7177 864.988 24.7177 860.817C24.7177 856.645 21.336 853.264 17.1645 853.264C12.993 853.264 9.61133 856.645 9.61133 860.817C9.61133 864.988 12.993 868.37 17.1645 868.37Z" fill="#2898FF"/>
<path d="M12.5799 864.054C13.385 864.054 14.0377 862.605 14.0377 860.817C14.0377 859.029 13.385 857.58 12.5799 857.58C11.7748 857.58 11.1221 859.029 11.1221 860.817C11.1221 862.605 11.7748 864.054 12.5799 864.054Z" fill="#EDEBDF"/>
</g>
<g clip-path="url(#clip116)">
<path d="M31.4077 782.48C35.5791 782.48 38.9608 779.098 38.9608 774.927C38.9608 770.755 35.5791 767.374 31.4077 767.374C27.2362 767.374 23.8545 770.755 23.8545 774.927C23.8545 779.098 27.2362 782.48 31.4077 782.48Z" fill="#2898FF"/>
<path d="M26.8231 778.164C27.6282 778.164 28.2809 776.715 28.2809 774.927C28.2809 773.139 27.6282 771.69 26.8231 771.69C26.0179 771.69 25.3652 773.139 25.3652 774.927C25.3652 776.715 26.0179 778.164 26.8231 778.164Z" fill="#EDEBDF"/>
</g>
<g clip-path="url(#clip117)">
<path d="M25.3649 826.504C28.1061 826.504 30.3284 824.282 30.3284 821.54C30.3284 818.799 28.1061 816.577 25.3649 816.577C22.6236 816.577 20.4014 818.799 20.4014 821.54C20.4014 824.282 22.6236 826.504 25.3649 826.504Z" fill="#2898FF"/>
<path d="M22.3525 823.668C22.8816 823.668 23.3105 822.715 23.3105 821.54C23.3105 820.365 22.8816 819.413 22.3525 819.413C21.8234 819.413 21.3945 820.365 21.3945 821.54C21.3945 822.715 21.8234 823.668 22.3525 823.668Z" fill="#EDEBDF"/>
</g>
<g clip-path="url(#clip118)">
<path d="M34.86 883.908C37.6013 883.908 39.8235 881.686 39.8235 878.944C39.8235 876.203 37.6013 873.981 34.86 873.981C32.1187 873.981 29.8965 876.203 29.8965 878.944C29.8965 881.686 32.1187 883.908 34.86 883.908Z" fill="#2898FF"/>
<path d="M31.8476 881.072C32.3767 881.072 32.8057 880.119 32.8057 878.944C32.8057 877.77 32.3767 876.817 31.8476 876.817C31.3186 876.817 30.8896 877.77 30.8896 878.944C30.8896 880.119 31.3186 881.072 31.8476 881.072Z" fill="#EDEBDF"/>
</g>
<g clip-path="url(#clip119)">
<path d="M14.1432 999.148C16.8845 999.148 19.1067 996.925 19.1067 994.184C19.1067 991.443 16.8845 989.221 14.1432 989.221C11.4019 989.221 9.17969 991.443 9.17969 994.184C9.17969 996.925 11.4019 999.148 14.1432 999.148Z" fill="#2898FF"/>
<path d="M11.1309 996.311C11.6599 996.311 12.0889 995.359 12.0889 994.184C12.0889 993.009 11.6599 992.057 11.1309 992.057C10.6018 992.057 10.1729 993.009 10.1729 994.184C10.1729 995.359 10.6018 996.311 11.1309 996.311Z" fill="#EDEBDF"/>
</g>
<g clip-path="url(#clip120)">
<path d="M17.1637 1082.02C19.905 1082.02 22.1272 1079.79 22.1272 1077.05C22.1272 1074.31 19.905 1072.09 17.1637 1072.09C14.4224 1072.09 12.2002 1074.31 12.2002 1077.05C12.2002 1079.79 14.4224 1082.02 17.1637 1082.02Z" fill="#2898FF"/>
<path d="M14.1514 1079.18C14.6804 1079.18 15.1094 1078.23 15.1094 1077.05C15.1094 1075.88 14.6804 1074.93 14.1514 1074.93C13.6223 1074.93 13.1934 1075.88 13.1934 1077.05C13.1934 1078.23 13.6223 1079.18 14.1514 1079.18Z" fill="#EDEBDF"/>
</g>
<g clip-path="url(#clip121)">
<path d="M21.9117 747.52C24.653 747.52 26.8753 745.297 26.8753 742.556C26.8753 739.815 24.653 737.593 21.9117 737.593C19.1705 737.593 16.9482 739.815 16.9482 742.556C16.9482 745.297 19.1705 747.52 21.9117 747.52Z" fill="#2898FF"/>
<path d="M18.8994 744.683C19.4285 744.683 19.8574 743.731 19.8574 742.556C19.8574 741.381 19.4285 740.429 18.8994 740.429C18.3703 740.429 17.9414 741.381 17.9414 742.556C17.9414 743.731 18.3703 744.683 18.8994 744.683Z" fill="#EDEBDF"/>
</g>
<g clip-path="url(#clip122)">
<path d="M35.7233 703.927C38.4645 703.927 40.6868 701.705 40.6868 698.964C40.6868 696.222 38.4645 694 35.7233 694C32.982 694 30.7598 696.222 30.7598 698.964C30.7598 701.705 32.982 703.927 35.7233 703.927Z" fill="#2898FF"/>
<path d="M32.7109 701.091C33.24 701.091 33.6689 700.138 33.6689 698.963C33.6689 697.789 33.24 696.836 32.7109 696.836C32.1818 696.836 31.7529 697.789 31.7529 698.963C31.7529 700.138 32.1818 701.091 32.7109 701.091Z" fill="#EDEBDF"/>
</g>
<g clip-path="url(#clip123)">
<path d="M24.7168 688.004C31.868 688.004 37.6651 682.207 37.6651 675.056C37.6651 667.905 31.868 662.107 24.7168 662.107C17.5657 662.107 11.7686 667.905 11.7686 675.056C11.7686 682.207 17.5657 688.004 24.7168 688.004Z" fill="#2898FF"/>
<path d="M16.8575 680.605C18.2378 680.605 19.3567 678.12 19.3567 675.056C19.3567 671.991 18.2378 669.506 16.8575 669.506C15.4773 669.506 14.3584 671.991 14.3584 675.056C14.3584 678.12 15.4773 680.605 16.8575 680.605Z" fill="#EDEBDF"/>
</g>
<g clip-path="url(#clip124)">
<path d="M16.9483 618.083C24.0994 618.083 29.8966 612.286 29.8966 605.135C29.8966 597.984 24.0994 592.187 16.9483 592.187C9.79714 592.187 4 597.984 4 605.135C4 612.286 9.79714 618.083 16.9483 618.083Z" fill="#2898FF"/>
<path d="M9.08898 610.684C10.4692 610.684 11.5881 608.2 11.5881 605.135C11.5881 602.07 10.4692 599.586 9.08898 599.586C7.70874 599.586 6.58984 602.07 6.58984 605.135C6.58984 608.2 7.70874 610.684 9.08898 610.684Z" fill="#EDEBDF"/>
</g>
<g clip-path="url(#clip125)">
<path d="M23.8535 417.816C31.0047 417.816 36.8018 412.019 36.8018 404.868C36.8018 397.717 31.0047 391.92 23.8535 391.92C16.7024 391.92 10.9053 397.717 10.9053 404.868C10.9053 412.019 16.7024 417.816 23.8535 417.816Z" fill="#2898FF"/>
<path d="M15.9943 410.417C17.3745 410.417 18.4934 407.933 18.4934 404.868C18.4934 401.803 17.3745 399.319 15.9943 399.319C14.614 399.319 13.4951 401.803 13.4951 404.868C13.4951 407.933 14.614 410.417 15.9943 410.417Z" fill="#EDEBDF"/>
</g>
<g clip-path="url(#clip126)">
<path d="M14.143 531.33C18.3145 531.33 21.6962 527.948 21.6962 523.777C21.6962 519.605 18.3145 516.224 14.143 516.224C9.97151 516.224 6.58984 519.605 6.58984 523.777C6.58984 527.948 9.97151 531.33 14.143 531.33Z" fill="#2898FF"/>
<path d="M9.55841 527.014C10.3636 527.014 11.0162 525.565 11.0162 523.777C11.0162 521.989 10.3636 520.54 9.55841 520.54C8.75328 520.54 8.10059 521.989 8.10059 523.777C8.10059 525.565 8.75328 527.014 9.55841 527.014Z" fill="#EDEBDF"/>
</g>
<g clip-path="url(#clip127)">
<path d="M32.27 576.649C36.4415 576.649 39.8231 573.267 39.8231 569.096C39.8231 564.924 36.4415 561.542 32.27 561.542C28.0985 561.542 24.7168 564.924 24.7168 569.096C24.7168 573.267 28.0985 576.649 32.27 576.649Z" fill="#2898FF"/>
<path d="M27.6854 572.333C28.4905 572.333 29.1432 570.883 29.1432 569.096C29.1432 567.308 28.4905 565.859 27.6854 565.859C26.8802 565.859 26.2275 567.308 26.2275 569.096C26.2275 570.883 26.8802 572.333 27.6854 572.333Z" fill="#EDEBDF"/>
</g>
<g clip-path="url(#clip128)">
<path d="M13.2797 647.864C17.4512 647.864 20.8329 644.483 20.8329 640.311C20.8329 636.14 17.4512 632.758 13.2797 632.758C9.10823 632.758 5.72656 636.14 5.72656 640.311C5.72656 644.483 9.10823 647.864 13.2797 647.864Z" fill="#2898FF"/>
<path d="M8.69513 643.548C9.50027 643.548 10.153 642.099 10.153 640.311C10.153 638.524 9.50027 637.074 8.69513 637.074C7.89 637.074 7.2373 638.524 7.2373 640.311C7.2373 642.099 7.89 643.548 8.69513 643.548Z" fill="#EDEBDF"/>
</g>
<g clip-path="url(#clip129)">
<path d="M33.9965 459.683C38.168 459.683 41.5497 456.301 41.5497 452.13C41.5497 447.958 38.168 444.576 33.9965 444.576C29.825 444.576 26.4434 447.958 26.4434 452.13C26.4434 456.301 29.825 459.683 33.9965 459.683Z" fill="#2898FF"/>
<path d="M29.4119 455.367C30.2171 455.367 30.8698 453.917 30.8698 452.13C30.8698 450.342 30.2171 448.893 29.4119 448.893C28.6068 448.893 27.9541 450.342 27.9541 452.13C27.9541 453.917 28.6068 455.367 29.4119 455.367Z" fill="#EDEBDF"/>
</g>
<g clip-path="url(#clip130)">
<path d="M17.1645 354.37C21.336 354.37 24.7177 350.988 24.7177 346.817C24.7177 342.645 21.336 339.264 17.1645 339.264C12.993 339.264 9.61133 342.645 9.61133 346.817C9.61133 350.988 12.993 354.37 17.1645 354.37Z" fill="#2898FF"/>
<path d="M12.5799 350.054C13.385 350.054 14.0377 348.604 14.0377 346.817C14.0377 345.029 13.385 343.58 12.5799 343.58C11.7748 343.58 11.1221 345.029 11.1221 346.817C11.1221 348.604 11.7748 350.054 12.5799 350.054Z" fill="#EDEBDF"/>
</g>
<g clip-path="url(#clip131)">
<path d="M31.4077 268.48C35.5791 268.48 38.9608 265.098 38.9608 260.927C38.9608 256.755 35.5791 253.374 31.4077 253.374C27.2362 253.374 23.8545 256.755 23.8545 260.927C23.8545 265.098 27.2362 268.48 31.4077 268.48Z" fill="#2898FF"/>
<path d="M26.8231 264.164C27.6282 264.164 28.2809 262.714 28.2809 260.927C28.2809 259.139 27.6282 257.689 26.8231 257.689C26.0179 257.689 25.3652 259.139 25.3652 260.927C25.3652 262.714 26.0179 264.164 26.8231 264.164Z" fill="#EDEBDF"/>
</g>
<g clip-path="url(#clip132)">
<path d="M25.3649 312.504C28.1061 312.504 30.3284 310.282 30.3284 307.541C30.3284 304.799 28.1061 302.577 25.3649 302.577C22.6236 302.577 20.4014 304.799 20.4014 307.541C20.4014 310.282 22.6236 312.504 25.3649 312.504Z" fill="#2898FF"/>
<path d="M22.3525 309.668C22.8816 309.668 23.3105 308.716 23.3105 307.541C23.3105 306.366 22.8816 305.414 22.3525 305.414C21.8234 305.414 21.3945 306.366 21.3945 307.541C21.3945 308.716 21.8234 309.668 22.3525 309.668Z" fill="#EDEBDF"/>
</g>
<g clip-path="url(#clip133)">
<path d="M34.86 369.908C37.6013 369.908 39.8235 367.686 39.8235 364.944C39.8235 362.203 37.6013 359.981 34.86 359.981C32.1187 359.981 29.8965 362.203 29.8965 364.944C29.8965 367.686 32.1187 369.908 34.86 369.908Z" fill="#2898FF"/>
<path d="M31.8476 367.072C32.3767 367.072 32.8057 366.119 32.8057 364.945C32.8057 363.77 32.3767 362.817 31.8476 362.817C31.3186 362.817 30.8896 363.77 30.8896 364.945C30.8896 366.119 31.3186 367.072 31.8476 367.072Z" fill="#EDEBDF"/>
</g>
<g clip-path="url(#clip134)">
<path d="M14.1432 485.148C16.8845 485.148 19.1067 482.925 19.1067 480.184C19.1067 477.443 16.8845 475.221 14.1432 475.221C11.4019 475.221 9.17969 477.443 9.17969 480.184C9.17969 482.925 11.4019 485.148 14.1432 485.148Z" fill="#2898FF"/>
<path d="M11.1309 482.311C11.6599 482.311 12.0889 481.359 12.0889 480.184C12.0889 479.009 11.6599 478.057 11.1309 478.057C10.6018 478.057 10.1729 479.009 10.1729 480.184C10.1729 481.359 10.6018 482.311 11.1309 482.311Z" fill="#EDEBDF"/>
</g>
<g clip-path="url(#clip135)">
<path d="M17.1637 568.017C19.905 568.017 22.1272 565.794 22.1272 563.053C22.1272 560.312 19.905 558.09 17.1637 558.09C14.4224 558.09 12.2002 560.312 12.2002 563.053C12.2002 565.794 14.4224 568.017 17.1637 568.017Z" fill="#2898FF"/>
<path d="M14.1514 565.18C14.6804 565.18 15.1094 564.228 15.1094 563.053C15.1094 561.878 14.6804 560.926 14.1514 560.926C13.6223 560.926 13.1934 561.878 13.1934 563.053C13.1934 564.228 13.6223 565.18 14.1514 565.18Z" fill="#EDEBDF"/>
</g>
<g clip-path="url(#clip136)">
<path d="M21.9117 233.52C24.653 233.52 26.8753 231.298 26.8753 228.556C26.8753 225.815 24.653 223.593 21.9117 223.593C19.1705 223.593 16.9482 225.815 16.9482 228.556C16.9482 231.298 19.1705 233.52 21.9117 233.52Z" fill="#2898FF"/>
<path d="M18.8994 230.684C19.4285 230.684 19.8574 229.731 19.8574 228.556C19.8574 227.382 19.4285 226.429 18.8994 226.429C18.3703 226.429 17.9414 227.382 17.9414 228.556C17.9414 229.731 18.3703 230.684 18.8994 230.684Z" fill="#EDEBDF"/>
</g>
<g clip-path="url(#clip137)">
<path d="M35.7233 189.927C38.4645 189.927 40.6868 187.705 40.6868 184.964C40.6868 182.222 38.4645 180 35.7233 180C32.982 180 30.7598 182.222 30.7598 184.964C30.7598 187.705 32.982 189.927 35.7233 189.927Z" fill="#2898FF"/>
<path d="M32.7109 187.091C33.24 187.091 33.6689 186.138 33.6689 184.964C33.6689 183.789 33.24 182.836 32.7109 182.836C32.1818 182.836 31.7529 183.789 31.7529 184.964C31.7529 186.138 32.1818 187.091 32.7109 187.091Z" fill="#EDEBDF"/>
</g>
<g clip-path="url(#clip138)">
<path d="M24.7168 172.004C31.868 172.004 37.6651 166.207 37.6651 159.056C37.6651 151.905 31.868 146.107 24.7168 146.107C17.5657 146.107 11.7686 151.905 11.7686 159.056C11.7686 166.207 17.5657 172.004 24.7168 172.004Z" fill="#2898FF"/>
<path d="M16.8575 164.605C18.2378 164.605 19.3567 162.12 19.3567 159.056C19.3567 155.991 18.2378 153.506 16.8575 153.506C15.4773 153.506 14.3584 155.991 14.3584 159.056C14.3584 162.12 15.4773 164.605 16.8575 164.605Z" fill="#EDEBDF"/>
</g>
<g clip-path="url(#clip139)">
<path d="M16.9483 102.083C24.0994 102.083 29.8966 96.2859 29.8966 89.1348C29.8966 81.9837 24.0994 76.1865 16.9483 76.1865C9.79714 76.1865 4 81.9837 4 89.1348C4 96.2859 9.79714 102.083 16.9483 102.083Z" fill="#2898FF"/>
<path d="M9.08898 94.684C10.4692 94.684 11.5881 92.1995 11.5881 89.1347C11.5881 86.0699 10.4692 83.5854 9.08898 83.5854C7.70874 83.5854 6.58984 86.0699 6.58984 89.1347C6.58984 92.1995 7.70874 94.684 9.08898 94.684Z" fill="#EDEBDF"/>
</g>
<g clip-path="url(#clip140)">
<path d="M14.143 15.33C18.3145 15.33 21.6962 11.9483 21.6962 7.77679C21.6962 3.6053 18.3145 0.223633 14.143 0.223633C9.97151 0.223633 6.58984 3.6053 6.58984 7.77679C6.58984 11.9483 9.97151 15.33 14.143 15.33Z" fill="#2898FF"/>
<path d="M9.55841 11.0137C10.3636 11.0137 11.0162 9.5644 11.0162 7.77662C11.0162 5.98884 10.3636 4.53955 9.55841 4.53955C8.75328 4.53955 8.10059 5.98884 8.10059 7.77662C8.10059 9.5644 8.75328 11.0137 9.55841 11.0137Z" fill="#EDEBDF"/>
</g>
<g clip-path="url(#clip141)">
<path d="M32.27 60.6488C36.4415 60.6488 39.8231 57.2671 39.8231 53.0956C39.8231 48.9241 36.4415 45.5425 32.27 45.5425C28.0985 45.5425 24.7168 48.9241 24.7168 53.0956C24.7168 57.2671 28.0985 60.6488 32.27 60.6488Z" fill="#2898FF"/>
<path d="M27.6854 56.3325C28.4905 56.3325 29.1432 54.8833 29.1432 53.0955C29.1432 51.3077 28.4905 49.8584 27.6854 49.8584C26.8802 49.8584 26.2275 51.3077 26.2275 53.0955C26.2275 54.8833 26.8802 56.3325 27.6854 56.3325Z" fill="#EDEBDF"/>
</g>
<g clip-path="url(#clip142)">
<path d="M13.2797 131.864C17.4512 131.864 20.8329 128.482 20.8329 124.311C20.8329 120.139 17.4512 116.758 13.2797 116.758C9.10823 116.758 5.72656 120.139 5.72656 124.311C5.72656 128.482 9.10823 131.864 13.2797 131.864Z" fill="#2898FF"/>
<path d="M8.69513 127.548C9.50027 127.548 10.153 126.099 10.153 124.311C10.153 122.523 9.50027 121.074 8.69513 121.074C7.89 121.074 7.2373 122.523 7.2373 124.311C7.2373 126.099 7.89 127.548 8.69513 127.548Z" fill="#EDEBDF"/>
</g>
<g clip-path="url(#clip143)">
<path d="M17.1637 52.0169C19.905 52.0169 22.1272 49.7946 22.1272 47.0533C22.1272 44.3121 19.905 42.0898 17.1637 42.0898C14.4224 42.0898 12.2002 44.3121 12.2002 47.0533C12.2002 49.7946 14.4224 52.0169 17.1637 52.0169Z" fill="#2898FF"/>
<path d="M14.1514 49.1807C14.6804 49.1807 15.1094 48.2283 15.1094 47.0535C15.1094 45.8787 14.6804 44.9263 14.1514 44.9263C13.6223 44.9263 13.1934 45.8787 13.1934 47.0535C13.1934 48.2283 13.6223 49.1807 14.1514 49.1807Z" fill="#EDEBDF"/>
</g>
<defs>
<clipPath id="clip0">
<rect width="25.8966" height="25.8966" fill="white" transform="translate(11.7686 3247.11)"/>
</clipPath>
<clipPath id="clip1">
<rect width="25.8966" height="25.8966" fill="white" transform="translate(4 3177.19)"/>
</clipPath>
<clipPath id="clip2">
<rect width="25.8966" height="25.8966" fill="white" transform="translate(10.9053 2976.92)"/>
</clipPath>
<clipPath id="clip3">
<rect width="15.1063" height="15.1063" fill="white" transform="translate(6.58984 3101.22)"/>
</clipPath>
<clipPath id="clip4">
<rect width="15.1063" height="15.1063" fill="white" transform="translate(24.7168 3146.54)"/>
</clipPath>
<clipPath id="clip5">
<rect width="15.1063" height="15.1063" fill="white" transform="translate(5.72656 3217.76)"/>
</clipPath>
<clipPath id="clip6">
<rect width="15.1063" height="15.1063" fill="white" transform="translate(26.4434 3029.58)"/>
</clipPath>
<clipPath id="clip7">
<rect width="15.1063" height="15.1063" fill="white" transform="translate(9.61133 2924.26)"/>
</clipPath>
<clipPath id="clip8">
<rect width="15.1063" height="15.1063" fill="white" transform="translate(23.8545 2838.37)"/>
</clipPath>
<clipPath id="clip9">
<rect width="9.92701" height="9.92701" fill="white" transform="translate(20.4014 2887.58)"/>
</clipPath>
<clipPath id="clip10">
<rect width="9.92701" height="9.92701" fill="white" transform="translate(29.8965 2944.98)"/>
</clipPath>
<clipPath id="clip11">
<rect width="9.92701" height="9.92701" fill="white" transform="translate(9.17969 3060.22)"/>
</clipPath>
<clipPath id="clip12">
<rect width="9.92701" height="9.92701" fill="white" transform="translate(12.2002 3143.09)"/>
</clipPath>
<clipPath id="clip13">
<rect width="9.92701" height="9.92701" fill="white" transform="translate(16.9482 2808.59)"/>
</clipPath>
<clipPath id="clip14">
<rect width="9.92701" height="9.92701" fill="white" transform="translate(30.7598 2765)"/>
</clipPath>
<clipPath id="clip15">
<rect width="25.8966" height="25.8966" fill="white" transform="translate(12.7686 3759.11)"/>
</clipPath>
<clipPath id="clip16">
<rect width="25.8966" height="25.8966" fill="white" transform="translate(5 3689.19)"/>
</clipPath>
<clipPath id="clip17">
<rect width="25.8966" height="25.8966" fill="white" transform="translate(11.9053 3488.92)"/>
</clipPath>
<clipPath id="clip18">
<rect width="15.1063" height="15.1063" fill="white" transform="translate(7.58984 3613.22)"/>
</clipPath>
<clipPath id="clip19">
<rect width="15.1063" height="15.1063" fill="white" transform="translate(25.7168 3658.54)"/>
</clipPath>
<clipPath id="clip20">
<rect width="15.1063" height="15.1063" fill="white" transform="translate(6.72656 3729.76)"/>
</clipPath>
<clipPath id="clip21">
<rect width="15.1063" height="15.1063" fill="white" transform="translate(27.4434 3541.58)"/>
</clipPath>
<clipPath id="clip22">
<rect width="15.1063" height="15.1063" fill="white" transform="translate(10.6113 3436.26)"/>
</clipPath>
<clipPath id="clip23">
<rect width="15.1063" height="15.1063" fill="white" transform="translate(24.8545 3350.37)"/>
</clipPath>
<clipPath id="clip24">
<rect width="9.92701" height="9.92701" fill="white" transform="translate(21.4014 3399.58)"/>
</clipPath>
<clipPath id="clip25">
<rect width="9.92701" height="9.92701" fill="white" transform="translate(30.8965 3456.98)"/>
</clipPath>
<clipPath id="clip26">
<rect width="9.92701" height="9.92701" fill="white" transform="translate(10.1797 3572.22)"/>
</clipPath>
<clipPath id="clip27">
<rect width="9.92701" height="9.92701" fill="white" transform="translate(13.2002 3655.09)"/>
</clipPath>
<clipPath id="clip28">
<rect width="9.92701" height="9.92701" fill="white" transform="translate(17.9482 3320.59)"/>
</clipPath>
<clipPath id="clip29">
<rect width="9.92701" height="9.92701" fill="white" transform="translate(31.7598 3277)"/>
</clipPath>
<clipPath id="clip30">
<rect width="25.8966" height="25.8966" fill="white" transform="translate(10.7686 4277.11)"/>
</clipPath>
<clipPath id="clip31">
<rect width="25.8966" height="25.8966" fill="white" transform="translate(3 4207.19)"/>
</clipPath>
<clipPath id="clip32">
<rect width="25.8966" height="25.8966" fill="white" transform="translate(9.90527 4006.92)"/>
</clipPath>
<clipPath id="clip33">
<rect width="15.1063" height="15.1063" fill="white" transform="translate(5.58984 4131.22)"/>
</clipPath>
<clipPath id="clip34">
<rect width="15.1063" height="15.1063" fill="white" transform="translate(23.7168 4176.54)"/>
</clipPath>
<clipPath id="clip35">
<rect width="15.1063" height="15.1063" fill="white" transform="translate(4.72656 4247.76)"/>
</clipPath>
<clipPath id="clip36">
<rect width="15.1063" height="15.1063" fill="white" transform="translate(25.4434 4059.58)"/>
</clipPath>
<clipPath id="clip37">
<rect width="15.1063" height="15.1063" fill="white" transform="translate(8.61133 3954.26)"/>
</clipPath>
<clipPath id="clip38">
<rect width="15.1063" height="15.1063" fill="white" transform="translate(22.8545 3868.37)"/>
</clipPath>
<clipPath id="clip39">
<rect width="9.92701" height="9.92701" fill="white" transform="translate(19.4014 3917.58)"/>
</clipPath>
<clipPath id="clip40">
<rect width="9.92701" height="9.92701" fill="white" transform="translate(28.8965 3974.98)"/>
</clipPath>
<clipPath id="clip41">
<rect width="9.92701" height="9.92701" fill="white" transform="translate(8.17969 4090.22)"/>
</clipPath>
<clipPath id="clip42">
<rect width="9.92701" height="9.92701" fill="white" transform="translate(11.2002 4173.09)"/>
</clipPath>
<clipPath id="clip43">
<rect width="9.92701" height="9.92701" fill="white" transform="translate(15.9482 3838.59)"/>
</clipPath>
<clipPath id="clip44">
<rect width="9.92701" height="9.92701" fill="white" transform="translate(29.7598 3795)"/>
</clipPath>
<clipPath id="clip45">
<rect width="25.8966" height="25.8966" fill="white" transform="translate(10.7686 4791.11)"/>
</clipPath>
<clipPath id="clip46">
<rect width="25.8966" height="25.8966" fill="white" transform="translate(3 4721.19)"/>
</clipPath>
<clipPath id="clip47">
<rect width="25.8966" height="25.8966" fill="white" transform="translate(9.90527 4520.92)"/>
</clipPath>
<clipPath id="clip48">
<rect width="15.1063" height="15.1063" fill="white" transform="translate(5.58984 4645.22)"/>
</clipPath>
<clipPath id="clip49">
<rect width="15.1063" height="15.1063" fill="white" transform="translate(23.7168 4690.54)"/>
</clipPath>
<clipPath id="clip50">
<rect width="15.1063" height="15.1063" fill="white" transform="translate(4.72656 4761.76)"/>
</clipPath>
<clipPath id="clip51">
<rect width="15.1063" height="15.1063" fill="white" transform="translate(25.4434 4573.58)"/>
</clipPath>
<clipPath id="clip52">
<rect width="15.1063" height="15.1063" fill="white" transform="translate(8.61133 4468.26)"/>
</clipPath>
<clipPath id="clip53">
<rect width="15.1063" height="15.1063" fill="white" transform="translate(22.8545 4382.37)"/>
</clipPath>
<clipPath id="clip54">
<rect width="9.92701" height="9.92701" fill="white" transform="translate(19.4014 4431.58)"/>
</clipPath>
<clipPath id="clip55">
<rect width="9.92701" height="9.92701" fill="white" transform="translate(28.8965 4488.98)"/>
</clipPath>
<clipPath id="clip56">
<rect width="9.92701" height="9.92701" fill="white" transform="translate(8.17969 4604.22)"/>
</clipPath>
<clipPath id="clip57">
<rect width="9.92701" height="9.92701" fill="white" transform="translate(11.2002 4687.09)"/>
</clipPath>
<clipPath id="clip58">
<rect width="9.92701" height="9.92701" fill="white" transform="translate(15.9482 4352.59)"/>
</clipPath>
<clipPath id="clip59">
<rect width="9.92701" height="9.92701" fill="white" transform="translate(29.7598 4309)"/>
</clipPath>
<clipPath id="clip60">
<rect width="15.1063" height="15.1063" fill="white" transform="translate(20.2432 4899.37)"/>
</clipPath>
<clipPath id="clip61">
<rect width="9.92701" height="9.92701" fill="white" transform="translate(13.3369 4869.59)"/>
</clipPath>
<clipPath id="clip62">
<rect width="9.92701" height="9.92701" fill="white" transform="translate(27.1484 4826)"/>
</clipPath>
<clipPath id="clip63">
<rect width="25.8966" height="25.8966" fill="white" transform="translate(11.7686 2732.11)"/>
</clipPath>
<clipPath id="clip64">
<rect width="25.8966" height="25.8966" fill="white" transform="translate(4 2662.19)"/>
</clipPath>
<clipPath id="clip65">
<rect width="25.8966" height="25.8966" fill="white" transform="translate(10.9053 2461.92)"/>
</clipPath>
<clipPath id="clip66">
<rect width="15.1063" height="15.1063" fill="white" transform="translate(6.58984 2586.22)"/>
</clipPath>
<clipPath id="clip67">
<rect width="15.1063" height="15.1063" fill="white" transform="translate(24.7168 2631.54)"/>
</clipPath>
<clipPath id="clip68">
<rect width="15.1063" height="15.1063" fill="white" transform="translate(5.72656 2702.76)"/>
</clipPath>
<clipPath id="clip69">
<rect width="15.1063" height="15.1063" fill="white" transform="translate(26.4434 2514.58)"/>
</clipPath>
<clipPath id="clip70">
<rect width="15.1063" height="15.1063" fill="white" transform="translate(9.61133 2409.26)"/>
</clipPath>
<clipPath id="clip71">
<rect width="15.1063" height="15.1063" fill="white" transform="translate(23.8545 2323.37)"/>
</clipPath>
<clipPath id="clip72">
<rect width="9.92701" height="9.92701" fill="white" transform="translate(20.4014 2372.58)"/>
</clipPath>
<clipPath id="clip73">
<rect width="9.92701" height="9.92701" fill="white" transform="translate(29.8965 2429.98)"/>
</clipPath>
<clipPath id="clip74">
<rect width="9.92701" height="9.92701" fill="white" transform="translate(9.17969 2545.22)"/>
</clipPath>
<clipPath id="clip75">
<rect width="9.92701" height="9.92701" fill="white" transform="translate(12.2002 2628.09)"/>
</clipPath>
<clipPath id="clip76">
<rect width="9.92701" height="9.92701" fill="white" transform="translate(16.9482 2293.59)"/>
</clipPath>
<clipPath id="clip77">
<rect width="9.92701" height="9.92701" fill="white" transform="translate(30.7598 2250)"/>
</clipPath>
<clipPath id="clip78">
<rect width="25.8966" height="25.8966" fill="white" transform="translate(11.7686 2217.11)"/>
</clipPath>
<clipPath id="clip79">
<rect width="25.8966" height="25.8966" fill="white" transform="translate(4 2147.19)"/>
</clipPath>
<clipPath id="clip80">
<rect width="25.8966" height="25.8966" fill="white" transform="translate(10.9053 1946.92)"/>
</clipPath>
<clipPath id="clip81">
<rect width="15.1063" height="15.1063" fill="white" transform="translate(6.58984 2071.22)"/>
</clipPath>
<clipPath id="clip82">
<rect width="15.1063" height="15.1063" fill="white" transform="translate(24.7168 2116.54)"/>
</clipPath>
<clipPath id="clip83">
<rect width="15.1063" height="15.1063" fill="white" transform="translate(5.72656 2187.76)"/>
</clipPath>
<clipPath id="clip84">
<rect width="15.1063" height="15.1063" fill="white" transform="translate(26.4434 1999.58)"/>
</clipPath>
<clipPath id="clip85">
<rect width="15.1063" height="15.1063" fill="white" transform="translate(9.61133 1894.26)"/>
</clipPath>
<clipPath id="clip86">
<rect width="15.1063" height="15.1063" fill="white" transform="translate(23.8545 1808.37)"/>
</clipPath>
<clipPath id="clip87">
<rect width="9.92701" height="9.92701" fill="white" transform="translate(20.4014 1857.58)"/>
</clipPath>
<clipPath id="clip88">
<rect width="9.92701" height="9.92701" fill="white" transform="translate(29.8965 1914.98)"/>
</clipPath>
<clipPath id="clip89">
<rect width="9.92701" height="9.92701" fill="white" transform="translate(9.17969 2030.22)"/>
</clipPath>
<clipPath id="clip90">
<rect width="9.92701" height="9.92701" fill="white" transform="translate(12.2002 2113.09)"/>
</clipPath>
<clipPath id="clip91">
<rect width="9.92701" height="9.92701" fill="white" transform="translate(16.9482 1778.59)"/>
</clipPath>
<clipPath id="clip92">
<rect width="9.92701" height="9.92701" fill="white" transform="translate(30.7598 1735)"/>
</clipPath>
<clipPath id="clip93">
<rect width="25.8966" height="25.8966" fill="white" transform="translate(9.76855 1701.11)"/>
</clipPath>
<clipPath id="clip94">
<rect width="25.8966" height="25.8966" fill="white" transform="translate(2 1631.19)"/>
</clipPath>
<clipPath id="clip95">
<rect width="25.8966" height="25.8966" fill="white" transform="translate(8.90527 1430.92)"/>
</clipPath>
<clipPath id="clip96">
<rect width="15.1063" height="15.1063" fill="white" transform="translate(4.58984 1555.22)"/>
</clipPath>
<clipPath id="clip97">
<rect width="15.1063" height="15.1063" fill="white" transform="translate(22.7168 1600.54)"/>
</clipPath>
<clipPath id="clip98">
<rect width="15.1063" height="15.1063" fill="white" transform="translate(3.72656 1671.76)"/>
</clipPath>
<clipPath id="clip99">
<rect width="15.1063" height="15.1063" fill="white" transform="translate(24.4434 1483.58)"/>
</clipPath>
<clipPath id="clip100">
<rect width="15.1063" height="15.1063" fill="white" transform="translate(7.61133 1378.26)"/>
</clipPath>
<clipPath id="clip101">
<rect width="15.1063" height="15.1063" fill="white" transform="translate(21.8545 1292.37)"/>
</clipPath>
<clipPath id="clip102">
<rect width="9.92701" height="9.92701" fill="white" transform="translate(18.4014 1341.58)"/>
</clipPath>
<clipPath id="clip103">
<rect width="9.92701" height="9.92701" fill="white" transform="translate(27.8965 1398.98)"/>
</clipPath>
<clipPath id="clip104">
<rect width="9.92701" height="9.92701" fill="white" transform="translate(7.17969 1514.22)"/>
</clipPath>
<clipPath id="clip105">
<rect width="9.92701" height="9.92701" fill="white" transform="translate(10.2002 1597.09)"/>
</clipPath>
<clipPath id="clip106">
<rect width="9.92701" height="9.92701" fill="white" transform="translate(14.9482 1262.59)"/>
</clipPath>
<clipPath id="clip107">
<rect width="9.92701" height="9.92701" fill="white" transform="translate(28.7598 1219)"/>
</clipPath>
<clipPath id="clip108">
<rect width="25.8966" height="25.8966" fill="white" transform="translate(11.7686 1176.11)"/>
</clipPath>
<clipPath id="clip109">
<rect width="25.8966" height="25.8966" fill="white" transform="translate(4 1106.19)"/>
</clipPath>
<clipPath id="clip110">
<rect width="25.8966" height="25.8966" fill="white" transform="translate(10.9053 905.92)"/>
</clipPath>
<clipPath id="clip111">
<rect width="15.1063" height="15.1063" fill="white" transform="translate(6.58984 1030.22)"/>
</clipPath>
<clipPath id="clip112">
<rect width="15.1063" height="15.1063" fill="white" transform="translate(24.7168 1075.54)"/>
</clipPath>
<clipPath id="clip113">
<rect width="15.1063" height="15.1063" fill="white" transform="translate(5.72656 1146.76)"/>
</clipPath>
<clipPath id="clip114">
<rect width="15.1063" height="15.1063" fill="white" transform="translate(26.4434 958.576)"/>
</clipPath>
<clipPath id="clip115">
<rect width="15.1063" height="15.1063" fill="white" transform="translate(9.61133 853.264)"/>
</clipPath>
<clipPath id="clip116">
<rect width="15.1063" height="15.1063" fill="white" transform="translate(23.8545 767.374)"/>
</clipPath>
<clipPath id="clip117">
<rect width="9.92701" height="9.92701" fill="white" transform="translate(20.4014 816.577)"/>
</clipPath>
<clipPath id="clip118">
<rect width="9.92701" height="9.92701" fill="white" transform="translate(29.8965 873.981)"/>
</clipPath>
<clipPath id="clip119">
<rect width="9.92701" height="9.92701" fill="white" transform="translate(9.17969 989.221)"/>
</clipPath>
<clipPath id="clip120">
<rect width="9.92701" height="9.92701" fill="white" transform="translate(12.2002 1072.09)"/>
</clipPath>
<clipPath id="clip121">
<rect width="9.92701" height="9.92701" fill="white" transform="translate(16.9482 737.593)"/>
</clipPath>
<clipPath id="clip122">
<rect width="9.92701" height="9.92701" fill="white" transform="translate(30.7598 694)"/>
</clipPath>
<clipPath id="clip123">
<rect width="25.8966" height="25.8966" fill="white" transform="translate(11.7686 662.107)"/>
</clipPath>
<clipPath id="clip124">
<rect width="25.8966" height="25.8966" fill="white" transform="translate(4 592.187)"/>
</clipPath>
<clipPath id="clip125">
<rect width="25.8966" height="25.8966" fill="white" transform="translate(10.9053 391.92)"/>
</clipPath>
<clipPath id="clip126">
<rect width="15.1063" height="15.1063" fill="white" transform="translate(6.58984 516.224)"/>
</clipPath>
<clipPath id="clip127">
<rect width="15.1063" height="15.1063" fill="white" transform="translate(24.7168 561.542)"/>
</clipPath>
<clipPath id="clip128">
<rect width="15.1063" height="15.1063" fill="white" transform="translate(5.72656 632.758)"/>
</clipPath>
<clipPath id="clip129">
<rect width="15.1063" height="15.1063" fill="white" transform="translate(26.4434 444.576)"/>
</clipPath>
<clipPath id="clip130">
<rect width="15.1063" height="15.1063" fill="white" transform="translate(9.61133 339.264)"/>
</clipPath>
<clipPath id="clip131">
<rect width="15.1063" height="15.1063" fill="white" transform="translate(23.8545 253.374)"/>
</clipPath>
<clipPath id="clip132">
<rect width="9.92701" height="9.92701" fill="white" transform="translate(20.4014 302.577)"/>
</clipPath>
<clipPath id="clip133">
<rect width="9.92701" height="9.92701" fill="white" transform="translate(29.8965 359.981)"/>
</clipPath>
<clipPath id="clip134">
<rect width="9.92701" height="9.92701" fill="white" transform="translate(9.17969 475.221)"/>
</clipPath>
<clipPath id="clip135">
<rect width="9.92701" height="9.92701" fill="white" transform="translate(12.2002 558.09)"/>
</clipPath>
<clipPath id="clip136">
<rect width="9.92701" height="9.92701" fill="white" transform="translate(16.9482 223.593)"/>
</clipPath>
<clipPath id="clip137">
<rect width="9.92701" height="9.92701" fill="white" transform="translate(30.7598 180)"/>
</clipPath>
<clipPath id="clip138">
<rect width="25.8966" height="25.8966" fill="white" transform="translate(11.7686 146.107)"/>
</clipPath>
<clipPath id="clip139">
<rect width="25.8966" height="25.8966" fill="white" transform="translate(4 76.1865)"/>
</clipPath>
<clipPath id="clip140">
<rect width="15.1063" height="15.1063" fill="white" transform="translate(6.58984 0.223633)"/>
</clipPath>
<clipPath id="clip141">
<rect width="15.1063" height="15.1063" fill="white" transform="translate(24.7168 45.5425)"/>
</clipPath>
<clipPath id="clip142">
<rect width="15.1063" height="15.1063" fill="white" transform="translate(5.72656 116.758)"/>
</clipPath>
<clipPath id="clip143">
<rect width="9.92701" height="9.92701" fill="white" transform="translate(12.2002 42.0898)"/>
</clipPath>
</defs>
</svg>
