<svg width="1500" height="175" viewBox="0 0 1500 175" fill="none" xmlns="http://www.w3.org/2000/svg">
<g clip-path="url(#clip0)">
<path d="M1338.16 118.56C1333.26 123.29 1341.49 138.99 1342.7 141.24C1345.71 146.85 1348.79 150.23 1354.61 156.55C1364.91 167.72 1370.06 173.31 1375.02 172.99C1379.97 172.67 1384.06 166.35 1392.03 153.71C1404.56 133.85 1403.37 127.54 1402.8 125.36C1401.67 121.07 1398.44 115.66 1394.3 115.16C1390.75 114.73 1389.72 118.28 1385.5 118.7C1378.67 119.39 1376.69 110.56 1369.35 110.05C1363 109.62 1361.92 116.06 1352.34 117.99C1344.35 119.6 1340.83 115.98 1338.16 118.56Z" fill="#8D0000"/>
<path d="M1381.42 86.54C1379.14 88.22 1369.01 95.69 1371.04 104.39C1372.52 110.75 1380.02 115.62 1385.21 114.59C1389.79 113.68 1390.59 107.72 1394.28 107.79C1397.6 107.85 1398.78 112.22 1402.22 115.73C1410.63 124.32 1421.52 115.91 1438.11 122.26C1449.22 126.51 1451.38 132.98 1459.65 131.9C1464.69 131.24 1470.21 128.01 1470.42 124.53C1470.66 120.61 1464.04 118.25 1464.75 116.03C1465.63 113.28 1475.66 117.11 1481.76 112.06C1486.79 107.9 1487.93 98.7 1484.59 95.05C1482.65 92.93 1480.8 94.43 1476.65 92.22C1470.62 88.99 1471.1 84 1466.45 82.58C1462.18 81.29 1460.34 85.05 1456.25 84.28C1449.32 82.99 1450.76 71.51 1443.78 67.27C1435.86 62.47 1428.47 73.88 1402.39 79.74C1393.08 81.83 1387.91 81.75 1381.42 86.54Z" fill="#2898FF"/>
<path d="M1337.59 111.75C1343.05 112.95 1345.13 115.31 1350.63 114.58C1357.49 113.68 1365.5 108.94 1365.94 103.24C1366.29 98.66 1363.06 94.87 1361.4 93.04C1355.66 86.68 1350.44 87.63 1342.87 83.7C1328.09 76.02 1330.99 63.55 1317.23 58.9C1311.06 56.82 1309.49 58.99 1302.05 55.92C1293.83 52.52 1291.2 47.99 1286.74 49.12C1282.74 50.13 1280.21 54.95 1279.37 58.19C1277.81 64.22 1281.5 67.06 1279.37 71.23C1277.64 74.62 1274.72 73.69 1270.3 77.47C1265.86 81.26 1261.49 88.43 1263.5 92.78C1265.04 96.12 1268.99 94.82 1278.24 99.58C1280.25 100.62 1284.71 102.95 1289.01 106.95C1295.91 113.36 1294.22 116.44 1298.08 118.86C1307.48 124.72 1319.56 107.8 1337.59 111.75Z" fill="#2898FF"/>
<path d="M1291.28 43.4499C1295.03 49.1599 1300.96 51.3799 1308.85 54.2199C1319.69 58.1199 1319.71 55.7099 1324.65 58.4799C1335.43 64.5099 1333.02 74.6299 1343.75 79.6799C1349.02 82.1599 1350.67 80.2099 1356.18 83.4799C1363.78 87.9899 1365.34 94.4599 1367.81 93.9099C1370.84 93.2299 1371.63 82.7199 1370.64 74.0699C1369.94 67.9099 1368.24 53.1099 1357.03 42.3199C1349.73 35.2899 1344.71 36.0599 1341.16 28.7099C1337.84 21.8399 1340.17 16.9499 1336.06 13.9699C1332.86 11.6499 1330.55 13.9699 1321.32 12.8399C1313.15 11.8299 1311.1 9.53992 1308.85 11.1399C1304.65 14.1199 1309.92 23.3699 1305.45 27.5799C1301.02 31.7599 1292.44 25.8699 1289.01 29.8499C1286.36 32.9299 1288.78 39.6299 1291.28 43.4499Z" fill="#2898FF"/>
<path d="M1385.96 54.22C1380.15 60.18 1373.97 60.72 1372.92 66.13C1372.58 67.87 1373.26 67.61 1374.05 74.07C1374.93 81.22 1374.33 83.5 1375.75 84.27C1377.59 85.27 1380.12 82.24 1384.84 79.77C1390.47 76.83 1394.71 77.04 1400.12 76.33C1411.49 74.84 1411.17 71.47 1426.2 67.26C1442.56 62.68 1452.23 64.07 1453.98 58.76C1455.05 55.5 1451.84 53.7 1452.85 49.12C1454.37 42.22 1462.85 41 1462.49 37.78C1462.08 34.14 1450.67 30.61 1439.25 32.11C1427.55 33.64 1418.44 40.11 1417.71 38.91C1417.12 37.94 1423.63 34.59 1423.38 29.84C1423.23 26.96 1420.63 24.01 1417.71 23.04C1410.22 20.54 1399.36 30.65 1393.79 39.33C1388.85 47.01 1390.93 49.12 1385.96 54.22Z" fill="#2898FF"/>
<path d="M1361.01 20.7701C1355.86 21.6401 1352.33 15.3201 1349.67 16.8001C1347.3 18.1201 1347.45 24.6201 1349.67 29.8401C1353.24 38.2401 1359.62 37.3301 1364.98 46.2801C1369.2 53.3301 1367.89 58.3301 1371.22 59.3201C1375.8 60.6901 1382.08 52.3901 1383.69 50.2501C1389.55 42.5101 1387.4 39.3701 1392.76 32.1101C1398.59 24.2201 1404.48 23.3801 1404.1 19.0701C1403.81 15.7901 1400.35 15.7101 1396.16 8.87014C1393.43 4.40014 1393.12 1.53015 1391.62 1.50015C1389.1 1.46015 1389.2 9.70013 1384.25 11.7001C1380.22 13.3301 1377.75 8.86015 1372.91 10.0001C1366.71 11.4601 1366.68 19.8101 1361.01 20.7701Z" fill="#2898FF"/>
<path d="M1087.94 118.597C1083.04 123.327 1091.27 139.027 1092.48 141.277C1095.49 146.887 1098.57 150.267 1104.39 156.587C1114.69 167.757 1119.84 173.347 1124.8 173.027C1129.75 172.707 1133.84 166.387 1141.81 153.747C1154.34 133.887 1153.15 127.577 1152.58 125.397C1151.45 121.107 1148.22 115.697 1144.08 115.197C1140.53 114.767 1139.5 118.317 1135.28 118.737C1128.45 119.427 1126.47 110.597 1119.13 110.087C1112.78 109.657 1111.7 116.097 1102.12 118.027C1094.13 119.637 1090.61 116.017 1087.94 118.597Z" fill="#8D0000"/>
<path d="M1115.85 89.5975C1114.25 94.7475 1117.99 100.167 1120.82 104.427C1121.51 105.467 1128.45 115.927 1134.99 114.627C1139.57 113.717 1140.37 107.757 1144.06 107.827C1148.02 107.897 1148.8 115.647 1152 115.767C1156.36 115.927 1156.2 101.847 1166.38 95.0975C1170.86 92.1275 1171.99 94.1175 1180.55 89.9975C1186.51 87.1275 1193.98 83.5275 1194.16 78.6575C1194.31 74.5075 1189 73.7275 1186.79 66.1875C1185.76 62.6675 1186.78 62.3475 1185.66 57.6875C1184.7 53.6875 1183.25 47.6475 1179.42 46.3475C1175.88 45.1475 1174.25 49.3475 1168.65 49.1775C1163.38 49.0175 1162.33 45.2175 1157.88 45.7775C1155.28 46.0975 1155.06 47.4675 1149.38 51.4475C1142.4 56.3375 1140.81 55.6375 1139.18 58.2475C1136.13 63.1175 1140.88 66.8275 1139.18 72.4175C1136.19 82.2275 1118.78 80.1675 1115.85 89.5975Z" fill="#2898FF"/>
<path d="M1087.37 111.798C1089.67 112.968 1094.44 115.418 1100.41 114.628C1107.27 113.728 1115.28 108.988 1115.72 103.288C1115.79 102.418 1115.87 100.488 1111.18 93.0876C1107.92 87.9276 1105.4 83.9476 1101.75 80.3576C1090.93 69.6976 1082.98 75.1076 1076.24 66.7476C1069.67 58.6076 1075.22 51.0176 1067.17 43.5076C1063.86 40.4176 1058.22 37.3076 1053.47 38.8276C1050.73 39.6976 1050.39 41.4476 1047.42 43.9276C1040.67 49.5876 1035.27 46.5976 1029.75 50.3076C1022.13 55.4376 1019.54 69.8476 1024.65 76.3876C1028.11 80.8176 1032.28 78.0376 1039.96 83.1876C1048.35 88.8176 1046.42 94.1876 1053.57 97.9276C1061.71 102.178 1066.05 96.2476 1074.55 100.758C1080.58 103.968 1079.89 107.968 1087.37 111.798Z" fill="#2898FF"/>
<path d="M1073.97 41.7976C1079.97 49.2476 1074.67 54.5476 1080.21 61.6376C1086.16 69.2676 1093.62 64.8476 1101.75 73.5476C1107.2 79.3776 1107.25 84.9976 1111.39 85.4576C1113.55 85.6976 1114.69 84.2976 1121.59 78.6576C1131.25 70.7676 1132.93 70.3276 1132.93 68.4576C1132.93 63.4676 1120.99 64.3876 1112.52 55.4176C1101.68 43.9476 1107.32 27.7276 1098.35 24.2376C1093.49 22.3476 1090.39 26.5376 1084.18 23.6676C1079.02 21.2876 1079.14 17.4676 1073.98 15.7276C1070.44 14.5376 1064.96 14.4976 1061.51 17.9976C1058.43 21.1276 1057.87 26.1676 1059.24 29.9076C1061.63 36.4176 1068.48 34.9876 1073.97 41.7976Z" fill="#2898FF"/>
<path d="M1110.25 41.2374C1110.28 44.9274 1112.72 47.4774 1117.62 52.5774C1119.72 54.7674 1129.04 64.4674 1132.93 62.2174C1134.95 61.0474 1133.27 57.9374 1135.76 54.2774C1139.02 49.5074 1144.52 50.9774 1145.96 48.0374C1148.51 42.8374 1137.23 26.0474 1124.42 27.6274C1117.45 28.4874 1110.21 34.7774 1110.25 41.2374Z" fill="#2898FF"/>
<path d="M838.194 118.621C833.294 123.351 841.524 139.051 842.734 141.301C845.744 146.911 848.824 150.291 854.644 156.611C864.944 167.781 870.094 173.371 875.054 173.051C880.004 172.731 884.094 166.411 892.064 153.771C904.594 133.911 903.404 127.601 902.834 125.421C901.704 121.131 898.474 115.721 894.334 115.221C890.784 114.791 889.754 118.341 885.534 118.761C878.704 119.451 876.724 110.621 869.384 110.111C863.034 109.681 861.954 116.121 852.374 118.051C844.384 119.661 840.864 116.041 838.194 118.621Z" fill="#8D0000"/>
<path d="M866.104 89.6211C865.184 95.7111 868.784 101.011 871.074 104.451C871.764 105.491 878.704 115.951 885.244 114.651C889.824 113.741 890.624 107.781 894.314 107.851C898.074 107.921 898.374 114.821 902.254 115.791C907.834 117.181 916.554 105.481 920.524 94.9111C921.754 91.6411 925.294 82.2111 923.924 70.5311C923.144 63.8511 921.324 61.3211 922.794 56.3611C924.934 49.1011 930.864 47.5911 930.164 43.3211C929.344 38.2911 920.404 35.9511 918.254 35.3811C915.284 34.6011 911.034 33.4811 906.914 35.3811C901.614 37.8211 902.354 42.5911 898.414 43.8811C892.294 45.8911 887.294 35.5111 880.844 37.0811C876.114 38.2311 872.604 45.3311 872.904 51.2511C873.354 60.2011 882.244 61.9011 881.974 68.8211C881.644 77.4411 867.734 78.8611 866.104 89.6211Z" fill="#2898FF"/>
<path d="M837.624 111.821C842.804 115.651 849.114 114.861 850.664 114.651C857.524 113.751 865.534 109.011 865.974 103.311C866.254 99.5809 863.054 98.4909 861.434 93.1109C859.214 85.7509 864.384 83.3209 863.134 77.2409C861.204 67.8309 848.444 67.8209 846.824 58.6309C845.764 52.6409 850.764 50.2809 848.864 44.8009C847.024 39.5009 840.144 35.3809 834.924 36.5209C830.194 37.5509 830.754 42.0509 824.154 45.5909C818.504 48.6209 816.294 46.2909 811.764 49.6609C811.384 49.9409 806.034 54.0409 805.444 60.3309C805.194 63.0109 806.054 63.4309 806.574 68.2709C807.284 74.8209 805.884 75.8509 806.574 78.4709C808.494 85.7609 820.574 82.8709 828.114 91.5109C834.604 98.9409 830.384 106.461 837.624 111.821Z" fill="#2898FF"/>
<path d="M849.654 27.4411C848.474 29.3911 849.974 31.2011 851.924 38.2111C853.484 43.8411 854.254 46.7111 853.624 49.5511C852.634 54.0311 849.794 54.6911 850.224 57.4911C850.694 60.5511 854.214 60.5911 858.724 64.8611C864.414 70.2411 863.394 74.4911 867.224 75.6311C871.454 76.8911 877.574 73.1711 877.994 69.3911C878.374 65.9611 873.754 65.2911 871.194 60.3211C865.934 50.1211 877.254 37.2011 872.324 32.5411C870.424 30.7411 868.534 32.4911 863.824 29.7111C860.304 27.6311 859.874 25.7711 857.024 25.1711C854.494 24.6511 850.954 25.2911 849.654 27.4411Z" fill="#2898FF"/>
<path d="M587.934 118.623C583.034 123.353 591.264 139.053 592.474 141.303C595.484 146.913 598.564 150.293 604.384 156.613C614.684 167.783 619.834 173.373 624.794 173.053C629.744 172.733 633.834 166.413 641.804 153.773C654.334 133.913 653.144 127.603 652.574 125.423C651.444 121.133 648.214 115.723 644.074 115.223C640.524 114.793 639.494 118.343 635.274 118.763C628.444 119.453 626.464 110.623 619.124 110.113C612.774 109.683 611.694 116.123 602.114 118.053C594.124 119.663 590.604 116.043 587.934 118.623Z" fill="#8D0000"/>
<path d="M615.844 89.6232C616.144 92.5332 616.824 98.4432 620.814 104.453C621.504 105.493 628.444 115.953 634.984 114.653C639.564 113.743 640.364 107.783 644.054 107.853C648.034 107.923 648.794 115.633 651.994 115.793C655.984 115.993 661.114 104.473 662.734 92.5532C664.654 78.4032 660.064 75.2832 663.864 67.0432C667.964 58.1432 675.134 57.8532 675.774 50.6032C676.334 44.2732 671.524 36.9632 666.704 36.4332C661.584 35.8632 659.124 43.2532 653.094 42.6732C648.474 42.2332 647.394 37.6532 644.024 38.1332C640.384 38.6532 639.954 44.2432 635.524 51.1732C630.014 59.7932 626.524 57.6532 621.384 65.3432C614.944 74.9632 615.444 85.7632 615.844 89.6232Z" fill="#2898FF"/>
<path d="M587.364 111.813C592.214 115.723 598.694 114.873 600.404 114.643C607.264 113.743 615.274 109.003 615.714 103.303C615.994 99.5733 612.794 98.4833 611.174 93.1033C609.594 87.8633 610.984 83.3333 612.874 77.2333C616.354 65.9833 620.034 65.4933 622.484 55.6933C623.854 50.2233 625.324 44.3133 621.914 39.8233C619.294 36.3633 614.124 34.1933 610.004 35.2833C606.254 36.2833 606.294 39.2033 602.064 40.3833C597.624 41.6333 595.874 38.8733 592.424 40.3833C588.354 42.1533 587.084 47.5933 586.714 49.1933C585.604 53.9233 586.774 57.5933 587.324 60.2233C589.624 71.2033 583.184 73.7233 582.254 89.7033C581.814 97.3333 581.224 106.863 587.364 111.813Z" fill="#2898FF"/>
<path d="M338.043 118.531C333.143 123.261 341.373 138.961 342.583 141.211C345.593 146.821 348.673 150.201 354.493 156.521C364.793 167.691 369.943 173.281 374.903 172.961C379.853 172.641 383.943 166.321 391.913 153.681C404.443 133.821 403.253 127.511 402.683 125.331C401.553 121.041 398.323 115.631 394.183 115.131C390.633 114.701 389.603 118.251 385.383 118.671C378.553 119.361 376.573 110.531 369.233 110.021C362.883 109.591 361.803 116.031 352.223 117.961C344.243 119.571 340.723 115.951 338.043 118.531Z" fill="#8D0000"/>
<path d="M366.313 89.8459C366.653 93.9759 367.803 99.4259 371.283 104.676C371.973 105.716 378.913 116.176 385.453 114.876C390.033 113.966 390.833 108.006 394.523 108.076C398.833 108.156 400.513 116.336 402.463 116.016C405.743 115.476 410.293 90.7159 401.893 66.6959C398.673 57.4959 394.223 50.2859 396.793 40.8159C398.143 35.8359 401.063 31.6259 399.063 28.9059C397.393 26.6359 393.393 26.8859 388.293 27.2059C381.083 27.6559 377.403 27.8859 374.683 30.0359C367.843 35.4659 376.043 46.0559 371.853 65.5459C369.483 76.5259 365.483 79.7159 366.313 89.8459Z" fill="#2898FF"/>
<path d="M337.833 112.046C342.683 115.956 349.163 115.106 350.873 114.876C357.733 113.976 365.743 109.236 366.183 103.536C366.463 99.8062 363.263 98.7162 361.643 93.3362C359.703 86.9062 362.053 81.0962 363.343 77.4662C368.613 62.6162 373.663 37.1962 367.883 33.8162C365.953 32.6862 364.713 35.1162 357.113 36.2862C348.453 37.6162 345.293 35.2062 342.373 37.4162C338.843 40.0962 340.763 45.6862 340.673 54.4262C340.513 70.6462 333.703 72.1262 332.733 89.9362C332.273 98.2962 331.893 107.256 337.833 112.046Z" fill="#2898FF"/>
<path d="M88.246 118.653C83.346 123.383 91.576 139.083 92.786 141.333C95.796 146.943 98.876 150.323 104.696 156.643C114.996 167.813 120.146 173.403 125.106 173.083C130.056 172.763 134.146 166.443 142.116 153.803C154.646 133.943 153.456 127.633 152.886 125.453C151.756 121.163 148.526 115.753 144.386 115.253C140.836 114.823 139.806 118.373 135.586 118.793C128.756 119.483 126.776 110.653 119.436 110.143C113.086 109.713 112.006 116.153 102.426 118.083C94.436 119.693 90.916 116.073 88.246 118.653Z" fill="#8D0000"/>
<path d="M116.166 89.6531C116.506 93.7831 117.656 99.2331 121.136 104.483C121.826 105.523 128.766 115.983 135.306 114.683C139.886 113.773 140.686 107.813 144.376 107.883C148.676 107.963 150.306 116.073 152.316 115.823C155.696 115.393 159.796 91.3031 151.746 66.5031C143.926 42.3731 126.506 23.4231 121.696 25.6831C117.476 27.6731 128.306 43.4631 121.696 65.3731C119.236 73.5031 115.326 79.3331 116.166 89.6531Z" fill="#2898FF"/>
<path d="M87.6861 111.853C92.5361 115.763 99.0161 114.913 100.726 114.683C107.586 113.783 115.596 109.043 116.036 103.343C116.316 99.6132 113.116 98.5233 111.496 93.1433C109.556 86.7133 111.906 80.9032 113.196 77.2732C118.556 62.1632 122.766 36.3332 117.736 33.6232C113.536 31.3632 102.376 44.8733 99.9961 47.7533C84.5761 66.4033 82.8861 84.9733 82.5861 89.7533C82.0961 97.4633 81.4961 106.863 87.6861 111.853Z" fill="#2898FF"/>
</g>
<defs>
<clipPath id="clip0">
<rect width="1500" height="175" fill="white"/>
</clipPath>
</defs>
</svg>
