<svg width="860" height="238" viewBox="0 0 860 238" fill="none" xmlns="http://www.w3.org/2000/svg">
<path d="M113.467 217.531C114.335 218.014 117.058 218.644 130.878 204.647C143.506 191.852 149.824 185.454 152.108 179.632C159.874 159.823 145.595 141.052 151.763 137.233C154.425 135.585 157.684 138.717 173.273 145.272C187.888 151.423 186.848 149.384 190.721 151.899C204.089 160.585 200.087 173.216 214.336 185.538C221.213 191.484 230.937 196.147 233.541 193.686C234.409 192.863 235.226 190.548 222.046 165.417C214.326 150.688 210.377 143.251 206.23 139.232C202.855 135.968 200.505 134.61 178.442 123.335C158.054 112.918 152.244 110.083 152.755 107.576C153.045 106.134 155.284 105.9 168.693 103.468C190.461 99.5106 195.031 99.799 199.289 100.685C203.9 101.645 208.637 102.641 213.197 106.35C218.563 110.722 218.835 114.915 225.649 120.888C228.708 123.564 233.479 127.744 235.926 126.422C239.321 124.585 237.383 112.628 233.004 103.866C227.009 91.8703 216.471 86.1627 214.849 85.3122C200.906 77.9573 193.03 83.7227 163.6 81.1512C145.086 79.5302 132.918 75.9167 133.024 73.7182C133.135 71.3576 147.357 73.0569 156.572 63.1539C156.887 62.8184 163.923 55.1318 161.739 51.4371C158.892 46.6296 143.514 54.0571 112.261 57.9902C97.2412 59.8752 89.7329 60.8259 83.6682 59.7324C76.0402 58.3633 74.9148 56.5176 44.0505 42.384C36.6084 38.9805 28.8435 35.532 18.4285 35.7315C13.1872 35.8329 7.82751 35.9383 4.5848 39.4108C-1.18695 45.5769 3.56416 58.2845 9.31419 73.1823C17.2074 93.6224 21.1457 103.844 30.5183 110.715C39.676 117.43 49.0897 118.501 64.3058 127.624C70.31 131.222 74.1238 134.222 75.6307 135.432C80.4026 139.281 80.2585 139.96 84.1189 142.935C92.6001 149.48 95.963 148.234 98.0481 152.192C99.6692 155.256 98.2091 159.958 95.5821 169.336C92.8709 179.008 90.7331 181.073 90.5577 187.414C90.4252 192.213 91.4075 200.004 94.1178 200.51C98.5089 201.33 106.813 182.835 111.178 167.536C115.509 152.328 114.598 144.991 118.136 144.206C122.885 143.148 131.854 154.73 131.928 166.345C131.972 173.301 128.799 178.856 125.498 184.654C120.155 194.027 115.969 195.571 113.441 203.871C112.104 208.212 110.75 216.025 113.467 217.531Z" fill="#DADADA"/>
<path d="M99.0758 185.819C99.2847 185.604 104.012 180.801 106.124 182.015C110.222 184.362 100.837 207.196 100.218 208.705C96.2572 218.241 91.8532 225.455 88.8495 229.946C90.9914 219.458 92.1678 211.023 92.8505 205.195C93.7771 197.177 94.165 190.883 99.0758 185.819Z" fill="#8D0000"/>
<path d="M129.392 199.065C129.689 199.064 133.153 199.115 134.263 201.209C137.373 207.073 118.643 222.275 115.866 224.529C108.6 230.424 101.413 234.694 95.0538 237.817C98.0613 234.7 102.6 229.744 107.574 223.107C109.571 220.44 110.718 218.736 114.566 213.537C123.263 201.808 125.902 199.062 129.392 199.065Z" fill="#8D0000"/>
<path d="M218.526 173.73C216.454 181.72 224.706 188.272 232.67 201.049C235.813 206.085 239.866 213.631 243.13 223.887C242.697 217.568 241.609 208.311 238.602 197.484C237.622 193.951 230.168 167.122 223.267 167.754C220.906 167.975 219.142 171.34 218.526 173.73Z" fill="#8D0000"/>
<path d="M230.057 111.426C229.744 118.724 234.329 124.362 235.925 126.413C240.613 132.44 246.327 142.017 251.447 157.976C252.356 143.007 249.432 131.928 246.936 125.108C243.669 116.184 236.889 102.927 233.002 103.85C230.857 104.381 230.155 109.085 230.057 111.426Z" fill="#8D0000"/>
<path d="M139.145 53.7503C139.305 55.5286 145.042 56.7393 149.637 56.6924C157.003 56.6234 161.809 53.3249 166.922 50.7608C172.207 48.1072 180.107 45.0856 191.128 43.9311C184.454 43.437 174.521 43.2801 162.768 45.395C153.792 47.0031 138.883 50.8193 139.145 53.7503Z" fill="#8D0000"/>
<path d="M747.599 136.012C750.354 137.654 735.629 159.456 743.301 169.669C743.447 169.859 745.905 172.063 750.828 176.472C756.655 181.695 757.926 182.718 760.144 183.274C762.47 183.855 764.916 183.299 769.82 182.2C775.855 180.842 778.895 180.116 779.849 177.905C780.848 175.6 779.597 172.556 778.061 170.743C774.61 166.669 769.763 168.823 767.267 165.507C764.29 161.553 767.974 154.271 768.745 152.844C771.874 147.046 777.252 144.387 781.284 142.46C786.517 139.959 788.919 140.167 793.305 138.74C801.761 135.986 802.873 131.944 812.454 124.914C825.991 114.986 830.908 117.822 841.646 108.164C843.086 106.863 848.408 101.949 852.225 95.5514C866.476 71.6644 856.238 33.2064 842.909 30.0231C840.16 29.3663 835.067 32.0821 824.993 37.5455C814.799 43.0719 811.765 45.6994 806.001 49.0026C798.209 53.4743 784.021 58.685 769.516 61.2746C745.412 65.5694 744.433 59.6893 726.459 64.761C713.25 68.4937 714.59 71.4307 698.873 75.8582C682.043 80.6015 669.725 80.2857 669.131 84.4542C668.771 86.9806 672.923 89.6649 675.938 91.6165C684.204 96.9662 689.683 94.9766 691.346 98.0588C693.671 102.379 684.362 108.897 674.503 124.201C669.675 131.704 666.799 138.487 661.244 152.13C653.116 172.088 654.38 174.836 655.512 175.764C657.983 177.792 663.797 174.368 664.467 173.977C671.078 170.093 673.062 163.669 675.931 157.505C683.679 140.875 695.264 131.71 695.276 131.723C695.289 131.736 689.02 137.306 685.601 146.761C684.141 150.804 683.793 156.734 683.092 168.602C682.352 181.127 682.927 183.899 683.452 185.788C684.672 190.209 686.012 191.34 687.035 196.885C687.958 201.906 687.478 204.369 689.184 205.481C691.358 206.889 695.776 205.247 698.5 202.614C704.036 197.27 700.566 189.817 702.298 173.093C703.543 161.073 706.595 152.755 707.101 152.844C707.581 152.926 705.028 160.442 707.531 169.6C708.327 172.524 708.504 171.438 713.193 181.847C716.612 189.432 717.213 191.548 719.64 192.59C722.161 193.67 723.141 192.085 729.316 191.516C736.868 190.822 739.579 192.805 741.5 190.803C743.422 188.794 743.011 184.379 741.14 181.493C738.151 176.87 733.126 178.809 728.955 174.331C724.171 169.189 725.65 161.124 725.732 160.726C726.276 157.997 727.432 156.084 735.408 147.475C742.865 139.428 746.613 135.418 747.599 136.012Z" fill="#DADADA"/>
<path d="M666.268 84.4475C674.212 87.1571 680.102 89.1908 684.937 86.2981C686.473 85.376 689.146 83.2159 688.843 81.378C688.337 78.3084 679.401 75.3904 641.905 76.2115C653.552 80.1211 661.035 82.6601 666.268 84.4475Z" fill="#8D0000"/>
<path d="M660.043 155.149C659.063 155.004 656.99 155.591 653.015 163.935C649.413 171.495 644.464 184.967 641.905 207.982C648.907 193.007 654.532 183.571 659.101 177.186C660.327 175.474 663.854 170.661 663.759 164.295C663.702 160.429 662.299 155.484 660.043 155.149Z" fill="#8D0000"/>
<path d="M690.77 215.099C685.847 207.236 680.829 193.884 685.082 190.297C686.536 189.071 688.811 189.21 690.277 189.716C695.327 191.471 696.193 199.531 698.158 207.261C699.77 213.603 702.734 222.104 708.649 231.812C698.531 226.083 693.292 219.123 690.77 215.099Z" fill="#8D0000"/>
<path d="M727.179 185.421C728.886 183.369 737.386 189.779 750.828 192.944C756.864 194.365 762.027 194.687 765.516 194.731C763.165 195.426 738.05 202.575 729.328 191.51C727.938 189.748 726.219 186.577 727.179 185.421Z" fill="#8D0000"/>
<path d="M772.322 175.751C774.339 173.648 777.903 174.778 785.411 175.701C788.615 176.092 793.008 176.509 798.329 176.616C779.3 184.606 773.302 184.088 771.608 181.789C770.464 180.235 770.869 177.273 772.322 175.751Z" fill="#8D0000"/>
</svg>
