<svg width="4800" height="240" viewBox="0 0 4800 240" fill="none" xmlns="http://www.w3.org/2000/svg">
<path d="M2280 240C2346.27 240 2400 186.274 2400 120C2400 53.7258 2346.27 0 2280 0C2213.73 0 2160 53.7258 2160 120C2160 186.274 2213.73 240 2280 240Z" fill="#EDEBDF"/>
<path d="M2039.99 0C2000.95 0 1966.26 18.6477 1944.35 47.5188C1959.64 67.6587 1968.71 92.7658 1968.71 120C1968.71 147.234 1959.64 172.341 1944.35 192.481C1966.26 221.352 2000.95 240 2039.99 240C2106.26 240 2159.99 186.276 2159.99 120C2159.99 53.7241 2106.26 0 2039.99 0Z" fill="#EDEBDF"/>
<path d="M2615.63 47.5188C2593.72 18.6477 2559.04 0 2520 0C2453.72 0 2400 53.7277 2400 120C2400 186.272 2453.72 240 2520 240C2559.04 240 2593.72 221.352 2615.64 192.481C2600.35 172.341 2591.27 147.234 2591.27 120C2591.27 92.7658 2600.35 67.6587 2615.63 47.5188Z" fill="#EDEBDF"/>
<path d="M2793.29 119.996C2793.29 82.8634 2810.16 49.6743 2836.64 27.6646C2815.85 10.3892 2789.14 0 2760 0C2693.73 0 2640 53.7241 2640 120C2640 186.276 2693.72 240 2760 240C2789.14 240 2815.85 229.607 2836.64 212.335C2810.16 190.315 2793.29 157.126 2793.29 119.996Z" fill="#EDEBDF"/>
<path d="M1799.95 0C1770.8 0 1744.09 10.3931 1723.3 27.6654C1749.79 49.6793 1766.66 82.8693 1766.66 120C1766.66 157.134 1749.79 190.324 1723.3 212.335C1744.09 229.611 1770.8 240 1799.95 240C1866.22 240 1919.95 186.274 1919.95 119.996C1919.95 53.7187 1866.22 0 1799.95 0Z" fill="#EDEBDF"/>
<path d="M3000 120C3000 75.5856 3024.13 36.8085 3060 16.0583C3042.35 5.849 3021.86 0 3000 0C2933.73 0 2880 53.7242 2880 120C2880 186.276 2933.72 240 3000 240C3021.86 240 3042.35 234.155 3060 223.942C3024.13 203.191 3000 164.414 3000 120Z" fill="#EDEBDF"/>
<path d="M1560 0C1538.14 0 1517.65 5.84547 1500 16.0583C1535.87 36.8085 1560 75.5856 1560 120C1560 164.414 1535.87 203.191 1500 223.942C1517.65 234.151 1538.14 240 1560 240C1626.27 240 1680 186.276 1680 120C1680 53.7241 1626.27 0 1560 0Z" fill="#EDEBDF"/>
<path d="M3213 120C3213 70.2164 3243.32 27.5129 3286.5 9.34501C3272.2 3.32667 3256.49 0 3240 0C3173.73 0 3120 53.7241 3120 120C3120 186.276 3173.72 240 3240 240C3256.49 240 3272.2 236.673 3286.5 230.655C3243.32 212.487 3213 169.787 3213 120Z" fill="#EDEBDF"/>
<path d="M1320 0C1303.51 0 1287.8 3.32669 1273.5 9.34503C1316.68 27.5129 1347 70.2128 1347 120C1347 169.787 1316.68 212.487 1273.5 230.655C1287.8 236.673 1303.51 240 1320 240C1386.27 240 1440 186.276 1440 120C1440 53.7241 1386.28 0 1320 0Z" fill="#EDEBDF"/>
<path d="M3430.2 120C3430.2 65.9407 3465.95 20.2317 3515.1 5.22107C3504 1.8309 3492.21 0 3480 0C3413.73 0 3360 53.7241 3360 120C3360 186.276 3413.72 240 3480 240C3492.21 240 3504 238.169 3515.1 234.779C3465.96 219.768 3430.2 174.063 3430.2 120Z" fill="#EDEBDF"/>
<path d="M1079.9 0C1067.69 0 1055.91 1.83092 1044.8 5.22109C1093.95 20.2317 1129.7 65.9372 1129.7 120C1129.7 174.063 1093.95 219.768 1044.8 234.779C1055.9 238.169 1067.69 240 1079.9 240C1146.17 240 1199.9 186.276 1199.9 120C1199.9 53.7241 1146.18 0 1079.9 0Z" fill="#EDEBDF"/>
<path d="M3654.6 120C3654.6 63.1185 3694.18 15.4798 3747.3 3.12207C3738.53 1.08303 3729.39 0 3720 0C3653.73 0 3600 53.7241 3600 120C3600 186.276 3653.72 240 3720 240C3729.39 240 3738.53 238.921 3747.3 236.878C3694.18 224.52 3654.6 176.885 3654.6 120Z" fill="#EDEBDF"/>
<path d="M840.001 0C830.61 0 821.47 1.0795 812.7 3.12207C865.821 15.4798 905.399 63.1185 905.399 120C905.399 176.881 865.821 224.52 812.7 236.878C821.47 238.917 830.607 240 840.001 240C906.274 240 960.001 186.276 960.001 120C960.001 53.7241 906.277 0 840.001 0Z" fill="#EDEBDF"/>
<path d="M3875.4 120C3875.4 59.739 3919.82 9.86007 3977.7 1.30174C3971.92 0.448025 3966.01 0 3960 0C3893.73 0 3840 53.7242 3840 120C3840 186.276 3893.72 240 3960 240C3966.01 240 3971.92 239.552 3977.7 238.698C3919.82 230.14 3875.4 180.261 3875.4 120Z" fill="#EDEBDF"/>
<path d="M600.039 0C594.024 0 588.115 0.448025 582.34 1.30174C640.22 9.86007 684.638 59.739 684.638 120C684.638 180.261 640.22 230.14 582.34 238.698C588.118 239.552 594.027 240 600.039 240C666.311 240 720.039 186.276 720.039 120C720.039 53.7242 666.311 0 600.039 0Z" fill="#EDEBDF"/>
<path d="M4332 119.996C4332 55.7349 4382.52 3.27375 4446 0.148166C4444.01 0.0493885 4442.01 0 4440 0C4373.73 0 4320 53.7241 4320 120C4320 186.276 4373.72 240 4440 240C4442.01 240 4444.01 239.947 4446 239.852C4382.52 236.719 4332 184.258 4332 119.996Z" fill="#EDEBDF"/>
<path d="M120.001 0C117.99 0 115.99 0.052917 114 0.148168C177.486 3.27733 228.001 55.7393 228.001 120.002C228.001 184.264 177.486 236.726 114 239.852C115.986 239.951 117.986 240 120.001 240C186.274 240 240.003 186.275 240.003 119.998C240.003 53.7214 186.274 0 120.001 0Z" fill="#EDEBDF"/>
<path d="M4105.47 120C4105.47 58.028 4152.45 7.03435 4212.74 0.673813C4208.55 0.232844 4204.3 0 4200 0C4133.73 0 4080 53.7241 4080 120C4080 186.276 4133.72 240 4200 240C4204.3 240 4208.55 239.767 4212.74 239.326C4152.45 232.966 4105.47 181.972 4105.47 120Z" fill="#EDEBDF"/>
<path d="M360.035 0C355.731 0 351.484 0.232844 347.3 0.673813C407.586 7.03435 454.561 58.028 454.561 120C454.561 181.972 407.582 232.966 347.3 239.326C351.484 239.767 355.735 240 360.035 240C426.308 240 480.035 186.276 480.035 120C480.035 53.7241 426.308 0 360.035 0Z" fill="#EDEBDF"/>
</svg>
