<svg width="1248" height="616" viewBox="0 0 1248 616" fill="none" xmlns="http://www.w3.org/2000/svg">
<path d="M48.5666 51.5949C50.9197 53.5495 53.0735 55.3423 56.0241 57.7949C56.9579 53.4375 57.6426 50.2254 58.4518 46.4531C65.3366 53.2383 63.1579 65.3396 54.194 72.5978C46.5124 78.8103 37.8349 80.7525 32.4565 74.0544C28.1613 68.701 28.2858 68.1532 36.8264 63.7086C37.3867 63.4223 37.9843 62.8994 38.4823 62.8496C44.9562 62.1897 47.0353 58.4672 47.4213 53.4375C47.4586 53.0266 47.994 52.4913 48.5666 51.5949Z" fill="#7F000F"/>
<path d="M17.5669 59.2266C14.1307 54.0848 14.0436 50.4495 17.6291 45.8679C20.9657 41.5976 25.9954 38.8836 29.9545 40.2032C34.3244 41.6599 38.2087 43.9755 41.732 46.5153C42.6533 47.1876 42.1927 50.4246 41.0722 51.8936C38.1838 55.6784 34.5858 59.1394 31.2244 62.7001C29.1452 64.9037 26.979 65.464 25.1488 64.3186C22.5593 62.7001 20.0942 60.9322 17.5669 59.2266Z" fill="#2898FF"/>
<path d="M7.34542 99.9004C7.22092 98.892 6.99682 97.9209 7.00927 96.8627C7.02172 95.8916 7.27072 94.8458 7.48237 93.3518C5.07954 94.4972 3.02532 95.4807 0.98354 96.4643C0.659843 96.2153 0.323696 95.9538 0 95.7048C2.52732 92.2936 5.05464 88.8823 7.71891 85.2843C6.57352 84.1638 5.30364 82.9188 3.84701 81.4871C16.384 76.6441 28.5973 76.42 33.515 81.3502C21.3266 82.4333 14.3671 90.4635 8.5157 100C8.11731 99.9751 7.73136 99.9378 7.34542 99.9004Z" fill="#7F000F"/>
<path d="M94.4941 55.5042C91.3319 55.2179 89.1905 55.0187 86.7503 54.7946C86.3519 57.2099 86.1154 58.6167 85.9286 59.7372C79.4173 57.7079 73.1302 55.7533 66.5566 53.699C66.706 53.4376 67.0422 52.4789 67.7145 51.7319C72.5575 46.3785 86.3519 42.0211 89.1282 46.0299C90.8463 48.5199 93.2616 51.1592 94.4941 55.5042Z" fill="#7F000F"/>
<path d="M63.2453 45.5319C61.4525 37.8503 64.3159 30.1438 70.8397 22.5245C77.1268 15.1667 84.298 10.5727 88.5932 10.9586C86.6634 12.9132 84.8706 14.7434 82.7168 16.9221C84.2606 17.2831 85.3686 17.5446 87.7715 18.1048C73.8276 24.3671 67.4782 34.215 63.2453 45.5319Z" fill="#7F000F"/>
<path d="M94.4572 33.7047C92.0543 33.9662 89.6266 34.3272 87.2611 34.489C82.3683 34.8252 77.5004 35.0493 72.4707 35.3357C72.9811 32.8955 75.745 29.6336 79.6916 27.6292C85.0824 24.8902 88.6057 25.9609 94.7684 32.1983C94.6688 32.6963 94.5692 33.1943 94.4572 33.7047Z" fill="#7F000F"/>
<path d="M54.082 10C64.0544 12.6767 65.4861 18.8518 60.5809 29.87C56.8335 27.9776 54.0945 19.7731 54.082 10Z" fill="#7F000F"/>
<path d="M52.053 25.4375C57.8421 32.1729 59.996 39.1324 53.8831 49.2665C51.1441 47.8473 48.567 46.7267 50.0859 41.9584C51.3558 37.9745 51.0694 34.0652 51.4927 30.1062C51.6048 28.911 51.7666 27.7158 52.053 25.4375Z" fill="#2898FF"/>
<path d="M32.5067 27.3677C38.9806 27.2432 47.7329 34.8625 47.5461 40.3654C47.5212 40.9132 47.21 41.7722 46.7369 42.1831C46.3136 42.5441 45.1433 42.7931 44.9192 42.5441C40.5617 38.0248 36.279 33.4433 32.046 28.8119C31.8717 28.6127 32.3324 27.8657 32.5067 27.3677Z" fill="#2898FF"/>
<path d="M17.1683 66.099C16.2844 66.3853 15.276 66.9331 14.529 66.8957C9.76067 66.6716 4.44458 60.3222 5.26627 55.6784C5.42811 54.7696 6.3992 53.3379 7.29559 52.7901C7.95544 52.3792 9.84781 52.7403 9.87271 53.2134C10.1466 58.8407 12.6117 62.8496 17.9029 64.8913C17.6539 65.3022 17.4173 65.7006 17.1683 66.099Z" fill="#2898FF"/>
<path d="M24.6134 72.6725C18.2889 73.3946 12.7611 74.0171 7.13379 74.6645C10.5699 69.1616 19.7828 67.9166 24.6134 72.6725Z" fill="#2898FF"/>
<path d="M10.6076 48.5077C6.82281 49.0181 6.08827 48.3085 8.32924 44.8225C9.72363 42.6438 11.9273 40.5896 14.0437 38.7968C14.9028 38.0747 16.5212 38.2116 17.7911 37.9502C17.318 39.0333 17.0566 40.1912 16.347 41.1747C14.6662 43.5029 12.7863 45.7438 10.6076 48.5077Z" fill="#2898FF"/>
<path d="M28.9332 34.0779C26.2814 34.8747 23.6296 35.684 20.791 36.543C20.8906 33.4057 23.1689 30.9655 25.7834 30.206C27.2774 29.7703 28.6718 31.7996 30.1035 32.7209C29.7176 33.1567 29.3192 33.6173 28.9332 34.0779Z" fill="#2898FF"/>
<path d="M1122.72 560.254C1123.6 562.646 1124.41 564.837 1125.52 567.836C1128.01 565.081 1129.84 563.048 1131.99 560.663C1134.14 568.428 1127.52 576.253 1118.03 577.757C1109.9 579.04 1102.82 576.825 1101.73 569.751C1100.86 564.097 1101.18 563.754 1109.2 564.105C1109.72 564.132 1110.37 564.003 1110.75 564.175C1115.7 566.396 1118.75 564.576 1121.12 561.107C1121.32 560.826 1121.93 560.663 1122.72 560.254Z" fill="#7F000F"/>
<path d="M1097.17 552.846C1096.83 547.703 1098.28 545.043 1102.78 543.231C1106.96 541.539 1111.73 541.676 1114.03 544.278C1116.58 547.15 1118.42 550.44 1119.9 553.741C1120.29 554.61 1118.61 556.754 1117.19 557.348C1113.52 558.875 1109.49 559.874 1105.58 561.043C1103.16 561.767 1101.36 561.269 1100.52 559.68C1099.32 557.433 1098.28 555.13 1097.17 552.846Z" fill="#2898FF"/>
<path d="M1072.84 577.94C1073.17 577.161 1073.42 576.367 1073.87 575.608C1074.28 574.912 1074.89 574.261 1075.67 573.271C1073.46 573.097 1071.57 572.951 1069.68 572.81C1069.55 572.495 1069.42 572.167 1069.29 571.852C1072.54 570.443 1075.78 569.034 1079.2 567.548C1078.84 566.262 1078.44 564.834 1077.99 563.194C1089.06 564.923 1097.96 569.85 1099.46 575.457C1090.21 571.16 1081.84 574.056 1073.65 578.5C1073.37 578.316 1073.11 578.128 1072.84 577.94Z" fill="#7F000F"/>
<path d="M1154.24 582.212C1152.07 580.688 1150.61 579.652 1148.94 578.474C1147.65 580.051 1146.89 580.967 1146.29 581.698C1142.44 577.521 1138.71 573.49 1134.83 569.269C1135.04 569.142 1135.68 568.591 1136.48 568.332C1142.21 566.486 1153.98 569.089 1154.31 573.139C1154.51 575.652 1155.16 578.563 1154.24 582.212Z" fill="#7F000F"/>
<path d="M1135.84 561.995C1137.75 555.705 1143.02 551.336 1150.91 548.555C1158.51 545.865 1165.6 545.538 1168.54 547.606C1166.33 548.212 1164.27 548.786 1161.81 549.461C1162.78 550.365 1163.47 551.015 1164.97 552.421C1152.29 551.13 1143.61 555.592 1135.84 561.995Z" fill="#7F000F"/>
<path d="M1163.29 566.464C1161.45 565.652 1159.55 564.901 1157.77 564.032C1154.1 562.236 1150.49 560.369 1146.74 558.48C1148.13 556.932 1151.48 555.73 1155.17 555.927C1160.2 556.197 1162.3 558.438 1164.14 565.507C1163.86 565.825 1163.58 566.143 1163.29 566.464Z" fill="#7F000F"/>
<path d="M1144.03 532.534C1150.11 538.621 1148.57 543.674 1140.44 549.582C1138.53 546.655 1139.97 539.593 1144.03 532.534Z" fill="#7F000F"/>
<path d="M1136.13 542.83C1137.5 550.103 1136.16 556.023 1127.53 560.789C1126.14 558.624 1124.75 556.741 1127.83 553.933C1130.41 551.587 1131.83 548.646 1133.78 545.965C1134.36 545.15 1134.98 544.354 1136.13 542.83Z" fill="#2898FF"/>
<path d="M1121.22 536.078C1125.95 538.686 1129.09 547.831 1126.66 551.725C1126.41 552.11 1125.83 552.6 1125.32 552.7C1124.86 552.784 1123.92 552.476 1123.86 552.203C1122.6 547.126 1121.41 542.035 1120.29 536.929C1120.25 536.712 1120.89 536.365 1121.22 536.078Z" fill="#2898FF"/>
<path d="M1094.02 557.639C1093.26 557.478 1092.3 557.453 1091.78 557.115C1088.43 554.966 1087.24 548.169 1089.77 545.16C1090.26 544.571 1091.56 543.943 1092.44 543.921C1093.08 543.899 1094.3 544.948 1094.12 545.3C1091.97 549.475 1092.08 553.396 1095.05 557.074C1094.7 557.267 1094.36 557.456 1094.02 557.639Z" fill="#2898FF"/>
<path d="M1096.65 565.485C1091.78 563.371 1087.54 561.517 1083.2 559.64C1087.98 557.1 1095.14 560.04 1096.65 565.485Z" fill="#2898FF"/>
<path d="M1096.61 542.21C1093.67 541.001 1093.43 540.183 1096.5 538.601C1098.42 537.61 1100.86 537.045 1103.14 536.634C1104.06 536.47 1105.17 537.244 1106.19 537.584C1105.4 538.169 1104.73 538.895 1103.81 539.309C1101.62 540.289 1099.33 541.123 1096.61 542.21Z" fill="#2898FF"/>
<path d="M1115.85 539.432C1113.6 538.902 1111.35 538.381 1108.95 537.819C1110.32 535.596 1112.99 534.784 1115.19 535.325C1116.45 535.634 1116.61 537.679 1117.26 538.94C1116.8 539.094 1116.32 539.261 1115.85 539.432Z" fill="#2898FF"/>
<path d="M101.554 560.675C100.635 563.086 99.7949 565.296 98.6432 568.321C96.1397 565.573 94.2969 563.547 92.129 561.168C89.8843 568.993 96.5315 576.8 106.159 578.226C114.407 579.442 121.608 577.153 122.78 570.032C123.713 564.341 123.393 563.999 115.25 564.424C114.718 564.455 114.06 564.332 113.672 564.508C108.628 566.785 105.545 564.983 103.165 561.517C102.966 561.237 102.349 561.078 101.554 560.675Z" fill="#7F000F"/>
<path d="M127.57 552.998C127.959 547.826 126.509 545.165 121.958 543.383C117.721 541.721 112.885 541.901 110.518 544.537C107.906 547.447 106.009 550.771 104.472 554.102C104.073 554.979 105.762 557.119 107.199 557.703C110.904 559.206 114.997 560.173 118.956 561.313C121.406 562.019 123.236 561.502 124.107 559.897C125.34 557.628 126.419 555.304 127.57 552.998Z" fill="#2898FF"/>
<path d="M152.048 578.004C151.719 577.223 151.48 576.427 151.03 575.669C150.616 574.973 149.997 574.324 149.218 573.336C151.465 573.141 153.389 572.977 155.303 572.818C155.437 572.501 155.576 572.169 155.711 571.852C152.427 570.465 149.144 569.078 145.682 567.615C146.059 566.319 146.476 564.88 146.953 563.227C135.699 565.065 126.608 570.097 125.04 575.747C134.47 571.345 142.943 574.18 151.227 578.574C151.51 578.386 151.779 578.195 152.048 578.004Z" fill="#7F000F"/>
<path d="M69.348 583.03C71.5582 581.479 73.0527 580.424 74.757 579.224C76.0568 580.798 76.8173 581.713 77.4217 582.442C81.3728 578.208 85.19 574.123 89.1766 569.845C88.9577 569.72 88.3106 569.171 87.5041 568.918C81.7058 567.114 69.7281 569.837 69.3532 573.91C69.1251 576.438 68.4455 579.37 69.348 583.03Z" fill="#7F000F"/>
<path d="M88.2137 562.542C86.3338 556.236 81.0133 551.892 73.0327 549.168C65.3353 546.532 58.1383 546.267 55.135 548.372C57.371 548.962 59.4543 549.52 61.9487 550.177C60.9619 551.094 60.2546 551.754 58.7179 553.18C71.5993 551.769 80.38 556.175 88.2137 562.542Z" fill="#7F000F"/>
<path d="M60.2931 567.282C62.1722 566.448 64.1111 565.676 65.9211 564.787C69.6655 562.949 73.345 561.04 77.1696 559.107C75.7768 557.563 72.3816 556.385 68.6391 556.617C63.5266 556.933 61.3771 559.204 59.4362 566.327C59.717 566.644 59.9979 566.961 60.2931 567.282Z" fill="#7F000F"/>
<path d="M80.1597 533.002C73.9286 539.175 75.4468 544.241 83.6513 550.106C85.6234 547.146 84.2226 540.06 80.1597 533.002Z" fill="#7F000F"/>
<path d="M88.0864 543.28C86.628 550.603 87.9412 556.541 96.667 561.255C98.0933 559.066 99.5249 557.161 96.4192 554.366C93.8237 552.031 92.4058 549.088 90.4444 546.411C89.8639 545.596 89.2466 544.802 88.0864 543.28Z" fill="#2898FF"/>
<path d="M103.29 536.359C98.4684 539.023 95.1956 548.244 97.626 552.136C97.8726 552.521 98.4599 553.009 98.9796 553.104C99.4418 553.184 100.408 552.866 100.469 552.591C101.796 547.477 103.042 542.349 104.231 537.206C104.276 536.988 103.625 536.645 103.29 536.359Z" fill="#2898FF"/>
<path d="M130.727 557.788C131.497 557.619 132.468 557.585 133.003 557.24C136.422 555.051 137.693 548.207 135.153 545.205C134.655 544.618 133.343 543.998 132.454 543.984C131.797 543.968 130.553 545.034 130.732 545.386C132.875 549.563 132.73 553.505 129.682 557.229C130.037 557.419 130.377 557.606 130.727 557.788Z" fill="#2898FF"/>
<path d="M127.982 565.699C132.942 563.53 137.273 561.628 141.688 559.702C136.864 557.192 129.558 560.212 127.982 565.699Z" fill="#2898FF"/>
<path d="M128.23 542.302C131.231 541.06 131.477 540.236 128.373 538.673C126.438 537.694 123.959 537.149 121.653 536.755C120.719 536.599 119.584 537.386 118.54 537.738C119.339 538.318 120.014 539.043 120.947 539.451C123.155 540.416 125.474 541.234 128.23 542.302Z" fill="#2898FF"/>
<path d="M108.718 539.682C111.003 539.13 113.294 538.586 115.743 537.998C114.362 535.777 111.667 534.984 109.425 535.548C108.142 535.869 107.961 537.927 107.29 539.201C107.756 539.351 108.241 539.514 108.718 539.682Z" fill="#2898FF"/>
<path d="M1192.52 59.8638C1191.49 62.7435 1190.54 65.3806 1189.25 68.9921C1193.66 68.3792 1196.92 67.924 1200.74 67.3943C1196.72 76.1845 1184.6 78.2761 1174.71 72.3352C1166.25 67.2417 1161.46 59.7517 1165.91 52.4069C1169.47 46.5397 1170.03 46.4694 1177.13 52.9748C1177.59 53.4033 1178.28 53.786 1178.5 54.2369C1181.33 60.0948 1185.54 60.7753 1190.4 59.4177C1190.8 59.3123 1191.49 59.6323 1192.52 59.8638Z" fill="#7F000F"/>
<path d="M1174.75 33.3436C1178.41 28.3561 1181.79 27.0308 1187.32 28.8331C1192.48 30.508 1196.75 34.3061 1196.86 38.4778C1196.99 43.0823 1196.14 47.5244 1194.96 51.7039C1194.64 52.7996 1191.44 53.4738 1189.68 52.9234C1185.14 51.5036 1180.65 49.3064 1176.16 47.3654C1173.38 46.1654 1172.11 44.3214 1172.56 42.2099C1173.19 39.2229 1174.01 36.3019 1174.75 33.3436Z" fill="#2898FF"/>
<path d="M1133.03 37.6503C1133.94 37.1884 1134.77 36.6457 1135.77 36.2955C1136.69 35.9751 1137.76 35.8514 1139.23 35.5393C1137.34 33.6731 1135.71 32.0791 1134.09 30.4969C1134.21 30.1076 1134.34 29.7023 1134.46 29.3129C1138.53 30.5211 1142.6 31.7293 1146.9 33.0023C1147.56 31.5428 1148.29 29.9236 1149.14 28.0652C1157.98 38.1897 1162.37 49.5898 1159.42 55.8971C1154.23 44.8142 1144.3 41.021 1133.34 38.7841C1133.23 38.4012 1133.13 38.0258 1133.03 37.6503Z" fill="#7F000F"/>
<path d="M1204.56 104.359C1203.75 101.29 1203.2 99.2092 1202.58 96.8395C1200.17 97.2912 1198.77 97.5501 1197.65 97.7579C1197.33 90.9452 1197.02 84.3687 1196.7 77.489C1197 77.54 1198.01 77.5279 1198.94 77.9042C1205.63 80.6242 1214.44 92.0963 1211.63 96.0763C1209.87 98.5424 1208.22 101.715 1204.56 104.359Z" fill="#7F000F"/>
<path d="M1203.24 71.5837C1209.85 67.2717 1218.07 67.3268 1227.46 70.8511C1236.52 74.2426 1243.29 79.41 1244.4 83.5781C1241.9 82.4333 1239.57 81.3746 1236.79 80.0958C1236.97 81.67 1237.11 82.8006 1237.4 85.2502C1226.75 74.2891 1215.32 71.6907 1203.24 71.5837Z" fill="#7F000F"/>
<path d="M1225.03 96.8679C1223.96 94.6994 1222.79 92.5416 1221.83 90.3741C1219.84 85.8914 1217.97 81.3937 1215.98 76.7652C1218.45 76.4103 1222.46 77.8918 1225.69 80.9149C1230.11 85.0438 1230.31 88.7208 1226.55 96.6451C1226.05 96.7219 1225.55 96.7986 1225.03 96.8679Z" fill="#7F000F"/>
<path d="M1233.5 50.8203C1234.39 61.1067 1229.08 64.5641 1217.05 63.7231C1217.54 59.5545 1224.32 54.1746 1233.5 50.8203Z" fill="#7F000F"/>
<path d="M1218.3 54.1937C1213.95 61.9374 1208.14 66.3416 1196.53 64.0635C1196.93 61.0043 1197.1 58.1993 1202.1 57.9958C1206.28 57.8265 1209.85 56.2204 1213.72 55.264C1214.88 54.9606 1216.06 54.7039 1218.3 54.1937Z" fill="#2898FF"/>
<path d="M1209.8 36.4864C1212.13 42.5273 1207.96 53.3577 1202.73 55.0643C1202.2 55.2282 1201.29 55.2296 1200.74 54.9255C1200.26 54.6512 1199.62 53.6367 1199.78 53.3409C1202.54 47.7006 1205.38 42.1091 1208.28 36.5474C1208.41 36.3155 1209.27 36.4929 1209.8 36.4864Z" fill="#2898FF"/>
<path d="M1168.16 35.3199C1167.58 34.5872 1166.72 33.8269 1166.5 33.1122C1165.08 28.5548 1169.23 21.3877 1173.88 20.5716C1174.79 20.4128 1176.46 20.8357 1177.29 21.4906C1177.9 21.9702 1178.21 23.8719 1177.77 24.0571C1172.57 26.2392 1169.65 29.9267 1169.54 35.5971C1169.07 35.5036 1168.62 35.4176 1168.16 35.3199Z" fill="#2898FF"/>
<path d="M1164.53 44.5644C1161.68 38.8682 1159.21 33.8868 1156.68 28.8202C1163.02 30.1671 1167.34 38.3985 1164.53 44.5644Z" fill="#2898FF"/>
<path d="M1182.44 23.1382C1180.67 19.7563 1181.08 18.8234 1185.13 19.7369C1187.65 20.302 1190.33 21.6702 1192.74 23.0459C1193.72 23.6061 1194.14 25.1738 1194.82 26.2777C1193.64 26.2036 1192.46 26.3539 1191.3 26.0235C1188.53 25.2404 1185.78 24.2403 1182.44 23.1382Z" fill="#2898FF"/>
<path d="M1202.27 35.4234C1200.61 33.204 1198.95 30.9889 1197.17 28.6153C1200.15 27.6359 1203.22 28.9422 1204.83 31.1393C1205.75 32.3941 1204.32 34.3985 1203.95 36.059C1203.4 35.8453 1202.84 35.6285 1202.27 35.4234Z" fill="#2898FF"/>
<path d="M999.978 513.905C989.289 518.441 982.347 523.498 974.541 532.195C974.752 532.576 974.951 532.959 975.159 533.328C983.64 528.19 992.122 523.064 1000.59 517.928C1000.87 518.274 1001.15 518.617 1001.43 518.963C998.938 521.624 996.436 524.298 993.944 526.959C994.121 527.154 994.313 527.359 994.491 527.555C998.605 524.405 1002.71 521.269 1006.82 518.119C1006.53 524.095 1002.66 527.762 998.801 530.736C991.019 536.718 982.098 540.512 972.05 540.755C965.725 540.915 964.174 538.621 967.47 533.406C974.78 521.835 984.784 514.362 999.978 513.905Z" fill="#2898FF"/>
<path d="M1008.86 524.471C1002.21 540.058 991.01 549.331 973.802 551.027C964.434 551.95 955.182 553.928 946.1 555.386C946.382 552.65 949.458 548.763 954.652 547.203C959.903 545.62 965.447 544.284 970.895 544.159C986.868 543.791 999.901 538.328 1008.86 524.471Z" fill="#2898FF"/>
<path d="M986.867 563.221C986.205 557.367 987.898 553.832 991.154 550.965C995.31 547.306 999.616 543.824 1003.7 540.095C1009.49 534.81 1013.04 528.32 1014.13 520.056C1014.59 520.846 1015.24 521.579 1015.5 522.429C1018.3 531.692 1014.55 542.684 1006.06 549.46C1003.11 551.806 999.716 553.599 996.639 555.79C993.592 557.951 990.675 560.304 986.867 563.221Z" fill="#2898FF"/>
<path d="M997.79 503.937C989.079 505.401 981.144 508.281 974.259 513.866C981.792 511.212 988.939 507.11 997.397 508.616C986.148 508.688 979.229 517.671 969.931 521.627C965.677 523.44 960.577 523.3 955.827 523.792C955.193 523.856 954.061 522.515 953.836 521.647C953.692 521.099 954.675 519.97 955.4 519.544C963.592 514.803 971.69 509.864 980.103 505.562C985.578 502.746 991.558 501.035 997.79 503.937Z" fill="#2898FF"/>
<path d="M932.659 543.366C933.981 537.388 937.83 534.429 944.235 532.69C942.56 534.299 941.558 535.252 940.424 536.336C946.572 536.53 952.454 536.699 959.502 536.913C951.437 547.662 941.971 544.231 932.659 543.366Z" fill="#2898FF"/>
<path d="M962.207 531.731C957.809 534.966 951.136 534.101 946.948 528.904C944.303 525.62 943.033 521.127 941.66 516.998C941.25 515.757 942.588 513.933 943.124 512.369C944.513 513.199 946.158 513.793 947.219 514.932C948.379 516.16 949.106 517.847 949.825 519.416C953.779 528.094 953.767 528.096 962.207 531.731Z" fill="#2898FF"/>
<path d="M982.178 552.142C980.508 558.109 981.297 562.519 985.829 566.342C987.441 567.694 988.222 570.769 988.259 573.079C988.309 576.82 984.996 578.145 981.898 576.016C975.411 571.535 975.176 557.198 982.178 552.142Z" fill="#2898FF"/>
<path d="M1018.17 512.512C1015.55 514.694 1010 514.12 1007.76 511.446C1005.63 508.896 1006.17 503.867 1008.85 501.52C1011.27 499.397 1016.67 499.915 1018.85 502.492C1021.02 505.035 1020.65 510.451 1018.17 512.512Z" fill="#7F000F"/>
<path d="M956.607 572.987C956.31 559.652 960.825 555.524 970.225 555.67C968.601 558.178 967.004 560.633 965.416 563.074C965.739 563.412 966.072 563.747 966.395 564.084C968.342 563.275 970.287 562.454 972.234 561.645C972.494 562.101 972.751 562.545 973.011 563.001C967.63 566.279 962.248 569.556 956.607 572.987Z" fill="#2898FF"/>
<path d="M212.679 522.956C220.597 531.448 227.724 536.242 238.566 540.602C238.852 540.274 239.143 539.956 239.419 539.634C231.691 533.422 223.972 527.204 216.25 521.002C216.48 520.625 216.704 520.237 216.935 519.86C220.287 521.292 223.656 522.729 227.009 524.161C227.132 523.927 227.259 523.677 227.382 523.443C223.015 520.654 218.665 517.87 214.298 515.081C220.014 513.316 224.783 515.695 228.897 518.304C237.18 523.571 243.796 530.656 247.462 540.016C249.775 545.905 248.15 548.147 242.122 546.833C228.748 543.921 218.305 537.076 212.679 522.956Z" fill="#2898FF"/>
<path d="M219.569 510.992C236.49 511.91 249.035 519.266 256.515 534.856C260.586 543.343 265.609 551.361 270.086 559.397C267.418 560.068 262.714 558.506 259.47 554.159C256.187 549.766 253.036 545.013 251.056 539.937C245.246 525.053 235.655 514.674 219.569 510.992Z" fill="#2898FF"/>
<path d="M263.505 518.409C258.23 521.033 254.33 520.651 250.522 518.571C245.662 515.918 240.917 513.062 236.016 510.501C229.069 506.866 221.757 505.75 213.62 507.556C214.205 506.852 214.669 505.986 215.38 505.453C223.125 499.651 234.74 499.423 244.011 505.084C247.222 507.046 250.069 509.625 253.18 511.768C256.253 513.891 259.462 515.827 263.505 518.409Z" fill="#2898FF"/>
<path d="M204.06 528.421C208.415 536.105 213.836 542.577 221.438 547.137C216.368 540.965 210.069 535.653 208.591 527.19C212.507 537.735 223.314 541.165 230.212 548.549C233.371 551.927 234.984 556.767 237.07 561.062C237.347 561.636 236.474 563.158 235.735 563.666C235.27 563.989 233.873 563.452 233.224 562.916C225.967 556.839 218.557 550.919 211.637 544.484C207.118 540.303 203.465 535.269 204.06 528.421Z" fill="#2898FF"/>
<path d="M263.387 576.138C257.318 576.94 253.221 574.335 249.396 568.911C251.481 569.935 252.719 570.551 254.126 571.246C252.205 565.402 250.352 559.817 248.143 553.121C261.002 557.023 261.016 567.091 263.387 576.138Z" fill="#2898FF"/>
<path d="M242.348 552.352C246.892 555.378 248.361 561.944 244.911 567.658C242.73 571.266 238.942 573.996 235.532 576.698C234.505 577.508 232.333 576.875 230.681 576.905C230.986 575.317 230.981 573.568 231.688 572.182C232.446 570.671 233.782 569.411 235.011 568.199C241.813 561.515 241.818 561.525 242.348 552.352Z" fill="#2898FF"/>
<path d="M254.697 526.604C260.876 526.133 264.751 523.882 266.793 518.316C267.512 516.34 270.134 514.554 272.292 513.729C275.79 512.402 278.168 515.062 277.228 518.702C275.235 526.33 261.843 531.454 254.697 526.604Z" fill="#2898FF"/>
<path d="M205.148 506.336C208.096 508.056 209.454 513.465 207.706 516.483C206.04 519.36 201.128 520.567 198.006 518.852C195.184 517.303 193.825 512.058 195.499 509.123C197.147 506.215 202.363 504.711 205.148 506.336Z" fill="#7F000F"/>
<path d="M283.032 543.503C270.603 548.343 265.18 545.512 262.101 536.629C265.013 537.297 267.867 537.959 270.704 538.616C270.911 538.197 271.111 537.769 271.318 537.351C269.892 535.798 268.455 534.251 267.029 532.698C267.369 532.298 267.698 531.904 268.038 531.504C272.958 535.44 277.879 539.376 283.032 543.503Z" fill="#2898FF"/>
</svg>
