<svg width="415" height="1240" viewBox="0 0 415 1240" fill="none" xmlns="http://www.w3.org/2000/svg">
<path d="M336.138 1173.7H80.7289C67.1672 1173.7 56.1699 1162.71 56.1699 1149.14V68.559C56.1699 54.9973 67.1556 44 80.7289 44H336.138C349.7 44 360.697 54.9973 360.697 68.559V1149.14C360.697 1162.71 349.7 1173.7 336.138 1173.7Z" fill="#7F000F"/>
<path d="M124.025 128.605C117.694 105.247 126.416 81.3581 144.275 67.2419C136.651 66.1676 128.692 66.5834 120.779 68.7205C89.5195 77.1879 71.0367 109.394 79.5041 140.665C87.9716 171.935 120.178 190.407 151.448 181.939C159.35 179.802 166.431 176.14 172.473 171.358C149.935 168.181 130.355 151.962 124.025 128.605Z" fill="#EDEBDF"/>
<path d="M329.141 563.713C346.064 561.472 369.294 640.521 374.712 658.957C397.596 736.839 414.45 794.182 400.253 859.357C376.202 969.792 377.739 978.385 400.253 1035C411.516 1063.32 400.253 1120.66 357.027 1120.66C389.452 1142.05 413.307 1139.8 414 1146.2C416.703 1171.02 62.8496 1257.22 36.7773 1195.32C10.7397 1133.49 285.856 862.557 284.227 803.1C284.216 802.523 284.089 799.08 284.135 794.379C284.482 755.16 295.259 725.992 298.09 717.894C320.927 652.408 311.663 566.035 329.141 563.713Z" fill="black"/>
<path d="M316.697 252.22C295.43 222.96 240.917 239.536 238.11 240.437C229.1 243.302 210.501 249.205 200.128 265.978C190.944 280.834 191.476 298.924 188.992 298.728C187.363 298.6 186.508 290.711 186.37 285.628C186.012 272.436 190.147 265.782 188.333 264.673C185.515 262.952 172.692 277.264 164.098 292.836C158.126 303.66 157.132 309.783 156.89 313.791C156.381 322.582 159.269 326.024 160.159 332.124C162.469 347.834 147.544 353.818 123.482 391.719C119.323 398.269 119.843 397.98 106.455 419.882C95.7461 437.406 95.492 437.464 95.3187 438.873C92.6503 460.822 148.353 484.26 206.655 508.288C235.811 520.313 257.124 531.137 264.286 523.351C266.573 520.868 266.539 517.495 266.493 513.556C266.435 508.715 264.956 500.051 237.44 470.964C235.511 468.92 235.753 469.231 233.836 467.187C228.499 461.503 218.715 450.668 209.277 437.568C206.458 433.664 201.468 426.49 202.727 417.919C202.877 416.867 204.067 408.746 208.618 407.441C216.231 405.246 223.716 424.595 233.501 423.163C237.648 422.551 237.683 418.877 244.521 411.091C256.165 397.842 263.189 400.348 273.331 387.191C278.195 380.884 281.163 377.025 281.845 371.145C282.272 367.414 281.602 364.388 283.809 361.65C286.258 358.612 289.481 359.34 292.981 357.722C293.801 357.341 294.529 356.868 295.187 356.336C296.516 354.707 297.752 353.009 298.884 351.242C300.894 346.875 301.98 341.053 304.232 334.757C308.68 322.316 313.173 320.225 317.99 311.18C326.03 296.071 329.068 269.247 316.697 252.22Z" fill="#EDEBDF"/>
<path d="M131.499 617.221C130.112 619.185 127.987 624.452 164.248 678.78C193.208 722.169 196.292 721.395 206.157 741.657C217.143 764.194 216.693 772.061 228.429 783.566C242.118 796.989 265.314 808.426 279.511 800.594C286.223 796.885 286.916 791.087 295.233 773.089C305.468 750.91 311.498 744.337 317.505 732.484C327.462 712.812 325.048 702.519 330.605 618.526C333.492 574.849 335.029 552.832 339.118 543.867C341.29 539.108 346.869 522.173 351.559 499.335C355.568 479.825 355.013 473.228 354.182 468.55C352.114 456.987 347.747 454.006 346.326 440.387C345.056 428.269 348.117 425.566 345.021 420.737C337.027 408.308 311.128 411.623 310.967 412.882C310.874 413.621 319.469 414.107 329.958 420.737C330.755 421.234 337.847 425.762 337.166 427.287C336.935 427.818 335.78 427.957 331.274 427.287C324.274 426.247 320.682 424.965 318.833 424.665C307.709 422.851 294.043 445.851 295.256 446.937C295.834 447.456 299.854 442.986 311.625 435.801C314.79 433.872 318.29 431.873 318.833 432.532C319.642 433.514 311.891 438.308 309.638 447.306C308.333 452.493 309.407 456.883 310.32 460.695C310.539 461.596 313.75 474.476 318.175 474.453C321.571 474.43 323.5 466.863 324.725 467.245C325.961 467.637 323.766 475.25 323.419 484.272C323.003 494.807 325.476 497.533 326.042 507.849C326.388 514.214 325.845 520.302 323.419 531.426C315.772 566.601 303.77 598.877 303.77 598.877C278.506 666.847 273.585 669.966 271.679 692.527C270.42 707.463 271.344 720.644 267.751 721.337C262.391 722.377 258.302 693.428 234.355 663.705C219.558 645.338 204.298 635.519 197.678 631.615C174.436 617.937 138.73 606.975 131.499 617.221Z" fill="#EDEBDF"/>
<path d="M293.327 300.564C291.132 303.66 284.294 306.779 278.264 305.809C274.059 305.127 272.072 302.747 269.092 303.845C265.418 305.196 266.227 309.609 262.542 311.377C259.827 312.682 258.036 310.926 250.1 309.089C242.777 307.391 238.884 306.49 236.019 308.431C232.137 311.053 234.644 315.836 231.433 318.585C225.033 324.06 209.75 309.655 200.647 315.316C195.934 318.238 198.002 323.379 192.457 327.099C185.665 331.673 173.778 329.859 171.167 324.476C169.146 320.318 173.293 315.316 180.004 305.162C196.05 280.892 192.503 279.032 199.977 270.784C213.146 256.24 240.05 244.48 262.854 253.756C286.13 263.206 299.276 292.189 293.327 300.564Z" fill="black"/>
<path d="M227.505 388.231C226.939 386.325 225.842 383.645 223.485 380.433C237.96 379.301 243.262 381.843 245.168 384.742C246.473 386.718 247.27 390.403 250.031 391.408C251.891 392.078 253.046 390.865 254.144 391.708C255.715 392.909 255.541 397.045 253.416 398.477C252.111 399.355 251.048 398.547 249.407 399.575C247.744 400.614 248.148 401.862 246.808 402.671C245.052 403.722 242.476 402.728 239.958 401.77C239.103 401.446 235.592 400.025 232.288 396.698C231.456 395.867 230.012 394.376 228.868 392.124C228.06 390.518 227.863 389.432 227.505 388.231Z" fill="#C72C18"/>
<path d="M235.534 387.931C234.875 388.485 237.278 392.321 240.027 395.081C241.425 396.479 243.551 398.559 246.265 398.743C247.432 398.824 248.76 398.559 248.772 398.096C248.784 397.542 246.82 397.346 244.694 395.798C242.43 394.146 242.661 392.921 240.154 390.634C238.583 389.202 236.077 387.492 235.534 387.931Z" fill="black"/>
<path d="M233.2 394.781C232.946 394.226 232.114 392.216 232.923 390.275C233.131 389.779 233.835 388.092 235.534 387.942C236.7 387.838 238.19 388.473 238.341 389.178C238.502 389.883 237.22 390.252 235.695 391.592C234.459 392.678 233.685 393.868 233.2 394.781Z" fill="#EDEBDF"/>
<path d="M244.036 401.839C244.856 400.88 245.422 400.025 245.792 399.39C246.404 398.35 247.108 396.849 247.108 396.849C247.108 396.849 249.442 397.08 249.823 397.865C250.227 398.708 248.437 400.222 246.912 400.984C245.803 401.539 244.752 401.747 244.036 401.839Z" fill="#EDEBDF"/>
<path d="M271.956 389.525C265.984 393.822 254.779 388.809 255.021 387.469C255.183 386.568 260.485 385.355 262.542 385.459C262.796 385.47 263.604 385.54 264.355 385.066C264.633 384.893 265.014 384.558 265.337 383.922C266.261 382.086 265.349 380.307 265.834 377.003C265.938 376.298 266.192 374.889 266.481 372.532C266.492 372.474 266.492 372.44 266.492 372.428C267.058 367.68 270.177 362.621 271.402 360.645C273.192 357.734 274.555 355.528 277.293 353.437C278.552 352.478 280.331 351.127 283 350.468C286.281 349.671 289.423 350.284 292.957 350.988C295.21 351.427 295.926 351.889 297.624 351.739C298.306 351.681 298.733 351.635 298.907 351.878C299.392 352.571 297.405 355.17 295.291 356.868C290.289 360.9 284.917 359.305 283.832 362.286C283.612 362.898 283.912 362.748 283.739 366.248C283.67 367.692 283.612 368.928 283.416 370.176C283 372.821 282.087 374.739 281.452 376.067C280.482 378.089 279.615 379.255 277.282 382.421C272.13 389.386 272.176 389.363 271.956 389.525Z" fill="black"/>
<path d="M239.923 325.066C240.224 324.153 248.183 324.765 255.599 328.855C261.098 331.893 263.835 335.485 267.578 340.406C270.189 343.837 270.836 345.547 270.304 347.06C269.646 348.955 267.243 350.352 265.279 350.006C263.639 349.729 262.75 348.308 260.347 344.23C257.805 339.91 255.969 336.64 255.888 336.49C250.932 327.746 239.565 326.175 239.923 325.066Z" fill="black"/>
<path d="M236.077 374.149C236.594 374.149 237.012 373.73 237.012 373.214C237.012 372.697 236.594 372.278 236.077 372.278C235.56 372.278 235.141 372.697 235.141 373.214C235.141 373.73 235.56 374.149 236.077 374.149Z" fill="black"/>
<path d="M281.868 362.863C280.851 363.429 279.973 363.926 278.76 363.926C278.021 363.926 277.34 363.649 275.977 363.106C274.117 362.367 273.193 361.985 273.089 361.373C272.938 360.518 274.094 359.64 274.498 359.34C275.272 358.762 276.057 358.543 276.496 358.462C277.213 358.323 277.952 358.335 281.048 359.352C283.889 360.287 284.121 360.553 284.155 360.83C284.248 361.523 282.988 362.239 281.868 362.863Z" fill="#C72C18"/>
<path d="M253.832 342.566C256.315 345.604 256.812 346.193 257.066 346.644C257.124 346.759 257.17 346.84 257.182 346.863C257.863 348.284 258.938 351.322 258.06 352.073C257.413 352.628 256.131 351.484 251.083 349.07C247.836 347.51 246.751 347.21 245.503 345.754C244.406 344.472 243.955 343.19 243.551 342.046C243.181 340.995 241.795 337.079 243.1 336.132C243.609 335.762 244.856 336.109 247.213 337.183C248.738 337.876 249.766 338.338 250.944 339.308C251.602 339.851 251.891 340.198 253.832 342.566Z" fill="#C72C18"/>
<path d="M255.484 345.859C257.494 349.359 257.794 352.131 258.06 352.073C258.383 352.004 258.684 347.337 256.223 343.109C256.038 342.786 252.838 337.449 247.259 335.67C245.584 335.139 243.435 334.838 241.09 333.013C240.166 332.285 239.404 331.477 239.23 331.615C238.999 331.8 239.97 333.799 241.356 335.3C244.082 338.234 246.404 337.033 250.181 339.621C253.023 341.584 254.548 344.23 255.484 345.859Z" fill="black"/>
<path d="M189.638 361.8C188.807 365.381 187.675 370.834 186.797 377.522C184.348 396.167 181.055 421.338 193.785 437.776C198.66 444.06 200.243 441.808 214.521 452.181C237.347 468.77 249.557 486.351 249.95 486.016C250.389 485.635 237.37 461.665 217.628 443.633C217.628 443.633 206.747 433.687 203.824 420.968C203.477 419.455 203.2 416.74 203.824 413.76C204.182 412.039 204.529 410.514 205.857 409.428C207.855 407.799 210.639 408.354 211.471 408.527C214.752 409.186 216.635 411.45 216.762 411.311C217.074 410.988 203.801 400.464 196.408 386.694C191.279 377.141 189.973 367.888 189.638 361.8Z" fill="black"/>
<path d="M153.736 350.964C176.909 356.937 152.142 427.425 195.657 480.159C222.573 512.781 244.406 500.791 264.425 531.241C288.071 567.225 267.694 599.362 270.316 676.631C272.037 727.332 281.429 731.56 288.845 787.598C297.52 853.142 308.437 935.414 270.316 1014.57C267.717 1019.96 203.327 1149.04 91.5296 1154.07C67.2016 1155.16 45.4959 1156.13 26.6896 1142.28C-51.7005 1084.5 70.3206 879.18 42.4116 666.824C39.3157 643.247 32.1536 602.712 42.4116 550.902C46.2237 531.657 60.0164 495.5 87.602 423.197C89.3463 418.623 93.0198 409.058 100.193 397.691C109.134 383.529 136.189 346.448 153.736 350.964Z" fill="black"/>
<path d="M198.903 390.899C192.792 403.49 186.208 422.204 193.786 437.764C201.999 454.653 220.482 454.815 237.451 470.953C251.556 484.364 257.055 501.911 261.814 534.522C274.844 623.979 264.09 702.658 268.04 703.154C269.311 703.316 270.79 695.184 275.699 680.155C281.66 661.892 285.61 655.087 293.916 635.369C309.523 598.299 317.447 579.424 315.148 563.702C313 548.962 307.801 550.174 299.207 528.815C279.811 480.552 297.821 453.105 278.194 436.921C266.065 426.929 257.147 435.512 233.535 423.128C216.265 414.106 205.372 400.706 198.903 390.899Z" fill="black"/>
<path d="M158.033 324.061C148.734 319.174 133.254 309.39 120.998 291.554C108.222 272.967 92.3726 236.233 107.24 214.931C118.803 198.377 138.753 203.437 148.503 183.499C153.135 174.015 149.819 170.422 154.394 155.994C159.407 140.191 168.707 127.715 176.007 120.634C204.032 93.4297 251.024 98.5472 278.171 108.851C286.546 112.028 299.934 117.284 311.567 130.465C314.721 134.046 333.954 155.821 329.253 179.583C326.041 195.813 314.478 198.724 316.003 210.241C317.724 223.271 332.949 222.994 343.011 238.52C358.664 262.663 344.651 298.6 331.228 315.143C328.04 319.07 321.49 326.925 312.133 327.341C307.986 327.526 301.425 326.336 299.184 322.097C297.601 319.105 299.657 317.384 298.537 313.502C296.977 308.108 290.936 308.523 287.828 302.181C286.615 299.698 286.615 297.919 286.373 297.133C284.79 292.074 261.167 291.924 178.179 307.957C182.28 300.379 183.689 294.037 184.209 289.602C184.74 285.039 184.498 281.157 185.849 274.215C186.646 270.114 187.628 266.822 188.345 264.673C184.174 267.699 178.56 272.378 173.085 279.124C171.156 281.504 167.297 286.298 164.12 292.836C158.46 304.399 157.64 315.87 158.033 324.061Z" fill="black"/>
<path d="M54.2061 148.127C55.0493 141.704 60.8137 137.754 65.6654 138.759C69.258 139.51 72.2268 142.94 72.8737 147.272C78.1528 129.714 91.8186 116.695 108.234 113.876C122.535 111.416 133.959 117.538 137.702 119.768C140.22 114.823 147.255 102.694 161.938 94.8852C171.387 89.8486 180.213 88.6357 185.515 88.3353C187.167 86.2445 190.112 83.0446 194.687 80.4801C200.324 77.315 205.615 76.6796 208.445 76.5525C204.263 72.1167 193.601 62.0204 176.354 57.5615C157.49 52.6866 142.034 57.469 136.408 59.5253C132.585 64.7813 126.485 71.9896 117.417 78.5163C107.379 85.7362 97.6753 89.2595 97.1208 88.3353C96.5432 87.3765 106.639 82.9176 112.184 71.9665C114.76 66.8722 115.569 61.928 115.788 58.2661C113.698 61.2003 110.105 65.4744 104.468 69.0555C101.291 71.0655 98.2413 73.0062 96.4624 71.9665C93.2163 70.0605 96.2082 59.2942 97.7677 54.2808C84.876 56.9723 80.0358 61.8472 78.1182 66.0635C75.7501 71.2618 77.4944 75.0162 74.849 79.8217C71.3142 86.2214 62.893 88.6357 54.8761 89.5136C54.6335 109.048 54.414 128.593 54.2061 148.127Z" fill="black"/>
<path d="M358.745 103.907C357.821 103.757 354.875 103.41 351.756 105.085C348.718 106.726 347.39 109.267 346.985 110.122C345.287 109.625 341.591 108.817 337.305 110.099C329.646 112.398 326.608 119.49 326.18 120.542C324.794 119.964 319.989 118.162 314.883 120.149C308.807 122.517 304.798 129.286 305.203 136.98C303.528 135.478 302.176 135.235 301.321 135.247C297.174 135.293 292.865 141.589 291.306 151.212C291.687 149.687 293.42 142.097 288.88 135.778C287.528 133.895 285.946 132.602 284.606 131.712C285.553 129.783 284.767 127.565 283.22 126.791C281.498 125.913 278.934 126.884 278.195 129.205C279.373 120.114 275.792 111.381 268.872 106.737C262.842 102.694 256.385 103.156 254.213 103.41C254.074 100.638 253.335 93.6607 248.229 87.0993C244.937 82.8714 241.16 80.5148 238.803 79.3019C238.48 78.0081 237.786 75.9519 236.227 73.8379C234.298 71.2388 232.011 69.8757 230.751 69.2403C233.57 68.0736 240.49 65.6362 249.28 67.1263C258.892 68.7551 264.968 74.0921 267.116 76.1829C267.786 79.3597 269.103 83.8995 271.91 88.7281C275.018 94.065 278.726 97.6692 279.176 97.3573C279.638 97.0338 275.942 92.9445 275.642 86.8105C275.503 83.9573 276.15 81.5429 276.797 79.8217C277.155 81.5891 277.917 84.2691 279.766 87.0531C280.805 88.6242 281.799 90.1259 282.827 90.0104C284.698 89.8024 285.53 84.2807 285.842 81.67C291.179 85.5283 292.392 88.7397 292.403 91.0616C292.426 93.8224 290.74 94.943 291.086 98.0042C291.444 101.123 293.732 104.623 296.527 105.097C299.161 105.536 301.182 103.099 305.214 99.298C308.229 96.4562 312.538 92.6904 318.244 88.6242C321.71 87.7809 329.727 86.3254 339.084 89.3404C350.566 93.06 356.781 101.112 358.745 103.907Z" fill="black"/>
<path d="M64.0713 344.057C64.6258 343.699 66.4394 342.648 68.9461 342.856C71.3836 343.063 72.9661 344.346 73.4629 344.785C74.4217 343.988 76.6049 342.405 79.747 342.035C85.3727 341.377 89.3581 345.131 89.9357 345.686C90.675 344.923 93.2972 342.382 97.1786 342.243C101.799 342.07 106.316 345.339 108.222 350.457C108.892 349.013 109.701 348.47 110.255 348.227C112.97 347.083 117.544 349.96 121.276 355.782C120.594 354.892 117.325 350.445 118.503 345.062C118.85 343.456 119.508 342.162 120.144 341.215C118.988 340.222 118.873 338.57 119.658 337.623C120.536 336.571 122.477 336.479 123.609 337.773C120.282 332.193 120.144 325.505 123.332 320.538C126.104 316.206 130.448 314.692 131.926 314.242C131.233 312.405 129.743 307.657 131.21 301.951C132.157 298.277 133.948 295.678 135.138 294.223C134.988 293.287 134.849 291.762 135.276 289.949C135.796 287.719 136.894 286.183 137.54 285.409C135.38 285.443 130.194 285.813 124.903 289.255C119.115 293.021 116.666 298.208 115.858 300.172C116.32 302.424 116.747 305.751 116.285 309.679C115.777 314.034 114.368 317.419 113.998 317.338C113.605 317.257 114.853 313.549 113.316 309.483C112.6 307.588 111.503 306.202 110.602 305.266C110.867 306.514 111.133 308.478 110.717 310.811C110.486 312.128 110.255 313.387 109.562 313.595C108.291 313.988 106.189 310.626 105.253 309.02C102.874 313.04 102.989 315.466 103.636 316.98C104.398 318.782 105.819 319.036 106.455 321.127C107.102 323.264 106.605 326.186 104.918 327.272C103.336 328.3 101.326 327.284 97.6291 325.955C94.8683 324.962 91.01 323.726 86.1467 322.686C83.6515 323.114 78.0374 324.431 72.7929 329.028C66.3354 334.688 64.568 341.689 64.0713 344.057Z" fill="black"/>
<path d="M130.031 439.162C132.862 438.873 135.449 438.619 138.984 438.261C136.708 434.807 135.022 432.266 133.047 429.274C142.011 429.124 148.607 438.434 147.579 449.085C146.701 458.211 142.346 465.211 134.41 464.414C128.079 463.779 127.79 463.34 130.401 454.803C130.574 454.249 130.621 453.509 130.909 453.151C134.675 448.438 133.566 444.638 130.494 441.114C130.251 440.837 130.239 440.121 130.031 439.162Z" fill="#2898FF"/>
<path d="M114.933 464.645C109.296 463.571 106.835 461.272 106.131 455.912C105.472 450.922 106.939 445.828 110.393 444.072C114.205 442.131 118.26 441.057 122.234 440.387C123.273 440.213 125.122 442.628 125.364 444.326C125.988 448.692 125.953 453.325 126.104 457.865C126.207 460.672 125.179 462.474 123.227 462.936C120.466 463.606 117.694 464.091 114.933 464.645Z" fill="#2898FF"/>
<path d="M135.195 497.857C134.444 497.279 133.659 496.794 132.966 496.112C132.33 495.477 131.799 494.622 130.956 493.513C130.158 495.847 129.477 497.845 128.795 499.843C128.414 499.901 128.033 499.947 127.652 500.005C127.04 496.112 126.427 492.231 125.78 488.118C124.29 488.142 122.65 488.176 120.755 488.211C125.711 476.763 133.497 468.538 139.943 468.48C132.735 477.248 133.532 487.079 136.038 497.163C135.75 497.395 135.472 497.626 135.195 497.857Z" fill="#7F000F"/>
<path d="M162.469 411.311C160.216 413.217 158.703 414.499 156.959 415.978C158.287 417.815 159.073 418.889 159.685 419.732C154.105 422.724 148.722 425.612 143.096 428.627C143.016 428.361 142.6 427.518 142.542 426.582C142.149 419.894 148.237 407.938 152.696 408.7C155.468 409.174 158.795 409.301 162.469 411.311Z" fill="#7F000F"/>
<path d="M135.553 425.508C129.304 421.708 126.058 414.788 125.261 405.524C124.487 396.571 126.104 388.843 129.142 386.244C129.188 388.797 129.223 391.165 129.269 394.006C130.505 393.221 131.406 392.655 133.335 391.419C128.426 404.738 130.817 415.354 135.553 425.508Z" fill="#7F000F"/>
<path d="M148.017 397.16C146.631 398.927 145.291 400.752 143.859 402.427C140.901 405.881 137.886 409.255 134.802 412.766C133.52 410.837 133.162 406.898 134.398 402.97C136.096 397.622 139.088 395.982 147.22 395.958C147.486 396.363 147.752 396.756 148.017 397.16Z" fill="#7F000F"/>
<path d="M106.073 408.481C114.333 403.618 119.346 406.69 123.459 417.098C119.774 418.346 112.554 414.823 106.073 408.481Z" fill="#7F000F"/>
<path d="M114.968 419.859C123.193 420.414 129.2 423.51 131.926 434.137C129.2 435.027 126.785 436.009 124.613 431.896C122.8 428.465 120.027 426.109 117.682 423.267C116.989 422.412 116.296 421.523 114.968 419.859Z" fill="#2898FF"/>
<path d="M103.543 434.044C107.667 429.678 118.399 428.835 121.922 432.543C122.28 432.912 122.638 433.686 122.592 434.252C122.557 434.761 121.956 435.696 121.645 435.696C115.822 435.639 110 435.5 104.19 435.281C103.947 435.281 103.762 434.483 103.543 434.044Z" fill="#2898FF"/>
<path d="M119.207 469.381C118.814 470.155 118.537 471.172 118.017 471.657C114.771 474.672 107.113 474.048 104.571 470.49C104.074 469.797 103.763 468.215 103.982 467.279C104.144 466.574 105.611 465.546 105.946 465.847C109.85 469.324 114.113 470.306 118.895 468.122C118.999 468.538 119.103 468.954 119.207 469.381Z" fill="#2898FF"/>
<path d="M128.402 468.723C124.764 473.379 121.587 477.445 118.352 481.592C116.955 475.735 122.107 468.839 128.402 468.723Z" fill="#2898FF"/>
<path d="M103.301 462.289C101.175 465.13 100.228 465.142 99.373 461.399C98.8416 459.054 98.8994 456.27 99.0958 453.694C99.1766 452.654 100.32 451.672 100.967 450.667C101.371 451.684 101.972 452.608 102.157 453.717C102.619 456.351 102.885 459.054 103.301 462.289Z" fill="#2898FF"/>
<path d="M105.657 440.78C104.467 443.055 103.266 445.331 101.995 447.768C99.9854 445.666 99.8467 442.57 101.048 440.341C101.73 439.07 103.982 439.463 105.519 439.104C105.565 439.659 105.611 440.213 105.657 440.78Z" fill="#2898FF"/>
<path d="M197.69 535.943C195.888 538.138 194.224 540.136 191.96 542.886C196.015 543.74 198.995 544.364 202.495 545.092C196.234 551.503 184.994 549.528 178.225 541.234C172.426 534.129 170.601 526.089 176.793 521.076C181.737 517.079 182.257 517.183 186.404 525.084C186.669 525.604 187.155 526.159 187.212 526.609C187.848 532.616 191.313 534.534 195.98 534.869C196.361 534.915 196.87 535.423 197.69 535.943Z" fill="#7F000F"/>
<path d="M190.494 507.214C195.253 504.002 198.626 503.91 202.889 507.225C206.862 510.31 209.404 514.965 208.191 518.639C206.851 522.705 204.725 526.309 202.369 529.59C201.756 530.444 198.741 530.029 197.367 528.989C193.855 526.32 190.621 523.005 187.305 519.886C185.261 517.957 184.718 515.958 185.78 514.26C187.294 511.846 188.922 509.559 190.494 507.214Z" fill="#2898FF"/>
<path d="M152.731 497.868C153.666 497.753 154.567 497.533 155.549 497.545C156.45 497.545 157.421 497.776 158.807 497.972C157.733 495.743 156.809 493.848 155.896 491.954C156.127 491.642 156.358 491.342 156.601 491.03C159.777 493.363 162.943 495.697 166.293 498.157C167.332 497.094 168.476 495.916 169.804 494.553C174.344 506.174 174.587 517.495 170.047 522.081C168.996 510.783 161.522 504.349 152.65 498.954C152.661 498.585 152.696 498.227 152.731 497.868Z" fill="#7F000F"/>
<path d="M194.236 578.569C194.49 575.635 194.664 573.648 194.872 571.372C192.631 571.002 191.325 570.794 190.286 570.621C192.145 564.568 193.936 558.723 195.819 552.624C196.062 552.762 196.951 553.063 197.644 553.686C202.623 558.157 206.712 570.945 203.004 573.532C200.705 575.161 198.268 577.414 194.236 578.569Z" fill="#7F000F"/>
<path d="M203.374 549.539C210.489 547.841 217.651 550.475 224.756 556.505C231.606 562.315 235.892 568.958 235.557 572.932C233.732 571.153 232.033 569.489 230 567.502C229.677 568.935 229.434 569.974 228.926 572.204C223.046 559.277 213.886 553.421 203.374 549.539Z" fill="#7F000F"/>
<path d="M214.463 578.465C214.209 576.235 213.874 573.983 213.712 571.788C213.389 567.248 213.158 562.731 212.88 558.064C215.145 558.538 218.183 561.079 220.054 564.741C222.607 569.732 221.637 573.012 215.872 578.742C215.399 578.65 214.937 578.557 214.463 578.465Z" fill="#7F000F"/>
<path d="M236.308 540.91C233.87 550.175 228.129 551.526 217.894 547.009C219.638 543.532 227.239 540.956 236.308 540.91Z" fill="#7F000F"/>
<path d="M221.972 539.074C215.745 544.468 209.299 546.49 199.873 540.853C201.178 538.3 202.207 535.908 206.642 537.306C210.35 538.473 213.978 538.196 217.64 538.565C218.749 538.681 219.869 538.831 221.972 539.074Z" fill="#2898FF"/>
<path d="M220.112 520.948C220.251 526.955 213.216 535.111 208.11 534.949C207.602 534.938 206.805 534.637 206.423 534.21C206.088 533.817 205.857 532.731 206.077 532.523C210.247 528.469 214.498 524.472 218.772 520.533C218.957 520.359 219.65 520.798 220.112 520.948Z" fill="#2898FF"/>
<path d="M184.128 506.867C183.863 506.047 183.343 505.123 183.378 504.418C183.562 499.994 189.442 495.038 193.751 495.777C194.594 495.928 195.923 496.829 196.431 497.649C196.812 498.261 196.489 500.017 196.038 500.04C190.817 500.317 187.097 502.616 185.226 507.537C184.868 507.318 184.498 507.087 184.128 506.867Z" fill="#2898FF"/>
<path d="M178.052 513.798C177.359 507.93 176.758 502.801 176.146 497.58C181.252 500.756 182.442 509.293 178.052 513.798Z" fill="#2898FF"/>
<path d="M200.428 500.71C199.943 497.198 200.601 496.517 203.836 498.573C205.857 499.855 207.775 501.888 209.45 503.852C210.12 504.649 210.004 506.139 210.247 507.317C209.242 506.89 208.168 506.636 207.255 505.989C205.083 504.453 202.993 502.72 200.428 500.71Z" fill="#2898FF"/>
<path d="M213.886 517.657C213.135 515.196 212.384 512.747 211.575 510.113C214.486 510.194 216.762 512.297 217.478 514.722C217.882 516.109 216.011 517.402 215.168 518.742C214.729 518.384 214.301 518.026 213.886 517.657Z" fill="#2898FF"/>
<path d="M108.869 554.056C111.052 555.87 113.05 557.533 115.788 559.809C116.654 555.766 117.29 552.785 118.041 549.285C124.429 555.581 122.407 566.809 114.09 573.544C106.963 579.308 98.911 581.11 93.9206 574.895C89.9353 569.928 90.0508 569.42 97.9753 565.296C98.4951 565.03 99.0496 564.545 99.5117 564.499C105.519 563.887 107.448 560.433 107.806 555.766C107.84 555.384 108.337 554.888 108.869 554.056Z" fill="#7F000F"/>
<path d="M80.1048 561.137C76.9165 556.366 76.8356 552.993 80.1625 548.742C83.2584 544.78 87.9253 542.262 91.5988 543.486C95.6534 544.838 99.2576 546.986 102.527 549.343C103.382 549.967 102.954 552.97 101.914 554.333C99.2345 557.845 95.896 561.056 92.777 564.36C90.8479 566.405 88.8379 566.925 87.1398 565.862C84.737 564.36 82.4498 562.72 80.1048 561.137Z" fill="#2898FF"/>
<path d="M70.6207 598.876C70.5052 597.941 70.2973 597.04 70.3088 596.058C70.3204 595.157 70.5514 594.186 70.7478 592.8C68.5183 593.863 66.6123 594.776 64.7178 595.688C64.4174 595.457 64.1055 595.215 63.8052 594.984C66.1502 591.818 68.4952 588.653 70.9673 585.315C69.9045 584.275 68.7262 583.12 67.3747 581.791C79.0073 577.298 90.3396 577.09 94.9025 581.664C83.5933 582.669 77.1359 590.12 71.7066 598.969C71.3369 598.946 70.9788 598.911 70.6207 598.876Z" fill="#7F000F"/>
<path d="M151.483 557.683C148.549 557.417 146.562 557.233 144.298 557.025C143.928 559.266 143.709 560.571 143.536 561.611C137.494 559.728 131.66 557.914 125.561 556.008C125.7 555.766 126.012 554.876 126.635 554.183C131.129 549.216 143.928 545.173 146.504 548.892C148.099 551.203 150.34 553.652 151.483 557.683Z" fill="#7F000F"/>
<path d="M122.488 548.43C120.825 541.303 123.482 534.152 129.535 527.083C135.368 520.256 142.022 515.993 146.008 516.351C144.217 518.165 142.554 519.863 140.555 521.884C141.987 522.219 143.016 522.462 145.245 522.982C132.307 528.792 126.416 537.93 122.488 548.43Z" fill="#7F000F"/>
<path d="M151.448 537.456C149.219 537.699 146.966 538.034 144.771 538.184C140.231 538.496 135.715 538.704 131.048 538.969C131.521 536.705 134.086 533.679 137.748 531.819C142.75 529.277 146.019 530.271 151.737 536.058C151.645 536.52 151.552 536.982 151.448 537.456Z" fill="#7F000F"/>
<path d="M113.986 515.461C123.239 517.945 124.567 523.675 120.016 533.898C116.539 532.142 113.997 524.53 113.986 515.461Z" fill="#7F000F"/>
<path d="M112.103 529.786C117.475 536.035 119.473 542.493 113.801 551.896C111.26 550.579 108.869 549.539 110.278 545.115C111.456 541.418 111.191 537.791 111.583 534.118C111.687 533.009 111.837 531.9 112.103 529.786Z" fill="#2898FF"/>
<path d="M93.9668 531.576C99.9737 531.461 108.095 538.53 107.921 543.636C107.898 544.144 107.609 544.942 107.17 545.323C106.778 545.658 105.692 545.889 105.484 545.658C101.441 541.464 97.4669 537.213 93.5393 532.916C93.3776 532.731 93.805 532.038 93.9668 531.576Z" fill="#2898FF"/>
<path d="M79.7353 567.514C78.9151 567.779 77.9794 568.288 77.2863 568.253C72.862 568.045 67.9294 562.154 68.6918 557.845C68.842 557.002 69.743 555.673 70.5747 555.165C71.187 554.784 72.9428 555.119 72.966 555.558C73.2201 560.779 75.5073 564.499 80.4168 566.393C80.1858 566.774 79.9663 567.144 79.7353 567.514Z" fill="#2898FF"/>
<path d="M86.643 573.613C80.7747 574.283 75.6457 574.86 70.4243 575.461C73.6126 570.355 82.1609 569.2 86.643 573.613Z" fill="#2898FF"/>
<path d="M73.6471 551.191C70.1354 551.665 69.4538 551.006 71.5331 547.772C72.8269 545.75 74.8716 543.844 76.8354 542.181C77.6325 541.511 79.1342 541.638 80.3125 541.395C79.8735 542.4 79.6309 543.474 78.9725 544.387C77.413 546.547 75.6687 548.626 73.6471 551.191Z" fill="#2898FF"/>
<path d="M90.6515 537.803C88.191 538.542 85.7305 539.293 83.0967 540.09C83.1891 537.179 85.3031 534.915 87.7289 534.21C89.1151 533.806 90.4089 535.689 91.7374 536.543C91.3793 536.948 91.0096 537.375 90.6515 537.803Z" fill="#2898FF"/>
<path d="M104.744 666.789C107.575 666.963 110.174 667.124 113.732 667.355C112.045 663.578 110.798 660.794 109.342 657.525C118.214 658.83 123.204 669.1 120.466 679.439C118.11 688.299 112.68 694.502 104.975 692.423C98.8299 690.771 98.622 690.286 102.584 682.28C102.838 681.76 103.012 681.033 103.347 680.732C107.829 676.689 107.355 672.762 104.895 668.788C104.687 668.464 104.802 667.771 104.744 666.789Z" fill="#7F000F"/>
<path d="M85.7073 689.477C80.3126 687.502 78.268 684.834 78.4412 679.427C78.603 674.402 80.8787 669.62 84.5752 668.442C88.653 667.148 92.8232 666.743 96.8547 666.732C97.9059 666.732 99.3384 669.412 99.3037 671.133C99.2113 675.546 98.4142 680.109 97.8366 684.614C97.4785 687.398 96.1732 689.004 94.1747 689.154C91.3445 689.35 88.5259 689.373 85.7073 689.477Z" fill="#2898FF"/>
<path d="M100.297 725.542C99.6504 724.849 98.9457 724.248 98.3797 723.451C97.8483 722.723 97.4671 721.799 96.8086 720.563C95.6419 722.735 94.6369 724.594 93.6434 726.454C93.2622 726.443 92.8695 726.431 92.4883 726.431C92.5114 722.492 92.546 718.553 92.5691 714.406C91.1021 714.186 89.4617 713.955 87.5903 713.678C94.3366 703.189 103.358 696.339 109.735 697.332C101.198 704.818 100.378 714.637 101.221 724.987C100.921 725.172 100.609 725.357 100.297 725.542Z" fill="#7F000F"/>
<path d="M141.294 644.576C138.764 646.089 137.055 647.117 135.102 648.284C136.119 650.305 136.72 651.495 137.182 652.431C131.186 654.476 125.41 656.451 119.369 658.519C119.334 658.241 119.057 657.34 119.161 656.416C119.854 649.763 127.813 638.939 132.087 640.429C134.733 641.341 137.99 642 141.294 644.576Z" fill="#7F000F"/>
<path d="M112.427 654.221C106.882 649.45 104.802 642.103 105.519 632.827C106.2 623.875 109.065 616.505 112.484 614.437C112.115 616.955 111.768 619.312 111.352 622.119C112.704 621.541 113.686 621.125 115.788 620.236C108.765 632.562 109.4 643.42 112.427 654.221Z" fill="#7F000F"/>
<path d="M129.338 628.264C127.686 629.778 126.058 631.372 124.371 632.793C120.882 635.715 117.371 638.557 113.755 641.514C112.808 639.4 113.085 635.45 114.945 631.788C117.486 626.786 120.709 625.654 128.738 626.959C128.934 627.387 129.13 627.825 129.338 628.264Z" fill="#7F000F"/>
<path d="M86.1118 632.608C95.0529 629.143 99.5003 633.001 101.857 643.94C98.0101 644.576 91.4603 639.932 86.1118 632.608Z" fill="#7F000F"/>
<path d="M93.0312 645.292C101.06 647.174 106.477 651.206 107.448 662.134C104.618 662.573 102.076 663.139 100.598 658.738C99.3732 655.053 97.0166 652.28 95.1683 649.092C94.6023 648.133 94.0709 647.14 93.0312 645.292Z" fill="#2898FF"/>
<path d="M79.4463 657.433C84.2287 653.794 94.9603 654.706 97.8251 658.934C98.1139 659.362 98.345 660.182 98.2063 660.736C98.0908 661.233 97.34 662.065 97.0396 662.007C91.2984 661.014 85.5803 659.916 79.8853 658.761C79.6542 658.715 79.5965 657.895 79.4463 657.433Z" fill="#2898FF"/>
<path d="M89.1613 694.837C88.653 695.53 88.2025 696.501 87.6133 696.882C83.9168 699.331 76.4659 697.471 74.5367 693.543C74.1555 692.769 74.1093 691.175 74.4674 690.274C74.7331 689.604 76.3504 688.83 76.6391 689.188C79.9314 693.254 83.9745 694.906 89.0573 693.543C89.0919 693.982 89.1266 694.41 89.1613 694.837Z" fill="#2898FF"/>
<path d="M98.3334 695.692C93.99 699.689 90.1894 703.189 86.3196 706.758C85.9037 700.752 92.107 694.779 98.3334 695.692Z" fill="#2898FF"/>
<path d="M74.6177 685.261C72.0532 687.71 71.1291 687.583 70.8865 683.748C70.7363 681.356 71.2561 678.607 71.8684 676.1C72.111 675.084 73.4048 674.31 74.2134 673.42C74.456 674.483 74.8834 675.5 74.8949 676.62C74.918 679.289 74.7332 682.003 74.6177 685.261Z" fill="#2898FF"/>
<path d="M80.4395 664.41C78.8916 666.466 77.3436 668.511 75.6917 670.705C74.0514 668.303 74.4211 665.23 75.969 663.22C76.8469 662.076 79.0071 662.839 80.5897 662.735C80.5319 663.301 80.4857 663.855 80.4395 664.41Z" fill="#2898FF"/>
<path d="M212.257 631.476C214.405 633.336 216.369 635.034 219.061 637.368C220.008 633.336 220.701 630.379 221.521 626.89C227.782 633.301 225.541 644.495 217.097 651.056C209.854 656.682 201.779 658.322 196.905 652.004C193.023 646.967 193.139 646.459 201.144 642.485C201.664 642.231 202.241 641.757 202.692 641.723C208.71 641.226 210.709 637.818 211.159 633.151C211.194 632.782 211.714 632.296 212.257 631.476Z" fill="#7F000F"/>
<path d="M183.366 637.991C180.27 633.151 180.259 629.789 183.678 625.596C186.855 621.691 191.568 619.266 195.207 620.571C199.238 622.003 202.796 624.221 206.019 626.647C206.862 627.283 206.377 630.286 205.303 631.626C202.554 635.08 199.157 638.234 195.969 641.468C193.994 643.467 191.984 643.963 190.309 642.854C187.929 641.306 185.665 639.62 183.366 637.991Z" fill="#2898FF"/>
<path d="M173.131 675.534C173.039 674.599 172.843 673.686 172.866 672.716C172.889 671.815 173.143 670.844 173.362 669.47C171.11 670.498 169.192 671.364 167.275 672.242C166.974 671.999 166.674 671.757 166.374 671.526C168.776 668.407 171.191 665.299 173.732 662.007C172.692 660.944 171.537 659.766 170.22 658.415C181.945 654.152 193.278 654.175 197.737 658.819C186.416 659.604 179.808 666.928 174.206 675.673C173.848 675.615 173.489 675.569 173.131 675.534Z" fill="#7F000F"/>
<path d="M254.79 635.935C251.868 635.611 249.881 635.392 247.617 635.138C247.201 637.367 246.958 638.673 246.762 639.701C240.755 637.702 234.956 635.762 228.903 633.752C229.041 633.509 229.376 632.62 230.012 631.95C234.598 627.075 247.478 623.286 249.985 627.052C251.533 629.385 253.728 631.88 254.79 635.935Z" fill="#7F000F"/>
<path d="M225.981 626.116C224.456 618.954 227.251 611.861 233.443 604.907C239.415 598.195 246.15 594.06 250.124 594.499C248.299 596.278 246.601 597.941 244.567 599.916C245.988 600.274 247.016 600.54 249.246 601.106C236.192 606.674 230.116 615.696 225.981 626.116Z" fill="#7F000F"/>
<path d="M255.16 615.719C252.931 615.927 250.667 616.205 248.472 616.308C243.92 616.528 239.404 616.655 234.737 616.817C235.257 614.564 237.879 611.584 241.575 609.805C246.624 607.367 249.881 608.419 255.472 614.31C255.368 614.784 255.264 615.246 255.16 615.719Z" fill="#7F000F"/>
<path d="M218.125 592.997C227.332 595.654 228.545 601.418 223.797 611.549C220.355 609.724 217.964 602.054 218.125 592.997Z" fill="#7F000F"/>
<path d="M215.965 607.275C221.21 613.628 223.081 620.12 217.224 629.408C214.706 628.045 212.338 626.959 213.828 622.558C215.076 618.884 214.891 615.246 215.341 611.595C215.492 610.486 215.665 609.377 215.965 607.275Z" fill="#2898FF"/>
<path d="M197.795 608.708C203.801 608.708 211.784 615.939 211.506 621.033C211.483 621.541 211.16 622.339 210.721 622.697C210.328 623.02 209.231 623.228 209.023 622.997C205.061 618.723 201.179 614.391 197.332 610.024C197.182 609.851 197.633 609.17 197.795 608.708Z" fill="#2898FF"/>
<path d="M182.869 644.356C182.038 644.599 181.102 645.096 180.397 645.049C175.973 644.761 171.167 638.765 172.011 634.468C172.172 633.625 173.108 632.319 173.94 631.823C174.564 631.453 176.308 631.823 176.331 632.273C176.493 637.506 178.699 641.272 183.574 643.259C183.331 643.628 183.1 643.987 182.869 644.356Z" fill="#2898FF"/>
<path d="M189.65 650.582C183.77 651.137 178.63 651.622 173.397 652.107C176.689 647.082 185.249 646.089 189.65 650.582Z" fill="#2898FF"/>
<path d="M177.094 627.918C173.57 628.322 172.912 627.652 175.037 624.452C176.377 622.454 178.445 620.583 180.455 618.965C181.264 618.307 182.765 618.469 183.944 618.249C183.493 619.242 183.216 620.305 182.546 621.206C180.952 623.343 179.161 625.4 177.094 627.918Z" fill="#2898FF"/>
<path d="M194.352 614.864C191.88 615.557 189.408 616.251 186.762 617.001C186.912 614.09 189.073 611.872 191.51 611.214C192.896 610.844 194.155 612.75 195.472 613.628C195.103 614.033 194.733 614.448 194.352 614.864Z" fill="#2898FF"/>
<path d="M121.125 781.013C119.231 778.899 117.486 776.97 115.107 774.325C113.663 778.206 112.612 781.06 111.364 784.421C105.946 777.271 109.562 766.458 118.769 760.994C126.659 756.316 134.872 755.692 138.915 762.565C142.138 768.052 141.965 768.537 133.52 771.483C132.966 771.68 132.342 772.072 131.891 772.049C125.861 771.795 123.447 774.926 122.419 779.5C122.35 779.847 121.772 780.274 121.125 781.013Z" fill="#7F000F"/>
<path d="M150.617 778.148C153.089 783.335 152.673 786.674 148.769 790.405C145.13 793.882 140.151 795.707 136.697 793.951C132.873 792.022 129.627 789.388 126.728 786.581C125.965 785.842 126.82 782.931 128.056 781.729C131.21 778.645 134.976 775.942 138.545 773.135C140.752 771.391 142.808 771.16 144.333 772.465C146.505 774.29 148.526 776.242 150.617 778.148Z" fill="#2898FF"/>
<path d="M165.438 742.177C165.415 743.124 165.495 744.048 165.345 745.007C165.207 745.896 164.837 746.832 164.444 748.16C166.801 747.421 168.811 746.797 170.832 746.173C171.098 746.451 171.364 746.728 171.641 747.005C168.869 749.801 166.085 752.585 163.162 755.53C164.063 756.72 165.057 758.026 166.2 759.539C154.036 762.311 142.796 760.879 138.938 755.704C150.27 756.339 157.733 749.893 164.387 741.922C164.733 742.003 165.091 742.096 165.438 742.177Z" fill="#7F000F"/>
<path d="M79.4927 771.287C82.3575 771.98 84.2982 772.442 86.5161 772.974C87.2092 770.813 87.6136 769.543 87.937 768.549C93.6436 771.287 99.1538 773.921 104.918 776.682C104.745 776.901 104.317 777.745 103.59 778.334C98.426 782.596 85.1761 784.756 83.1661 780.702C81.907 778.195 80.0356 775.446 79.4927 771.287Z" fill="#7F000F"/>
<path d="M106.847 784.618C107.471 791.907 103.809 798.607 96.7972 804.729C90.0394 810.644 82.8311 813.901 78.9497 812.977C80.9828 811.441 82.8773 809.997 85.1414 808.287C83.7783 807.756 82.7849 807.363 80.6478 806.531C94.302 802.638 101.453 794.437 106.847 784.618Z" fill="#7F000F"/>
<path d="M76.6048 791.306C78.8458 791.387 81.1215 791.387 83.3164 791.549C87.8562 791.895 92.3498 792.334 97.0052 792.75C96.2081 794.922 93.2393 797.544 89.3464 798.861C84.0326 800.652 80.9367 799.196 76.1196 792.658C76.2698 792.207 76.4431 791.757 76.6048 791.306Z" fill="#7F000F"/>
<path d="M110.509 818.464C101.707 814.675 101.221 808.807 107.194 799.346C110.382 801.587 111.803 809.489 110.509 818.464Z" fill="#7F000F"/>
<path d="M114.437 804.567C110.024 797.602 108.973 790.936 115.938 782.446C118.272 784.121 120.478 785.495 118.445 789.666C116.747 793.154 116.481 796.782 115.569 800.351C115.315 801.437 115.003 802.511 114.437 804.567Z" fill="#2898FF"/>
<path d="M132.642 805.411C126.682 804.66 119.658 796.493 120.571 791.468C120.663 790.959 121.067 790.22 121.553 789.908C121.98 789.631 123.089 789.562 123.274 789.816C126.67 794.552 129.985 799.334 133.255 804.152C133.393 804.348 132.862 804.972 132.642 805.411Z" fill="#2898FF"/>
<path d="M151.899 771.899C152.754 771.761 153.747 771.38 154.429 771.518C158.772 772.361 162.804 778.9 161.429 783.058C161.164 783.879 160.078 785.057 159.188 785.438C158.53 785.727 156.832 785.149 156.878 784.699C157.375 779.489 155.653 775.48 151.067 772.904C151.345 772.569 151.622 772.234 151.899 771.899Z" fill="#2898FF"/>
<path d="M145.938 764.864C151.841 765.049 157.005 765.211 162.261 765.372C158.368 769.959 149.751 769.878 145.938 764.864Z" fill="#2898FF"/>
<path d="M155.573 788.926C159.119 788.972 159.697 789.712 157.179 792.611C155.608 794.425 153.309 796.019 151.125 797.382C150.236 797.937 148.78 797.59 147.579 797.659C148.157 796.735 148.561 795.707 149.335 794.899C151.183 792.981 153.205 791.167 155.573 788.926Z" fill="#2898FF"/>
<path d="M136.824 799.727C139.366 799.346 141.907 798.965 144.622 798.561C144.113 801.425 141.699 803.366 139.181 803.713C137.748 803.909 136.743 801.864 135.542 800.825C135.969 800.455 136.397 800.097 136.824 799.727Z" fill="#2898FF"/>
<path d="M233.004 752.931C230.624 754.479 228.441 755.9 225.461 757.841C229.065 759.862 231.722 761.352 234.852 763.108C226.951 767.348 216.82 762.092 212.858 752.157C209.462 743.644 210.12 735.419 217.536 732.496C223.451 730.163 223.913 730.417 225.507 739.208C225.611 739.785 225.9 740.455 225.819 740.906C224.629 746.82 227.355 749.697 231.71 751.418C232.057 751.545 232.38 752.18 233.004 752.931Z" fill="#7F000F"/>
<path d="M234.76 723.358C240.27 721.73 243.505 722.642 246.589 727.09C249.454 731.225 250.482 736.424 248.23 739.566C245.734 743.043 242.615 745.85 239.392 748.264C238.549 748.899 235.8 747.606 234.806 746.196C232.253 742.592 230.163 738.457 227.945 734.494C226.57 732.045 226.651 729.978 228.176 728.672C230.313 726.824 232.554 725.114 234.76 723.358Z" fill="#2898FF"/>
<path d="M201.526 703.12C202.45 703.282 203.386 703.363 204.31 703.651C205.165 703.929 206.031 704.437 207.29 705.038C206.932 702.589 206.62 700.509 206.32 698.419C206.632 698.199 206.944 697.98 207.267 697.749C209.589 700.925 211.922 704.102 214.371 707.452C215.677 706.747 217.132 705.962 218.796 705.072C219.639 717.514 216.485 728.395 210.779 731.399C213.17 720.298 207.96 711.934 201.11 704.125C201.248 703.79 201.387 703.455 201.526 703.12Z" fill="#7F000F"/>
<path d="M216.936 792.554C218.057 789.828 218.819 787.991 219.697 785.877C217.675 784.86 216.485 784.26 215.55 783.786C219.142 778.576 222.596 773.54 226.224 768.272C226.408 768.468 227.171 769.034 227.656 769.832C231.075 775.596 231.145 789.019 226.824 790.382C224.133 791.237 221.129 792.658 216.936 792.554Z" fill="#7F000F"/>
<path d="M234.356 767.59C241.657 768.11 247.698 772.766 252.665 780.644C257.459 788.245 259.562 795.857 258.037 799.554C256.836 797.301 255.704 795.211 254.364 792.715C253.624 793.986 253.081 794.899 251.926 796.874C250.205 782.792 243.216 774.452 234.356 767.59Z" fill="#7F000F"/>
<path d="M236.262 798.514C236.689 796.32 237.036 794.067 237.544 791.918C238.595 787.494 239.727 783.116 240.859 778.576C242.881 779.708 245.006 783.047 245.699 787.09C246.647 792.612 244.729 795.453 237.521 799.196C237.105 798.977 236.689 798.745 236.262 798.514Z" fill="#7F000F"/>
<path d="M268.364 769.231C263.258 777.34 257.39 776.901 248.969 769.531C251.672 766.736 259.689 766.562 268.364 769.231Z" fill="#7F000F"/>
<path d="M255.241 763.189C247.675 766.47 240.929 766.47 233.628 758.268C235.638 756.223 237.336 754.248 241.148 756.905C244.336 759.123 247.883 759.943 251.267 761.398C252.284 761.849 253.301 762.323 255.241 763.189Z" fill="#2898FF"/>
<path d="M258.892 745.342C257.228 751.118 248.068 756.778 243.251 755.103C242.766 754.93 242.096 754.41 241.865 753.89C241.657 753.416 241.761 752.319 242.038 752.169C247.236 749.546 252.481 747.017 257.748 744.533C257.968 744.429 258.499 745.053 258.892 745.342Z" fill="#2898FF"/>
<path d="M228.788 721.118C228.776 720.251 228.568 719.212 228.799 718.553C230.301 714.383 237.394 711.426 241.287 713.424C242.049 713.817 243.043 715.076 243.285 716.012C243.47 716.705 242.638 718.288 242.199 718.184C237.128 716.89 232.9 717.964 229.643 722.1C229.354 721.765 229.065 721.441 228.788 721.118Z" fill="#2898FF"/>
<path d="M220.91 725.912C222.007 720.113 222.966 715.041 223.948 709.866C227.875 714.429 226.455 722.92 220.91 725.912Z" fill="#2898FF"/>
<path d="M246.173 720.124C246.762 716.624 247.594 716.174 250.066 719.108C251.614 720.944 252.839 723.451 253.844 725.831C254.248 726.79 253.682 728.187 253.566 729.377C252.735 728.661 251.787 728.107 251.106 727.206C249.5 725.103 248.022 722.816 246.173 720.124Z" fill="#2898FF"/>
<path d="M253.936 740.328C253.959 737.752 253.971 735.188 253.994 732.438C256.743 733.386 258.291 736.077 258.233 738.607C258.21 740.051 256.027 740.733 254.814 741.749C254.525 741.276 254.225 740.802 253.936 740.328Z" fill="#2898FF"/>
<path d="M72.7813 908.706C69.9396 908.579 67.352 908.464 63.794 908.313C65.5499 912.056 66.8437 914.817 68.3685 918.063C59.4737 916.919 54.287 906.754 56.8399 896.357C59.0232 887.451 64.3485 881.155 72.0767 883.084C78.2453 884.632 78.4763 885.106 74.6527 893.181C74.4101 893.712 74.2484 894.428 73.9134 894.74C69.5006 898.864 70.0551 902.78 72.5965 906.719C72.8044 907.031 72.7004 907.724 72.7813 908.706Z" fill="#7F000F"/>
<path d="M91.391 885.672C96.8204 887.543 98.9228 890.177 98.8419 895.583C98.7726 900.608 96.5893 905.437 92.9159 906.685C88.8612 908.059 84.7026 908.533 80.671 908.625C79.6198 908.648 78.1296 905.991 78.1412 904.27C78.1527 899.857 78.8574 895.271 79.3541 890.755C79.666 887.959 80.9367 886.33 82.9352 886.146C85.7653 885.903 88.5724 885.822 91.391 885.672Z" fill="#2898FF"/>
<path d="M76.1312 849.885C76.7896 850.555 77.5058 851.155 78.0834 851.929C78.6263 852.646 79.0307 853.57 79.7007 854.783C80.8327 852.588 81.7915 850.705 82.7503 848.833C83.1315 848.833 83.5243 848.834 83.9055 848.845C83.9517 852.784 83.9979 856.723 84.0441 860.87C85.5227 861.055 87.1515 861.263 89.0345 861.506C82.4846 872.122 73.5898 879.134 67.2017 878.267C75.5998 870.632 76.2351 860.79 75.1955 850.451C75.5189 850.266 75.8193 850.07 76.1312 849.885Z" fill="#7F000F"/>
<path d="M36.6587 931.602C39.1539 930.042 40.852 928.979 42.7811 927.778C41.7299 925.768 41.1061 924.59 40.6209 923.666C46.5701 921.505 52.3229 919.426 58.3182 917.254C58.3529 917.532 58.6532 918.433 58.5724 919.357C57.9948 926.022 50.2551 936.985 45.9463 935.587C43.2778 934.709 40.0087 934.12 36.6587 931.602Z" fill="#7F000F"/>
<path d="M65.3416 921.425C70.9789 926.092 73.1853 933.392 72.6539 942.692C72.134 951.656 69.4194 959.084 66.0347 961.209C66.3582 958.679 66.6701 956.323 67.0282 953.504C65.6882 954.105 64.7178 954.544 62.627 955.479C69.4078 943.003 68.5646 932.156 65.3416 921.425Z" fill="#7F000F"/>
<path d="M48.9155 947.682C50.5443 946.134 52.1385 944.517 53.7904 943.073C57.2212 940.081 60.6868 937.181 64.2447 934.155C65.2382 936.246 65.0302 940.208 63.2281 943.904C60.7792 948.953 57.5793 950.142 49.5278 948.999C49.3314 948.548 49.1235 948.121 48.9155 947.682Z" fill="#7F000F"/>
<path d="M92.0609 942.53C83.1891 946.157 78.6608 942.391 76.1079 931.498C79.9315 930.793 86.5623 935.321 92.0609 942.53Z" fill="#7F000F"/>
<path d="M84.8989 929.984C76.8358 928.252 71.3487 924.324 70.1704 913.408C73.0006 912.911 75.5304 912.299 77.0784 916.677C78.3722 920.339 80.7865 923.065 82.6925 926.219C83.2701 927.166 83.8246 928.148 84.8989 929.984Z" fill="#2898FF"/>
<path d="M98.2527 917.589C93.5396 921.321 82.7965 920.604 79.8508 916.434C79.5505 916.018 79.3079 915.198 79.4349 914.644C79.5389 914.147 80.2667 913.304 80.5786 913.35C86.3313 914.239 92.0726 915.233 97.7907 916.273C98.0217 916.319 98.091 917.127 98.2527 917.589Z" fill="#2898FF"/>
<path d="M87.8447 880.37C88.3415 879.665 88.7689 878.695 89.3464 878.29C92.9968 875.772 100.482 877.493 102.492 881.375C102.885 882.137 102.966 883.743 102.619 884.644C102.365 885.314 100.76 886.122 100.471 885.776C97.0977 881.767 93.0315 880.196 87.9834 881.652C87.9256 881.236 87.8794 880.797 87.8447 880.37Z" fill="#2898FF"/>
<path d="M78.6494 879.688C82.912 875.61 86.6432 872.041 90.4553 868.402C90.9867 874.397 84.8874 880.485 78.6494 879.688Z" fill="#2898FF"/>
<path d="M102.562 889.68C105.08 887.185 106.016 887.301 106.316 891.124C106.512 893.516 106.039 896.277 105.473 898.783C105.242 899.8 103.971 900.608 103.174 901.509C102.92 900.447 102.469 899.442 102.435 898.321C102.377 895.653 102.504 892.938 102.562 889.68Z" fill="#2898FF"/>
<path d="M97.1321 910.624C98.6454 908.544 100.147 906.465 101.764 904.235C103.451 906.603 103.139 909.688 101.626 911.721C100.771 912.876 98.5992 912.16 97.0166 912.298C97.0513 911.744 97.0975 911.19 97.1321 910.624Z" fill="#2898FF"/>
<path d="M84.7603 1043.32C87.3825 1042.23 89.7853 1041.24 93.0775 1039.88C89.9008 1037.22 87.5673 1035.27 84.818 1032.98C93.3663 1030.27 102.354 1037.29 104.433 1047.78C106.212 1056.78 104.052 1064.74 96.2196 1066.25C89.9701 1067.46 89.5658 1067.13 89.612 1058.19C89.612 1057.61 89.4503 1056.88 89.6235 1056.45C91.8761 1050.85 89.7275 1047.54 85.7653 1045.04C85.4534 1044.86 85.2454 1044.17 84.7603 1043.32Z" fill="#7F000F"/>
<path d="M77.621 1072.07C71.9029 1072.66 68.8994 1071.17 66.6815 1066.24C64.6253 1061.65 64.5675 1056.35 67.363 1053.67C70.4589 1050.71 74.0284 1048.53 77.6441 1046.74C78.5913 1046.26 81.0519 1048.06 81.7796 1049.62C83.6279 1053.62 84.9217 1058.07 86.3888 1062.38C87.2898 1065.04 86.8277 1067.06 85.095 1068.06C82.6229 1069.48 80.1046 1070.74 77.621 1072.07Z" fill="#2898FF"/>
<path d="M106.57 1098.05C105.692 1097.72 104.791 1097.47 103.936 1097.02C103.139 1096.6 102.388 1095.94 101.256 1095.12C101.164 1097.59 101.083 1099.69 101.002 1101.81C100.655 1101.97 100.297 1102.13 99.9506 1102.29C98.2409 1098.74 96.5428 1095.2 94.7408 1091.44C93.3199 1091.89 91.7489 1092.4 89.9468 1092.98C91.4023 1080.59 96.4966 1070.48 102.665 1068.57C98.2871 1079.04 101.868 1088.22 107.17 1097.16C106.974 1097.45 106.778 1097.75 106.57 1098.05Z" fill="#7F000F"/>
<path d="M107.829 1007.31C106.223 1009.78 105.137 1011.46 103.89 1013.37C105.692 1014.74 106.755 1015.55 107.586 1016.17C103.104 1020.64 98.7724 1024.95 94.2557 1029.47C94.1055 1029.24 93.4586 1028.54 93.1352 1027.67C90.8364 1021.38 93.2276 1008.17 97.7212 1007.62C100.517 1007.29 103.728 1006.45 107.829 1007.31Z" fill="#7F000F"/>
<path d="M86.135 1028.66C79.0538 1026.81 73.971 1021.13 70.5286 1012.48C67.2132 1004.12 66.5432 996.258 68.7149 992.896C69.4889 995.322 70.2051 997.586 71.0715 1000.3C72.0303 999.192 72.7234 998.383 74.2251 996.662C73.3356 1010.81 78.6725 1020.29 86.135 1028.66Z" fill="#7F000F"/>
<path d="M89.9241 997.91C89.1039 1000 88.3415 1002.14 87.452 1004.16C85.6037 1008.32 83.6861 1012.41 81.7454 1016.66C79.9665 1015.18 78.4878 1011.51 78.5456 1007.39C78.6264 1001.79 81.0408 999.354 88.8151 996.997C89.1847 997.297 89.5544 997.609 89.9241 997.91Z" fill="#7F000F"/>
<path d="M53.0044 1020.81C59.5196 1013.77 65.203 1015.27 72.1225 1024.06C68.9458 1026.33 61.0329 1025.02 53.0044 1020.81Z" fill="#7F000F"/>
<path d="M64.7871 1029.15C72.8271 1027.31 79.4578 1028.54 85.1297 1037.95C82.7732 1039.59 80.7401 1041.22 77.4825 1037.9C74.7563 1035.13 71.4294 1033.67 68.3682 1031.63C67.4556 1031.02 66.543 1030.36 64.7871 1029.15Z" fill="#2898FF"/>
<path d="M57.9253 1046.02C60.6169 1040.65 70.6669 1036.76 75.0912 1039.3C75.5417 1039.55 76.0962 1040.19 76.2233 1040.74C76.3388 1041.24 76.0269 1042.31 75.7381 1042.4C70.147 1044.02 64.5329 1045.55 58.8956 1047.02C58.6646 1047.09 58.2603 1046.38 57.9253 1046.02Z" fill="#2898FF"/>
<path d="M83.085 1075.36C82.9348 1076.22 82.958 1077.28 82.5998 1077.88C80.3588 1081.71 72.8386 1083.31 69.3846 1080.63C68.7031 1080.1 67.9522 1078.69 67.8945 1077.72C67.8483 1077 68.9572 1075.59 69.3615 1075.79C74.1093 1078 78.4643 1077.71 82.4266 1074.24C82.6345 1074.62 82.854 1074.99 83.085 1075.36Z" fill="#2898FF"/>
<path d="M91.6914 1072.09C89.5427 1077.59 87.6713 1082.41 85.7653 1087.31C82.7503 1082.11 85.7075 1074.01 91.6914 1072.09Z" fill="#2898FF"/>
<path d="M65.8039 1073.15C64.5794 1076.47 63.6899 1076.76 61.7954 1073.42C60.6056 1071.33 59.8663 1068.64 59.3234 1066.12C59.1039 1065.11 59.9125 1063.84 60.2475 1062.68C60.9291 1063.54 61.7608 1064.25 62.2691 1065.26C63.4473 1067.65 64.4754 1070.17 65.8039 1073.15Z" fill="#2898FF"/>
<path d="M61.8761 1051.87C61.3909 1054.39 60.8942 1056.92 60.3743 1059.61C57.8445 1058.17 56.8164 1055.24 57.3362 1052.77C57.625 1051.36 59.8892 1051.08 61.2638 1050.31C61.4718 1050.82 61.6797 1051.35 61.8761 1051.87Z" fill="#2898FF"/>
<path d="M194.306 875.102C196.593 876.777 198.695 878.325 201.56 880.427C202.184 876.338 202.634 873.323 203.177 869.788C209.935 875.679 208.595 887.012 200.694 894.232C193.924 900.423 186 902.699 180.651 896.796C176.377 892.083 176.458 891.563 184.117 886.966C184.614 886.665 185.145 886.145 185.596 886.076C191.556 885.094 193.277 881.536 193.347 876.858C193.347 876.477 193.832 875.957 194.306 875.102Z" fill="#7F000F"/>
<path d="M166.027 883.904C162.55 879.33 162.273 875.98 165.345 871.521C168.199 867.374 172.704 864.578 176.447 865.583C180.582 866.692 184.302 868.61 187.71 870.77C188.599 871.336 188.356 874.363 187.398 875.795C184.937 879.457 181.795 882.876 178.872 886.353C177.07 888.502 175.095 889.149 173.339 888.19C170.832 886.839 168.453 885.337 166.027 883.904Z" fill="#2898FF"/>
<path d="M158.819 922.141C158.645 921.217 158.391 920.327 158.333 919.345C158.287 918.444 158.46 917.462 158.576 916.065C156.416 917.266 154.567 918.294 152.731 919.311C152.407 919.091 152.095 918.883 151.772 918.664C153.921 915.371 156.069 912.068 158.345 908.591C157.224 907.609 155.977 906.534 154.556 905.287C165.9 900.1 177.197 899.211 182.026 903.496C170.798 905.183 164.802 913.003 159.916 922.175C159.546 922.164 159.188 922.152 158.819 922.141Z" fill="#7F000F"/>
<path d="M237.059 876.142C234.113 876.049 232.126 875.992 229.839 875.922C229.596 878.175 229.457 879.503 229.353 880.543C223.208 879.03 217.27 877.563 211.079 876.038C211.206 875.795 211.46 874.883 212.037 874.155C216.219 868.934 228.753 864.128 231.56 867.674C233.281 869.881 235.672 872.191 237.059 876.142Z" fill="#7F000F"/>
<path d="M207.555 868.656C205.464 861.644 207.682 854.344 213.297 846.916C218.714 839.754 225.102 835.087 229.099 835.214C227.424 837.132 225.853 838.922 223.993 841.059C225.437 841.302 226.489 841.487 228.741 841.868C216.173 848.464 210.848 857.948 207.555 868.656Z" fill="#7F000F"/>
<path d="M235.811 855.961C233.605 856.342 231.375 856.804 229.192 857.082C224.675 857.659 220.181 858.144 215.538 858.687C215.884 856.4 218.252 853.223 221.799 851.144C226.639 848.314 229.966 849.099 236.019 854.529C235.938 855.002 235.88 855.488 235.811 855.961Z" fill="#7F000F"/>
<path d="M197.078 836.265C206.469 838.183 208.133 843.832 204.205 854.309C200.636 852.761 197.644 845.322 197.078 836.265Z" fill="#7F000F"/>
<path d="M196.061 850.67C201.803 856.585 204.182 862.904 199.088 872.63C196.466 871.464 194.017 870.574 195.16 866.069C196.119 862.303 195.634 858.699 195.796 855.014C195.842 853.916 195.934 852.796 196.061 850.67Z" fill="#2898FF"/>
<path d="M178.075 853.558C184.059 853.073 192.596 859.646 192.723 864.752C192.734 865.26 192.48 866.08 192.076 866.473C191.706 866.831 190.632 867.12 190.413 866.912C186.127 862.973 181.899 858.964 177.729 854.91C177.544 854.748 177.937 854.02 178.075 853.558Z" fill="#2898FF"/>
<path d="M166.038 890.281C165.229 890.593 164.34 891.159 163.635 891.17C159.211 891.228 153.932 885.637 154.429 881.294C154.521 880.439 155.353 879.064 156.138 878.51C156.727 878.094 158.506 878.313 158.553 878.764C159.13 883.962 161.625 887.543 166.65 889.126C166.442 889.519 166.234 889.9 166.038 890.281Z" fill="#2898FF"/>
<path d="M173.293 895.953C167.482 896.97 162.388 897.871 157.213 898.772C160.101 893.493 168.557 891.829 173.293 895.953Z" fill="#2898FF"/>
<path d="M158.969 874.363C155.491 875.045 154.775 874.432 156.647 871.082C157.813 868.992 159.743 866.958 161.602 865.179C162.353 864.463 163.855 864.498 165.022 864.186C164.652 865.214 164.467 866.3 163.867 867.247C162.446 869.488 160.828 871.683 158.969 874.363Z" fill="#2898FF"/>
<path d="M175.129 859.969C172.715 860.859 170.312 861.748 167.736 862.707C167.655 859.796 169.619 857.405 172.01 856.562C173.374 856.077 174.771 857.879 176.158 858.641C175.811 859.08 175.476 859.519 175.129 859.969Z" fill="#2898FF"/>
<path d="M170.116 995.853C170.867 993.115 171.56 990.608 172.496 987.178C168.453 988.055 165.472 988.702 161.972 989.476C165.068 981.067 176.123 978.271 185.699 983.065C193.901 987.178 198.857 993.762 195.253 1000.88C192.376 1006.55 191.868 1006.67 184.833 1001.16C184.371 1000.8 183.701 1000.49 183.47 1000.09C180.432 994.871 176.493 994.536 172.091 996.142C171.756 996.257 171.086 995.991 170.116 995.853Z" fill="#7F000F"/>
<path d="M188.449 1019.13C185.411 1024 182.384 1025.47 177.128 1024.19C172.242 1023 168.025 1019.8 167.621 1015.94C167.182 1011.68 167.644 1007.52 168.453 1003.57C168.661 1002.53 171.583 1001.68 173.258 1002.07C177.556 1003.06 181.864 1004.77 186.162 1006.26C188.819 1007.19 190.124 1008.78 189.858 1010.78C189.465 1013.59 188.923 1016.35 188.449 1019.13Z" fill="#2898FF"/>
<path d="M226.732 1012.2C225.923 1012.68 225.184 1013.25 224.294 1013.64C223.474 1014.01 222.492 1014.2 221.152 1014.59C223.047 1016.18 224.664 1017.54 226.27 1018.89C226.177 1019.26 226.096 1019.64 226.004 1020.01C222.157 1019.18 218.31 1018.34 214.244 1017.47C213.736 1018.86 213.17 1020.41 212.511 1022.19C203.617 1013.45 198.753 1003.21 201.029 997.17C206.609 1007.06 216.058 1009.85 226.374 1011.15C226.501 1011.52 226.616 1011.86 226.732 1012.2Z" fill="#7F000F"/>
<path d="M155.838 955.549C156.809 958.333 157.456 960.216 158.207 962.364C160.401 961.787 161.684 961.44 162.7 961.175C163.474 967.459 164.237 973.523 165.022 979.854C164.745 979.831 163.809 979.912 162.92 979.634C156.543 977.59 147.579 967.597 149.901 963.716C151.322 961.313 152.639 958.252 155.838 955.549Z" fill="#7F000F"/>
<path d="M159.373 985.78C153.574 990.239 145.962 990.77 137.021 988.171C128.391 985.676 121.761 981.367 120.444 977.601C122.835 978.479 125.065 979.299 127.733 980.281C127.444 978.849 127.236 977.798 126.786 975.557C137.436 984.937 148.191 986.531 159.373 985.78Z" fill="#7F000F"/>
<path d="M137.425 963.924C138.569 965.853 139.793 967.771 140.844 969.711C143.005 973.72 145.061 977.74 147.221 981.887C144.957 982.384 141.145 981.298 137.945 978.733C133.567 975.221 133.116 971.837 136.027 964.247C136.489 964.132 136.951 964.028 137.425 963.924Z" fill="#7F000F"/>
<path d="M132.862 1007.13C131.303 997.667 135.981 994.097 147.163 994.028C147.002 997.909 141.11 1003.37 132.862 1007.13Z" fill="#7F000F"/>
<path d="M146.678 1002.93C150.155 995.46 155.214 990.978 166.108 992.26C165.958 995.125 165.992 997.724 161.383 998.267C157.525 998.718 154.325 1000.46 150.836 1001.62C149.785 1001.98 148.711 1002.3 146.678 1002.93Z" fill="#2898FF"/>
<path d="M155.792 1018.71C153.205 1013.3 156.289 1002.97 161.014 1001.03C161.487 1000.83 162.331 1000.77 162.85 1001.02C163.312 1001.24 163.971 1002.13 163.855 1002.41C161.707 1007.83 159.466 1013.2 157.178 1018.55C157.098 1018.77 156.277 1018.67 155.792 1018.71Z" fill="#2898FF"/>
<path d="M194.398 1016.84C194.976 1017.49 195.831 1018.11 196.085 1018.77C197.725 1022.88 194.387 1029.82 190.147 1030.9C189.315 1031.11 187.733 1030.83 186.936 1030.3C186.335 1029.9 185.908 1028.16 186.312 1027.96C190.967 1025.56 193.416 1021.95 193.104 1016.69C193.543 1016.73 193.971 1016.78 194.398 1016.84Z" fill="#2898FF"/>
<path d="M197.101 1008.03C200.128 1013.1 202.785 1017.52 205.476 1022.04C199.516 1021.24 194.941 1013.94 197.101 1008.03Z" fill="#2898FF"/>
<path d="M182.049 1029.12C183.932 1032.13 183.609 1033.01 179.808 1032.46C177.428 1032.11 174.852 1031.05 172.53 1029.94C171.595 1029.49 171.086 1028.08 170.382 1027.1C171.468 1027.09 172.554 1026.87 173.663 1027.09C176.262 1027.61 178.884 1028.35 182.049 1029.12Z" fill="#2898FF"/>
<path d="M162.839 1019.16C164.537 1021.09 166.223 1023.03 168.037 1025.1C165.345 1026.22 162.411 1025.23 160.771 1023.31C159.835 1022.21 161.013 1020.26 161.233 1018.69C161.764 1018.85 162.296 1019 162.839 1019.16Z" fill="#2898FF"/>
<path d="M270.166 926.323C267.717 924.89 265.465 923.574 262.392 921.783C262.207 925.919 262.069 928.957 261.895 932.538C254.56 927.386 254.71 915.972 261.803 907.967C267.891 901.105 275.526 898.01 281.475 903.323C286.223 907.563 286.2 908.083 279.061 913.454C278.599 913.801 278.125 914.367 277.675 914.494C271.853 916.088 270.513 919.808 270.929 924.475C270.975 924.844 270.548 925.422 270.166 926.323Z" fill="#7F000F"/>
<path d="M297.371 914.609C301.298 918.791 301.934 922.106 299.346 926.854C296.943 931.267 292.761 934.525 288.926 933.912C284.698 933.242 280.794 931.717 277.19 929.927C276.242 929.453 276.173 926.415 276.97 924.902C279.038 920.997 281.799 917.278 284.34 913.512C285.911 911.178 287.794 910.335 289.654 911.109C292.276 912.195 294.806 913.431 297.371 914.609Z" fill="#2898FF"/>
<path d="M300.536 875.83C300.801 876.731 301.159 877.597 301.309 878.556C301.448 879.446 301.379 880.439 301.413 881.837C303.435 880.416 305.168 879.203 306.889 877.99C307.224 878.175 307.571 878.348 307.906 878.533C306.115 882.033 304.313 885.545 302.43 889.242C303.643 890.096 304.995 891.044 306.542 892.13C295.799 898.471 284.663 900.539 279.419 896.785C290.405 893.932 295.545 885.522 299.45 875.899C299.808 875.888 300.177 875.853 300.536 875.83Z" fill="#7F000F"/>
<path d="M227.54 929.754C230.474 929.534 232.461 929.396 234.737 929.222C234.737 926.958 234.737 925.63 234.737 924.579C241.009 925.445 247.063 926.277 253.393 927.155C253.3 927.409 253.139 928.344 252.642 929.13C249.026 934.767 237.07 940.855 233.905 937.609C231.941 935.587 229.331 933.543 227.54 929.754Z" fill="#7F000F"/>
<path d="M257.655 934.108C260.474 940.866 259.019 948.352 254.213 956.334C249.581 964.027 243.712 969.33 239.727 969.63C241.194 967.539 242.557 965.598 244.198 963.277C242.731 963.184 241.668 963.115 239.392 962.965C251.198 955.098 255.518 945.117 257.655 934.108Z" fill="#7F000F"/>
<path d="M230.89 949.692C233.05 949.08 235.21 948.386 237.359 947.878C241.783 946.827 246.208 945.88 250.771 944.852C250.667 947.162 248.645 950.57 245.33 953.007C240.813 956.334 237.417 955.895 230.844 951.124C230.855 950.651 230.878 950.177 230.89 949.692Z" fill="#7F000F"/>
<path d="M271.46 965.229C261.918 964.305 259.677 958.864 262.484 948.028C266.204 949.195 269.958 956.288 271.46 965.229Z" fill="#7F000F"/>
<path d="M270.975 950.801C264.644 945.51 261.618 939.48 265.673 929.28C268.399 930.158 270.929 930.794 270.259 935.391C269.704 939.238 270.559 942.773 270.778 946.446C270.848 947.544 270.882 948.676 270.975 950.801Z" fill="#2898FF"/>
<path d="M288.557 946.053C282.654 947.151 273.47 941.514 272.812 936.454C272.742 935.946 272.904 935.114 273.274 934.675C273.597 934.282 274.637 933.878 274.891 934.063C279.569 937.528 284.19 941.075 288.765 944.667C288.961 944.817 288.637 945.568 288.557 946.053Z" fill="#2898FF"/>
<path d="M296.689 908.268C297.463 907.875 298.294 907.216 298.988 907.136C303.389 906.616 309.211 911.618 309.176 915.996C309.165 916.851 308.495 918.306 307.767 918.941C307.224 919.415 305.433 919.38 305.341 918.941C304.221 913.835 301.367 910.532 296.204 909.48C296.365 909.065 296.527 908.672 296.689 908.268Z" fill="#2898FF"/>
<path d="M288.88 903.381C294.552 901.764 299.519 900.343 304.579 898.899C302.268 904.455 294.032 906.997 288.88 903.381Z" fill="#2898FF"/>
<path d="M305.387 923.365C308.784 922.326 309.546 922.857 308.044 926.392C307.097 928.598 305.399 930.816 303.735 932.78C303.065 933.577 301.564 933.693 300.432 934.12C300.697 933.057 300.767 931.96 301.263 930.955C302.43 928.564 303.816 926.219 305.387 923.365Z" fill="#2898FF"/>
<path d="M290.809 939.365C293.119 938.221 295.418 937.089 297.879 935.876C298.272 938.764 296.562 941.34 294.275 942.437C292.981 943.061 291.387 941.421 289.931 940.797C290.231 940.323 290.52 939.85 290.809 939.365Z" fill="#2898FF"/>
<path d="M194.536 1105.87C192.087 1104.44 189.835 1103.12 186.762 1101.33C186.577 1105.47 186.439 1108.51 186.265 1112.09C178.93 1106.93 179.08 1095.52 186.173 1087.52C192.261 1080.65 199.896 1077.56 205.846 1082.87C210.593 1087.11 210.57 1087.63 203.431 1093C202.969 1093.35 202.496 1093.92 202.045 1094.04C196.223 1095.64 194.883 1099.36 195.299 1104.02C195.333 1104.41 194.918 1104.98 194.536 1105.87Z" fill="#7F000F"/>
<path d="M221.741 1094.16C225.669 1098.34 226.304 1101.66 223.717 1106.4C221.314 1110.82 217.132 1114.07 213.297 1113.46C209.069 1112.79 205.164 1111.27 201.56 1109.48C200.613 1109 200.544 1105.96 201.341 1104.45C203.409 1100.55 206.169 1096.83 208.711 1093.06C210.282 1090.73 212.165 1089.88 214.025 1090.66C216.647 1091.74 219.177 1092.99 221.741 1094.16Z" fill="#2898FF"/>
<path d="M224.906 1055.39C225.172 1056.29 225.53 1057.16 225.68 1058.12C225.819 1059.01 225.749 1060 225.784 1061.4C227.806 1059.98 229.538 1058.76 231.26 1057.55C231.595 1057.74 231.941 1057.91 232.276 1058.09C230.486 1061.59 228.684 1065.11 226.801 1068.8C228.014 1069.66 229.365 1070.6 230.913 1071.69C220.17 1078.03 209.034 1080.1 203.79 1076.35C214.775 1073.49 219.916 1065.08 223.82 1055.46C224.178 1055.44 224.536 1055.41 224.906 1055.39Z" fill="#7F000F"/>
<path d="M151.911 1109.3C154.845 1109.08 156.832 1108.95 159.107 1108.77C159.107 1106.51 159.107 1105.18 159.107 1104.13C165.38 1104.99 171.433 1105.83 177.763 1106.7C177.671 1106.96 177.509 1107.89 177.013 1108.68C173.397 1114.32 161.441 1120.4 158.276 1117.16C156.312 1115.15 153.69 1113.09 151.911 1109.3Z" fill="#7F000F"/>
<path d="M182.026 1113.67C184.845 1120.43 183.389 1127.91 178.584 1135.9C173.951 1143.59 168.083 1148.89 164.098 1149.19C165.565 1147.1 166.928 1145.16 168.568 1142.84C167.101 1142.75 166.038 1142.68 163.763 1142.53C175.569 1134.65 179.877 1124.67 182.026 1113.67Z" fill="#7F000F"/>
<path d="M155.261 1129.25C157.421 1128.64 159.581 1127.95 161.73 1127.44C166.154 1126.39 170.578 1125.44 175.141 1124.41C175.037 1126.72 173.016 1130.13 169.7 1132.57C165.184 1135.9 161.787 1135.46 155.214 1130.69C155.226 1130.21 155.237 1129.73 155.261 1129.25Z" fill="#7F000F"/>
<path d="M195.831 1144.79C186.289 1143.87 184.048 1138.43 186.855 1127.59C190.574 1128.76 194.329 1135.85 195.831 1144.79Z" fill="#7F000F"/>
<path d="M195.334 1130.35C189.003 1125.06 185.977 1119.03 190.031 1108.83C192.758 1109.71 195.287 1110.34 194.617 1114.94C194.063 1118.79 194.918 1122.32 195.137 1126C195.218 1127.1 195.241 1128.22 195.334 1130.35Z" fill="#2898FF"/>
<path d="M212.927 1125.6C207.024 1126.7 197.841 1121.06 197.182 1116C197.113 1115.5 197.275 1114.66 197.644 1114.22C197.968 1113.83 199.007 1113.43 199.261 1113.61C203.94 1117.08 208.561 1120.62 213.135 1124.22C213.32 1124.37 213.008 1125.13 212.927 1125.6Z" fill="#2898FF"/>
<path d="M221.059 1087.82C221.833 1087.42 222.665 1086.77 223.358 1086.68C227.759 1086.17 233.581 1091.17 233.547 1095.55C233.535 1096.4 232.865 1097.86 232.138 1098.49C231.595 1098.96 229.804 1098.93 229.712 1098.49C228.591 1093.38 225.738 1090.08 220.574 1089.03C220.736 1088.63 220.898 1088.22 221.059 1087.82Z" fill="#2898FF"/>
<path d="M213.25 1082.94C218.922 1081.32 223.89 1079.9 228.949 1078.46C226.627 1084 218.403 1086.55 213.25 1082.94Z" fill="#2898FF"/>
<path d="M229.746 1102.91C233.142 1101.88 233.905 1102.41 232.403 1105.94C231.456 1108.15 229.758 1110.37 228.094 1112.33C227.424 1113.13 225.923 1113.24 224.791 1113.67C225.056 1112.61 225.126 1111.51 225.622 1110.5C226.801 1108.12 228.175 1105.78 229.746 1102.91Z" fill="#2898FF"/>
<path d="M215.18 1118.93C217.49 1117.78 219.789 1116.65 222.249 1115.44C222.642 1118.33 220.932 1120.9 218.645 1122C217.351 1122.62 215.757 1120.98 214.302 1120.36C214.602 1119.87 214.891 1119.4 215.18 1118.93Z" fill="#2898FF"/>
<path d="M68.4015 322.959C67.6287 323.664 67.0651 324.171 66.5014 324.689C65.3014 321.509 66.0469 318.142 68.3833 315.656C70.2651 313.647 72.0833 313.636 73.3925 316.588C74.5743 319.24 75.6289 322.503 75.7561 325.59C76.0834 333.619 74.3743 340.922 70.5742 346.837C68.0015 350.846 64.7832 352.265 60.8104 350.846C60.8104 352.431 60.8104 353.767 60.8104 355.103C60.8104 399.388 60.8104 443.662 60.8104 487.947C60.8104 494.794 60.8013 501.631 60.8195 508.478C60.8286 511.389 60.6377 514.207 62.0014 516.9C63.1468 519.169 62.3196 522.971 60.7104 524.452C58.9831 526.047 57.1922 526.068 55.6013 523.996C54.074 522.007 53.9103 518.9 54.8194 516.206C55.374 514.57 55.8467 512.663 55.8467 510.871C55.9013 457.129 55.9013 403.386 55.8376 349.644C55.8376 347.81 55.2285 345.749 54.5194 344.174C51.4285 337.317 50.7194 329.589 50.6466 321.654C50.5466 310 52.383 298.833 54.6831 287.77C55.374 284.465 55.8195 280.902 55.8467 277.452C55.9558 258.392 55.8922 239.331 55.8922 220.281C55.8922 211.776 55.3649 203.365 53.0103 195.523C52.2558 193.006 50.9467 190.81 49.7194 188.696C49.3375 188.033 48.3648 188.116 48.083 188.013C48.083 190.727 48.4284 193.047 48.0012 194.984C47.3375 197.957 45.0738 198.092 43.8465 195.533C42.4011 192.529 42.8011 187.163 44.692 184.097C46.4466 181.248 49.7012 180.368 51.8558 182.408C55.9831 186.324 58.6195 192.25 61.2286 198.185C62.1832 200.361 62.9923 202.671 63.4468 203.841C62.5196 206.794 61.8195 208.772 61.2832 210.844C61.0104 211.88 60.9377 213.081 60.9377 214.211C60.9195 230.412 60.9195 246.614 60.9195 263.778C61.6195 261.727 62.1196 260.443 62.5196 259.096C66.9742 243.962 71.5742 228.91 75.8016 213.63C78.9562 202.246 77.138 195.098 70.1106 188.313C63.3923 181.828 55.774 178.545 48.3012 174.722C42.6374 171.832 36.9737 169.076 32.0464 163.7C21.5735 152.274 20.0098 137.368 28.319 122.513C31.6282 116.608 35.8101 111.791 39.5101 106.353C40.0828 105.514 40.6374 103.856 40.4738 102.831C35.7555 73.4837 43.0647 50.176 57.3104 30.8254C66.6742 18.0735 78.3016 11.6716 90.6018 7.9942C105.393 3.58127 120.22 3.0944 134.975 8.33604C137.857 9.36158 140.757 10.9258 143.321 13.0805C152.503 20.7772 153.176 34.0885 145.166 44.3335C139.639 51.4087 133.248 56.3707 126.821 61.2498C116.511 69.0708 106.529 77.5444 98.9656 91.0111C98.4747 91.8813 98.0019 92.7618 97.6474 93.4144C103.138 98.2106 108.575 102.945 114.466 108.093C117.639 103.514 121.348 98.5939 124.73 93.2072C136.993 73.6909 149.075 53.9156 161.376 34.4614C169.249 22.0099 177.894 10.8222 188.558 3.84024C191.522 1.90311 194.822 0.701469 198.04 0.111006C201.613 -0.531251 204.785 1.61306 206.558 6.5543C208.44 11.7959 207.931 17.1723 205.467 21.637C203.294 25.5838 200.585 28.8676 198.185 32.545C195.676 36.3882 193.185 40.2832 190.812 44.3025C189.912 45.8149 189.194 47.6691 188.685 49.5441C188.376 50.6629 188.303 52.5378 188.74 53.2941C189.176 54.0503 190.549 54.3921 191.212 53.9363C193.776 52.1856 196.367 50.3728 198.667 47.9799C201.676 44.8515 204.395 41.1015 207.295 37.7141C208.495 36.3157 209.785 35.0208 211.14 33.9642C214.976 30.9497 219.131 32.7729 221.186 38.4703C221.804 40.1796 222.377 40.9876 223.758 40.9772C233.595 40.9254 243.431 41.0601 253.268 40.9669C254.459 40.9565 255.695 40.076 256.813 39.2783C258.659 37.9524 260.377 37.8695 261.941 39.9413C263.432 41.9095 263.705 45.214 262.586 47.7416C261.495 50.2174 259.623 51.6884 258.05 50.1553C255.059 47.2133 251.868 48.0213 248.741 47.9695C240.286 47.8142 231.84 47.9799 223.386 48.0317C223.086 48.0317 222.786 48.1353 222.404 48.1974C221.704 53.667 219.731 57.4273 215.858 58.2249C213.467 58.7222 211.104 58.6393 209.195 54.62C210.304 54.4232 211.058 54.2056 211.822 54.1642C214.158 54.0192 215.567 51.7713 215.386 48.4357C215.195 44.9654 213.513 42.7072 211.249 44.0124C207.922 45.9288 204.713 48.4875 201.676 51.2948C196.003 56.5261 190.54 62.2649 184.876 67.5169C183.149 69.1226 181.121 70.2206 179.13 70.894C175.367 72.1785 172.321 68.6772 172.703 62.9797C172.958 59.1987 174.085 55.3348 175.385 51.9888C176.903 48.0731 179.14 44.7893 180.876 41.0394C181.894 38.8329 183.194 35.922 181.667 33.5602C180.094 31.1362 177.876 32.6279 176.367 34.2439C170.639 40.3557 164.594 46.0428 159.512 53.2112C149.603 67.1751 140.248 82.0092 130.693 96.5118C126.721 102.541 122.802 108.652 118.775 114.858C120.457 118.286 122.257 121.529 123.748 125.051C126.893 132.489 128.884 140.537 127.475 149.415C125.621 161.1 119.666 166.393 112.439 169.128C103.657 172.443 95.011 170.765 86.5927 166.425C70.6288 158.2 57.374 144.35 47.4102 123.932C45.8466 120.731 44.5829 117.199 43.1829 113.811C38.5465 119.208 37.8555 125.921 41.2101 133.359C44.3556 140.33 48.7012 145.499 53.4103 149.819C60.465 156.283 67.7015 162.312 74.9198 168.362C83.2562 175.344 86.2836 184.739 83.4926 198.392C81.3835 208.72 78.4562 218.675 75.7743 228.734C69.5833 252 63.8469 275.474 62.0559 300.542C61.5832 307.183 61.665 313.957 61.8741 320.649C61.9468 323.084 62.9468 325.622 63.8832 327.766C64.7923 329.838 66.4105 331.36 68.0196 329.589C69.4651 327.994 69.456 325.497 68.4015 322.959ZM73.9561 97.154C73.1015 97.2783 72.0924 97.268 71.147 97.6098C66.756 99.2051 62.3559 100.769 58.0104 102.592C54.8285 103.918 54.6558 104.24 56.0831 108.601C62.8741 129.391 73.3561 144.412 88.2018 151.974C96.0019 155.941 104.129 156.967 112.293 154.771C116.048 153.766 118.939 150.772 120.03 144.857C121.439 137.15 118.857 125.527 114.511 120.493C113.802 121.332 113.093 122.181 112.366 123.031C106.975 129.329 101.375 135.161 94.6473 137.896C82.429 142.858 70.7288 129.888 71.6106 112.154C71.8379 107.244 73.0924 102.458 73.9561 97.154ZM53.8558 95.3101C61.4286 91.498 68.8015 89.5194 76.3834 89.1465C77.0925 89.1154 77.9653 88.3489 78.4289 87.5098C80.338 84.0913 82.138 80.5382 83.929 76.9747C87.2563 70.376 90.4291 63.6427 91.5837 55.3659C93.1655 44.0538 88.6381 37.0097 80.938 38.7915C73.5652 40.4903 67.8742 46.426 63.2832 54.8375C60.0286 60.8043 57.774 67.5066 57.7195 75.3898C57.6831 80.1549 58.6377 81.2219 61.6832 80.3621C62.0196 83.5941 61.3559 86.2356 59.5741 88.1417C57.5831 90.2757 55.6104 89.9234 53.5558 87.1472C53.674 90.1203 53.7558 92.4717 53.8558 95.3101ZM93.3382 64.3989C96.7383 58.7015 100.093 53.8017 102.829 48.2182C104.484 44.8411 105.566 40.5525 106.211 36.4296C107.284 29.5823 105.257 25.0244 100.757 22.7247C96.5928 20.5907 92.3109 20.3007 88.0291 21.5956C78.738 24.4132 71.4561 32.141 65.4651 42.6761C63.1832 46.6747 61.3104 51.1808 58.8922 56.2049C62.8105 50.4453 65.9742 44.9965 69.6833 40.5421C74.5197 34.7308 80.0107 30.5354 86.5836 31.4677C93.3291 32.4207 97.0474 39.0815 96.0655 48.9847C95.5746 53.8638 94.3837 58.5875 93.3382 64.3989ZM99.411 16.3643C102.229 17.1515 105.293 17.6073 108.175 18.9022C113.184 21.1605 115.102 26.744 113.429 34.0885C112.684 37.3827 111.466 40.4903 110.22 43.4634C109.002 46.3535 107.484 48.9536 106.093 51.6884C106.22 51.906 106.348 52.1235 106.475 52.341C113.484 45.4627 120.511 38.6257 127.484 31.6748C128.348 30.8151 129.03 29.4477 129.657 28.1735C131.393 24.6411 131.03 21.3573 128.466 19.2855C126.875 18.001 125.102 17.0065 123.33 16.4678C115.639 14.1578 107.893 15.0487 100.157 15.981C99.802 16.0224 99.4656 16.3332 99.411 16.3643ZM94.211 100.003C93.1746 103.276 91.8928 106.208 91.32 109.429C90.6473 113.179 90.1745 117.219 90.3927 121.031C90.6564 125.579 93.1837 127.609 96.1019 126.232C101.447 123.714 105.693 118.556 110.111 113.304C105.42 107.14 100.275 103.09 94.211 100.003ZM196.503 12.49C199.231 18.0631 198.649 23.543 197.64 29.2612C199.558 26.3089 201.385 23.3773 202.704 20.0003C203.331 18.3946 203.585 15.3284 202.958 14.0646C202.24 12.6143 200.394 12.2517 198.976 11.7856C198.313 11.5577 197.513 12.1689 196.503 12.49Z" fill="#2898FF"/>
<path d="M355.389 916.645C356.161 915.94 356.725 915.433 357.289 914.915C358.489 918.095 357.743 921.462 355.407 923.948C353.525 925.957 351.707 925.968 350.398 923.016C349.216 920.364 348.161 917.101 348.034 914.014C347.707 905.985 349.416 898.682 353.216 892.767C355.789 888.758 359.007 887.339 362.98 888.758C362.98 887.173 362.98 885.837 362.98 884.501C362.98 840.216 362.98 795.942 362.98 751.657C362.98 744.81 362.989 737.973 362.971 731.126C362.961 728.215 363.152 725.397 361.789 722.704C360.643 720.435 361.47 716.633 363.08 715.152C364.807 713.557 366.598 713.536 368.189 715.608C369.716 717.597 369.88 720.704 368.971 723.398C368.416 725.034 367.943 726.941 367.943 728.733C367.889 782.475 367.889 836.218 367.952 889.96C367.952 891.794 368.562 893.855 369.271 895.43C372.362 902.287 373.071 910.015 373.143 917.95C373.243 929.604 371.407 940.771 369.107 951.834C368.416 955.139 367.971 958.702 367.943 962.152C367.834 981.212 367.898 1000.27 367.898 1019.32C367.898 1027.83 368.425 1036.24 370.78 1044.08C371.534 1046.6 372.843 1048.79 374.071 1050.91C374.453 1051.57 375.425 1051.49 375.707 1051.59C375.707 1048.88 375.362 1046.56 375.789 1044.62C376.453 1041.65 378.716 1041.51 379.943 1044.07C381.389 1047.07 380.989 1052.44 379.098 1055.51C377.343 1058.36 374.089 1059.24 371.934 1057.2C367.807 1053.28 365.171 1047.35 362.561 1041.42C361.607 1039.24 360.798 1036.93 360.343 1035.76C361.27 1032.81 361.97 1030.83 362.507 1028.76C362.78 1027.72 362.852 1026.52 362.852 1025.39C362.871 1009.19 362.871 992.99 362.871 975.826C362.17 977.877 361.67 979.161 361.27 980.508C356.816 995.642 352.216 1010.69 347.988 1025.97C344.834 1037.36 346.652 1044.51 353.679 1051.29C360.398 1057.78 368.016 1061.06 375.489 1064.88C381.153 1067.77 386.816 1070.53 391.744 1075.9C402.217 1087.33 403.78 1102.24 395.471 1117.09C392.162 1123 387.98 1127.81 384.28 1133.25C383.707 1134.09 383.153 1135.75 383.316 1136.77C388.035 1166.12 380.725 1189.43 366.48 1208.78C357.116 1221.53 345.488 1227.93 333.188 1231.61C318.397 1236.02 303.57 1236.51 288.815 1231.27C285.933 1230.24 283.033 1228.68 280.469 1226.52C271.287 1218.83 270.615 1205.52 278.624 1195.27C284.151 1188.2 290.542 1183.23 296.969 1178.35C307.279 1170.53 317.261 1162.06 324.824 1148.59C325.315 1147.72 325.788 1146.84 326.143 1146.19C320.652 1141.39 315.215 1136.66 309.324 1131.51C306.151 1136.09 302.442 1141.01 299.06 1146.4C286.797 1165.91 274.715 1185.69 262.414 1205.14C254.542 1217.59 245.896 1228.78 235.232 1235.76C232.268 1237.7 228.968 1238.9 225.75 1239.49C222.177 1240.14 219.005 1237.99 217.232 1233.05C215.35 1227.81 215.859 1222.43 218.323 1217.97C220.496 1214.02 223.205 1210.74 225.605 1207.06C228.114 1203.22 230.605 1199.32 232.978 1195.3C233.878 1193.79 234.596 1191.93 235.105 1190.06C235.414 1188.94 235.487 1187.07 235.05 1186.31C234.614 1185.55 233.241 1185.21 232.578 1185.67C230.014 1187.42 227.423 1189.23 225.123 1191.62C222.114 1194.75 219.396 1198.5 216.495 1201.89C215.295 1203.29 214.005 1204.58 212.65 1205.64C208.814 1208.65 204.659 1206.83 202.604 1201.13C201.986 1199.42 201.413 1198.62 200.032 1198.63C190.195 1198.68 180.359 1198.54 170.522 1198.64C169.331 1198.65 168.095 1199.53 166.977 1200.33C165.131 1201.65 163.413 1201.73 161.849 1199.66C160.358 1197.69 160.086 1194.39 161.204 1191.86C162.295 1189.39 164.167 1187.92 165.74 1189.45C168.731 1192.39 171.922 1191.58 175.049 1191.63C183.504 1191.79 191.95 1191.62 200.404 1191.57C200.704 1191.57 201.004 1191.47 201.386 1191.41C202.086 1185.94 204.059 1182.18 207.932 1181.38C210.323 1180.88 212.686 1180.96 214.595 1184.98C213.486 1185.18 212.732 1185.4 211.968 1185.44C209.632 1185.58 208.223 1187.83 208.404 1191.17C208.595 1194.64 210.277 1196.9 212.541 1195.59C215.868 1193.68 219.077 1191.12 222.114 1188.31C227.787 1183.08 233.25 1177.34 238.914 1172.09C240.641 1170.48 242.669 1169.38 244.66 1168.71C248.423 1167.43 251.469 1170.93 251.087 1176.62C250.832 1180.41 249.705 1184.27 248.405 1187.62C246.887 1191.53 244.65 1194.81 242.914 1198.56C241.896 1200.77 240.596 1203.68 242.123 1206.04C243.696 1208.47 245.914 1206.98 247.423 1205.36C253.151 1199.25 259.196 1193.56 264.278 1186.39C274.187 1172.43 283.542 1157.59 293.097 1143.09C297.069 1137.06 300.988 1130.95 305.015 1124.75C303.333 1121.32 301.533 1118.08 300.042 1114.55C296.897 1107.12 294.906 1099.07 296.315 1090.19C298.169 1078.5 304.124 1073.21 311.352 1070.48C320.133 1067.16 328.779 1068.84 337.197 1073.18C353.161 1081.4 366.416 1095.25 376.38 1115.67C377.943 1118.87 379.207 1122.41 380.607 1125.79C385.244 1120.4 385.934 1113.68 382.58 1106.25C379.434 1099.27 375.089 1094.1 370.38 1089.78C363.325 1083.32 356.089 1077.29 348.87 1071.24C340.534 1064.26 337.506 1054.86 340.297 1041.21C342.407 1030.88 345.334 1020.93 348.016 1010.87C354.207 987.604 359.943 964.13 361.734 939.062C362.207 932.421 362.125 925.647 361.916 918.955C361.843 916.52 360.843 913.982 359.907 911.838C358.998 909.766 357.38 908.244 355.77 910.015C354.325 911.61 354.334 914.107 355.389 916.645ZM349.834 1142.45C350.688 1142.33 351.698 1142.34 352.643 1141.99C357.034 1140.4 361.434 1138.83 365.78 1137.01C368.962 1135.69 369.134 1135.36 367.707 1131C360.916 1110.21 350.434 1095.19 335.588 1087.63C327.788 1083.66 319.661 1082.64 311.497 1084.83C307.742 1085.84 304.851 1088.83 303.76 1094.75C302.351 1102.45 304.933 1114.08 309.279 1119.11C309.988 1118.27 310.697 1117.42 311.424 1116.57C316.815 1110.27 322.415 1104.44 329.143 1101.71C341.361 1096.75 353.061 1109.72 352.179 1127.45C351.952 1132.36 350.698 1137.15 349.834 1142.45ZM369.934 1144.29C362.361 1148.11 354.989 1150.08 347.407 1150.46C346.698 1150.49 345.825 1151.26 345.361 1152.09C343.452 1155.51 341.652 1159.07 339.861 1162.63C336.534 1169.23 333.361 1175.96 332.206 1184.24C330.625 1195.55 335.152 1202.59 342.852 1200.81C350.225 1199.11 355.916 1193.18 360.507 1184.77C363.761 1178.8 366.016 1172.1 366.071 1164.21C366.107 1159.45 365.152 1158.38 362.107 1159.24C361.77 1156.01 362.434 1153.37 364.216 1151.46C366.207 1149.33 368.18 1149.68 370.234 1152.46C370.116 1149.48 370.034 1147.13 369.934 1144.29ZM330.452 1175.21C327.052 1180.9 323.697 1185.8 320.961 1191.39C319.306 1194.76 318.224 1199.05 317.579 1203.17C316.506 1210.02 318.533 1214.58 323.034 1216.88C327.197 1219.01 331.479 1219.3 335.761 1218.01C345.052 1215.19 352.334 1207.46 358.325 1196.93C360.607 1192.93 362.48 1188.42 364.898 1183.4C360.98 1189.16 357.816 1194.61 354.107 1199.06C349.27 1204.87 343.779 1209.07 337.206 1208.14C330.461 1207.18 326.743 1200.52 327.724 1190.62C328.215 1185.74 329.406 1181.02 330.452 1175.21ZM324.379 1223.24C321.561 1222.45 318.497 1222 315.615 1220.7C310.606 1218.44 308.688 1212.86 310.361 1205.52C311.106 1202.22 312.324 1199.11 313.57 1196.14C314.788 1193.25 316.306 1190.65 317.697 1187.92C317.57 1187.7 317.443 1187.48 317.315 1187.26C310.306 1194.14 303.279 1200.98 296.306 1207.93C295.442 1208.79 294.76 1210.16 294.133 1211.43C292.397 1214.96 292.76 1218.25 295.324 1220.32C296.915 1221.6 298.688 1222.6 300.46 1223.14C308.151 1225.45 315.897 1224.56 323.634 1223.62C323.988 1223.58 324.324 1223.27 324.379 1223.24ZM329.579 1139.6C330.615 1136.33 331.897 1133.4 332.47 1130.17C333.143 1126.42 333.616 1122.38 333.397 1118.57C333.134 1114.02 330.606 1111.99 327.688 1113.37C322.343 1115.89 318.097 1121.05 313.679 1126.3C318.37 1132.46 323.515 1136.51 329.579 1139.6ZM227.287 1227.11C224.559 1221.54 225.141 1216.06 226.15 1210.34C224.232 1213.3 222.405 1216.23 221.086 1219.6C220.459 1221.21 220.205 1224.28 220.832 1225.54C221.55 1226.99 223.396 1227.35 224.814 1227.82C225.477 1228.05 226.277 1227.44 227.287 1227.11Z" fill="#2898FF"/>
</svg>
