<svg width="402" height="1243" viewBox="0 0 402 1243" fill="none" xmlns="http://www.w3.org/2000/svg">
<path d="M342.796 1194.15H82.7638C68.9566 1194.15 57.7603 1182.95 57.7603 1169.15V69.0035C57.7603 55.1963 68.9566 44 82.7638 44H342.796C356.603 44 367.799 55.1963 367.799 69.0035V1169.15C367.799 1182.95 356.603 1194.15 342.796 1194.15Z" fill="#7F000F"/>
<path d="M160.893 65.6848C156.917 62.6974 152.705 60.2468 148.342 58.3217C166.899 80.4512 168.499 113.208 150.404 137.287C132.31 161.367 100.401 168.944 73.9824 157.277C77.0464 160.93 80.5697 164.295 84.5466 167.283C112.601 188.365 152.436 182.713 173.519 154.657C194.602 126.601 188.949 86.7677 160.893 65.6848Z" fill="#EDEBDF"/>
<path d="M87.0681 247.016C86.774 257.824 93.4189 260.153 93.7365 273.689C93.9717 283.533 90.5375 285.944 92.4075 293.694C94.4303 302.127 100.452 307.396 103.075 309.701C122.598 326.789 190.246 344.254 216.425 353.71C276.77 375.503 299.21 432.343 320.438 421.723C326.083 418.9 330.058 412.314 332.434 408.386C340.773 394.614 337.186 384.794 340.432 368.376C345.03 345.195 355.368 347.418 359.096 327.036C362.471 308.607 354.133 305.902 352.428 277.7C350.828 251.273 357.849 248.662 356.426 224.364C355.25 204.277 349.511 190.14 341.76 171.029C333.504 150.683 324.731 129.055 304.42 108.356C288.366 91.9962 272.971 76.2955 253.742 77.6833C237.348 78.8712 233.573 91.3729 200.407 101.687C192.045 104.286 187.023 103.945 180.402 108.356C169.653 115.506 159.08 130.619 163.067 143.026C167.289 156.163 185.835 160.044 193.739 161.691C232.538 169.806 267.997 143.767 280.416 133.688C278.946 140.11 275.829 148.742 268.42 155.023C257.259 164.478 245.416 160.926 243.087 167.019C239.982 175.134 257.047 191.54 275.088 199.02C291.789 205.947 307.313 204.383 315.099 203.018C289.119 211.898 273.795 208.428 264.421 203.018C246.168 192.493 244.416 171.182 227.081 168.348C215.014 166.383 213.015 176.239 199.078 175.016C180.143 173.358 176.615 154.505 156.41 153.682C153.905 153.576 145.037 153.505 136.405 159.021C134.57 160.186 126.349 165.325 123.068 175.028C120.445 182.79 122.057 187.059 118.587 197.608C117.905 199.702 116.823 201.913 115.059 204.359C111.989 208.652 103.851 217.884 97.7234 224.364C96.8531 225.282 87.7149 223.376 87.0681 247.016Z" fill="black"/>
<path d="M76.4131 456.464C76.9776 456.099 78.8241 455.029 81.3762 455.241C83.8577 455.452 85.4689 456.758 85.9746 457.205C86.9508 456.393 89.1736 454.782 92.3725 454.405C98.1001 453.735 102.158 457.557 102.746 458.122C103.498 457.346 106.168 454.758 110.12 454.617C114.824 454.441 119.422 457.769 121.363 462.979C122.045 461.509 122.868 460.956 123.433 460.709C126.197 459.545 130.854 462.473 134.653 468.401C133.959 467.495 130.63 462.967 131.83 457.487C132.183 455.852 132.853 454.535 133.5 453.57C132.324 452.559 132.206 450.877 133.006 449.913C133.9 448.843 135.876 448.749 137.028 450.066C133.641 444.385 133.5 437.576 136.746 432.519C139.569 428.108 143.991 426.568 145.496 426.109C144.791 424.239 143.273 419.405 144.767 413.595C145.731 409.855 147.554 407.209 148.766 405.727C148.613 404.775 148.472 403.222 148.907 401.376C149.436 399.106 150.553 397.542 151.212 396.754C149.013 396.789 143.732 397.166 138.346 400.67C132.453 404.504 129.96 409.785 129.137 411.784C129.607 414.078 130.042 417.465 129.572 421.463C129.055 425.897 127.62 429.343 127.243 429.261C126.844 429.179 128.114 425.403 126.549 421.263C125.82 419.335 124.703 417.923 123.786 416.971C124.056 418.241 124.327 420.24 123.903 422.616C123.668 423.957 123.433 425.239 122.727 425.45C121.434 425.85 119.293 422.428 118.34 420.793C115.918 424.886 116.035 427.356 116.694 428.896C117.47 430.731 118.917 430.99 119.564 433.118C120.222 435.294 119.716 438.27 117.999 439.375C116.388 440.422 114.342 439.387 110.578 438.034C107.767 437.023 103.839 435.765 98.888 434.706C96.3477 435.141 90.6319 436.482 85.2925 441.163C78.7182 446.926 76.9188 454.053 76.4131 456.464Z" fill="black"/>
<path d="M241.123 76.4244C242.182 76.4009 245.533 76.4715 248.756 78.8354C251.896 81.1405 252.99 84.2101 253.296 85.2215C255.271 84.9393 259.54 84.5982 264.127 86.7152C272.336 90.4904 274.63 98.9111 274.947 100.158C276.594 99.7226 282.251 98.4642 287.661 101.487C294.082 105.086 297.504 113.295 295.858 121.845C297.975 120.433 299.527 120.363 300.48 120.504C305.114 121.21 308.959 128.925 309.183 139.945C308.995 138.181 308.242 129.407 314.311 123.056C316.122 121.163 318.086 119.951 319.732 119.175C318.98 116.87 320.203 114.518 322.049 113.883C324.119 113.177 326.824 114.659 327.295 117.376C327.4 107.014 332.775 97.8056 341.255 93.7011C348.629 90.1258 355.791 91.6547 358.179 92.278C358.767 89.1967 360.684 81.5051 367.423 74.9661C371.762 70.7557 376.361 68.7093 379.195 67.7097C379.76 66.3101 380.853 64.1226 382.935 62.0057C385.499 59.4065 388.274 58.2304 389.78 57.713C386.816 55.9606 379.442 52.1501 369.375 52.4323C358.367 52.7381 350.734 57.7718 347.994 59.7711C346.747 63.2288 344.571 68.0978 340.667 73.0608C336.35 78.5531 331.634 81.9991 331.187 81.5757C330.717 81.1405 335.504 77.1418 336.797 70.3206C337.397 67.1451 337.056 64.3461 336.609 62.3232C335.939 64.2402 334.657 67.1334 332.152 69.956C330.741 71.5437 329.388 73.0726 328.271 72.7903C326.213 72.2611 326.142 65.9455 326.213 62.9818C319.638 66.463 317.78 69.8736 317.392 72.461C316.933 75.5541 318.65 77.0713 317.768 80.4349C316.875 83.8808 313.77 87.4326 310.571 87.5266C307.548 87.609 305.678 84.5629 301.75 79.6704C298.822 76.0246 294.588 71.1321 288.848 65.675C285.097 64.1814 276.358 61.3118 265.409 63.2053C251.978 65.5692 243.757 73.6136 241.123 76.4244Z" fill="black"/>
<path d="M31.5688 1021.22C32.6273 1021.2 35.9792 1021.27 39.2016 1023.63C42.3418 1025.93 43.4355 1029 43.7413 1030.02C45.7171 1029.73 49.9863 1029.39 54.573 1031.51C62.7821 1035.28 65.0754 1043.71 65.393 1044.95C67.0395 1044.52 72.6965 1043.26 78.1064 1046.28C84.5278 1049.88 87.9502 1058.09 86.3037 1066.64C88.4207 1065.23 89.9731 1065.16 90.9257 1065.3C95.5595 1066 99.4053 1073.72 99.6288 1084.74C99.4406 1082.97 98.6879 1074.2 104.756 1067.85C106.568 1065.96 108.532 1064.75 110.178 1063.97C109.426 1061.66 110.649 1059.31 112.495 1058.68C114.565 1057.97 117.27 1059.45 117.74 1062.17C117.846 1051.81 123.221 1042.6 131.701 1038.5C139.075 1034.92 146.237 1036.45 148.624 1037.07C149.212 1033.99 151.129 1026.3 157.868 1019.76C162.208 1015.55 166.807 1013.5 169.641 1012.5C170.205 1011.1 171.299 1008.92 173.381 1006.8C175.945 1004.2 178.72 1003.02 180.226 1002.51C177.262 1000.76 169.888 996.945 159.821 997.227C148.813 997.533 141.18 1002.57 138.439 1004.57C137.193 1008.02 135.017 1012.89 131.112 1017.86C126.796 1023.35 122.08 1026.79 121.633 1026.37C121.163 1025.93 125.949 1021.94 127.243 1015.11C127.843 1011.94 127.502 1009.14 127.055 1007.12C126.385 1009.03 125.103 1011.93 122.598 1014.75C121.186 1016.34 119.834 1017.87 118.717 1017.58C116.658 1017.06 116.588 1010.74 116.658 1007.78C110.084 1011.26 108.226 1014.67 107.838 1017.26C107.379 1020.35 109.096 1021.87 108.214 1025.23C107.32 1028.68 104.215 1032.23 101.017 1032.32C97.994 1032.4 96.124 1029.36 92.1959 1024.46C89.2675 1020.82 85.0336 1015.93 79.2943 1010.47C75.5426 1008.98 66.8043 1006.11 55.855 1008C42.4359 1010.36 34.2033 1018.41 31.5688 1021.22Z" fill="black"/>
<path d="M157.68 1130.49C157.257 1130.48 155.916 1130.49 154.634 1131.41C153.387 1132.29 152.964 1133.48 152.835 1133.88C152.047 1133.76 150.341 1133.62 148.518 1134.42C145.249 1135.86 144.367 1139.12 144.237 1139.6C143.579 1139.43 141.309 1138.92 139.168 1140.09C136.616 1141.46 135.276 1144.65 135.958 1147.98C135.111 1147.42 134.488 1147.39 134.111 1147.45C132.265 1147.71 130.759 1150.69 130.701 1154.97C130.771 1154.29 131.042 1150.88 128.595 1148.39C127.866 1147.65 127.078 1147.17 126.42 1146.86C126.714 1145.97 126.22 1145.05 125.479 1144.79C124.656 1144.51 123.574 1145.07 123.397 1146.13C123.315 1142.1 121.139 1138.5 117.74 1136.87C114.776 1135.46 111.93 1136.03 110.978 1136.26C110.731 1135.06 109.943 1132.06 107.226 1129.5C105.474 1127.84 103.639 1127.03 102.498 1126.64C102.263 1126.1 101.828 1125.24 100.981 1124.41C99.9461 1123.39 98.8406 1122.93 98.229 1122.71C99.4051 1122.04 102.345 1120.59 106.356 1120.73C110.754 1120.88 113.824 1122.87 114.918 1123.66C115.423 1125.01 116.317 1126.9 117.893 1128.85C119.634 1131.01 121.527 1132.36 121.704 1132.19C121.892 1132.03 119.963 1130.45 119.422 1127.8C119.175 1126.56 119.293 1125.47 119.469 1124.68C119.74 1125.43 120.269 1126.55 121.268 1127.67C121.833 1128.29 122.386 1128.89 122.833 1128.78C123.656 1128.58 123.656 1126.13 123.621 1124.97C126.255 1126.35 127.008 1127.68 127.172 1128.69C127.361 1129.89 126.69 1130.48 127.043 1131.79C127.408 1133.13 128.666 1134.53 129.936 1134.57C131.136 1134.62 131.888 1133.43 133.429 1131.55C134.582 1130.14 136.264 1128.25 138.533 1126.15C140.027 1125.58 143.508 1124.49 147.883 1125.27C153.305 1126.22 156.61 1129.38 157.68 1130.49Z" fill="black"/>
<path d="M112.295 219.895C111.871 219.883 110.531 219.895 109.249 220.812C108.002 221.694 107.579 222.882 107.449 223.282C106.661 223.165 104.956 223.023 103.133 223.823C99.8635 225.27 98.9815 228.528 98.8521 229.01C98.1935 228.833 95.9237 228.328 93.7832 229.492C91.2311 230.868 89.8904 234.055 90.5725 237.383C89.7257 236.831 89.1024 236.795 88.726 236.854C86.8796 237.113 85.3742 240.1 85.3154 244.381C85.386 243.699 85.6565 240.288 83.2102 237.795C82.481 237.054 81.6931 236.572 81.0345 236.266C81.3285 235.372 80.8345 234.455 80.0936 234.196C79.2703 233.914 78.1883 234.478 78.0119 235.537C77.9296 231.503 75.7538 227.904 72.355 226.281C69.3912 224.87 66.5451 225.434 65.5925 225.67C65.3455 224.47 64.5575 221.471 61.8408 218.907C60.0884 217.249 58.2537 216.437 57.1129 216.049C56.8777 215.508 56.4426 214.65 55.5958 213.815C54.5608 212.792 53.4553 212.333 52.8438 212.121C54.0198 211.451 56.96 209.992 60.9705 210.134C65.369 210.286 68.4386 212.274 69.5324 213.062C70.0381 214.415 70.9319 216.308 72.5079 218.26C74.2485 220.413 76.142 221.765 76.3184 221.6C76.5065 221.436 74.5778 219.86 74.0368 217.202C73.7898 215.967 73.9074 214.873 74.0838 214.085C74.3543 214.838 74.8835 215.955 75.8832 217.072C76.4477 217.696 77.0005 218.296 77.4474 218.19C78.2707 217.99 78.2707 215.532 78.2354 214.379C80.8698 215.755 81.6225 217.084 81.7871 218.096C81.9753 219.295 81.305 219.883 81.6578 221.201C82.0224 222.541 83.2808 223.941 84.5509 223.976C85.7505 224.023 86.5032 222.835 88.0439 220.954C89.1965 219.542 90.8783 217.661 93.1481 215.555C94.6417 214.991 98.1229 213.897 102.498 214.673C107.92 215.638 111.224 218.79 112.295 219.895Z" fill="black"/>
<path d="M204.865 77.9068C204.441 77.895 203.1 77.9068 201.818 78.8241C200.572 79.7062 200.148 80.894 200.019 81.2939C199.231 81.1763 197.526 81.0352 195.703 81.8349C192.433 83.2815 191.551 86.5392 191.422 87.0214C190.763 86.845 188.493 86.3393 186.353 87.5036C183.801 88.8796 182.46 92.0668 183.142 95.3951C182.296 94.8424 181.672 94.8071 181.296 94.8659C179.449 95.1246 177.944 98.1119 177.885 102.393C177.956 101.711 178.226 98.3001 175.78 95.8068C175.051 95.0658 174.263 94.5836 173.604 94.2779C173.898 93.384 173.404 92.4667 172.663 92.208C171.84 91.9257 170.758 92.4902 170.582 93.5487C170.499 89.5147 168.324 85.9159 164.925 84.2929C161.961 82.8816 159.115 83.4461 158.162 83.6814C157.915 82.4817 157.127 79.4827 154.411 76.9189C152.658 75.2606 150.824 74.4491 149.683 74.061C149.448 73.52 149.012 72.6615 148.166 71.8264C147.131 70.8032 146.025 70.3446 145.414 70.1329C146.59 69.4625 149.53 68.0042 153.54 68.1453C157.939 68.2982 161.008 70.2858 162.102 71.0737C162.608 72.4262 163.502 74.3197 165.078 76.272C166.818 78.4243 168.712 79.7768 168.888 79.6121C169.076 79.4475 167.148 77.8715 166.607 75.2136C166.36 73.9787 166.477 72.8849 166.654 72.0969C166.924 72.8496 167.453 73.9669 168.453 75.0842C169.018 75.7075 169.57 76.3073 170.017 76.2015C170.84 76.0015 170.84 73.5435 170.805 72.391C173.44 73.767 174.192 75.0959 174.357 76.1074C174.545 77.307 173.875 77.895 174.228 79.2122C174.592 80.553 175.851 81.9525 177.121 81.9878C178.32 82.0348 179.073 80.847 180.614 78.9653C181.766 77.554 183.448 75.6722 185.718 73.567C187.212 73.0025 190.693 71.9088 195.068 72.685C200.49 73.6494 203.806 76.8013 204.865 77.9068Z" fill="black"/>
<path d="M375.431 1193.49C295.211 1228.34 42.8699 1251.53 16.7256 1239C-48.3 1207.87 104.262 1152.83 16.7262 947C-1.32669 904.543 31.4154 812.252 16.7262 745.416C5.90622 696.185 -4.03168 647.907 18.9372 599.099C36.6843 561.394 66.6038 539.166 93.6185 519.09C135.428 488.03 156.762 470.518 186.6 471.047C231.89 471.859 243.875 511.763 300.444 521.701C330.599 527.005 357.226 520.937 375.443 514.715C375.431 740.982 375.431 967.237 375.431 1193.49Z" fill="black"/>
<path d="M319.603 373.057C312.911 372.069 303.232 369.552 295.599 362.06C284.709 351.37 287.343 339.75 277.594 329.059C269.196 319.839 257.777 318.087 244.593 316.052C209.216 310.607 202.665 327.319 176.58 321.05C153.599 315.523 141.85 298.517 129.572 305.044C127.09 306.361 126.067 307.855 121.574 314.041C116.27 321.333 108.508 331.906 98.5703 345.042C118.093 361.131 124.174 365.506 124.573 365.048C124.997 364.565 119.787 358.073 117.576 359.05C115.306 360.049 115.365 369.211 119.575 376.056C122.845 381.36 126.185 381.348 128.572 387.052C130.419 391.451 128.76 392.262 130.572 397.049C133.088 403.729 136.852 403.611 138.569 409.045C140.251 414.372 137.111 415.972 137.569 423.052C137.957 429.132 140.745 435.26 144.567 439.058C151.494 445.927 162.043 445.409 167.571 445.056C196.267 443.245 208.216 420.194 222.576 426.051C225.152 427.098 227.951 430.414 233.573 437.047C241.406 446.291 246.463 454.983 249.579 461.051C228.574 464.38 207.57 467.72 186.577 471.048C198.161 475.117 214.65 481.515 233.585 491.053C244.393 496.498 289.684 519.973 338.597 567.063C351.499 579.483 361.413 590.432 367.846 597.841C367.846 540.155 367.846 482.479 367.846 424.793C361.001 420.723 352.828 414.996 344.595 407.045C331.987 394.861 324.237 382.242 319.603 373.057Z" fill="#EDEBDF"/>
<path d="M164.149 393.626C167.759 390.792 170.205 387.793 171.734 385.605C159.456 381.054 151.435 376.843 146.143 373.621C142.438 371.363 138.957 368.905 133.9 368.893C130.007 368.881 128.019 370.34 123.233 369.563C119.116 368.893 117.776 367.376 116.553 368.234C114.294 369.81 115.024 377.443 119.234 380.901C122.339 383.453 125.244 381.995 127.137 384.629C128.831 386.981 127.067 388.91 127.902 393.567C128.019 394.226 129.384 401.365 134.135 403.623C135.146 404.105 136.699 404.481 146.131 401.623C153.999 399.248 158.868 397.778 164.149 393.626Z" fill="#C72C18"/>
<path d="M152.27 386.57C152.423 385.464 147.072 383.818 143.602 383.241C134.77 381.76 126.102 385.158 126.267 386.57C126.549 388.945 151.964 388.922 152.27 386.57Z" fill="black"/>
<path d="M113.248 350.958C110.225 348.606 107.038 348.335 105.909 348.288C114.424 355.427 116.823 356.732 117.223 356.332C117.682 355.862 115.682 352.863 113.248 350.958Z" fill="black"/>
<path d="M151.624 383.1C154.105 385.735 144.497 398.989 143.579 398.53C143.203 398.342 144.755 396.072 144.896 391.791C145.014 388.099 143.967 386.864 144.908 385.229C146.249 382.889 150.424 381.83 151.624 383.1Z" fill="#EDEBDF"/>
<path d="M172.581 306.89C164.701 306.09 155.246 301.339 155.187 296.258C155.14 291.66 162.784 288.508 180.578 280.887C189.705 276.982 203.453 271.055 220.589 263.551C217.86 271.996 211.615 286.685 197.267 297.528C191.457 301.927 183.213 307.984 172.581 306.89Z" fill="#C72C18"/>
<path d="M191.928 288.696C200.125 288.696 206.77 282.051 206.77 273.854C206.77 265.657 200.125 259.012 191.928 259.012C183.731 259.012 177.085 265.657 177.085 273.854C177.085 282.051 183.731 288.696 191.928 288.696Z" fill="black"/>
<path d="M180.176 288.701C187.358 285.244 192.709 281.465 192.129 280.259C191.548 279.053 185.256 280.878 178.075 284.334C170.893 287.791 165.542 291.57 166.122 292.776C166.702 293.982 172.995 292.157 180.176 288.701Z" fill="#EDEBDF"/>
<path d="M194.938 550.069C188.905 540.154 182.871 534.015 173.133 527.559C172.792 527.817 172.44 528.076 172.099 528.335C178.414 535.979 184.718 543.624 191.033 551.257C190.739 551.586 190.434 551.915 190.14 552.233C187.141 550.151 184.142 548.069 181.131 545.988C180.954 546.199 180.79 546.411 180.613 546.611C184.318 550.222 188.034 553.832 191.739 557.431C185.788 558.007 181.59 554.714 178.097 551.327C171.052 544.494 165.995 536.226 164.289 526.312C163.219 520.079 165.254 518.209 170.887 520.714C183.424 526.3 192.268 535.097 194.938 550.069Z" fill="#2898FF"/>
<path d="M185.777 560.395C169.394 556.078 158.586 546.352 154.411 529.569C152.141 520.443 148.836 511.564 146.072 502.802C148.824 502.684 153.117 505.166 155.422 510.07C157.751 515.045 159.879 520.325 160.785 525.688C163.455 541.436 170.758 553.538 185.777 560.395Z" fill="#2898FF"/>
<path d="M144.237 544.27C149.93 542.765 153.681 543.929 156.998 546.728C161.22 550.304 165.289 554.055 169.57 557.56C175.639 562.523 182.566 565.087 190.916 564.958C190.21 565.534 189.575 566.287 188.776 566.663C180.026 570.779 168.594 568.662 160.655 561.253C157.903 558.677 155.645 555.584 153.023 552.856C150.435 550.151 147.671 547.61 144.237 544.27Z" fill="#2898FF"/>
<path d="M204.476 546.458C201.76 538.049 197.761 530.628 191.234 524.618C194.95 531.686 200.054 538.155 199.784 546.74C198.079 535.626 188.176 530.087 182.919 521.466C180.508 517.526 179.908 512.457 178.72 507.835C178.567 507.224 179.732 505.895 180.555 505.554C181.072 505.33 182.343 506.13 182.872 506.801C188.752 514.21 194.809 521.502 200.301 529.205C203.877 534.203 206.452 539.872 204.476 546.458Z" fill="#2898FF"/>
<path d="M155.998 487.748C162.114 488.183 165.595 491.559 168.253 497.651C166.418 496.228 165.324 495.369 164.089 494.416C164.795 500.532 165.477 506.377 166.289 513.375C154.481 506.953 156.504 497.086 155.998 487.748Z" fill="#2898FF"/>
<path d="M171.805 515.292C167.971 511.411 167.853 504.684 172.381 499.779C175.239 496.686 179.508 494.769 183.389 492.817C184.565 492.229 186.564 493.287 188.176 493.593C187.552 495.087 187.211 496.804 186.247 498.015C185.2 499.332 183.636 500.297 182.178 501.249C174.18 506.424 174.168 506.412 171.805 515.292Z" fill="#2898FF"/>
<path d="M154.516 538.014C148.377 537.226 144.12 538.661 140.991 543.694C139.886 545.482 136.957 546.717 134.687 547.081C130.994 547.681 129.207 544.588 130.865 541.213C134.335 534.144 148.495 531.828 154.516 538.014Z" fill="#2898FF"/>
<path d="M198.96 567.875C196.42 565.593 196.173 560.03 198.502 557.419C200.713 554.938 205.77 554.75 208.475 557.055C210.921 559.148 211.192 564.558 208.969 567.087C206.781 569.592 201.359 570.027 198.96 567.875Z" fill="#7F000F"/>
<path d="M130.171 515.75C143.32 513.516 148.06 517.385 149.283 526.7C146.566 525.453 143.908 524.23 141.25 523.019C140.968 523.395 140.674 523.76 140.392 524.136C141.485 525.947 142.567 527.746 143.661 529.558C143.249 529.875 142.838 530.205 142.426 530.522C138.416 525.677 134.394 520.831 130.171 515.75Z" fill="#2898FF"/>
<path d="M162.69 916.971C159.256 905.881 154.916 898.459 147.048 889.827C146.648 889.992 146.248 890.156 145.848 890.321C150.106 899.271 154.363 908.221 158.609 917.183C158.233 917.43 157.868 917.677 157.492 917.912C155.092 915.16 152.693 912.408 150.282 909.656C150.071 909.82 149.847 909.973 149.635 910.138C152.352 914.537 155.069 918.947 157.774 923.345C151.858 922.452 148.601 918.241 146.037 914.101C140.874 905.763 137.992 896.507 138.745 886.475C139.227 880.171 141.662 878.854 146.519 882.653C157.327 891.121 163.76 901.811 162.69 916.971Z" fill="#2898FF"/>
<path d="M151.282 924.757C136.44 916.571 128.349 904.493 128.384 887.204C128.407 877.796 127.373 868.387 126.832 859.202C129.525 859.754 133.088 863.212 134.123 868.54C135.17 873.926 135.934 879.571 135.511 885.005C134.264 900.929 138.392 914.442 151.282 924.757Z" fill="#2898FF"/>
<path d="M114.941 898.989C120.833 898.918 124.185 900.964 126.714 904.493C129.936 908.985 132.97 913.631 136.263 918.065C140.932 924.357 147.036 928.544 155.151 930.449C154.316 930.837 153.528 931.401 152.658 931.578C143.167 933.436 132.606 928.591 126.714 919.464C124.667 916.301 123.232 912.749 121.362 909.456C119.504 906.198 117.458 903.058 114.941 898.989Z" fill="#2898FF"/>
<path d="M172.828 915.806C172.251 906.986 170.182 898.812 165.313 891.391C167.194 899.153 170.558 906.68 168.206 914.936C169.264 903.74 161.02 895.954 158.021 886.31C156.645 881.9 157.292 876.831 157.28 872.068C157.28 871.433 158.727 870.433 159.609 870.292C160.161 870.21 161.196 871.292 161.549 872.056C165.442 880.677 169.535 889.227 172.981 898.036C175.239 903.787 176.344 909.903 172.828 915.806Z" fill="#2898FF"/>
<path d="M140.133 847.041C145.954 848.958 148.506 853.086 149.6 859.637C148.177 857.814 147.319 856.708 146.354 855.485C145.555 861.589 144.778 867.423 143.861 874.408C133.982 865.294 138.345 856.226 140.133 847.041Z" fill="#2898FF"/>
<path d="M148.754 877.607C145.978 872.903 147.507 866.352 153.105 862.706C156.633 860.401 161.244 859.59 165.477 858.649C166.759 858.367 168.441 859.884 169.935 860.566C168.97 861.86 168.218 863.436 166.983 864.388C165.642 865.411 163.89 865.964 162.255 866.529C153.211 869.598 153.211 869.575 148.754 877.607Z" fill="#2898FF"/>
<path d="M126.431 895.425C120.669 893.167 116.188 893.508 111.93 897.636C110.425 899.095 107.285 899.577 104.991 899.377C101.263 899.047 100.287 895.625 102.71 892.755C107.814 886.746 122.103 887.957 126.431 895.425Z" fill="#2898FF"/>
<path d="M162.243 935.224C160.338 932.401 161.455 926.933 164.348 924.968C167.1 923.098 172.052 924.157 174.11 927.05C175.98 929.673 174.921 934.989 172.146 936.906C169.405 938.811 164.042 937.905 162.243 935.224Z" fill="#7F000F"/>
<path d="M108.261 867.893C121.563 868.94 125.209 873.844 124.115 883.182C121.786 881.312 119.505 879.478 117.223 877.655C116.858 877.949 116.482 878.231 116.117 878.525C116.729 880.548 117.341 882.559 117.964 884.582C117.493 884.793 117.011 885.005 116.541 885.217C113.824 879.536 111.119 873.856 108.261 867.893Z" fill="#2898FF"/>
<path d="M96.7242 798.586C102.146 788.331 104.333 780.004 104.898 768.337C104.498 768.173 104.098 768.008 103.698 767.843C100.37 777.181 97.03 786.508 93.7017 795.846C93.2665 795.752 92.8313 795.669 92.3962 795.575C92.6432 791.929 92.9019 788.284 93.1489 784.638C92.8784 784.602 92.6079 784.555 92.3492 784.52C91.1495 789.554 89.9499 794.587 88.7503 799.621C85.1986 794.799 85.8807 789.518 87.0097 784.779C89.2678 775.229 93.784 766.655 101.429 760.116C106.239 756 108.885 756.8 109.626 762.916C111.249 776.535 108.215 788.648 96.7242 798.586Z" fill="#2898FF"/>
<path d="M83.1636 796.01C78.4828 779.721 81.3172 765.467 93.5837 753.283C100.264 746.65 106.191 739.276 112.307 732.408C113.824 734.713 113.883 739.664 110.849 744.157C107.767 748.696 104.321 753.236 100.17 756.764C88.0208 767.137 81.3642 779.604 83.1636 796.01Z" fill="#2898FF"/>
<path d="M75.7546 752.084C79.965 756.2 80.8823 760.023 80.1767 764.303C79.2711 769.761 78.1303 775.182 77.3071 780.651C76.1427 788.401 77.4952 795.67 81.8703 802.773C81.0117 802.456 80.0473 802.303 79.3064 801.809C71.2855 796.399 67.2633 785.496 69.5567 774.888C70.3564 771.207 71.8618 767.679 72.8615 764.033C73.8611 760.411 74.6374 756.741 75.7546 752.084Z" fill="#2898FF"/>
<path d="M104.71 804.949C110.543 798.316 114.871 791.071 116.694 782.392C112.531 789.201 109.579 796.893 102.063 801.068C110.731 793.905 110.425 782.568 115.142 773.642C117.294 769.561 121.339 766.432 124.703 763.057C125.15 762.61 126.879 762.927 127.608 763.457C128.067 763.786 128.02 765.291 127.726 766.079C124.374 774.923 121.21 783.862 117.4 792.518C114.93 798.163 111.378 803.267 104.71 804.949Z" fill="#2898FF"/>
<path d="M130.325 733.231C133.077 738.7 131.959 743.428 128.09 748.826C128.372 746.521 128.549 745.145 128.737 743.592C123.844 747.332 119.175 750.908 113.577 755.189C113.048 741.769 122.563 738.453 130.325 733.231Z" fill="#2898FF"/>
<path d="M114.765 760.916C116.141 755.635 121.857 752.084 128.384 753.471C132.5 754.342 136.334 757.035 140.004 759.364C141.109 760.069 141.227 762.327 141.792 763.88C140.192 764.115 138.546 764.691 137.005 764.479C135.335 764.256 133.7 763.409 132.148 762.645C123.586 758.423 123.598 758.411 114.765 760.916Z" fill="#2898FF"/>
<path d="M86.3745 757.706C83.9047 752.025 80.494 749.097 74.5784 749.003C72.4732 748.967 69.9211 747.085 68.4392 745.321C66.04 742.452 67.7688 739.335 71.5205 739.029C79.3885 738.382 88.609 749.367 86.3745 757.706Z" fill="#2898FF"/>
<path d="M83.4932 811.17C84.1518 807.83 88.8091 804.76 92.2432 805.419C95.5128 806.042 98.2648 810.3 97.665 813.804C97.124 816.98 92.6196 819.979 89.303 819.367C86.01 818.767 82.8699 814.334 83.4932 811.17Z" fill="#7F000F"/>
<path d="M93.0547 725.398C101.699 735.548 100.805 741.605 93.431 747.427C93.1135 744.451 92.7959 741.546 92.4901 738.641C92.0197 738.582 91.561 738.524 91.0906 738.477C90.0909 740.335 89.103 742.193 88.1034 744.051C87.6212 743.863 87.1272 743.675 86.645 743.487C88.7384 737.559 90.8436 731.62 93.0547 725.398Z" fill="#2898FF"/>
<path d="M209.59 694.412C206.979 683.098 203.203 675.383 195.994 666.186C195.582 666.327 195.171 666.456 194.771 666.597C198.358 675.841 201.933 685.085 205.52 694.318C205.132 694.529 204.744 694.753 204.356 694.964C202.168 692.048 199.969 689.119 197.782 686.203C197.558 686.344 197.323 686.497 197.1 686.638C199.487 691.236 201.863 695.823 204.25 700.421C198.417 699.092 195.477 694.647 193.219 690.331C188.679 681.628 186.491 672.184 187.997 662.246C188.938 655.989 191.466 654.86 196.029 659.012C206.155 668.22 211.777 679.37 209.59 694.412Z" fill="#2898FF"/>
<path d="M197.641 701.327C183.445 692.071 176.259 679.429 177.577 662.187C178.294 652.802 177.953 643.346 178.094 634.149C180.74 634.902 184.033 638.607 184.668 643.993C185.315 649.438 185.668 655.131 184.845 660.517C182.434 676.312 185.55 690.096 197.641 701.327Z" fill="#2898FF"/>
<path d="M163.299 672.937C169.179 673.301 172.366 675.583 174.624 679.287C177.506 684.015 180.187 688.861 183.151 693.53C187.35 700.151 193.124 704.773 201.075 707.278C200.216 707.596 199.381 708.113 198.499 708.219C188.89 709.372 178.717 703.762 173.519 694.224C171.72 690.919 170.543 687.261 168.921 683.851C167.321 680.475 165.51 677.194 163.299 672.937Z" fill="#2898FF"/>
<path d="M219.786 693.989C219.857 685.156 218.399 676.841 214.094 669.091C215.4 676.971 218.199 684.721 215.247 692.789C217.128 681.698 209.484 673.325 207.202 663.481C206.156 658.977 207.179 653.978 207.52 649.215C207.567 648.58 209.084 647.698 209.978 647.627C210.542 647.58 211.483 648.745 211.777 649.533C215.023 658.424 218.481 667.256 221.257 676.289C223.079 682.169 223.726 688.355 219.786 693.989Z" fill="#2898FF"/>
<path d="M192.266 623C197.923 625.34 200.169 629.645 200.769 636.254C199.475 634.326 198.711 633.173 197.84 631.868C196.582 637.889 195.394 643.652 193.959 650.556C184.774 640.747 189.796 632.021 192.266 623Z" fill="#2898FF"/>
<path d="M198.593 654.119C196.171 649.227 198.182 642.805 204.027 639.583C207.72 637.548 212.365 637.078 216.67 636.443C217.963 636.255 219.528 637.889 220.974 638.689C219.916 639.912 219.045 641.429 217.74 642.276C216.329 643.205 214.541 643.629 212.871 644.064C203.639 646.451 203.639 646.439 198.593 654.119Z" fill="#2898FF"/>
<path d="M175.025 670.243C169.438 667.562 164.957 667.574 160.406 671.372C158.795 672.725 155.631 672.96 153.349 672.595C149.656 671.996 148.927 668.503 151.562 665.821C157.101 660.211 171.261 662.469 175.025 670.243Z" fill="#2898FF"/>
<path d="M207.802 712.57C206.108 709.607 207.637 704.244 210.66 702.503C213.541 700.845 218.398 702.256 220.245 705.302C221.915 708.054 220.468 713.276 217.552 714.981C214.67 716.675 209.401 715.369 207.802 712.57Z" fill="#7F000F"/>
<path d="M158.936 641.441C172.119 643.464 175.401 648.627 173.625 657.859C171.437 655.824 169.297 653.825 167.168 651.837C166.78 652.096 166.392 652.367 166.004 652.625C166.462 654.684 166.933 656.742 167.392 658.8C166.898 658.976 166.415 659.153 165.921 659.329C163.628 653.46 161.335 647.592 158.936 641.441Z" fill="#2898FF"/>
<path d="M200.019 1051.95C202.077 1040.53 201.642 1031.93 198.631 1020.64C198.196 1020.61 197.773 1020.57 197.338 1020.54C196.997 1030.44 196.644 1040.35 196.303 1050.26C195.856 1050.3 195.421 1050.35 194.974 1050.4C194.103 1046.85 193.245 1043.31 192.374 1039.75C192.104 1039.8 191.845 1039.84 191.575 1039.88C191.951 1045.05 192.339 1050.2 192.716 1055.36C187.87 1051.84 186.917 1046.6 186.553 1041.75C185.812 1031.97 187.506 1022.43 192.81 1013.88C196.138 1008.51 198.902 1008.46 201.466 1014.07C207.17 1026.53 207.958 1038.99 200.019 1051.95Z" fill="#2898FF"/>
<path d="M186.306 1053.61C176.898 1039.52 175.275 1025.06 183.272 1009.73C187.623 1001.39 191.034 992.557 194.786 984.16C196.926 985.889 198.49 990.605 196.962 995.803C195.409 1001.06 193.492 1006.44 190.611 1011.06C182.178 1024.63 179.614 1038.52 186.306 1053.61Z" fill="#2898FF"/>
<path d="M165.925 1014C171.194 1016.64 173.228 1020.01 173.84 1024.3C174.628 1029.78 175.192 1035.28 176.063 1040.75C177.309 1048.49 180.802 1055.01 187.13 1060.44C186.212 1060.41 185.248 1060.55 184.401 1060.3C175.122 1057.57 167.971 1048.41 166.948 1037.6C166.595 1033.85 166.948 1030.03 166.807 1026.25C166.654 1022.5 166.278 1018.77 165.925 1014Z" fill="#2898FF"/>
<path d="M209.557 1055.58C213.097 1047.49 215.026 1039.27 214.132 1030.46C212.227 1038.21 211.745 1046.45 205.864 1052.69C211.956 1043.24 208.228 1032.53 210.004 1022.58C210.816 1018.03 213.72 1013.83 215.908 1009.6C216.202 1009.03 217.943 1008.81 218.789 1009.11C219.319 1009.28 219.742 1010.73 219.695 1011.56C219.189 1021.01 218.883 1030.49 217.884 1039.9C217.237 1046.02 215.402 1051.96 209.557 1055.58Z" fill="#2898FF"/>
<path d="M212.204 979.491C216.485 983.866 216.861 988.712 214.803 995.027C214.379 992.746 214.121 991.381 213.838 989.841C210.31 994.886 206.947 999.708 202.913 1005.48C198.338 992.863 206.382 986.818 212.204 979.491Z" fill="#2898FF"/>
<path d="M205.77 1010.59C205.476 1005.13 209.851 1000.03 216.496 999.355C220.683 998.944 225.152 1000.33 229.351 1001.45C230.621 1001.79 231.409 1003.91 232.42 1005.2C230.962 1005.91 229.574 1006.95 228.034 1007.22C226.375 1007.52 224.564 1007.2 222.847 1006.94C213.427 1005.53 213.427 1005.51 205.77 1010.59Z" fill="#2898FF"/>
<path d="M177.756 1016.13C173.675 1011.47 169.547 1009.72 163.878 1011.41C161.867 1012.01 158.856 1011 156.916 1009.76C153.764 1007.76 154.47 1004.26 157.939 1002.84C165.231 999.849 177.356 1007.51 177.756 1016.13Z" fill="#2898FF"/>
<path d="M191.222 1067.96C190.834 1064.57 194.339 1060.24 197.808 1059.83C201.113 1059.44 205.017 1062.65 205.511 1066.17C205.958 1069.36 202.571 1073.59 199.231 1074.01C195.926 1074.42 191.598 1071.16 191.222 1067.96Z" fill="#7F000F"/>
<path d="M174.31 983.325C185.636 990.382 186.612 996.415 181.355 1004.2C180.143 1001.46 178.967 998.791 177.791 996.121C177.332 996.203 176.862 996.297 176.403 996.38C176.015 998.45 175.639 1000.53 175.251 1002.6C174.733 1002.57 174.204 1002.54 173.687 1002.51C173.886 996.215 174.098 989.935 174.31 983.325Z" fill="#2898FF"/>
<path d="M309.383 619.151C300.621 611.542 293.024 607.52 281.781 604.321C281.534 604.674 281.275 605.026 281.028 605.379C289.366 610.742 297.693 616.105 306.031 621.48C305.843 621.88 305.655 622.291 305.467 622.691C301.974 621.621 298.481 620.551 294.988 619.469C294.894 619.716 294.788 619.975 294.694 620.222C299.328 622.538 303.95 624.844 308.584 627.16C303.091 629.524 298.093 627.654 293.73 625.49C284.944 621.127 277.617 614.776 272.983 605.85C270.067 600.24 271.443 597.841 277.57 598.511C291.201 600.005 302.303 605.709 309.383 619.151Z" fill="#2898FF"/>
<path d="M303.785 631.783C286.861 632.653 273.618 626.655 264.539 611.93C259.599 603.921 253.766 596.465 248.462 588.95C251.049 587.997 255.895 589.056 259.576 593.042C263.304 597.076 266.926 601.463 269.431 606.297C276.77 620.492 287.39 629.807 303.785 631.783Z" fill="#2898FF"/>
<path d="M259.317 629.031C264.292 625.867 268.209 625.832 272.219 627.502C277.323 629.63 282.345 631.971 287.485 634.005C294.776 636.899 302.162 637.228 310.065 634.582C309.56 635.346 309.195 636.252 308.536 636.851C301.445 643.426 289.919 644.884 280.099 640.227C276.688 638.616 273.595 636.346 270.278 634.546C266.997 632.759 263.598 631.171 259.317 629.031Z" fill="#2898FF"/>
<path d="M317.38 612.824C312.241 605.638 306.172 599.77 298.139 596.03C303.832 601.628 310.653 606.262 313.005 614.518C308.007 604.45 296.893 602.169 289.26 595.548C285.767 592.525 283.65 587.879 281.122 583.834C280.792 583.293 281.486 581.681 282.168 581.093C282.592 580.729 284.05 581.105 284.744 581.576C292.6 586.845 300.586 591.96 308.148 597.629C313.087 601.334 317.251 605.944 317.38 612.824Z" fill="#2898FF"/>
<path d="M253.354 571.603C259.305 570.168 263.657 572.32 268.032 577.318C265.856 576.519 264.551 576.036 263.081 575.495C265.609 581.105 268.032 586.468 270.925 592.89C257.753 590.361 256.671 580.353 253.354 571.603Z" fill="#2898FF"/>
<path d="M276.782 593.042C271.948 590.502 269.796 584.128 272.619 578.083C274.406 574.272 277.888 571.144 280.992 568.11C281.933 567.192 284.156 567.592 285.791 567.392C285.65 569.003 285.838 570.744 285.285 572.19C284.685 573.766 283.498 575.166 282.392 576.507C276.359 583.881 276.347 583.869 276.782 593.042Z" fill="#2898FF"/>
<path d="M267.209 619.951C261.117 621.069 257.494 623.727 256.048 629.466C255.53 631.501 253.119 633.57 251.061 634.605C247.721 636.287 245.087 633.9 245.64 630.183C246.804 622.374 259.588 615.882 267.209 619.951Z" fill="#2898FF"/>
<path d="M318.615 634.899C315.51 633.5 313.582 628.266 315.005 625.079C316.357 622.045 321.12 620.327 324.402 621.703C327.365 622.95 329.271 628.019 327.918 631.112C326.589 634.17 321.556 636.216 318.615 634.899Z" fill="#7F000F"/>
<path d="M237.254 606.121C249.109 600.005 254.801 602.251 258.788 610.754C255.824 610.39 252.919 610.037 250.014 609.684C249.85 610.131 249.697 610.566 249.532 611.013C251.12 612.401 252.708 613.8 254.284 615.188C253.99 615.623 253.696 616.047 253.401 616.482C248.121 613.083 242.829 609.684 237.254 606.121Z" fill="#2898FF"/>
<path d="M105.211 641.964C106.717 630.462 105.882 621.9 102.342 610.762C101.907 610.751 101.483 610.727 101.048 610.715C101.177 620.63 101.307 630.532 101.424 640.447C100.989 640.517 100.542 640.576 100.107 640.647C99.0722 637.142 98.0372 633.637 97.014 630.133C96.7435 630.191 96.4848 630.25 96.2143 630.297C96.8376 635.437 97.4727 640.564 98.096 645.704C93.0977 642.423 91.8863 637.224 91.2865 632.402C90.0752 622.664 91.3218 613.056 96.2026 604.259C99.2721 598.731 102.036 598.555 104.859 604.035C111.151 616.231 112.527 628.639 105.211 641.964Z" fill="#2898FF"/>
<path d="M91.6041 644.269C81.5369 630.638 79.2317 616.278 86.4882 600.589C90.4398 592.051 93.4271 583.066 96.7671 574.504C98.9899 576.139 100.778 580.761 99.4839 586.03C98.1784 591.357 96.5202 596.814 93.874 601.566C86.1001 615.514 84.1948 629.521 91.6041 644.269Z" fill="#2898FF"/>
<path d="M69.3525 605.67C74.739 608.069 76.9265 611.327 77.7498 615.584C78.7965 621.018 79.6197 626.498 80.7605 631.908C82.3718 639.576 86.1705 645.927 92.7448 651.055C91.8275 651.055 90.8749 651.243 90.0046 651.043C80.6077 648.762 73.0337 639.953 71.493 629.203C70.9638 625.475 71.1402 621.641 70.8109 617.878C70.4816 614.138 69.9288 610.433 69.3525 605.67Z" fill="#2898FF"/>
<path d="M114.914 645.14C118.066 636.884 119.607 628.592 118.289 619.819C116.761 627.651 116.666 635.896 111.08 642.423C116.714 632.697 112.48 622.171 113.785 612.151C114.385 607.576 117.09 603.236 119.066 598.896C119.324 598.32 121.065 598.014 121.924 598.261C122.465 598.414 122.947 599.837 122.947 600.684C122.888 610.151 123.029 619.63 122.476 629.063C122.123 635.225 120.583 641.235 114.914 645.14Z" fill="#2898FF"/>
<path d="M113.938 569C118.419 573.175 119.019 577.985 117.278 584.395C116.749 582.137 116.419 580.784 116.067 579.267C112.785 584.477 109.645 589.452 105.893 595.415C100.719 583.019 108.481 576.597 113.938 569Z" fill="#2898FF"/>
<path d="M108.998 600.378C108.445 594.944 112.573 589.629 119.171 588.652C123.335 588.041 127.863 589.217 132.108 590.134C133.39 590.405 134.284 592.486 135.354 593.745C133.931 594.521 132.59 595.638 131.073 595.979C129.427 596.356 127.604 596.121 125.887 595.944C116.407 594.956 116.407 594.933 108.998 600.378Z" fill="#2898FF"/>
<path d="M81.278 607.246C76.9853 602.777 72.7749 601.224 67.1885 603.189C65.201 603.882 62.1549 603.012 60.1556 601.871C56.9096 600.025 57.4506 596.497 60.8494 594.909C67.9883 591.569 80.4665 598.649 81.278 607.246Z" fill="#2898FF"/>
<path d="M97.1902 658.359C96.6375 654.995 99.9423 650.503 103.388 649.926C106.669 649.373 110.727 652.408 111.386 655.901C111.985 659.064 108.798 663.451 105.482 664.028C102.2 664.604 97.7077 661.546 97.1902 658.359Z" fill="#7F000F"/>
<path d="M76.2681 574.633C87.9113 581.137 89.1815 587.123 84.2889 595.144C82.9482 592.475 81.6428 589.852 80.3491 587.241C79.8904 587.347 79.4317 587.464 78.9731 587.57C78.6908 589.664 78.4085 591.745 78.1145 593.839C77.597 593.839 77.0678 593.827 76.5503 593.827C76.468 587.535 76.3739 581.243 76.2681 574.633Z" fill="#2898FF"/>
<path d="M227.493 816.216C224.517 804.996 220.483 797.398 212.98 788.448C212.58 788.601 212.168 788.742 211.768 788.895C215.649 798.01 219.531 807.136 223.412 816.251C223.035 816.474 222.647 816.71 222.271 816.933C219.989 814.087 217.696 811.241 215.414 808.383C215.191 808.536 214.967 808.689 214.744 808.842C217.272 813.358 219.801 817.862 222.33 822.378C216.449 821.249 213.368 816.898 210.98 812.652C206.158 804.102 203.665 794.74 204.841 784.744C205.582 778.463 208.064 777.252 212.768 781.251C223.212 790.165 229.198 801.115 227.493 816.216Z" fill="#2898FF"/>
<path d="M215.778 823.531C201.289 814.746 193.703 802.338 194.456 785.061C194.868 775.664 194.221 766.22 194.056 757.023C196.726 757.694 200.148 761.293 200.948 766.656C201.771 772.077 202.3 777.758 201.654 783.156C199.76 799.01 203.324 812.687 215.778 823.531Z" fill="#2898FF"/>
<path d="M180.531 796.27C186.423 796.434 189.681 798.622 192.069 802.244C195.103 806.866 197.937 811.629 201.054 816.204C205.464 822.684 211.38 827.118 219.413 829.365C218.566 829.717 217.754 830.258 216.872 830.388C207.311 831.846 196.961 826.577 191.445 817.216C189.528 813.97 188.246 810.359 186.506 806.995C184.8 803.667 182.872 800.445 180.531 796.27Z" fill="#2898FF"/>
<path d="M237.677 815.475C237.466 806.642 235.737 798.386 231.185 790.777C232.749 798.61 235.795 806.266 233.102 814.416C234.619 803.279 226.704 795.152 224.105 785.391C222.917 780.933 223.776 775.888 223.952 771.125C223.976 770.49 225.469 769.549 226.352 769.455C226.916 769.396 227.892 770.513 228.21 771.301C231.75 780.075 235.49 788.79 238.559 797.728C240.582 803.549 241.429 809.712 237.677 815.475Z" fill="#2898FF"/>
<path d="M207.852 745.416C213.591 747.568 215.967 751.802 216.79 758.388C215.438 756.506 214.626 755.365 213.721 754.107C212.662 760.164 211.651 765.962 210.451 772.901C200.948 763.398 205.688 754.507 207.852 745.416Z" fill="#2898FF"/>
<path d="M215.191 776.311C212.615 771.501 214.414 765.009 220.154 761.598C223.776 759.446 228.41 758.823 232.691 758.046C233.984 757.811 235.596 759.399 237.066 760.152C236.043 761.41 235.231 762.951 233.961 763.845C232.585 764.809 230.809 765.291 229.151 765.785C219.989 768.49 219.977 768.467 215.191 776.311Z" fill="#2898FF"/>
<path d="M192.163 793.188C186.494 790.695 182.013 790.848 177.591 794.788C176.027 796.187 172.863 796.54 170.582 796.246C166.877 795.764 166.03 792.294 168.582 789.542C173.922 783.744 188.141 785.555 192.163 793.188Z" fill="#2898FF"/>
<path d="M226.305 834.433C224.517 831.528 225.87 826.118 228.833 824.272C231.656 822.52 236.56 823.778 238.501 826.753C240.253 829.447 238.983 834.716 236.125 836.515C233.302 838.314 227.998 837.185 226.305 834.433Z" fill="#7F000F"/>
<path d="M175.145 764.927C188.388 766.526 191.834 771.572 190.364 780.863C188.117 778.899 185.906 776.97 183.707 775.053C183.331 775.323 182.942 775.606 182.566 775.876C183.095 777.922 183.625 779.957 184.154 782.004C183.672 782.192 183.189 782.392 182.695 782.58C180.226 776.793 177.744 771.007 175.145 764.927Z" fill="#2898FF"/>
<path d="M338.738 859.143C340.044 847.606 339.032 839.067 335.292 828C334.857 827.989 334.434 827.989 333.998 827.977C334.304 837.879 334.61 847.794 334.916 857.696C334.481 857.767 334.046 857.849 333.599 857.92C332.505 854.439 331.411 850.946 330.306 847.464C330.047 847.523 329.776 847.582 329.518 847.641C330.235 852.769 330.952 857.885 331.682 863.012C326.613 859.825 325.319 854.65 324.637 849.84C323.249 840.126 324.319 830.494 329.047 821.614C332.023 816.028 334.775 815.804 337.703 821.238C344.195 833.304 345.795 845.677 338.738 859.143Z" fill="#2898FF"/>
<path d="M325.166 861.695C314.852 848.253 312.288 833.94 319.262 818.11C323.061 809.501 325.883 800.468 329.071 791.836C331.317 793.424 333.199 798.022 331.999 803.315C330.788 808.666 329.235 814.146 326.671 818.956C319.133 833.046 317.498 847.076 325.166 861.695Z" fill="#2898FF"/>
<path d="M302.221 823.508C307.654 825.801 309.901 829.024 310.794 833.269C311.947 838.679 312.864 844.148 314.099 849.535C315.851 857.179 319.768 863.448 326.436 868.458C325.519 868.481 324.566 868.681 323.696 868.493C314.252 866.388 306.525 857.708 304.785 846.994C304.185 843.278 304.291 839.444 303.891 835.68C303.503 831.952 302.879 828.247 302.221 823.508Z" fill="#2898FF"/>
<path d="M348.488 862.142C351.499 853.839 352.875 845.512 351.405 836.774C350.017 844.642 350.076 852.874 344.607 859.507C350.064 849.675 345.642 839.232 346.759 829.2C347.277 824.613 349.899 820.226 351.793 815.851C352.04 815.275 353.78 814.934 354.639 815.169C355.18 815.31 355.697 816.721 355.709 817.568C355.827 827.036 356.144 836.503 355.756 845.959C355.521 852.086 354.086 858.131 348.488 862.142Z" fill="#2898FF"/>
<path d="M346.124 786.026C350.687 790.119 351.369 794.917 349.734 801.362C349.158 799.116 348.817 797.763 348.429 796.258C345.242 801.527 342.196 806.56 338.55 812.582C333.163 800.28 340.808 793.729 346.124 786.026Z" fill="#2898FF"/>
<path d="M341.761 817.486C341.114 812.064 345.136 806.678 351.722 805.584C355.874 804.89 360.425 805.996 364.683 806.831C365.965 807.078 366.905 809.147 367.999 810.382C366.6 811.182 365.271 812.323 363.765 812.699C362.131 813.099 360.296 812.911 358.579 812.758C349.064 811.935 349.064 811.911 341.761 817.486Z" fill="#2898FF"/>
<path d="M314.158 824.86C309.783 820.474 305.549 819.003 299.998 821.062C298.022 821.791 294.964 820.979 292.941 819.874C289.66 818.086 290.131 814.546 293.506 812.9C300.598 809.43 313.194 816.275 314.158 824.86Z" fill="#2898FF"/>
<path d="M331.011 875.679C330.4 872.327 333.622 867.775 337.056 867.129C340.326 866.517 344.442 869.469 345.171 872.95C345.83 876.102 342.725 880.548 339.42 881.183C336.127 881.83 331.587 878.854 331.011 875.679Z" fill="#7F000F"/>
<path d="M308.572 792.341C320.333 798.633 321.709 804.596 316.969 812.711C315.581 810.065 314.229 807.466 312.876 804.878C312.418 804.996 311.971 805.114 311.512 805.231C311.265 807.325 311.018 809.418 310.771 811.511C310.254 811.511 309.724 811.523 309.207 811.523C308.995 805.243 308.795 798.951 308.572 792.341Z" fill="#2898FF"/>
<path d="M306.96 735.419C304.914 723.999 301.527 716.096 294.788 706.546C294.376 706.664 293.953 706.781 293.541 706.899C296.658 716.307 299.774 725.716 302.891 735.125C302.491 735.325 302.091 735.513 301.691 735.713C299.645 732.69 297.599 729.656 295.564 726.633C295.329 726.763 295.094 726.904 294.858 727.033C297.011 731.738 299.163 736.442 301.315 741.146C295.552 739.535 292.835 734.948 290.801 730.526C286.708 721.612 284.979 712.074 286.979 702.218C288.237 696.02 290.813 695.02 295.164 699.384C304.831 709.098 309.9 720.506 306.96 735.419Z" fill="#2898FF"/>
<path d="M294.682 741.735C280.969 731.785 274.418 718.801 276.594 701.642C277.782 692.304 277.911 682.837 278.511 673.663C281.122 674.545 284.227 678.414 284.591 683.824C284.956 689.305 285.027 694.997 283.945 700.337C280.746 715.99 283.168 729.903 294.682 741.735Z" fill="#2898FF"/>
<path d="M261.811 711.674C267.667 712.332 270.737 714.767 272.807 718.577C275.453 723.435 277.888 728.409 280.604 733.231C284.462 740.053 290.001 744.957 297.822 747.85C296.952 748.132 296.093 748.603 295.211 748.662C285.556 749.332 275.677 743.216 270.96 733.443C269.326 730.044 268.338 726.34 266.879 722.847C265.445 719.389 263.798 716.025 261.811 711.674Z" fill="#2898FF"/>
<path d="M317.169 735.513C317.686 726.693 316.64 718.319 312.723 710.357C313.641 718.284 316.04 726.175 312.688 734.078C315.122 723.094 307.901 714.356 306.114 704.406C305.302 699.854 306.56 694.915 307.137 690.175C307.207 689.552 308.772 688.729 309.677 688.705C310.242 688.693 311.135 689.893 311.382 690.705C314.181 699.737 317.192 708.734 319.521 717.896C321.05 723.87 321.391 730.08 317.169 735.513Z" fill="#2898FF"/>
<path d="M293.212 663.231C298.751 665.854 300.774 670.264 301.045 676.897C299.857 674.909 299.139 673.71 298.34 672.369C296.787 678.32 295.305 684.024 293.529 690.834C284.862 680.59 290.307 672.122 293.212 663.231Z" fill="#2898FF"/>
<path d="M297.987 694.632C295.811 689.622 298.14 683.307 304.138 680.378C307.925 678.532 312.594 678.285 316.922 677.873C318.227 677.744 319.709 679.461 321.109 680.331C319.991 681.495 319.051 682.966 317.71 683.754C316.251 684.6 314.452 684.941 312.759 685.294C303.409 687.223 303.409 687.211 297.987 694.632Z" fill="#2898FF"/>
<path d="M273.642 709.557C268.197 706.605 263.716 706.393 258.988 709.957C257.306 711.227 254.142 711.309 251.884 710.827C248.227 710.051 247.674 706.523 250.438 703.982C256.236 698.643 270.267 701.607 273.642 709.557Z" fill="#2898FF"/>
<path d="M304.279 753.472C302.738 750.437 304.526 745.157 307.631 743.557C310.594 742.04 315.381 743.698 317.063 746.827C318.592 749.661 316.886 754.801 313.899 756.365C310.935 757.917 305.737 756.353 304.279 753.472Z" fill="#7F000F"/>
<path d="M259.011 679.99C272.078 682.672 275.1 687.988 272.865 697.114C270.784 694.974 268.749 692.868 266.715 690.775C266.315 691.022 265.915 691.257 265.503 691.504C265.868 693.586 266.221 695.656 266.585 697.737C266.091 697.89 265.586 698.043 265.092 698.196C263.104 692.233 261.105 686.259 259.011 679.99Z" fill="#2898FF"/>
<path d="M289.836 1092.16C295.175 1081.86 297.292 1073.52 297.762 1061.84C297.362 1061.68 296.963 1061.53 296.563 1061.36C293.305 1070.72 290.047 1080.09 286.789 1089.45C286.354 1089.36 285.919 1089.27 285.484 1089.19C285.707 1085.54 285.931 1081.9 286.154 1078.25C285.884 1078.22 285.613 1078.18 285.355 1078.13C284.19 1083.18 283.038 1088.21 281.873 1093.26C278.286 1088.47 278.921 1083.18 280.003 1078.43C282.179 1068.87 286.625 1060.25 294.211 1053.65C298.985 1049.5 301.632 1050.27 302.42 1056.39C304.172 1069.99 301.244 1082.12 289.836 1092.16Z" fill="#2898FF"/>
<path d="M276.252 1089.71C271.43 1073.46 274.146 1059.17 286.319 1046.9C292.94 1040.22 298.809 1032.78 304.866 1025.87C306.395 1028.15 306.5 1033.11 303.501 1037.63C300.455 1042.19 297.045 1046.76 292.928 1050.33C280.862 1060.79 274.311 1073.31 276.252 1089.71Z" fill="#2898FF"/>
<path d="M268.466 1045.83C272.712 1049.91 273.665 1053.72 272.982 1058.01C272.112 1063.48 271.03 1068.9 270.254 1074.38C269.16 1082.14 270.571 1089.4 275.005 1096.47C274.147 1096.16 273.182 1096.01 272.441 1095.52C264.385 1090.16 260.257 1079.3 262.48 1068.68C263.244 1064.98 264.726 1061.44 265.691 1057.8C266.655 1054.18 267.396 1050.5 268.466 1045.83Z" fill="#2898FF"/>
<path d="M297.868 1098.46C303.643 1091.78 307.912 1084.5 309.664 1075.8C305.56 1082.65 302.666 1090.36 295.187 1094.6C303.795 1087.37 303.396 1076.04 308.041 1067.07C310.158 1062.96 314.18 1059.81 317.52 1056.41C317.967 1055.96 319.696 1056.27 320.425 1056.79C320.884 1057.12 320.86 1058.61 320.566 1059.41C317.285 1068.29 314.192 1077.25 310.464 1085.93C308.029 1091.59 304.525 1096.72 297.868 1098.46Z" fill="#2898FF"/>
<path d="M322.884 1026.54C325.683 1031.98 324.601 1036.72 320.778 1042.16C321.049 1039.85 321.202 1038.46 321.39 1036.92C316.533 1040.7 311.887 1044.32 306.324 1048.64C305.677 1035.22 315.168 1031.82 322.884 1026.54Z" fill="#2898FF"/>
<path d="M307.547 1054.35C308.876 1049.06 314.569 1045.46 321.108 1046.79C325.236 1047.63 329.081 1050.28 332.774 1052.59C333.88 1053.28 334.021 1055.54 334.597 1057.08C332.998 1057.33 331.351 1057.92 329.811 1057.73C328.141 1057.52 326.506 1056.68 324.942 1055.93C316.356 1051.78 316.368 1051.77 307.547 1054.35Z" fill="#2898FF"/>
<path d="M279.145 1051.37C276.628 1045.71 273.194 1042.82 267.278 1042.76C265.173 1042.73 262.609 1040.87 261.116 1039.12C258.693 1036.28 260.398 1033.15 264.138 1032.81C271.994 1032.11 281.309 1043 279.145 1051.37Z" fill="#2898FF"/>
<path d="M276.699 1104.85C277.322 1101.5 281.956 1098.41 285.402 1099.03C288.671 1099.63 291.459 1103.87 290.894 1107.37C290.377 1110.55 285.896 1113.59 282.579 1113C279.286 1112.43 276.111 1108.02 276.699 1104.85Z" fill="#7F000F"/>
<path d="M285.555 1019C294.293 1029.08 293.434 1035.14 286.107 1041.02C285.766 1038.04 285.425 1035.15 285.084 1032.24C284.614 1032.2 284.155 1032.14 283.685 1032.09C282.709 1033.96 281.721 1035.83 280.745 1037.69C280.251 1037.5 279.768 1037.32 279.274 1037.14C281.333 1031.2 283.391 1025.26 285.555 1019Z" fill="#2898FF"/>
<path d="M259.753 941.939C265.092 931.637 267.209 923.298 267.679 911.62C267.279 911.455 266.88 911.302 266.48 911.137C263.222 920.499 259.964 929.861 256.706 939.222C256.271 939.14 255.836 939.046 255.401 938.963C255.624 935.318 255.848 931.672 256.071 928.026C255.801 927.991 255.53 927.955 255.272 927.908C254.107 932.954 252.955 937.987 251.79 943.033C248.203 938.246 248.838 932.954 249.92 928.202C252.096 918.641 256.542 910.02 264.128 903.422C268.902 899.271 271.549 900.047 272.337 906.163C274.089 919.758 271.161 931.895 259.753 941.939Z" fill="#2898FF"/>
<path d="M246.157 939.469C241.335 923.227 244.052 908.938 256.224 896.66C262.845 889.98 268.714 882.547 274.771 875.631C276.3 877.913 276.406 882.876 273.407 887.392C270.361 891.955 266.95 896.519 262.834 900.094C250.779 910.561 244.228 923.075 246.157 939.469Z" fill="#2898FF"/>
<path d="M238.383 895.602C242.629 899.683 243.581 903.493 242.899 907.786C242.029 913.255 240.947 918.676 240.171 924.157C239.077 931.919 240.488 939.175 244.922 946.244C244.064 945.938 243.099 945.785 242.358 945.291C234.302 939.94 230.174 929.073 232.397 918.453C233.161 914.76 234.643 911.22 235.608 907.574C236.572 903.94 237.313 900.271 238.383 895.602Z" fill="#2898FF"/>
<path d="M267.785 948.219C273.56 941.539 277.829 934.259 279.581 925.568C275.477 932.413 272.583 940.128 265.104 944.362C273.712 937.129 273.313 925.803 277.958 916.829C280.075 912.725 284.097 909.573 287.437 906.174C287.884 905.727 289.613 906.033 290.342 906.55C290.801 906.88 290.777 908.373 290.483 909.173C287.202 918.053 284.109 927.014 280.381 935.694C277.946 941.351 274.442 946.49 267.785 948.219Z" fill="#2898FF"/>
<path d="M292.8 876.302C295.599 881.747 294.517 886.487 290.695 891.92C290.965 889.615 291.118 888.227 291.306 886.687C286.449 890.462 281.804 894.084 276.241 898.4C275.594 884.981 285.073 881.582 292.8 876.302Z" fill="#2898FF"/>
<path d="M277.464 904.116C278.793 898.824 284.486 895.225 291.025 896.554C295.153 897.389 298.998 900.047 302.691 902.352C303.797 903.046 303.938 905.304 304.514 906.845C302.915 907.092 301.268 907.68 299.728 907.492C298.058 907.28 296.423 906.445 294.859 905.692C286.273 901.553 286.285 901.529 277.464 904.116Z" fill="#2898FF"/>
<path d="M249.062 901.129C246.545 895.472 243.111 892.579 237.195 892.52C235.09 892.497 232.526 890.638 231.033 888.886C228.61 886.04 230.315 882.912 234.055 882.571C241.911 881.877 251.226 892.779 249.062 901.129Z" fill="#2898FF"/>
<path d="M246.616 954.617C247.239 951.265 251.873 948.172 255.319 948.795C258.588 949.395 261.376 953.629 260.811 957.134C260.294 960.309 255.813 963.355 252.496 962.767C249.203 962.203 246.028 957.792 246.616 954.617Z" fill="#7F000F"/>
<path d="M255.46 868.775C264.198 878.854 263.34 884.911 256.013 890.791C255.672 887.816 255.331 884.923 254.99 882.018C254.519 881.971 254.06 881.912 253.59 881.865C252.614 883.735 251.626 885.605 250.65 887.463C250.156 887.275 249.674 887.098 249.18 886.91C251.25 880.971 253.308 875.02 255.46 868.775Z" fill="#2898FF"/>
<path d="M355.871 322.949C356.643 323.653 357.207 324.161 357.771 324.679C358.971 321.498 358.225 318.132 355.889 315.645C354.007 313.636 352.189 313.625 350.88 316.578C349.698 319.23 348.644 322.493 348.516 325.58C348.189 333.608 349.898 340.912 353.698 346.827C356.271 350.836 359.489 352.255 363.461 350.836C363.461 352.421 363.461 353.757 363.461 355.094C363.461 399.38 363.461 443.656 363.461 487.942C363.461 494.789 363.47 501.626 363.452 508.474C363.443 511.385 363.634 514.202 362.27 516.896C361.125 519.165 361.952 522.966 363.561 524.448C365.289 526.043 367.079 526.064 368.67 523.992C370.197 522.003 370.361 518.895 369.452 516.202C368.898 514.565 368.425 512.659 368.425 510.867C368.37 457.123 368.37 403.378 368.434 349.634C368.434 347.801 369.043 345.739 369.752 344.165C372.843 337.307 373.552 329.579 373.625 321.643C373.725 309.989 371.888 298.822 369.588 287.758C368.898 284.454 368.452 280.89 368.425 277.44C368.316 258.379 368.379 239.318 368.379 220.267C368.379 211.762 368.907 203.35 371.261 195.508C372.016 192.991 373.325 190.795 374.552 188.682C374.934 188.019 375.906 188.102 376.188 187.998C376.188 190.712 375.843 193.033 376.27 194.97C376.934 197.943 379.197 198.078 380.424 195.519C381.87 192.515 381.47 187.148 379.579 184.082C377.825 181.233 374.57 180.353 372.416 182.394C368.288 186.309 365.652 192.235 363.043 198.171C362.089 200.346 361.28 202.656 360.825 203.827C361.752 206.779 362.452 208.758 362.989 210.83C363.261 211.866 363.334 213.067 363.334 214.197C363.352 230.399 363.352 246.601 363.352 263.766C362.652 261.715 362.152 260.43 361.752 259.084C357.298 243.949 352.698 228.897 348.471 213.617C345.316 202.232 347.135 195.084 354.162 188.298C360.88 181.813 368.498 178.53 375.97 174.707C381.633 171.817 387.297 169.061 392.224 163.685C402.696 152.258 404.26 137.351 395.951 122.496C392.642 116.591 388.461 111.774 384.761 106.335C384.188 105.496 383.633 103.839 383.797 102.813C388.515 73.4653 381.206 50.1569 366.961 30.8057C357.589 18.0741 345.971 11.6616 333.662 7.99445C318.872 3.58138 304.045 3.09449 289.291 8.33631C286.409 9.36188 283.509 10.9261 280.946 13.0809C271.764 20.7778 271.091 34.0896 279.1 44.3349C284.627 51.4104 291.018 56.3725 297.445 61.2517C307.754 69.073 317.735 77.5469 325.299 91.014C325.79 91.8842 326.262 92.7647 326.617 93.4174C321.126 98.2137 315.69 102.948 309.799 108.097C306.627 103.518 302.918 98.597 299.536 93.2102C287.273 73.6932 275.191 53.9173 262.892 34.4625C255.019 22.0106 246.374 10.8225 235.711 3.84036C232.747 1.90317 229.447 0.701491 226.229 0.11101C222.657 -0.531268 219.484 1.61311 217.711 6.5545C215.83 11.7963 216.339 17.1728 218.802 21.6377C220.975 25.5846 223.684 28.8685 226.084 32.546C228.593 36.3893 231.084 40.2844 233.456 44.3039C234.356 45.8163 235.074 47.6706 235.584 49.5457C235.893 50.6645 235.965 52.5395 235.529 53.2957C235.093 54.052 233.72 54.3938 233.056 53.938C230.493 52.1873 227.902 50.3744 225.602 47.9814C222.593 44.8529 219.875 41.1028 216.975 37.7153C215.775 36.3168 214.484 35.0219 213.13 33.9653C209.293 30.9507 205.139 32.7739 203.085 38.4716C202.466 40.1809 201.894 40.9889 200.512 40.9785C190.676 40.9267 180.84 41.0614 171.004 40.9682C169.813 40.9578 168.577 40.0773 167.458 39.2796C165.613 37.9536 163.895 37.8707 162.331 39.9426C160.84 41.9109 160.568 45.2155 161.686 47.7431C162.777 50.219 164.649 51.6901 166.222 50.1569C169.213 47.2148 172.404 48.0229 175.531 47.9711C183.985 47.8157 192.43 47.9814 200.885 48.0332C201.185 48.0332 201.485 48.1368 201.866 48.199C202.566 53.6687 204.539 57.4291 208.412 58.2268C210.802 58.724 213.166 58.6412 215.075 54.6217C213.966 54.4249 213.211 54.2074 212.448 54.1659C210.112 54.0209 208.703 51.7729 208.884 48.4372C209.075 44.9669 210.757 42.7085 213.021 44.0138C216.348 45.9303 219.557 48.489 222.593 51.2964C228.275 56.5071 233.738 62.2358 239.402 67.4984C241.129 69.1041 243.156 70.2021 245.147 70.8755C248.91 72.1601 251.956 68.6586 251.574 62.961C251.319 59.1798 250.192 55.3158 248.892 51.9698C247.374 48.0539 245.138 44.77 243.401 41.02C242.383 38.8134 241.083 35.9025 242.611 33.5405C244.183 31.1164 246.401 32.6082 247.91 34.2242C253.637 40.3362 259.683 46.0235 264.764 53.1922C274.673 67.1565 284.027 81.9911 293.582 96.4941C297.554 102.523 301.472 108.635 305.499 114.84C303.818 118.269 302.018 121.512 300.527 125.034C297.382 132.472 295.391 140.521 296.8 149.399C298.654 161.084 304.609 166.378 311.836 169.113C320.617 172.428 329.262 170.75 337.68 166.409C353.643 158.184 366.898 144.333 376.861 123.915C378.424 120.714 379.688 117.182 381.088 113.794C385.724 119.191 386.415 125.904 383.061 133.342C379.915 140.314 375.57 145.483 370.861 149.803C363.807 156.267 356.571 162.296 349.353 168.346C341.017 175.328 337.989 184.724 340.78 198.378C342.889 208.706 345.816 218.662 348.498 228.72C354.689 251.987 360.425 275.462 362.216 300.531C362.689 307.172 362.607 313.947 362.398 320.639C362.325 323.073 361.325 325.611 360.389 327.755C359.48 329.827 357.861 331.35 356.252 329.579C354.816 327.983 354.816 325.487 355.871 322.949ZM350.325 97.1364C351.18 97.2607 352.189 97.2503 353.134 97.5922C357.525 99.1875 361.925 100.752 366.27 102.575C369.452 103.901 369.625 104.222 368.198 108.583C361.407 129.375 350.925 144.396 336.08 151.958C328.281 155.925 320.154 156.951 311.99 154.755C308.236 153.75 305.345 150.756 304.254 144.841C302.845 137.134 305.427 125.511 309.772 120.476C310.481 121.315 311.19 122.164 311.917 123.014C317.308 129.312 322.908 135.145 329.635 137.88C341.853 142.842 353.553 129.872 352.671 112.137C352.434 107.226 351.189 102.44 350.325 97.1364ZM370.416 95.2924C362.843 91.4802 355.471 89.5016 347.889 89.1286C347.18 89.0975 346.307 88.331 345.844 87.4919C343.935 84.0733 342.135 80.52 340.344 76.9564C337.017 70.3575 333.844 63.624 332.69 55.3469C331.108 44.0345 335.635 36.9902 343.335 38.772C350.707 40.4709 356.398 46.4068 360.989 54.8186C364.243 60.7855 366.498 67.488 366.552 75.3714C366.589 80.1367 365.634 81.2037 362.589 80.3439C362.252 83.576 362.916 86.2177 364.698 88.1238C366.688 90.2578 368.661 89.9056 370.716 87.1293C370.597 90.1024 370.516 92.454 370.416 95.2924ZM330.944 64.3802C327.544 58.6826 324.19 53.7826 321.454 48.199C319.799 44.8218 318.717 40.5331 318.072 36.4101C316.999 29.5625 319.026 25.0044 323.526 22.7047C327.69 20.5707 331.971 20.2806 336.253 21.5755C345.535 24.3932 352.816 32.1213 358.807 42.6567C361.089 46.6554 362.961 51.1617 365.379 56.186C361.461 50.4262 358.298 44.9772 354.589 40.5227C349.753 34.7111 344.262 30.5156 337.689 31.4479C330.944 32.401 327.226 39.062 328.208 48.9655C328.699 53.8448 329.89 58.5686 330.944 64.3802ZM324.872 16.3441C322.054 17.1314 318.99 17.5872 316.108 18.8821C311.099 21.1404 309.181 26.7241 310.854 34.0689C311.599 37.3631 312.817 40.4709 314.063 43.444C315.281 46.3343 316.799 48.9345 318.19 51.6693C318.063 51.8869 317.935 52.1044 317.808 52.322C310.799 45.4434 303.772 38.6062 296.8 31.6551C295.936 30.7953 295.254 29.4279 294.627 28.1537C292.891 24.6212 293.254 21.3373 295.818 19.2654C297.409 17.9808 299.182 16.9863 300.954 16.4477C308.645 14.1375 316.39 15.0284 324.126 15.9608C324.481 16.0022 324.808 16.313 324.872 16.3441ZM330.062 99.9852C331.099 103.259 332.38 106.19 332.953 109.412C333.626 113.162 334.099 117.202 333.88 121.015C333.617 125.562 331.09 127.593 328.172 126.215C322.826 123.698 318.581 118.539 314.163 113.287C318.854 107.123 324.008 103.072 330.062 99.9852ZM227.784 12.4697C225.057 18.043 225.638 23.5231 226.647 29.2414C224.729 26.289 222.902 23.3573 221.584 19.9802C220.957 18.3745 220.702 15.3081 221.329 14.0443C222.048 12.594 223.893 12.2314 225.311 11.7652C225.975 11.5373 226.766 12.1485 227.784 12.4697Z" fill="#2898FF"/>
<path d="M64.3994 916.651C63.6267 915.947 63.063 915.439 62.4994 914.921C61.2995 918.102 62.0449 921.468 64.3812 923.955C66.2629 925.964 68.0811 925.975 69.3901 923.022C70.5719 920.37 71.6264 917.107 71.7537 914.02C72.0809 905.992 70.3719 898.688 66.572 892.773C63.9994 888.764 60.7813 887.345 56.8087 888.764C56.8087 887.179 56.8087 885.843 56.8087 884.506C56.8087 840.22 56.8087 795.945 56.8087 751.659C56.8087 744.811 56.7996 737.974 56.8178 731.126C56.8269 728.215 56.636 725.398 57.9996 722.704C59.145 720.435 58.3177 716.634 56.7087 715.152C54.9815 713.557 53.1906 713.536 51.5998 715.608C50.0725 717.597 49.9089 720.705 50.818 723.398C51.3725 725.035 51.8452 726.941 51.8452 728.733C51.8998 782.477 51.8998 836.222 51.8361 889.966C51.8361 891.799 51.2271 893.861 50.518 895.435C47.4272 902.293 46.7181 910.021 46.6454 917.957C46.5454 929.611 48.3817 940.778 50.6816 951.842C51.3725 955.147 51.8179 958.71 51.8452 962.16C51.9543 981.221 51.8907 1000.28 51.8907 1019.33C51.8907 1027.84 51.3634 1036.25 49.009 1044.09C48.2544 1046.61 46.9454 1048.81 45.7181 1050.92C45.3363 1051.58 44.3636 1051.5 44.0818 1051.6C44.0818 1048.89 44.4273 1046.57 44 1044.63C43.3364 1041.66 41.0728 1041.52 39.8456 1044.08C38.4002 1047.09 38.8002 1052.45 40.691 1055.52C42.4455 1058.37 45.7 1059.25 47.8544 1057.21C51.9816 1053.29 54.6179 1047.37 57.2269 1041.43C58.1814 1039.25 58.9904 1036.94 59.445 1035.77C58.5177 1032.82 57.8177 1030.84 57.2814 1028.77C57.0087 1027.73 56.936 1026.53 56.936 1025.4C56.9178 1009.2 56.9178 992.999 56.9178 975.834C57.6178 977.885 58.1177 979.17 58.5177 980.517C62.9721 995.652 67.572 1010.7 71.7991 1025.98C74.9536 1037.37 73.1355 1044.52 66.1084 1051.3C59.3904 1057.79 51.7725 1061.07 44.3 1064.89C38.6366 1067.78 32.9731 1070.54 28.046 1075.92C17.5736 1087.34 16.0099 1102.25 24.3188 1117.1C27.6278 1123.01 31.8095 1127.83 35.5094 1133.26C36.0821 1134.1 36.6366 1135.76 36.473 1136.79C31.7549 1166.13 39.0638 1189.44 53.3088 1208.79C62.6812 1221.53 74.2991 1227.94 86.6078 1231.61C101.398 1236.02 116.225 1236.51 130.979 1231.26C133.861 1230.24 136.761 1228.67 139.324 1226.52C148.506 1218.82 149.179 1205.51 141.17 1195.27C135.643 1188.19 129.252 1183.23 122.825 1178.35C112.516 1170.53 102.535 1162.05 94.9711 1148.59C94.4803 1147.72 94.0075 1146.84 93.653 1146.18C99.1437 1141.39 104.58 1136.65 110.471 1131.5C113.643 1136.08 117.352 1141 120.734 1146.39C132.997 1165.91 145.079 1185.68 157.378 1205.14C165.251 1217.59 173.896 1228.78 184.559 1235.76C187.523 1237.7 190.823 1238.9 194.041 1239.49C197.613 1240.13 200.786 1237.99 202.559 1233.05C204.44 1227.8 203.931 1222.43 201.468 1217.96C199.295 1214.02 196.586 1210.73 194.186 1207.05C191.677 1203.21 189.186 1199.32 186.814 1195.3C185.914 1193.78 185.196 1191.93 184.687 1190.05C184.377 1188.94 184.305 1187.06 184.741 1186.3C185.177 1185.55 186.55 1185.21 187.214 1185.66C189.777 1187.41 192.368 1189.23 194.668 1191.62C197.677 1194.75 200.395 1198.5 203.295 1201.88C204.495 1203.28 205.786 1204.58 207.14 1205.63C210.977 1208.65 215.131 1206.83 217.185 1201.13C217.804 1199.42 218.376 1198.61 219.758 1198.62C229.594 1198.67 239.43 1198.54 249.266 1198.63C250.457 1198.64 251.693 1199.52 252.812 1200.32C254.657 1201.65 256.375 1201.73 257.939 1199.66C259.43 1197.69 259.702 1194.38 258.584 1191.86C257.493 1189.38 255.621 1187.91 254.048 1189.44C251.057 1192.39 247.866 1191.58 244.739 1191.63C236.285 1191.78 227.84 1191.62 219.385 1191.57C219.085 1191.57 218.785 1191.46 218.404 1191.4C217.704 1185.93 215.731 1182.17 211.858 1181.37C209.468 1180.88 207.104 1180.96 205.195 1184.98C206.304 1185.18 207.059 1185.39 207.822 1185.43C210.158 1185.58 211.567 1187.83 211.386 1191.16C211.195 1194.63 209.513 1196.89 207.249 1195.59C203.922 1193.67 200.713 1191.11 197.677 1188.3C191.995 1183.09 186.532 1177.36 180.868 1172.1C179.141 1170.5 177.114 1169.4 175.123 1168.72C171.36 1167.44 168.314 1170.94 168.696 1176.64C168.951 1180.42 170.078 1184.28 171.378 1187.63C172.896 1191.55 175.132 1194.83 176.869 1198.58C177.887 1200.79 179.187 1203.7 177.659 1206.06C176.087 1208.48 173.869 1206.99 172.36 1205.38C166.633 1199.26 160.587 1193.58 155.506 1186.41C145.597 1172.44 136.243 1157.61 126.688 1143.11C122.716 1137.08 118.798 1130.96 114.771 1124.76C116.452 1121.33 118.252 1118.09 119.743 1114.57C122.888 1107.13 124.879 1099.08 123.47 1090.2C121.616 1078.52 115.661 1073.22 108.434 1070.49C99.6528 1067.17 91.0076 1068.85 82.5897 1073.19C66.6266 1081.42 53.3724 1095.27 43.4091 1115.68C41.8455 1118.89 40.5819 1122.42 39.182 1125.81C34.5458 1120.41 33.8549 1113.7 37.2093 1106.26C40.3547 1099.29 44.7 1094.12 49.4089 1089.8C56.4632 1083.33 63.6994 1077.3 70.9173 1071.25C79.2534 1064.27 82.2806 1054.88 79.4898 1041.22C77.3808 1030.89 74.4536 1020.94 71.7719 1010.88C65.5811 987.613 59.845 964.138 58.0541 939.069C57.5814 932.429 57.6632 925.654 57.8723 918.961C57.945 916.527 58.945 913.989 59.8813 911.845C60.7904 909.773 62.4085 908.25 64.0176 910.021C65.4539 911.617 65.4539 914.113 64.3994 916.651ZM69.9447 1142.46C69.0901 1142.34 68.0811 1142.35 67.1356 1142.01C62.7449 1140.41 58.345 1138.85 53.9997 1137.03C50.818 1135.7 50.6452 1135.38 52.0725 1131.02C58.8632 1110.23 69.3447 1095.2 84.1897 1087.64C91.9894 1083.67 100.116 1082.65 108.28 1084.85C112.034 1085.85 114.925 1088.84 116.016 1094.76C117.425 1102.47 114.843 1114.09 110.498 1119.12C109.789 1118.29 109.08 1117.44 108.353 1116.59C102.962 1110.29 97.362 1104.46 90.6349 1101.72C78.4171 1096.76 66.7175 1109.73 67.5993 1127.46C67.8356 1132.37 69.0811 1137.16 69.9447 1142.46ZM49.8544 1144.31C57.4269 1148.12 64.7994 1150.1 72.3809 1150.47C73.09 1150.5 73.9627 1151.27 74.4263 1152.11C76.3354 1155.53 78.1353 1159.08 79.9262 1162.64C83.2533 1169.24 86.4259 1175.98 87.5805 1184.25C89.1622 1195.57 84.6351 1202.61 76.9353 1200.83C69.5628 1199.13 63.8721 1193.19 59.2813 1184.78C56.0269 1178.81 53.7724 1172.11 53.7179 1164.23C53.6815 1159.46 54.636 1158.4 57.6814 1159.26C58.0177 1156.02 57.3541 1153.38 55.5724 1151.48C53.5815 1149.34 51.6089 1149.69 49.5544 1152.47C49.6726 1149.5 49.7544 1147.15 49.8544 1144.31ZM89.3259 1175.22C92.7257 1180.92 96.0802 1185.82 98.8165 1191.4C100.471 1194.78 101.553 1199.07 102.198 1203.19C103.271 1210.04 101.244 1214.6 96.7438 1216.9C92.5803 1219.03 88.2986 1219.32 84.0169 1218.02C74.7354 1215.21 67.4538 1207.48 61.4631 1196.94C59.1814 1192.94 57.3087 1188.44 54.8906 1183.41C58.8086 1189.17 61.9722 1194.62 65.6812 1199.08C70.5174 1204.89 76.0081 1209.08 82.5806 1208.15C89.3259 1207.2 93.0439 1200.54 92.0621 1190.63C91.5713 1185.76 90.3804 1181.03 89.3259 1175.22ZM95.3984 1223.26C98.2165 1222.47 101.28 1222.01 104.162 1220.72C109.171 1218.46 111.089 1212.88 109.416 1205.53C108.671 1202.24 107.453 1199.13 106.207 1196.16C104.989 1193.27 103.471 1190.67 102.08 1187.93C102.207 1187.71 102.335 1187.5 102.462 1187.28C109.471 1194.16 116.498 1200.99 123.47 1207.94C124.334 1208.8 125.016 1210.17 125.643 1211.45C127.379 1214.98 127.016 1218.26 124.452 1220.33C122.861 1221.62 121.089 1222.61 119.316 1223.15C111.625 1225.46 103.88 1224.57 96.1438 1223.64C95.7893 1223.6 95.462 1223.29 95.3984 1223.26ZM90.2077 1139.61C89.1713 1136.34 87.8895 1133.41 87.3168 1130.19C86.6441 1126.44 86.1714 1122.4 86.3896 1118.59C86.6532 1114.04 89.1804 1112.01 92.0985 1113.39C97.4438 1115.9 101.689 1121.06 106.107 1126.31C101.416 1132.48 96.262 1136.53 90.2077 1139.61ZM192.486 1227.13C195.213 1221.56 194.632 1216.08 193.623 1210.36C195.541 1213.31 197.368 1216.24 198.686 1219.62C199.313 1221.23 199.568 1224.29 198.941 1225.56C198.222 1227.01 196.377 1227.37 194.959 1227.83C194.295 1228.06 193.504 1227.45 192.486 1227.13Z" fill="#2898FF"/>
</svg>
